<svg width="25" height="25" viewBox="0 0 25 25" fill="none" xmlns="http://www.w3.org/2000/svg">
<g clip-path="url(#clip0_1_23987)">
<path d="M4.48716 11.2581L6.99117 12.6102V18.7901C6.05269 18.3571 5.20344 17.7524 4.48716 17.0073V11.2581Z" fill="#6625A5"/>
<path d="M20.5128 11.2581V17.0073C20.5128 17.0073 17.9487 20.0121 12.5 20.0121C10.9615 20.03 9.43313 19.7617 7.99277 19.2208V13.1511L12.2596 15.4448C12.3336 15.4842 12.4161 15.5049 12.5 15.5049C12.5838 15.5049 12.6664 15.4842 12.7404 15.4448L20.5128 11.2581Z" fill="#6625A5"/>
<path d="M6.99117 18.7901C7.31447 18.9571 7.64917 19.101 7.99277 19.2208L7.99277 23.5177C7.99277 23.6505 7.94001 23.7779 7.84609 23.8718C7.75217 23.9657 7.62479 24.0185 7.49197 24.0185C7.35915 24.0185 7.23177 23.9657 7.13785 23.8718C7.04393 23.7779 6.99117 23.6505 6.99117 23.5177L6.99117 18.7901Z" fill="#6625A5"/>
<path d="M24.9699 7.7224L20.4772 10.1402L12.5 14.4331L7.99277 12.0093V11.2781L12.7604 8.42353C12.8746 8.35446 12.9567 8.24285 12.9887 8.11324C13.0206 7.98363 12.9997 7.84665 12.9307 7.73242C12.8616 7.6182 12.75 7.53609 12.6204 7.50415C12.4908 7.47222 12.3538 7.49308 12.2396 7.56215L7.23155 10.567C7.15772 10.6119 7.09679 10.6752 7.05466 10.7507C7.01254 10.8261 6.99066 10.9112 6.99117 10.9976V11.4984L4.48716 10.1402L0.0300293 7.7224L12.5 1.48242L24.9699 7.7224Z" fill="#6625A5"/>
<path d="M4.48716 11.2581L6.99117 12.6102L6.99117 11.4984L4.48716 10.1402V11.2581Z" fill="#6625A5"/>
<path d="M7.99277 13.1511L12.2596 15.4448C12.3336 15.4842 12.4161 15.5049 12.5 15.5049C12.5838 15.5049 12.6664 15.4842 12.7404 15.4448L20.5128 11.2581L20.4772 10.1402L12.5 14.4331L7.99277 12.0093L7.99277 13.1511Z" fill="#6625A5"/>
</g>
<defs>
<clipPath id="clip0_1_23987">
<rect width="25" height="23.0769" fill="white" transform="translate(0 0.961426)"/>
</clipPath>
</defs>
</svg>
