<svg width="30" height="28" viewBox="0 0 30 28" fill="none" xmlns="http://www.w3.org/2000/svg">
<g clip-path="url(#clip0_1_25606)">
<path d="M5.38477 12.5098L8.38957 14.1324V21.5482C7.26341 21.0286 6.2443 20.303 5.38477 19.4088V12.5098Z" fill="#FED130"/>
<path d="M24.6153 12.5098V19.4088C24.6153 19.4088 21.5384 23.0146 15 23.0146C13.1538 23.0361 11.3197 22.7141 9.59131 22.0651V14.7814L14.7115 17.5338C14.8003 17.5812 14.8993 17.6059 15 17.6059C15.1006 17.6059 15.1996 17.5812 15.2884 17.5338L24.6153 12.5098Z" fill="#FED130"/>
<path d="M8.3894 21.5479C8.77737 21.7482 9.17901 21.9209 9.59133 22.0647V27.2209C9.59133 27.3803 9.52801 27.5332 9.41531 27.6459C9.30261 27.7586 9.14975 27.8219 8.99037 27.8219C8.83098 27.8219 8.67812 27.7586 8.56542 27.6459C8.45272 27.5332 8.3894 27.3803 8.3894 27.2209V21.5479Z" fill="#FED130"/>
<path d="M29.964 8.26679L15.0001 16.3197L9.59142 13.411V12.5336L15.3126 9.10814C15.4496 9.02526 15.5482 8.89132 15.5865 8.73579C15.6248 8.58026 15.5998 8.41588 15.5169 8.27881C15.434 8.14174 15.3001 8.04321 15.1446 8.00489C14.989 7.96657 14.8246 7.9916 14.6876 8.07448L8.67796 11.6803C8.58937 11.7342 8.51624 11.8101 8.46569 11.9007C8.41514 11.9913 8.38889 12.0934 8.3895 12.1971V12.798L0.0361328 8.26679L15.0001 0.778809L29.964 8.26679Z" fill="#FED130"/>
</g>
<defs>
<clipPath id="clip0_1_25606">
<rect width="30" height="27.6923" fill="white" transform="translate(0 0.153809)"/>
</clipPath>
</defs>
</svg>
