<svg width="25" height="25" viewBox="0 0 25 25" fill="none" xmlns="http://www.w3.org/2000/svg">
<path d="M5.53087 7.90581C7.28746 6.27104 9.64415 5.3707 12.1668 5.3707C14.6895 5.3707 17.0462 6.271 18.8028 7.90581C19.2489 8.321 19.6456 8.77432 19.991 9.25898C19.4708 6.81948 17.8353 4.78828 15.6458 3.72637V2.6856C15.6458 1.20474 14.441 0 12.9602 0H11.3735C9.89268 0 8.68795 1.20474 8.68795 2.6856V3.72632C6.49849 4.78823 4.8629 6.81948 4.34268 9.25898C4.68804 8.77432 5.08477 8.321 5.53087 7.90581ZM10.1528 2.6856C10.1528 2.01245 10.7004 1.46484 11.3735 1.46484H12.9602C13.6333 1.46484 14.1809 2.01245 14.1809 2.6856V3.18647C13.5372 3.0189 12.8622 2.92925 12.1667 2.92925C11.4713 2.92925 10.7964 3.01885 10.1528 3.18643V2.6856Z" fill="#6625A5"/>
<path d="M17.2373 14.4535H7.09644C5.47842 14.4535 4.16675 15.7652 4.16675 17.3832V18.1325H20.1669V17.3832C20.1669 15.7652 18.8553 14.4535 17.2373 14.4535Z" fill="#6625A5"/>
<path d="M12.1668 5.3707C9.64415 5.3707 7.28746 6.27104 5.53087 7.90581C5.08477 8.321 4.68804 8.77432 4.34268 9.25898L4.1755 14.103C4.9525 13.4103 5.97608 12.9887 7.09644 12.9887H17.2373C18.3576 12.9887 19.3812 13.4103 20.1582 14.103L19.991 9.25898C19.6456 8.77432 19.2489 8.321 18.8028 7.90581C17.0462 6.271 14.6895 5.3707 12.1668 5.3707Z" fill="#6625A5"/>
<path d="M20.1669 18.1325H4.16675V19.5973V23.291C4.16675 24.2333 4.9334 25 5.87573 25H18.4579C19.4002 25 20.1669 24.2333 20.1669 23.291V19.5973V18.1325Z" fill="#6625A5"/>
</svg>
