<svg width="60" height="60" viewBox="0 0 60 60" fill="none" xmlns="http://www.w3.org/2000/svg">
<g clip-path="url(#clip0_1_24022)">
<path d="M47.0898 33.4752C47.2066 33.3772 47.3173 33.2728 47.4212 33.1622C48.3623 32.1597 48.6533 30.8165 48.241 29.3802C48.0645 28.7655 47.423 28.4103 46.8083 28.5869C46.194 28.7635 45.8385 29.4049 46.0148 30.0196C46.1983 30.6582 46.1034 31.1822 45.7325 31.577C45.2967 32.0405 44.5175 32.2771 43.8802 32.1369C43.2957 32.0084 42.7668 31.5834 42.4999 31.0278C42.3295 30.673 42.1946 30.1114 42.5204 29.4516C43.4905 27.486 45.7848 26.6644 48.441 25.7125C53.2523 23.989 59.2405 21.8438 59.2522 11.539L59.257 7.27129C59.2582 6.41182 58.9238 5.60378 58.3159 4.99597C57.7082 4.38828 56.9 4.05437 56.0406 4.05553C53.7095 4.05866 51.5263 5.20529 50.2009 7.12303L49.4058 8.27345C48.9828 8.88515 48.2864 9.25016 47.5424 9.2492L42.7614 9.24355C42.122 9.24309 41.6028 9.76072 41.6021 10.4003C41.6014 11.0398 42.1191 11.5588 42.7587 11.5597L47.5398 11.5652C49.0453 11.5668 50.4548 10.8282 51.3111 9.59005L52.106 8.43973C52.9997 7.14676 54.4717 6.37358 56.0437 6.37141C56.2835 6.37108 56.5088 6.46422 56.6783 6.63379C56.848 6.80327 56.9413 7.02867 56.941 7.2685L56.9362 11.5362C56.9262 20.2122 52.4252 21.8246 47.66 23.5319C44.7928 24.559 41.828 25.621 40.4434 28.4262C39.8673 29.5933 39.8562 30.8734 40.4123 32.0305C40.9893 33.2312 42.0996 34.1164 43.3829 34.3987C44.6595 34.6796 46.0938 34.311 47.0898 33.4752Z" fill="#FF901D"/>
<path d="M18.712 33.4151C19.1781 33.0242 19.5652 32.5354 19.8369 31.9773C20.3989 30.8228 20.3945 29.5427 19.8245 28.3728C18.4546 25.5607 15.4953 24.4831 12.6335 23.4412C7.87715 21.7095 3.38452 20.0735 3.4196 11.3976L3.4369 7.12979C3.43797 6.89004 3.53236 6.66527 3.70283 6.49657C3.87259 6.32748 4.09915 6.23582 4.33884 6.23754C5.91055 6.24777 7.37862 7.0287 8.26566 8.32639L9.05473 9.48078C9.9044 10.7235 11.3103 11.4693 12.8157 11.4753L17.5967 11.4947C18.2365 11.4976 18.7569 10.981 18.7594 10.3413C18.7621 9.70169 18.2457 9.18115 17.6062 9.17862L12.8252 9.15925C12.0814 9.15635 11.3867 8.78782 10.9668 8.17364L10.1778 7.01926C8.8622 5.09473 6.68521 3.93678 4.35408 3.92142C3.49467 3.91587 2.68445 4.24552 2.0739 4.85011C1.46292 5.45466 1.12454 6.26083 1.12103 7.12031L1.10384 11.3882C1.06209 21.6928 7.03888 23.8688 11.8413 25.6175C14.4927 26.5829 16.7826 27.4168 17.7426 29.3873C18.0649 30.0487 17.927 30.6097 17.7546 30.9635C17.4848 31.5179 16.9537 31.9401 16.3685 32.0656C15.7306 32.2025 14.9529 31.963 14.5192 31.4962C14.1507 31.0994 14.0584 30.5749 14.245 29.9372C14.4246 29.3233 14.0728 28.6801 13.4591 28.5004C12.8453 28.3207 12.202 28.6728 12.0223 29.2864C11.6023 30.7206 11.8866 32.0653 12.8224 33.0727C13.8058 34.1311 15.4261 34.6367 16.8542 34.3303C17.5401 34.1829 18.178 33.8632 18.712 33.4151Z" fill="#FF901D"/>
<path d="M30.2393 47.8687L30.1377 49.8655C30.7774 49.4355 31.2117 48.7313 31.2532 47.9162L31.3456 46.0992C30.716 46.4566 30.2781 47.1058 30.2393 47.8687Z" fill="#E8D06B"/>
<path d="M24.8601 56.7416L36.1616 56.7545L33.5825 30.2066L27.7171 30.1998L24.8601 56.7416Z" fill="#F7BC14"/>
<path d="M46.4052 2.788L46.392 14.3653C46.3826 22.5752 41.9897 30.2916 34.5577 35.1526L30.151 38.0349L25.7508 35.1425C18.3298 30.2644 13.9546 22.5382 13.964 14.3282L13.9773 2.75087L46.4052 2.788Z" fill="#FED130"/>
<path d="M19.4976 59.2251L40.7262 59.2493C41.6478 59.2505 42.3549 58.432 42.22 57.5204L41.4698 52.4489C41.3606 51.7098 40.7266 51.1621 39.9795 51.1613L20.2631 51.1388C19.516 51.138 18.8808 51.6841 18.7698 52.423L18.008 57.4929C17.8709 58.4041 18.576 59.224 19.4976 59.2251Z" fill="#FFB125"/>
<path fill-rule="evenodd" clip-rule="evenodd" d="M25.5 59.2319L19.4976 59.2251C18.576 59.224 17.8709 58.4041 18.008 57.4929L18.7698 52.423C18.8808 51.6841 19.516 51.138 20.2631 51.1388L26.5 51.146L25.5 59.2319Z" fill="#FF901D"/>
<path d="M14.1016 14.7812L14.1151 3.00998L21.1877 3.01811L21.1469 15.3976C21.1374 23.745 25.5859 31.6008 33.1311 36.5606L33.6211 36.8827L30.5597 38.8851L26.0858 35.9443C18.5408 30.9845 14.0922 23.1288 14.1016 14.7812Z" fill="#F7BC14"/>
<path d="M12.7836 4.97733L47.5946 5.01706C48.1015 5.01762 48.5131 4.60703 48.5137 4.10004L48.5166 1.48083C48.5172 0.973828 48.1066 0.562245 47.5996 0.561684L12.7886 0.521952C12.2816 0.521389 11.87 0.931979 11.8695 1.43898L11.8665 4.05819C11.8659 4.56528 12.2764 4.97675 12.7836 4.97733Z" fill="#FFB125"/>
<path d="M11.9686 4.33928L11.9716 1.67619C11.9722 1.1607 12.3907 0.743228 12.9062 0.743799L19.159 0.750903L19.1538 5.28092L12.901 5.27382C12.3853 5.27323 11.968 4.85487 11.9686 4.33928Z" fill="#FF901D"/>
<path d="M30.3202 10.9307L28.2959 15.0205C28.27 15.0729 28.2198 15.1093 28.1619 15.1176L23.6452 15.7686C23.4994 15.7897 23.441 15.9688 23.5464 16.0717L26.8105 19.2608C26.8523 19.3017 26.8714 19.3606 26.8615 19.4181L26.0849 23.9148C26.0598 24.06 26.2122 24.171 26.3427 24.1026L30.3843 21.9837C30.4362 21.9566 30.4981 21.9566 30.5498 21.984L34.5865 24.1121C34.7169 24.1808 34.8696 24.0702 34.8447 23.9249L34.0785 19.4263C34.0686 19.3687 34.0879 19.3098 34.1299 19.269L37.4013 16.0874C37.5069 15.9846 37.4489 15.8053 37.3031 15.7841L32.7879 15.1227C32.7301 15.1142 32.68 15.0778 32.6542 15.0252L30.6393 10.9307C30.5741 10.7988 30.3856 10.7986 30.3202 10.9307Z" fill="white"/>
</g>
<defs>
<clipPath id="clip0_1_24022">
<rect width="60" height="60" fill="white" transform="matrix(-1 0 0 1 60 0)"/>
</clipPath>
</defs>
</svg>
