<svg width="30" height="30" viewBox="0 0 30 30" fill="none" xmlns="http://www.w3.org/2000/svg">
<path d="M6.637 9.48697C8.74491 7.52525 11.5729 6.44484 14.6001 6.44484C17.6274 6.44484 20.4554 7.5252 22.5633 9.48697C23.0986 9.9852 23.5747 10.5292 23.9892 11.1108C23.3649 8.18338 21.4023 5.74594 18.7749 4.47164V3.22271C18.7749 1.44568 17.3292 0 15.5522 0H13.6482C11.8712 0 10.4255 1.44568 10.4255 3.22271V4.47158C7.79815 5.74588 5.83544 8.18338 5.21118 11.1108C5.62562 10.5292 6.10169 9.9852 6.637 9.48697ZM12.1833 3.22271C12.1833 2.41494 12.8404 1.75781 13.6482 1.75781H15.5522C16.3599 1.75781 17.0171 2.41494 17.0171 3.22271V3.82377C16.2446 3.62268 15.4346 3.5151 14.6 3.5151C13.7655 3.5151 12.9557 3.62262 12.1833 3.82371V3.22271Z" fill="#FED130"/>
<path d="M20.6846 15.5864C22.0291 15.5864 23.2574 16.0923 24.1898 16.9236C24.0803 14.5463 23.0875 12.3762 21.3657 10.7737C19.5842 9.11576 17.1815 8.20264 14.6001 8.20264C12.0188 8.20264 9.61608 9.1157 7.83454 10.7737C6.11276 12.3762 5.11995 14.5463 5.0105 16.9236C5.9429 16.0923 7.1712 15.5864 8.51564 15.5864H20.6846Z" fill="#FED130"/>
<path d="M20.6846 17.3442H8.51563C6.574 17.3442 5 18.9182 5 20.8599V21.759H24.2002V20.8599C24.2002 18.9182 22.6262 17.3442 20.6846 17.3442Z" fill="#FED130"/>
<path d="M20.2303 24.5791C20.2303 25.0645 19.8368 25.458 19.3514 25.458C18.866 25.458 18.4725 25.0645 18.4725 24.5791V23.5166H5V27.949C5 29.0798 5.91998 29.9998 7.05078 29.9998H22.1493C23.2801 29.9998 24.2002 29.0798 24.2002 27.949V23.5167H20.2303V24.5791Z" fill="#FED130"/>
</svg>
