<svg width="65" height="66" viewBox="0 0 65 66" fill="none" xmlns="http://www.w3.org/2000/svg">
<g clip-path="url(#clip0_1_24523)">
<path d="M40.747 42.8956C40.8741 42.8956 41.0006 42.8882 41.1262 42.8732C42.264 42.7374 43.1693 42.0358 43.6754 40.8981C43.892 40.4111 43.6728 39.8407 43.1858 39.6242C42.699 39.4079 42.1285 39.6269 41.9118 40.1138C41.6868 40.6197 41.3456 40.9034 40.8973 40.9567C40.3708 41.0192 39.7467 40.7528 39.415 40.322C39.1107 39.9269 39.0007 39.3722 39.1279 38.8746C39.2092 38.5568 39.4239 38.126 39.9853 37.8794C41.6575 37.1442 43.5622 37.8486 45.7677 38.6638C49.7623 40.1408 54.7341 41.979 60.2614 35.4069L62.5505 32.6852C63.0116 32.1371 63.231 31.4422 63.1685 30.7286C63.1061 30.0151 62.769 29.369 62.2198 28.9095C60.73 27.6628 58.7221 27.2253 56.8488 27.7396L55.725 28.0481C55.1273 28.212 54.4872 28.0719 54.0127 27.6728L50.9637 25.1082C50.5558 24.7654 49.9471 24.8177 49.604 25.2256C49.261 25.6335 49.3136 26.2422 49.7213 26.5853L52.7705 29.1499C53.7307 29.9573 55.0261 30.2408 56.236 29.9091L57.3596 29.6006C58.6227 29.2539 59.9765 29.5488 60.9812 30.3895C61.1345 30.5177 61.2284 30.6979 61.2458 30.8969C61.2633 31.096 61.2021 31.2898 61.0735 31.4428L58.7844 34.1646C54.1307 39.6977 50.3937 38.3161 46.4372 36.8535C44.0567 35.9733 41.5952 35.0632 39.2087 36.1122C38.2158 36.5486 37.523 37.3599 37.2582 38.3965C36.9833 39.472 37.2179 40.6319 37.886 41.4995C38.5504 42.3626 39.6634 42.8956 40.747 42.8956Z" fill="#FF901D"/>
<path d="M22.6635 27.6566C23.1704 27.6568 23.6793 27.552 24.1517 27.3413C25.1289 26.9053 25.8118 26.0858 26.0746 25.0337C26.7064 22.5047 25.3945 20.2316 24.1257 18.0336C22.017 14.3803 20.0254 10.9295 24.6951 5.4098L26.9922 2.69464C27.1213 2.54217 27.302 2.44924 27.5012 2.43286C27.7001 2.41585 27.8938 2.47869 28.0459 2.60819C29.0438 3.45662 29.5626 4.74152 29.4338 6.04507L29.3191 7.20467C29.1959 8.45313 29.6939 9.6823 30.6516 10.4925L33.6933 13.0659C34.1002 13.4104 34.7091 13.3594 35.0534 12.9524C35.3977 12.5455 35.3469 11.9366 34.94 11.5924L31.8983 9.01909C31.425 8.6188 31.179 8.01146 31.2399 7.39446L31.3546 6.23487C31.5456 4.30162 30.7762 2.3963 29.2963 1.13781C28.7506 0.67392 28.0568 0.450355 27.3432 0.509262C26.6294 0.567914 25.9815 0.901294 25.5189 1.44808L23.2218 4.16337C17.6755 10.7191 20.3252 15.3098 22.4542 18.9985C23.6297 21.035 24.6448 22.7939 24.2021 24.5661C24.0536 25.161 23.6651 25.4452 23.3655 25.5788C22.8963 25.7881 22.3311 25.7732 21.8903 25.5398C21.4098 25.2855 21.0416 24.716 21.0148 24.1857C20.9921 23.735 21.2142 23.3508 21.6749 23.0437C22.1183 22.748 22.2383 22.1489 21.9427 21.7054C21.6472 21.262 21.048 21.1421 20.6045 21.4376C19.5682 22.1282 19.0294 23.1389 19.0872 24.2832C19.148 25.4856 19.9115 26.6763 20.9873 27.2457C21.5041 27.519 22.0825 27.6566 22.6635 27.6566Z" fill="#FF901D"/>
<path d="M21.1618 58.9798L27.2323 59.416L32.9416 65.2777C33.08 65.4198 33.27 65.5 33.4684 65.5H53.8183C54.5206 65.5 54.8233 64.6097 54.2666 64.1816L35.6318 49.8532L29.6403 39.8664C28.6359 38.1924 26.3138 37.9341 24.9661 39.3463L13.7235 47.9592C12.0242 49.261 11.9189 51.7841 13.5038 53.223L18.2293 57.5127C19.0525 58.2701 20.0709 58.7795 21.1618 58.9798Z" fill="#FED9A8"/>
<path d="M13.7234 47.9593L16.4721 45.8535C16.1765 47.0308 16.5085 48.3414 17.4923 49.2345L22.2177 53.5243C23.0409 54.2816 24.0593 54.7909 25.1504 54.9913L31.2209 55.4275L41.0315 65.5H33.4685C33.2701 65.5 33.0801 65.4199 32.9416 65.2777L27.2323 59.416L21.1617 58.9798C20.0707 58.7794 19.0524 58.2701 18.2291 57.5128L13.5036 53.223C11.9187 51.7842 12.024 49.2611 13.7234 47.9593Z" fill="#F4C28C"/>
<path d="M22.28 43.0581L21.1455 44.2783C21.7842 44.3465 22.4387 44.1297 22.9018 43.6315L23.9341 42.5212C23.3407 42.412 22.7134 42.5919 22.28 43.0581Z" fill="#E8D06B"/>
<path d="M7.6653 53.5013L14.873 59.5632L33.875 33.5739L30.1343 30.4277L7.6653 53.5013Z" fill="#F7BC14"/>
<path d="M56.7476 22.9388L50.5376 30.3223C46.134 35.5583 39.1963 38.1311 31.8481 37.2532L27.4911 36.7327L26.2315 32.5293C24.1071 25.4402 25.4527 18.1644 29.8565 12.9284L36.0664 5.54492L56.7476 22.9388Z" fill="#FED130"/>
<path d="M29.8565 12.9284L36.0664 5.54492L40.5027 9.27609L33.9552 17.0271C29.5515 22.2631 28.2058 29.5389 30.3301 36.628L30.4681 37.0883L27.4911 36.7327L26.2314 32.5293C24.1073 25.4403 25.4528 18.1645 29.8565 12.9284Z" fill="#F7BC14"/>
<path d="M34.1117 6.3267L56.3127 24.9988C56.6361 25.2707 57.1187 25.2291 57.3907 24.9057L58.7955 23.2353C59.0675 22.9119 59.0258 22.4292 58.7025 22.1573L36.5015 3.48522C36.1781 3.21328 35.6954 3.25493 35.4235 3.57828L34.0186 5.24873C33.7466 5.57208 33.7882 6.05463 34.1117 6.3267Z" fill="#FFB125"/>
<path d="M34.0186 5.24873L35.4235 3.57828C35.6955 3.25493 36.1781 3.21328 36.5015 3.48522L40.4236 6.78385L38.0338 9.62533L34.1117 6.32669C33.7882 6.05463 33.7466 5.57208 34.0186 5.24873Z" fill="#FF901D"/>
<path d="M40.9937 20.4427L37.0203 22.1841C36.9694 22.2065 36.9106 22.2023 36.8634 22.173L33.1763 19.887C33.0572 19.8133 32.9052 19.908 32.9191 20.0474L33.3474 24.3644C33.3529 24.4198 33.3308 24.4744 33.2884 24.5102L29.975 27.3104C29.868 27.4008 29.9112 27.5747 30.048 27.6047L34.2861 28.5313C34.3405 28.5432 34.3855 28.5811 34.4065 28.6326L36.0458 32.6492C36.0988 32.7789 36.2775 32.7916 36.3482 32.6706L38.5392 28.9263C38.5673 28.8783 38.6173 28.8472 38.6727 28.8431L42.9993 28.5252C43.1391 28.5149 43.2064 28.3489 43.1132 28.2443L40.2292 25.0035C40.1923 24.962 40.178 24.9049 40.1914 24.8508L41.226 20.6377C41.2592 20.5019 41.1221 20.3865 40.9937 20.4427Z" fill="white"/>
<path d="M2.26896 52.9806L15.8077 64.3673C16.3953 64.8616 17.2852 64.7179 17.6874 64.0637L19.925 60.4244C20.2512 59.8941 20.1398 59.2048 19.6634 58.8042L7.08901 48.2286C6.61256 47.8279 5.91457 47.8363 5.44788 48.2485L2.24586 51.0769C1.67025 51.5851 1.68117 52.4862 2.26896 52.9806Z" fill="#FFB125"/>
<path d="M2.24583 51.0759L5.44785 48.2475C5.91441 47.8354 6.61252 47.8269 7.08898 48.2275L10.7578 51.3133L5.65098 55.8242L2.26893 52.9798C1.68114 52.4854 1.67022 51.5843 2.24583 51.0759Z" fill="#FF901D"/>
<path d="M15.9649 53.0231C15.0479 54.0109 13.5037 54.0681 12.5162 53.1507L9.46198 50.3133C8.47504 49.3964 8.41791 47.8532 9.33451 46.8659C10.2515 45.878 11.7958 45.8209 12.7832 46.7383L15.8375 49.5757C16.8244 50.4925 16.8815 52.0358 15.9649 53.0231Z" fill="#F4C28C"/>
<path d="M15.8374 49.5757L12.7832 46.7383C11.7957 45.8209 10.2515 45.878 9.3345 46.8659C8.80282 47.4387 8.59944 48.1985 8.71458 48.9146C9.64363 48.123 11.0388 48.1348 11.9551 48.9859L15.0093 51.8233C15.4237 52.2082 15.6734 52.7037 15.7568 53.2219C15.8291 53.1603 15.8989 53.0945 15.965 53.0232C16.8815 52.0359 16.8244 50.4927 15.8374 49.5757Z" fill="#FED9A8"/>
<path d="M18.4119 48.6198C17.4811 49.6225 15.9134 49.6805 14.9111 48.7493L11.9108 45.962C10.909 45.0313 10.851 43.4647 11.7815 42.4626C12.7123 41.4599 14.2799 41.4019 15.2822 42.3331L18.2825 45.1203C19.2843 46.051 19.3423 47.6175 18.4119 48.6198Z" fill="#F4C28C"/>
<path d="M18.2825 45.1203L15.2822 42.3331C14.2798 41.4019 12.7123 41.4599 11.7815 42.4626C11.2483 43.037 11.0403 43.7967 11.148 44.516C12.091 43.6953 13.5207 43.7016 14.4573 44.5716L17.4576 47.3589C17.8851 47.7561 18.1402 48.2694 18.2204 48.805C18.2867 48.7474 18.3508 48.6858 18.4119 48.6199C19.3423 47.6176 19.2843 46.0512 18.2825 45.1203Z" fill="#FED9A8"/>
<path d="M21.7986 45.0212C20.8678 46.0239 19.3002 46.0819 18.2979 45.1507L15.2976 42.3634C14.2958 41.4327 14.2378 39.8661 15.1682 38.8639C16.0991 37.8612 17.6667 37.8032 18.669 38.7344L21.6693 41.5217C22.6711 42.4525 22.729 44.019 21.7986 45.0212Z" fill="#F4C28C"/>
<path d="M21.6692 41.5217L18.6689 38.7344C17.6665 37.8032 16.099 37.8612 15.1681 38.8639C15.1039 38.9331 15.0449 39.0052 14.99 39.0794C15.5344 39.1176 16.0698 39.3345 16.5008 39.735L19.5011 42.5222C20.4338 43.3887 20.5479 44.8061 19.8086 45.8063C20.5304 45.8569 21.2679 45.5928 21.7986 45.0212C22.729 44.019 22.6711 42.4525 21.6692 41.5217Z" fill="#FED9A8"/>
<path d="M25.0601 41.2888C24.1293 42.2914 22.5617 42.3494 21.5594 41.4182L18.5591 38.631C17.5573 37.7003 17.4993 36.1337 18.4297 35.1315C19.3605 34.1288 20.9282 34.0708 21.9305 35.002L24.9308 37.7893C25.9325 38.72 25.9904 40.2866 25.0601 41.2888Z" fill="#F4C28C"/>
<path d="M24.9308 37.7893L21.9305 35.002C20.928 34.0708 19.3605 34.1288 18.4297 35.1315C17.897 35.7053 17.6889 36.4641 17.7958 37.1827C18.7388 36.3604 20.1697 36.3663 21.1069 37.2369L24.1072 40.0242C24.5354 40.422 24.7906 40.9361 24.8705 41.4725C24.9361 41.4152 24.9996 41.3541 25.0601 41.2889C25.9904 40.2866 25.9325 38.72 24.9308 37.7893Z" fill="#FED9A8"/>
<path d="M19.3273 43.1846L19.8838 43.7016C20.7591 44.5148 22.11 44.4837 22.9017 43.6323L24.3025 42.1255C24.9882 41.3879 26.1596 41.3649 26.9132 42.0742C26.4914 48.5993 35.6316 49.8543 35.6316 49.8543L31.7467 40.2985C31.5071 39.5856 31.0926 38.9398 30.5416 38.4212L27.7826 35.8245C26.4412 34.5621 24.3563 34.6022 23.1348 35.9142L19.1766 40.1657C18.383 41.0177 18.4506 42.3701 19.3273 43.1846Z" fill="#FED9A8"/>
</g>
<defs>
<clipPath id="clip0_1_24523">
<rect width="65" height="65" fill="white" transform="matrix(-1 0 0 1 65 0.5)"/>
</clipPath>
</defs>
</svg>
