<svg width="30" height="30" viewBox="0 0 30 30" fill="none" xmlns="http://www.w3.org/2000/svg">
<g clip-path="url(#clip0_1_27291)">
<path d="M14.9428 13.376L13.058 16.2549H16.827L14.9428 13.376Z" fill="#6625A5"/>
<path d="M12.2855 18.0195V23.7574V24.3515H14.0591V23.9456V18.0195H12.2855Z" fill="#6625A5"/>
<path d="M15.824 18.0195V24.1333V24.3515H17.5987V24.3222V18.0195H15.824Z" fill="#6625A5"/>
<path d="M17.5988 26.1167H12.2856V29.6486H17.5988V26.1167Z" fill="#6625A5"/>
<path d="M14.9433 6.14209C9.75546 6.14209 5.53467 10.3628 5.53467 15.5507C5.53467 19.0574 7.46651 22.2334 10.5207 23.857V16.9078L14.9433 10.1534L19.3634 16.9078V23.8581C22.4188 22.2351 24.3513 19.0585 24.3513 15.5507C24.3514 10.3628 20.1312 6.14209 14.9433 6.14209Z" fill="#6625A5"/>
<path d="M15.8258 0.351562H14.061V4.12489H15.8258V0.351562Z" fill="#6625A5"/>
<path d="M23.28 2.75927L21.075 5.8208L22.5068 6.85208L24.7118 3.79054L23.28 2.75927Z" fill="#6625A5"/>
<path d="M29.3593 10.1L25.7803 11.2954L26.3394 12.9693L29.9184 11.7739L29.3593 10.1Z" fill="#6625A5"/>
<path d="M26.3976 18.4869L25.8729 20.1719L29.4758 21.2937L30.0004 19.6087L26.3976 18.4869Z" fill="#6625A5"/>
<path d="M6.71577 2.75705L5.28381 3.78857L7.48932 6.85025L8.92128 5.81873L6.71577 2.75705Z" fill="#6625A5"/>
<path d="M0.639653 10.099L0.0805664 11.7729L3.65957 12.9683L4.21865 11.2944L0.639653 10.099Z" fill="#6625A5"/>
<path d="M3.60283 18.4871L0 19.6089L0.524673 21.2939L4.1275 20.1721L3.60283 18.4871Z" fill="#6625A5"/>
</g>
<defs>
<clipPath id="clip0_1_27291">
<rect width="30" height="30" fill="white"/>
</clipPath>
</defs>
</svg>
