<svg width="60" height="60" viewBox="0 0 60 60" fill="none" xmlns="http://www.w3.org/2000/svg">
<path d="M51.4284 17.604V23.2858C51.4284 31.5572 44.6998 38.2858 36.4284 38.2858H10.907C11.9291 44.364 17.2027 49.0001 23.5713 49.0001H53.5713L59.9998 55.4286V29.7144C59.9998 24.1183 56.4191 19.3708 51.4284 17.604Z" fill="#FED130"/>
<path d="M15.1927 38.2856H10.907C11.9291 44.3639 17.2027 48.9999 23.5713 48.9999H27.857C21.4884 48.9999 16.2148 44.3639 15.1927 38.2856Z" fill="#F8BD15"/>
<path d="M12.8571 4C5.75679 4 0 9.75679 0 16.8571V42.5714L6.42857 36.1429H36.4286C43.5289 36.1429 49.2857 30.3861 49.2857 23.2857V16.8571C49.2857 9.75679 43.5289 4 36.4286 4H12.8571Z" fill="#FF901D"/>
<path d="M4.28571 16.8571C4.28571 9.75679 10.0425 4 17.1429 4H12.8571C5.75679 4 0 9.75679 0 16.8571V42.5714L4.28571 38.2857V16.8571Z" fill="#F48814"/>
<path d="M19.2857 23.2857C18.1018 23.2857 17.1428 22.3268 17.1428 21.1429C17.1428 19.9589 18.1018 19 19.2857 19C20.4696 19 21.4285 19.9589 21.4285 21.1429C21.4285 22.3268 20.4696 23.2857 19.2857 23.2857Z" fill="#F0F0F0"/>
<path d="M25.7144 23.2857C24.5305 23.2857 23.5715 22.3268 23.5715 21.1429C23.5715 19.9589 24.5305 19 25.7144 19C26.8983 19 27.8572 19.9589 27.8572 21.1429C27.8572 22.3268 26.8983 23.2857 25.7144 23.2857Z" fill="#F0F0F0"/>
<path d="M32.1429 23.2857C30.9589 23.2857 30 22.3268 30 21.1429C30 19.9589 30.9589 19 32.1429 19C33.3268 19 34.2857 19.9589 34.2857 21.1429C34.2857 22.3268 33.3268 23.2857 32.1429 23.2857Z" fill="#F0F0F0"/>
</svg>
