<svg width="25" height="25" viewBox="0 0 25 25" fill="none" xmlns="http://www.w3.org/2000/svg">
<g clip-path="url(#clip0_1_24511)">
<path d="M23.9345 9.68067L16.1603 8.95964L13.0721 1.7887C12.8559 1.28658 12.144 1.28658 11.9278 1.7887L8.83966 8.95959L1.06545 9.68067C0.521073 9.73113 0.301114 10.4082 0.711794 10.769L6.57746 15.9219L4.86086 23.5385C4.74065 24.0718 5.31664 24.4902 5.78667 24.2111L12.5 20.2249L19.2133 24.2111C19.6834 24.4903 20.2592 24.0718 20.1391 23.5385L18.4224 15.9219L24.2882 10.769C24.6988 10.4082 24.4788 9.73113 23.9345 9.68067Z" fill="#FED130"/>
<path d="M14.1951 4.39636L13.0721 1.7887C12.8558 1.28658 12.1439 1.28658 11.9278 1.7887L8.8396 8.95959L1.06545 9.68067C0.521073 9.73113 0.301114 10.4082 0.711794 10.769L6.57746 15.9219L4.86086 23.5385C4.74065 24.0718 5.31664 24.4902 5.78667 24.2111L6.68017 23.6806C8.14496 14.1986 12.2629 7.23816 14.1951 4.39636Z" fill="#F7BC14"/>
</g>
<defs>
<clipPath id="clip0_1_24511">
<rect width="25" height="23.8095" fill="white" transform="translate(0 0.5)"/>
</clipPath>
</defs>
</svg>
