<svg width="425" height="595" viewBox="0 0 425 595" fill="none" xmlns="http://www.w3.org/2000/svg">
<path fill-rule="evenodd" clip-rule="evenodd" d="M200 0C89.5431 0 0 89.543 0 200V237.957C4.02838 237.198 7.67903 237.274 10.4773 237.334C16.1115 237.452 16.5427 237.188 17.9028 235.836C19.2629 234.465 19.5155 234.033 19.3879 228.403L19.3873 228.373C19.2622 221.985 19.0532 211.313 28.6073 201.731C38.1613 192.158 48.8329 192.356 55.1769 192.474L55.2422 192.475C60.8432 192.575 61.2923 192.34 62.6601 190.979C64.0278 189.616 64.2804 189.184 64.163 183.536L64.1625 183.507C64.0373 177.119 63.8281 166.438 73.3901 156.854C75.8678 154.382 79.8817 154.382 82.3568 156.854L92.0611 166.578C93.2502 167.77 93.9162 169.394 93.9162 171.071C93.9162 172.759 93.2502 174.382 92.0508 175.571C90.6933 176.934 90.4407 177.366 90.5581 182.997C90.6933 189.391 90.9077 200.09 81.331 209.686C71.7519 219.285 61.0499 219.085 54.7038 218.932C49.0594 218.824 48.646 219.067 47.2757 220.438C45.9259 221.793 45.6656 222.233 45.7906 227.853C45.9258 234.258 46.1427 244.956 36.5738 254.545C27.013 264.125 16.3007 263.909 9.97037 263.781L9.95419 263.78C4.30977 263.637 3.88618 263.916 2.51845 265.286C1.78823 266.02 0.921857 266.537 0 266.836V338.373L37.375 375.823C38.5616 377.014 39.2276 378.628 39.2276 380.315C39.2276 381.993 38.5616 383.616 37.375 384.808L27.6708 394.529C26.4281 395.767 24.8078 396.388 23.1874 396.388C21.5671 396.388 19.9365 395.767 18.7041 394.529L0 375.787V395C0 428.071 8.02665 459.267 22.2381 486.746C26.4274 484.808 30.5974 482.011 35.8159 476.786C44.7112 467.865 46.5561 462.012 49.1028 453.912L49.1094 453.891C51.9356 444.901 55.4416 433.75 68.9169 420.239C70.106 419.048 71.7264 418.381 73.4003 418.381C75.0844 418.381 76.6946 419.048 77.8837 420.239L87.5879 429.963C90.063 432.444 90.063 436.466 87.5879 438.946C78.6849 447.877 76.84 453.73 74.2908 461.841C71.4737 470.816 67.9626 481.992 54.4869 495.495C47.7313 502.265 41.5619 506.525 35.9599 509.446C40.9831 516.632 46.4664 523.473 52.3672 529.926C52.453 529.899 52.5387 529.872 52.6241 529.845L52.6585 529.834C60.7322 527.286 66.5794 525.44 75.4697 516.521C84.3651 507.61 86.2099 501.755 88.7566 493.647L88.7664 493.615C91.6022 484.618 95.1182 473.462 108.578 459.982C111.046 457.491 115.06 457.491 117.537 459.982L127.242 469.706C128.428 470.897 129.094 472.511 129.094 474.198C129.094 475.886 128.428 477.489 127.242 478.691C118.354 487.597 116.508 493.446 113.957 501.525L113.945 501.565C111.128 510.55 107.616 521.727 94.1407 535.23C86.6262 542.76 79.8337 547.185 73.7416 550.117C81.5688 556.496 89.8879 562.294 98.6332 567.446C103.862 565.454 108.697 562.697 115.124 556.256C124.025 547.339 125.867 541.487 128.411 533.403L128.421 533.371C131.238 524.396 134.749 513.22 148.232 499.717C150.707 497.237 154.714 497.237 157.189 499.717L166.903 509.441C168.082 510.632 168.748 512.246 168.748 513.933C168.748 515.618 168.082 517.234 166.903 518.426C157.99 527.344 156.145 533.2 153.598 541.308L153.595 541.318C150.779 550.294 147.273 561.467 133.795 574.965C131.421 577.341 129.121 579.408 126.892 581.217C149.537 590.114 174.198 595 200 595H225C335.457 595 425 505.457 425 395V200C425 89.5431 335.457 0 225 0H200ZM98.703 307.863C98.5703 301.474 98.3482 290.785 107.923 281.198C117.438 271.653 128.085 271.835 134.428 271.943L134.55 271.945C140.176 272.052 140.608 271.819 141.968 270.457C143.335 269.086 143.588 268.644 143.471 263.013L143.47 262.983C143.345 256.585 143.136 245.905 152.698 236.332C155.173 233.851 159.189 233.851 161.664 236.332L171.369 246.048C172.555 247.237 173.231 248.861 173.231 250.541C173.231 252.226 172.555 253.849 171.369 255.031C169.998 256.404 169.756 256.836 169.873 262.474L169.874 262.488C169.999 268.875 170.208 279.564 160.639 289.155C151.07 298.754 140.393 298.555 134.009 298.401C128.367 298.266 127.943 298.537 126.583 299.907C125.233 301.26 124.981 301.695 125.106 307.33L125.106 307.337C125.234 313.735 125.447 324.429 115.879 334.014C106.373 343.54 95.794 343.361 89.3942 343.252L89.2516 343.25C83.5995 343.143 83.1938 343.386 81.8337 344.748C80.6012 345.994 78.9733 346.615 77.3529 346.615C75.7326 346.615 74.1122 345.994 72.8695 344.748L63.1653 335.032C61.9762 333.843 61.3102 332.227 61.3102 330.54C61.3102 328.854 61.9762 327.239 63.1653 326.05C72.7343 316.451 83.4286 316.668 89.7926 316.804C95.437 316.919 95.8504 316.668 97.2181 315.305C98.5705 313.942 98.8206 313.51 98.7032 307.872L98.703 307.863ZM59.0519 268.137C58.9167 261.76 58.6922 251.062 68.2688 241.466C77.8426 231.873 88.548 232.084 94.8853 232.21L94.896 232.21C100.523 232.31 100.954 232.085 102.314 230.714C103.682 229.341 103.934 228.909 103.817 223.281L103.816 223.251C103.691 216.85 103.482 206.17 113.044 196.589C115.519 194.117 119.536 194.117 122.011 196.589L131.715 206.313C132.904 207.505 133.57 209.128 133.57 210.806C133.57 212.491 132.904 214.107 131.715 215.298C130.355 216.669 130.102 217.101 130.212 222.739C130.347 229.134 130.562 239.824 120.985 249.421C111.432 259.003 100.798 258.793 94.4259 258.668L94.3576 258.667C88.7208 258.559 88.2973 258.802 86.9296 260.173C85.5797 261.525 85.327 261.96 85.4444 267.598C85.5797 273.993 85.7966 284.691 76.2276 294.28C66.6484 303.868 55.9363 303.669 49.608 303.515C43.9738 303.38 43.54 303.651 42.1825 305.014C40.9934 306.203 39.3807 306.88 37.6991 306.88C36.0252 306.88 34.4048 306.203 33.2157 305.014L23.5115 295.29C21.0363 292.809 21.0363 288.785 23.5115 286.305C33.0536 276.743 43.7045 276.94 50.0773 277.058L50.1311 277.059C55.7551 277.158 56.1965 276.933 57.5566 275.57C58.9167 274.208 59.1668 273.776 59.0519 268.137ZM127.951 374.646C130.426 372.166 136.54 373.401 139.86 374.503C148.962 377.526 174.823 393.609 192.765 412.361C211.956 432.431 222.786 452.825 226.45 462.684C227.675 465.967 228.925 470.856 226.45 473.339L216.746 483.071C215.513 484.306 213.883 484.93 212.262 484.93C210.642 484.93 208.608 484.613 207.781 483.071C207.245 482.062 206.701 481.026 206.143 479.963C199.961 468.193 192.003 453.04 172.017 432.431C150.145 409.879 131.895 400.426 119.996 394.263C119.397 393.953 118.813 393.651 118.247 393.356C115.141 391.732 115.771 386.851 118.247 384.37L127.951 374.646ZM177.561 337.906C174.239 336.804 168.128 335.569 165.652 338.049L155.948 347.773C153.471 350.253 152.843 355.134 155.948 356.758C156.514 357.052 157.096 357.354 157.694 357.664C169.593 363.827 187.842 373.279 209.716 395.833C229.702 416.439 237.658 431.59 243.839 443.36L243.84 443.362L243.842 443.366L243.845 443.371C244.402 444.432 244.945 445.466 245.481 446.473C246.307 448.015 248.344 448.332 249.964 448.332C251.584 448.332 253.212 447.711 254.447 446.473L264.152 436.749C266.627 434.269 265.374 429.372 264.152 426.087C260.487 416.23 249.658 395.833 230.466 375.771C212.525 357.011 186.661 340.928 177.561 337.906ZM202.077 302.344C204.552 299.862 210.663 301.099 213.985 302.199C223.085 305.221 248.949 321.304 266.89 340.067C286.082 360.129 296.911 380.523 300.576 390.382C301.798 393.665 303.051 398.562 300.576 401.045L290.871 410.766C289.636 412.004 288.008 412.625 286.388 412.625C284.768 412.625 282.734 412.311 281.905 410.766C281.367 409.755 280.822 408.718 280.263 407.653C274.082 395.883 266.126 380.732 246.14 360.129C224.262 337.571 206.011 328.117 194.112 321.954C193.754 321.768 193.401 321.585 193.055 321.405C192.825 321.286 192.597 321.168 192.372 321.051C189.267 319.427 189.897 314.549 192.372 312.068L202.077 302.344Z" fill="#62CF80"/>
<path d="M330.967 220.204C330.966 220.07 331.032 220.003 331.166 220.069C331.1 220.136 331.105 220.603 330.842 220.672C330.774 220.606 330.706 220.473 330.704 220.34C330.903 220.405 330.967 220.271 330.967 220.204ZM329.452 221.485C329.318 221.421 329.251 221.421 329.253 221.555C329.32 221.554 329.387 221.554 329.454 221.619L329.452 221.485ZM329.724 222.082C330.053 221.746 329.256 221.887 329.591 222.218C329.59 222.15 329.657 222.15 329.724 222.082ZM329.725 222.283C329.928 222.413 330.059 222.412 330.058 222.212C329.858 222.215 329.792 222.215 329.725 222.283ZM331.191 222.4C331.261 222.598 331.261 222.665 331.061 222.667C331.058 222.468 331.125 222.401 331.191 222.4ZM330.929 222.868L330.931 223L330.733 223.003C330.733 222.936 330.799 222.868 330.929 222.868ZM328.863 222.559C328.669 223.026 328.606 223.359 328.808 223.423C328.806 223.358 329.064 222.556 328.863 222.559ZM329.54 223.482C329.605 223.415 329.605 223.415 329.604 223.348C329.605 223.415 329.538 223.415 329.54 223.482ZM331.004 223.466C330.937 223.467 330.67 223.337 330.672 223.536C330.471 223.339 330.736 223.203 330.999 223.133L331.004 223.466ZM328.809 223.557C328.542 223.626 328.477 223.827 328.549 224.159C328.748 224.157 328.812 223.958 328.809 223.557ZM330.401 223.139C330.138 223.343 330.478 223.939 330.147 224.208C330.076 223.877 330.006 223.544 330.068 223.076C330.268 223.074 330.334 223.074 330.401 223.139ZM331.281 224.395C331.281 224.462 331.282 224.528 331.215 224.596C331.149 224.596 331.148 224.529 331.147 224.396L331.281 224.395ZM328.554 224.691C328.619 224.49 328.551 224.357 328.417 224.293C328.484 224.358 328.42 224.626 328.291 225.093L328.359 225.16C328.427 225.226 328.427 225.226 328.493 225.158C328.426 225.092 328.49 224.891 328.554 224.691ZM330.358 225.271C330.357 225.204 330.357 225.204 330.29 225.139L330.293 225.339C330.36 225.404 330.36 225.404 330.426 225.404L330.358 225.271ZM331.215 224.596C331.219 224.862 331.425 225.459 331.026 225.464C331.023 225.331 331.149 224.662 331.215 224.596ZM328.494 225.292C328.427 225.293 328.427 225.293 328.361 225.36L328.499 225.756L328.494 225.292ZM329.29 225.016C329.164 225.615 329.234 225.949 329.502 226.011C329.628 225.546 329.559 225.212 329.29 225.016ZM331.096 225.795C331.098 225.994 331.032 226.061 330.9 226.063C330.898 225.863 330.898 225.796 330.961 225.729C331.028 225.662 331.095 225.728 331.096 225.795ZM328.438 226.289C328.242 226.626 328.243 226.826 328.444 226.89C328.642 226.555 328.638 226.354 328.438 226.289ZM329.245 226.947C329.312 226.88 329.312 226.88 329.312 226.947L329.313 227.011V227.079C329.513 227.01 329.575 226.878 329.508 226.678C329.442 226.612 329.442 226.546 329.44 226.479C329.374 226.414 329.374 226.414 329.307 226.481L329.243 226.616C329.174 226.549 329.173 226.349 328.972 226.352C328.978 226.951 329.116 227.281 329.383 227.344C329.45 227.276 329.447 227.145 329.245 226.947ZM330.85 227.528C330.849 227.461 330.779 227.129 330.844 227.062C331.042 227.06 331.048 227.526 330.85 227.528ZM328.987 227.682L328.922 227.683L328.922 227.816H328.988L328.987 227.682ZM330.986 227.994C330.788 227.996 330.852 227.794 330.919 227.727C330.984 227.726 330.984 227.793 330.986 227.994ZM328.383 227.289C328.185 227.491 328.129 228.225 328.33 228.553C328.327 228.29 328.452 227.555 328.383 227.289ZM328.465 228.619C328.33 228.553 328.264 228.621 328.265 228.689L328.335 228.954C328.4 228.887 328.466 228.753 328.465 228.619ZM330.874 229.726L330.674 229.728C330.672 229.528 330.737 229.394 330.804 229.394C330.804 229.46 330.874 229.659 330.874 229.726ZM330.943 229.99C330.876 229.991 330.809 229.925 330.808 229.858L330.943 229.99ZM329.485 230.672L329.484 230.54C329.418 230.54 329.351 230.474 329.351 230.407L329.284 230.408L329.285 230.608C329.352 230.607 329.352 230.607 329.287 230.675L329.485 230.672ZM330.418 230.729C330.484 230.729 330.551 230.727 330.553 230.794L330.418 230.729ZM328.229 231.552L328.227 231.351L328.097 231.352L328.098 231.486C328.163 231.485 328.163 231.485 328.165 231.552H328.229ZM330.759 231.323C330.76 231.524 330.694 231.591 330.627 231.525C330.626 231.391 330.692 231.324 330.759 231.323ZM329.905 232.533C329.972 232.598 329.839 232.666 329.773 232.601C329.771 232.534 329.838 232.533 329.905 232.533ZM330.908 232.919L330.778 233.12C330.709 232.922 330.707 232.721 330.907 232.786L330.908 232.919ZM328.235 231.95C328.242 232.684 328.379 233.08 328.58 233.144C328.576 232.745 328.634 232.013 328.69 230.949C328.42 230.751 328.74 229.55 328.207 229.489C328.275 229.555 328.211 229.953 328.413 230.018C328.217 230.354 328.366 231.749 328.369 232.083C328.301 232.083 328.3 231.95 328.235 231.95ZM330.449 233.591L330.115 233.461L330.181 233.327C330.379 233.325 330.383 233.591 330.449 233.591ZM328.586 233.679C328.585 233.612 328.585 233.545 328.518 233.546C328.518 233.613 328.519 233.679 328.586 233.679ZM330.985 233.785C330.919 233.852 330.852 233.787 330.85 233.586C330.917 233.652 330.985 233.718 330.985 233.785ZM329.518 233.535C329.521 233.734 329.588 233.867 329.72 233.866C329.651 233.666 329.585 233.533 329.518 233.535ZM328.587 233.878C328.587 233.811 328.587 233.811 328.52 233.812C328.522 233.879 328.522 233.879 328.587 233.878ZM327.993 234.149C327.992 234.085 327.992 234.018 327.925 234.018C327.926 234.085 327.926 234.149 327.993 234.149ZM328.658 234.209L328.657 234.142C328.591 234.143 328.591 234.143 328.59 234.079H328.524L328.525 234.144C328.591 234.143 328.591 234.143 328.591 234.21L328.658 234.209ZM330.185 233.728C330.252 233.794 330.319 233.793 330.386 233.793C330.321 233.993 330.456 234.19 330.391 234.257C330.324 234.257 330.32 233.858 330.119 233.795C330.051 233.73 330.118 233.661 330.185 233.728ZM328.528 234.411L328.595 234.476C328.596 234.543 328.663 234.542 328.728 234.542C328.793 234.34 328.592 234.343 328.528 234.411ZM327.997 234.483L327.93 234.418L327.931 234.55L327.999 234.615L327.997 234.483ZM330.991 234.384C330.926 234.45 330.927 234.583 330.927 234.65C330.794 234.651 330.727 234.585 330.725 234.386L330.991 234.384ZM330.392 234.389C330.459 234.457 330.459 234.457 330.525 234.389C330.459 234.457 330.46 234.588 330.463 234.789C330.397 234.856 330.33 234.858 330.132 234.859L330.392 234.389ZM329.126 234.27C329.392 234.267 329.263 234.535 329.331 234.735C329.529 234.667 329.534 235.065 329.6 235.065C329.599 234.865 329.325 234.268 329.523 234.001C329.522 233.934 329.321 233.803 329.32 233.737L329.025 231.21C329.159 231.209 329.225 231.142 329.224 231.008C329.022 230.944 329.084 230.477 329.016 230.277C328.9 231.81 328.978 233.007 329.321 233.87L329.126 234.27ZM328.796 234.607C328.731 234.674 328.664 234.675 328.664 234.743C328.599 234.81 328.533 234.877 328.533 234.877L328.532 234.811C328.532 234.744 328.463 234.677 328.398 234.745L328.806 235.539C329.07 235.338 328.797 234.807 328.796 234.607ZM330.803 235.385L330.738 235.585C330.672 235.585 330.67 235.518 330.669 235.386C330.736 235.319 330.802 235.318 330.803 235.385ZM330.072 235.591L330.071 235.524C330.139 235.591 330.139 235.591 330.139 235.657C330.072 235.658 330.072 235.658 330.072 235.591ZM328.879 236.07C328.878 236.004 328.878 236.004 328.811 236.004C328.812 236.072 328.812 236.072 328.879 236.07ZM328.744 235.939L328.743 235.872L328.407 235.61C328.342 235.677 328.413 236.076 328.678 236.073C328.678 236.006 328.678 236.006 328.744 235.939ZM330.614 236.318C330.545 236.12 330.402 235.389 330.134 235.193C330.202 235.257 330.202 235.257 330.201 235.193C330.2 235.059 330.264 234.992 330.33 234.923C330.667 235.054 330.541 235.852 330.678 236.184C330.545 236.185 330.546 236.253 330.614 236.318ZM330.945 236.182L330.947 236.382C330.746 236.384 330.679 236.318 330.678 236.184L330.945 236.182ZM331.085 236.977C330.954 236.98 330.885 236.85 330.882 236.516C330.949 236.581 331.017 236.714 331.085 236.977ZM330.293 237.52L330.426 237.519V237.585L330.295 237.587L330.293 237.52ZM329.562 237.594C329.559 237.262 329.486 236.797 329.413 236.198L329.282 236.2C329.213 236.135 329.215 236.2 329.215 236.267C329.284 236.466 329.36 237.33 329.562 237.594ZM329.432 237.93C329.436 238.262 329.504 238.394 329.638 238.392C329.634 238.061 329.566 237.928 329.432 237.93ZM331.364 238.242L331.367 238.506C331.168 238.441 331.166 238.311 331.228 237.976C331.363 238.042 331.431 238.108 331.364 238.242ZM329.771 238.591C329.705 238.591 329.704 238.525 329.639 238.525L329.641 238.725L329.771 238.591ZM329.577 238.992C329.643 238.992 329.643 238.992 329.709 239.057L329.577 238.992ZM329.251 239.596C329.248 239.262 328.956 237.067 329.015 236.27C329.014 236.203 328.614 236.207 328.547 236.208C328.825 237.202 328.898 237.869 328.768 238.204C329.105 238.397 328.983 239.399 329.251 239.596ZM329.85 239.723C329.85 239.656 329.782 239.657 329.715 239.657C329.718 239.724 329.784 239.723 329.85 239.723ZM329.974 238.788C330.112 239.253 329.852 239.854 330.253 239.982C330.252 239.783 330.243 239.052 329.974 238.788ZM329.521 239.858L329.523 240.058C329.524 240.256 329.593 240.324 329.66 240.389C329.79 240.254 329.655 239.857 329.521 239.858ZM331.458 240.636C331.191 240.573 331.185 239.973 331.249 239.905C331.452 240.103 331.388 240.37 331.458 240.636ZM330.124 240.317C329.99 240.386 330.058 240.518 330.327 240.65L330.124 240.317ZM330.26 240.715L330.195 240.718L330.196 240.85H330.262L330.26 240.715ZM329.394 240.526C329.197 240.728 329.265 240.861 329.466 240.991C329.462 240.659 329.461 240.525 329.394 240.526ZM330.399 241.247C330.201 241.249 330.14 241.781 330.34 241.781C330.403 241.579 330.469 241.445 330.399 241.247ZM331.344 242.501C331.28 242.569 331.281 242.634 331.348 242.7C331.148 242.702 331.082 242.637 331.146 242.438C331.144 242.371 331.21 242.304 331.343 242.37L331.344 242.501ZM331.883 242.893C331.883 242.829 331.811 242.43 331.744 242.365C332.011 242.295 332.216 242.891 331.883 242.893ZM332.093 243.825C331.827 243.828 331.822 243.495 331.888 243.428C332.021 243.36 332.089 243.493 332.093 243.825ZM331.497 244.163L331.496 244.097L331.229 244.167L331.296 244.165L331.497 244.163ZM354.511 248.504L354.645 248.503V248.569L354.513 248.572L354.511 248.504ZM354.312 248.506C354.313 248.573 354.246 248.641 354.046 248.642C354.045 248.576 354.112 248.509 354.312 248.506ZM354.979 248.634V248.567C355.375 248.429 355.646 248.759 355.913 248.755C355.847 248.823 355.646 248.759 355.312 248.562C355.246 248.564 355.115 248.764 354.847 248.7C354.845 248.635 354.912 248.634 354.979 248.634ZM391.455 248.166L391.457 248.366C391.39 248.432 391.056 248.436 390.991 248.503L391.455 248.166ZM358.441 248.661L358.576 248.86C358.509 248.794 358.442 248.795 358.375 248.795C358.375 248.728 358.375 248.728 358.441 248.661ZM358.109 248.665L358.174 248.731C358.046 248.932 357.979 248.933 357.91 248.734C357.91 248.666 357.91 248.666 357.976 248.6C358.043 248.665 358.043 248.665 358.109 248.665ZM359.576 248.916C359.309 248.918 359.176 248.852 359.241 248.718C359.374 248.717 359.639 248.715 359.576 248.916ZM357.645 249.003C357.447 249.005 356.977 248.745 356.713 248.814C356.775 248.613 357.576 248.737 357.645 249.003ZM362.308 249.085L361.108 249.099C360.376 249.106 360.043 249.044 359.975 248.977C360.176 248.976 360.643 249.037 360.841 248.836C361.038 248.899 362.039 248.822 362.308 249.085ZM367.165 249.032C367.1 249.099 367.033 249.1 366.833 249.103C366.832 249.036 366.966 249.034 367.165 249.032ZM364.439 249.195C364.639 249.26 364.639 249.26 364.439 249.262C364.372 249.262 364.372 249.262 364.305 249.196L364.439 249.195ZM365.769 249.181C365.771 249.247 365.638 249.315 365.57 249.249C365.637 249.183 365.702 249.183 365.769 249.181ZM368.967 249.278L369.099 249.277L369.101 249.41L368.968 249.411L368.967 249.278ZM368.701 249.414C368.368 249.418 368.234 249.419 368.167 249.352C368.165 249.153 368.699 249.215 368.701 249.414ZM381.283 249.475C381.216 249.476 381.216 249.476 381.216 249.41L381.215 249.343C381.214 249.276 381.349 249.408 381.283 249.475ZM381.884 249.602C380.887 249.612 380.354 249.619 380.287 249.553C381.282 249.342 381.815 249.403 381.884 249.602ZM374.96 249.544C375.421 249.273 376.492 249.595 376.688 249.326C376.69 249.526 376.957 249.588 377.156 249.587L376.625 249.593C376.559 249.595 376.093 249.599 375.227 249.674C374.362 249.684 373.895 249.623 373.827 249.49C374.158 249.286 374.759 249.347 374.96 249.544ZM379.355 249.496C379.155 249.564 379.023 249.633 379.023 249.7C378.756 249.635 378.287 249.509 377.556 249.449C377.886 249.246 379.285 249.231 379.355 249.496ZM383.551 249.783L383.75 249.849L383.285 249.853L383.551 249.783ZM355.928 250.286L355.796 250.355C355.865 250.422 356.129 250.352 356.129 250.285L355.928 250.286ZM356.927 250.275C357.395 250.404 357.729 250.4 357.862 250.332C357.391 250.137 357.125 250.074 356.927 250.275ZM356.197 250.418C356.196 250.351 356.196 250.351 356.129 250.352C356.131 250.418 356.131 250.418 356.197 250.418ZM366.25 250.374C366.049 250.309 365.982 250.376 365.916 250.445C365.984 250.443 366.116 250.442 366.316 250.505C366.316 250.438 366.316 250.438 366.25 250.374ZM368.385 250.882L368.052 250.885C368.051 250.752 368.182 250.75 368.385 250.882ZM363.923 250.93L363.326 250.936C363.325 250.87 363.859 250.865 363.923 250.93ZM369.051 250.873L369.183 250.872C369.25 250.938 369.185 250.939 368.984 250.94L369.051 250.873ZM368.718 250.878C368.718 250.945 368.718 250.945 368.651 250.945L368.649 250.812L368.718 250.878ZM356.005 251.085L356.202 250.882C355.338 250.826 354.537 250.768 353.939 250.774C353.94 250.841 353.94 250.906 353.874 250.974C354.138 251.038 355.801 250.822 355.872 251.153C355.938 251.15 355.938 251.15 356.005 251.085ZM367.722 251.155C367.454 251.092 367.321 251.093 367.321 251.093C367.321 251.16 367.655 251.09 367.722 251.155ZM357.136 251.138C357.204 251.205 357.338 251.269 357.472 251.268C357.471 251.202 357.337 251.136 357.136 251.138ZM357.738 251.331L358.203 251.326C358.136 251.126 357.802 251.131 357.738 251.331ZM351.147 251.404C351.214 251.469 351.416 251.468 351.415 251.401L351.147 251.404ZM381.701 251.135C381.701 251.202 381.634 251.203 381.436 251.205C381.435 251.138 381.502 251.138 381.701 251.135ZM386.094 251.02C386.363 251.217 386.759 251.079 386.96 251.144C386.628 251.213 386.296 251.217 385.83 251.224C385.961 251.088 386.027 251.021 386.094 251.02ZM372.184 251.373C372.45 251.37 372.583 251.369 372.516 251.302C372.251 251.306 372.117 251.307 372.184 251.373ZM382.171 251.397C382.17 251.263 382.103 251.198 381.902 251.2C382.101 251.131 382.632 251.125 383.501 251.249C383.566 251.048 384.633 251.369 384.631 251.102C384.631 251.169 384.897 251.1 384.966 251.299C384.766 251.301 384.034 251.375 382.769 251.456C381.573 251.536 380.707 251.546 380.174 251.485C380.504 251.282 381.169 251.207 382.171 251.397ZM373.914 251.354C374.048 251.353 374.315 251.416 374.649 251.479C375.645 251.401 376.379 251.393 376.91 251.455C376.978 251.521 377.242 251.317 377.309 251.317C377.444 251.383 377.643 251.379 377.91 251.377C378.109 251.374 378.44 251.304 378.708 251.368L378.974 251.365C379.041 251.431 379.175 251.43 379.442 251.427L379.84 251.422L379.906 251.421L379.639 251.423C379.443 251.493 378.911 251.566 378.844 251.566C378.046 251.508 377.312 251.516 376.712 251.59C376.249 251.595 374.583 251.547 373.784 251.488L373.914 251.354ZM366.53 251.569C366.463 251.636 366.531 251.7 366.597 251.7L366.861 251.631C366.791 251.432 366.595 251.567 366.53 251.569ZM353.746 251.575C353.481 251.511 352.746 251.454 351.547 251.466C352.285 251.658 354.147 251.771 354.481 251.833C354.48 251.766 354.213 251.637 353.746 251.575ZM354.747 251.697C354.815 251.896 355.481 251.957 355.546 251.756C355.346 251.624 355.078 251.627 354.747 251.697ZM366.464 251.769C366.397 251.704 366.397 251.637 366.396 251.57C366.196 251.573 365.729 251.576 364.864 251.521C363.996 251.462 363.398 251.469 363.201 251.604C363.867 251.598 364.931 251.652 366.465 251.835L366.464 251.769ZM386.234 251.618H386.3L386.301 251.685H386.234V251.618ZM357.346 252.003L357.344 251.936C357.411 251.936 357.477 251.867 357.544 251.8C358.81 251.986 359.478 252.111 359.544 252.044C359.612 252.11 360.21 252.171 360.41 252.103C359.674 251.843 357.942 251.796 357.342 251.602C357.275 251.603 357.21 251.804 357.012 251.872C357.011 251.806 356.876 251.674 356.61 251.61L356.612 251.878C356.878 251.808 357.08 252.072 357.346 252.07V252.003ZM389.497 251.85C389.564 251.914 389.896 251.846 389.964 251.777C389.63 251.781 389.496 251.782 389.497 251.85ZM380.18 252.017L381.711 251.999C381.641 251.736 381.107 251.741 380.18 252.017ZM378.515 252.034C378.715 252.033 378.849 252.032 378.914 251.966C378.648 251.902 378.513 251.97 378.515 252.034ZM364.125 251.127C367.458 251.425 369.989 251.464 371.652 251.378L371.717 251.312V251.245C371.985 251.308 372.25 251.172 372.514 251.169C372.583 251.369 373.648 251.291 373.718 251.556C372.852 251.566 370.857 251.721 369.921 251.397C369.923 251.598 369.526 251.668 368.659 251.612C367.793 251.554 367.261 251.56 367.061 251.628C367.128 251.628 367.196 251.761 367.397 251.825C367.795 251.755 368.527 251.813 369.593 251.869C370.66 251.923 371.324 251.915 371.591 251.913C371.591 251.98 371.593 252.047 371.659 252.044C372.724 252.033 374.92 251.943 375.783 251.8C376.118 251.864 376.715 251.856 377.648 251.78C378.578 251.703 379.179 251.762 379.513 251.825C379.576 251.624 379.777 251.756 380.043 251.687C380.442 251.682 381.307 251.673 382.571 251.593C383.834 251.512 384.834 251.5 385.434 251.56C385.564 251.36 385.762 251.291 386.032 251.421C386.099 251.486 386.166 251.552 386.1 251.62C384.969 251.634 383.107 251.787 382.242 251.796C382.243 251.864 381.841 251.8 381.844 251.998C382.178 252.061 383.371 251.65 383.709 251.978C384.039 251.91 384.704 251.835 385.703 251.824C386.7 251.813 387.433 251.738 387.831 251.6C387.629 251.404 386.697 251.48 386.63 251.481C387.095 251.275 387.628 251.203 388.228 251.397C388.228 251.464 387.962 251.399 387.964 251.599C388.695 251.591 389.095 251.521 389.093 251.321L389.292 251.318C389.491 251.317 389.556 251.249 389.556 251.182C389.222 250.986 388.363 251.528 388.092 251.198L388.758 251.191C388.689 250.925 387.825 251.135 387.627 251.136C387.357 250.939 387.557 250.87 387.557 250.804C387.223 250.809 386.953 250.544 386.424 250.749C386.755 250.747 386.889 250.745 386.955 250.811C386.892 250.945 386.691 250.881 386.224 250.685C385.89 250.756 384.36 250.772 381.564 250.802C381.494 250.539 380.432 250.749 380.165 250.752C378.902 250.833 377.971 250.843 377.236 250.718C376.837 250.721 374.44 250.681 370.113 250.597C370.047 250.729 369.516 250.735 368.648 250.68C367.783 250.623 367.249 250.562 367.115 250.563C366.98 250.432 366.781 250.367 366.583 250.436L366.584 250.57C366.585 250.703 366.384 250.571 365.984 250.576C365.919 250.643 366.053 250.709 366.32 250.706C366.519 250.768 366.586 250.768 366.586 250.835C363.325 250.803 361.191 250.629 360.124 250.441C359.859 250.51 358.127 250.397 357.864 250.664C359.53 250.712 360.596 250.834 361.061 250.962C361.394 250.891 362.397 251.015 364.125 251.127ZM379.645 251.891H379.578L379.581 252.089C379.58 252.024 379.58 252.024 379.647 252.022L379.645 251.891ZM363.741 252.33C363.676 252.531 363.411 252.533 363.341 252.268C363.407 252.267 363.674 252.331 363.741 252.33ZM364.606 252.321C364.74 252.386 364.807 252.451 364.741 252.519C364.475 252.522 364.34 252.524 364.273 252.456C364.272 252.325 364.405 252.257 364.606 252.321ZM363.411 252.533C363.277 252.535 362.81 252.473 362.011 252.349C362.207 252.149 363.341 252.334 363.411 252.533ZM364.874 252.384C365.006 252.383 365.14 252.448 365.275 252.58C365.007 252.516 364.874 252.451 364.874 252.384ZM381.182 252.405C381.316 252.47 381.382 252.403 381.447 252.335C381.249 252.405 381.182 252.405 381.182 252.405ZM380.184 252.416C380.251 252.483 380.451 252.413 380.45 252.346C380.25 252.349 380.183 252.35 380.184 252.416ZM379.717 252.421L379.585 252.422V252.49L379.719 252.488L379.717 252.421ZM379.054 252.429C379.12 252.494 379.255 252.493 379.453 252.491C379.518 252.29 379.119 252.36 379.054 252.429ZM371.864 252.509L371.8 252.575L372.132 252.57L371.864 252.509ZM368.333 252.346C368.266 252.415 368.201 252.482 368.27 252.546C369.068 252.539 370.867 252.586 371.399 252.579C370.664 252.321 369.135 252.538 368.333 252.346ZM373.528 252.49C373.461 252.424 373.461 252.424 373.394 252.424L373.395 252.558C373.463 252.557 373.463 252.557 373.529 252.623L373.528 252.49ZM361.346 252.49C361.544 252.488 362.146 252.548 363.145 252.67C364.144 252.726 364.878 252.784 365.408 252.712L365.276 252.647C365.209 252.647 365.209 252.647 365.275 252.58C365.474 252.578 365.608 252.577 365.605 252.509C365.604 252.443 365.539 252.444 365.405 252.378C365.603 252.31 365.872 252.507 365.939 252.506C365.872 252.507 365.805 252.441 365.804 252.374L366.205 252.371C366.207 252.636 366.541 252.766 366.806 252.697C366.872 252.628 366.806 252.563 366.672 252.564C366.471 252.499 366.406 252.501 366.404 252.434C366.47 252.368 366.803 252.43 367.336 252.491C366.869 252.295 366.071 252.305 365.004 252.249C364.403 252.19 363.606 252.133 362.475 252.147L360.41 252.168C360.478 252.233 361.012 252.293 362.011 252.349C361.879 252.617 361.345 252.357 361.346 252.49ZM375.325 252.604C375.793 252.665 376.126 252.66 376.192 252.526C375.725 252.533 375.391 252.536 375.325 252.604ZM367.004 252.562L367.007 252.695C367.072 252.695 368.206 252.882 368.271 252.681C368.005 252.683 367.538 252.555 367.004 252.562ZM386.311 252.615C386.576 252.413 387.243 252.673 387.307 252.405C386.906 252.342 386.107 252.285 384.91 252.298C384.843 252.298 384.843 252.364 384.844 252.431C384.844 252.498 384.78 252.565 384.713 252.567C383.978 252.374 383.247 252.382 382.382 252.592C382.583 252.657 383.646 252.378 383.848 252.708C384.449 252.769 385.842 252.354 386.311 252.615ZM375.595 252.799C375.592 252.601 375.131 252.806 374.928 252.674C374.928 252.607 375.258 252.604 375.258 252.538C374.925 252.407 374.393 252.413 373.798 252.62C373.994 252.617 374.462 252.612 374.728 252.676C374.931 252.874 375.263 252.936 375.595 252.799ZM369.473 252.866C369.54 252.933 369.603 252.798 369.537 252.732C369.07 252.672 368.67 252.676 368.339 252.813C369.006 252.806 369.741 253.131 370.339 252.992C370.137 252.927 369.54 252.933 369.473 252.866ZM376.726 252.855C376.926 252.919 377.062 252.984 377.127 252.983L377.062 253.05L376.996 253.118C377.063 253.117 377.395 252.98 377.661 253.043C377.728 252.976 377.328 253.047 377.392 252.846C377.593 252.845 377.794 252.909 378.063 253.107C378.325 252.97 378.458 252.902 378.458 252.835C377.593 252.845 376.722 252.454 376.329 252.993L376.729 252.988L376.726 252.855ZM371.404 253.113C371.471 253.112 371.536 253.045 371.469 252.979L371.538 253.112L371.606 253.244C371.67 253.11 371.67 253.043 371.603 253.043C372.203 253.037 373.465 252.823 374.063 252.817C373.799 252.753 372.598 252.899 372.266 252.703C372.202 252.904 371.869 252.907 371.203 252.847C370.535 252.789 370.068 252.727 369.868 252.729L369.869 252.863C370.537 252.856 371.005 252.983 371.205 253.181C371.205 253.114 371.27 253.047 371.404 253.113ZM375.598 253.2C375.8 253.265 375.999 253.196 375.998 253.129C375.798 253.131 375.664 253.133 375.598 253.2ZM392.641 253.278C392.708 253.343 392.841 253.21 392.908 253.276C392.843 253.476 392.712 253.61 392.512 253.612C392.645 253.477 392.708 253.343 392.641 253.278ZM381.864 253.863L381.733 253.998L381.932 253.996C381.932 253.929 381.932 253.929 381.864 253.863ZM392.313 253.815C392.25 253.882 392.25 253.882 392.25 253.948L391.918 253.953C392.117 253.817 392.249 253.749 392.313 253.815ZM391.056 254.494L391.123 254.427C391.19 254.493 391.125 254.561 390.925 254.562L391.056 254.494ZM389.995 254.771C389.927 254.574 390.06 254.572 390.392 254.57L390.727 254.632C390.528 254.7 390.061 254.706 389.995 254.771ZM384.407 255.1C384.407 255.1 384.474 255.098 384.607 255.03L384.807 254.962C384.54 254.965 384.407 255.033 384.407 255.1ZM383.941 255.105L383.943 255.238C383.743 255.173 383.743 255.106 383.941 255.105ZM380.016 255.282L379.881 255.149C379.949 255.215 379.949 255.215 379.949 255.282H380.016ZM379.284 255.222L379.084 255.224H379.149C379.218 255.29 379.218 255.29 379.285 255.29L379.284 255.222ZM383.544 255.176C383.546 255.308 383.479 255.31 383.277 255.245C383.343 255.177 383.477 255.176 383.544 255.176ZM383.144 255.18C382.946 255.382 382.678 255.251 382.214 255.322C382.281 255.255 382.544 255.186 383.144 255.18ZM376.222 255.322L376.022 255.324L376.023 255.391L376.222 255.388V255.322ZM391.06 248.77C391.127 248.836 391.194 248.836 391.193 248.635C391.326 248.634 391.394 248.699 391.395 248.899L392.129 248.891C392.064 249.09 392.198 249.222 392.201 249.422C392.665 249.416 392.934 249.548 392.937 249.813C392.871 249.881 392.804 249.882 392.738 249.882L392.604 249.884C392.738 249.949 393.072 250.012 393.54 250.008C394.005 250.201 394.213 250.865 394.017 251.201C394.285 251.33 394.366 252.593 393.635 252.602L393.699 252.401C393.697 252.334 393.696 252.201 393.629 252.135C393.43 252.204 393.305 253.072 392.839 253.143C392.839 253.076 393.171 253.007 393.169 252.807C392.637 252.88 392.312 253.615 392.114 253.683L392.112 253.484C391.581 253.688 391.117 253.894 390.655 254.167C391.055 254.296 391.784 253.82 392.114 253.683C392.05 253.817 391.851 253.953 391.585 254.022C391.585 254.09 391.652 254.09 391.72 254.154L391.853 254.153C391.856 254.352 391.655 254.355 391.254 254.16C390.858 254.364 390.392 254.503 389.792 254.442C389.859 254.441 389.857 254.375 389.856 254.241C389.591 254.31 388.927 254.384 388.662 254.588L388.664 254.655C388.597 254.655 388.597 254.655 388.528 254.589L388.395 254.59C388.331 254.79 388.665 254.853 388.664 254.655L388.662 254.588C388.995 254.584 389.33 254.647 389.596 254.776C388.799 254.851 388.199 254.857 387.8 254.795C387.601 254.863 387.934 254.926 387.868 254.995C387.602 255.064 387.403 255 387.2 254.802C387.001 254.871 387.069 255.002 387.268 254.934C387.001 254.938 385.735 254.818 384.939 254.893C385.005 254.96 385.271 255.023 385.737 255.018C385.674 255.219 384.739 254.963 384.742 255.229C383.872 254.905 382.808 254.917 381.614 255.263C381.547 255.331 381.546 255.13 381.479 255.132C381.279 255.134 381.214 255.335 381.148 255.335C380.947 255.137 380.084 255.479 379.614 255.152C379.553 255.487 378.553 255.497 378.351 255.231C377.49 255.641 376.957 255.649 376.622 255.251C376.091 255.456 375.16 255.535 373.761 255.482C372.429 255.431 371.562 255.374 371.163 255.445C371.096 255.445 370.764 255.382 370.498 255.386C370.166 255.455 369.566 255.396 368.833 255.403C367.769 255.415 365.239 255.377 364.505 255.317L362.107 255.144L358.643 254.984L354.647 254.695C353.38 254.575 350.915 254.335 350.047 254.279C348.983 254.158 347.515 253.973 345.713 253.662L342.181 253.099C337.846 252.417 334.445 251.92 332.044 251.48C331.779 251.684 330.914 251.626 330.648 251.695C330.648 251.762 330.65 251.895 330.585 251.963C329.321 252.11 328.656 252.185 328.589 252.119C328.451 251.787 328.185 251.59 327.783 251.393C327.971 250.393 327.567 249.864 326.566 249.81C326.497 249.544 326.561 249.278 326.89 248.941C326.89 248.874 326.822 248.741 326.685 248.477C326.809 247.544 326.73 246.414 326.382 245.019C326.033 243.624 325.889 242.562 325.948 241.961C325.876 241.495 325.792 239.965 325.584 239.236C325.562 237.306 325.413 235.776 325.203 234.581L325.266 234.445C325.266 234.379 325.266 234.379 325.332 234.378C325.131 234.18 325.326 233.715 325.057 233.517C325.055 233.317 325.321 233.181 325.319 233.114C325.252 233.048 325.18 232.518 325.17 231.65C324.968 231.454 325.354 230.384 325.02 230.121C325.213 229.588 325.207 228.921 324.997 228.06C325.064 227.992 325.194 227.858 325.194 227.791C325.122 227.325 325.185 226.992 325.38 226.79C325.312 226.592 325.569 225.523 325.297 225.06C325.362 224.993 325.429 224.992 325.494 224.992C325.493 224.791 325.424 224.658 325.357 224.66C325.356 224.592 325.423 224.591 325.49 224.591L325.556 224.523C325.422 224.459 325.354 224.327 325.354 224.26C325.619 224.191 325.815 223.857 325.547 223.661C325.744 223.524 325.811 223.457 325.81 223.39C326.009 223.254 326.141 223.119 326.206 222.985C326.006 222.921 325.803 222.659 325.601 222.594C325.668 222.593 325.734 222.526 325.799 222.326C325.797 222.125 325.797 222.125 325.996 222.124C326.13 222.189 326.133 222.388 326.001 222.589C326.336 222.652 326.401 222.453 326.262 221.987L326.129 221.988C326.062 221.99 325.928 221.991 325.927 221.79C325.925 221.724 326.262 221.92 326.327 221.853C326.326 221.786 326.259 221.72 326.058 221.656C326.254 221.322 326.838 219.983 327.1 219.649C327.362 219.178 328.022 218.573 328.819 218.497C329.155 218.693 329.486 218.823 329.686 218.754C329.756 219.019 330.293 219.281 330.362 219.479L330.37 220.277C330.437 220.343 330.505 220.409 330.638 220.407C330.575 220.742 330.511 220.943 330.312 221.145C330.383 221.342 330.578 221.008 330.648 221.208C330.648 221.274 330.329 222.542 330.399 223.006L330.067 223.009C330.132 222.743 329.93 222.68 329.993 222.412L329.663 222.683C330.134 223.009 329.871 223.412 329.876 223.945C329.811 223.946 329.743 223.879 329.676 223.814L329.675 223.68C329.609 223.749 329.542 223.815 329.543 223.882C330.011 224.011 329.951 224.475 329.955 224.876L330.087 224.874C330.353 224.805 330.149 224.473 330.148 224.406L330.349 224.404C330.343 223.873 330.34 223.606 330.807 223.668C330.876 223.935 330.684 224.601 330.685 224.668L330.553 224.737L330.354 224.938C330.624 225.135 330.696 225.665 330.231 225.871C330.574 226.666 330.513 227.266 330.185 227.602C330.181 227.336 330.041 226.606 330.238 226.403C330.236 226.337 330.169 226.272 330.034 226.139C330.23 225.67 330.226 225.34 330.023 225.007C329.899 226.008 329.906 226.54 330.041 226.673C329.908 226.741 329.91 226.941 329.98 227.204C329.981 227.271 329.913 227.138 329.847 227.339C329.848 227.406 329.848 227.406 329.915 227.405H329.982C329.989 228.071 330.059 228.467 330.193 228.533C330.132 228.868 330.139 229.535 330.216 230.531C330.295 231.529 330.369 232.328 330.308 232.927C330.107 232.728 330.101 232.197 329.768 232.134C329.766 232.001 329.833 231.999 329.899 232.065L329.967 232.131C330.033 232.131 330.032 231.997 330.099 231.997C330.029 231.664 329.884 230.601 329.68 230.27C329.678 230.07 329.876 229.934 329.874 229.737C329.807 229.671 329.738 229.606 329.674 229.606L329.676 229.937C329.679 230.137 329.613 230.205 329.547 230.205C329.14 229.545 329.067 228.945 329.261 228.346C329.193 228.146 329.058 228.082 328.924 228.017C328.926 228.283 329.072 229.413 329.009 229.746C329.483 230.339 329.752 230.803 329.757 231.203C329.689 231.137 329.622 231.138 329.56 231.206C329.561 231.403 329.628 231.602 329.829 231.801C329.631 231.802 329.428 231.471 329.231 231.74C329.565 231.736 329.768 232.134 329.437 232.337C329.44 232.538 329.705 232.534 329.705 232.601C329.575 232.67 329.576 232.8 329.709 233C329.71 233.066 329.843 232.999 329.91 233.064L329.78 233.331C329.847 233.397 329.918 233.731 329.923 234.262C329.724 234.263 329.787 233.932 329.72 233.933C329.654 233.933 329.527 234.4 329.86 234.396C329.727 234.464 329.728 234.664 329.865 234.995C329.8 235.129 329.938 235.592 330.148 236.457C329.881 236.393 329.752 236.794 330.086 236.857C330.091 237.321 330.027 237.589 329.961 237.59C329.961 237.656 330.028 237.723 330.229 237.788H330.163C330.096 237.856 330.097 237.923 330.164 237.989L330.298 237.986C330.365 237.985 330.431 237.985 330.434 238.185C330.435 238.252 330.168 238.386 330.169 238.453C330.648 239.447 330.788 240.111 330.66 240.578C330.865 241.043 330.803 241.508 330.608 241.977C330.88 242.44 331.018 242.838 331.088 243.169C331.286 243.166 331.357 243.5 331.624 243.498C331.492 243.765 331.428 243.899 331.361 243.9C331.562 243.964 331.695 243.963 331.693 243.829C331.762 243.895 331.697 244.162 331.63 244.162C331.901 244.425 332.768 244.682 334.301 244.999C334.574 245.528 336.441 245.64 336.709 245.905C336.776 245.837 337.04 245.768 337.107 245.767C337.174 245.832 337.31 245.964 337.374 245.963L343.381 247.361C343.448 247.361 343.515 247.36 343.581 247.293C344.383 247.55 346.249 247.729 346.849 247.924C348.647 247.971 351.451 248.67 352.716 248.725C353.048 248.654 353.248 248.586 353.315 248.584C353.515 248.649 353.651 248.847 353.717 248.846C353.519 248.981 353.318 248.784 352.984 248.787C353.051 248.854 353.585 248.914 354.585 249.037C355.916 249.154 356.717 249.213 356.916 249.144C356.982 249.21 357.315 249.207 357.382 249.273C357.449 249.272 357.515 249.138 357.582 249.138C357.651 249.27 357.716 249.335 357.849 249.334C359.846 249.379 361.578 249.491 363.046 249.676C363.712 249.601 364.443 249.659 365.246 249.918C365.376 249.85 365.442 249.716 365.506 249.515C365.708 249.58 365.709 249.714 365.577 249.915C367.909 249.955 369.308 250.074 369.706 250.135C369.642 250.336 368.508 250.016 368.31 250.284C368.778 250.345 369.642 250.403 370.843 250.389C371.974 250.378 372.705 250.369 373.04 250.432C373.171 250.364 373.371 250.362 373.638 250.359C373.705 250.292 373.705 250.292 373.705 250.359L373.774 250.424C374.304 250.352 375.836 250.469 376.3 250.264C376.9 250.456 378.033 250.445 379.561 250.294C381.158 250.143 382.29 250.064 382.888 250.125C382.954 250.058 383.42 250.053 384.286 250.042L384.488 250.24C384.818 249.969 386.15 250.021 386.414 249.818C386.745 249.882 386.879 249.947 386.948 250.013C388.077 249.934 388.875 249.725 389.338 249.387C389.406 249.452 389.537 249.451 389.537 249.517C389.67 249.449 389.736 249.315 389.735 249.249C389.268 249.056 387.21 249.677 386.473 249.218C386.208 249.22 386.074 249.222 386.007 249.157L386.009 249.423C384.347 249.641 383.084 249.655 382.082 249.466C382.082 249.4 382.282 249.331 382.281 249.263C383.279 249.32 383.878 249.379 384.145 249.377C384.144 249.243 384.075 249.178 383.876 249.246C383.874 249.048 384.677 249.305 384.674 249.04C385.011 249.301 386.539 249.085 386.872 249.147L387.069 248.946C387.269 248.945 387.735 249.007 387.936 249.071C388.399 248.866 389.732 248.984 390.062 248.713C390.196 248.712 390.262 248.712 390.263 248.779C390.86 248.639 391.125 248.569 391.192 248.569L391.193 248.635C391.125 248.569 390.994 248.704 391.06 248.77Z" fill="white"/>
<path d="M343.357 190.582C343.357 190.649 343.358 190.716 343.425 190.715C343.424 190.648 343.424 190.581 343.357 190.582ZM343.229 190.984C343.232 191.05 343.232 191.116 343.166 191.184C343.165 191.117 343.165 191.05 343.229 190.984ZM343.234 191.317C343.168 191.317 343.103 191.585 343.036 191.519C343.033 191.252 343.099 191.118 343.166 191.184C343.166 191.251 343.168 191.317 343.234 191.317ZM345.998 194.482C346.065 194.548 346.065 194.548 345.998 194.549V194.482ZM347.017 196.401L347.088 196.799L347.021 196.8L347.017 196.401ZM347.163 197.598C347.096 197.599 347.095 197.532 347.094 197.398C347.162 197.466 347.229 197.531 347.163 197.598ZM347.036 198.198L346.902 198.065C346.969 197.998 347.102 198.131 347.036 198.198ZM346.911 198.932C346.845 198.932 346.909 198.731 346.708 198.735C346.841 198.6 346.908 198.667 346.911 198.932ZM346.051 199.407L345.985 199.408L345.988 199.541H346.053L346.051 199.407ZM346.985 199.596C346.984 199.529 346.984 199.529 346.917 199.531C346.918 199.596 346.918 199.596 346.985 199.596ZM347.528 200.391C347.459 200.325 347.324 200.125 347.253 199.727C347.187 199.861 347.257 200.126 347.328 200.525C347.395 200.522 347.461 200.458 347.528 200.391ZM347.533 200.989L347.4 200.99V201.057C347.401 201.123 347.401 201.123 347.469 201.123C347.467 201.056 347.534 201.056 347.533 200.989ZM343.971 197.965C343.974 198.165 344.112 198.63 343.912 198.632C343.98 198.831 344.048 198.964 343.984 199.163C344.193 199.961 344.342 201.424 344.416 202.021C344.349 202.022 344.349 202.022 344.283 202.089C344.417 202.155 344.484 202.219 344.485 202.286C344.486 202.352 344.553 202.419 344.62 202.418C344.611 201.553 344.536 200.822 344.329 200.226L344.395 200.159C344.328 200.159 344.328 200.159 344.327 200.092C344.327 200.025 344.317 199.027 344.094 197.032L344.019 196.299C344.014 195.835 343.944 195.436 343.876 195.237C343.681 195.772 344.027 196.966 343.834 197.569C343.901 197.635 343.905 197.899 343.971 197.965ZM347.809 201.983C347.743 202.05 347.744 202.117 347.745 202.251L347.683 202.452L347.677 201.917C347.677 201.984 347.743 201.984 347.809 201.983ZM350.887 203.348V203.415C350.887 203.348 350.886 203.282 350.819 203.282C350.886 203.282 350.886 203.282 350.887 203.348ZM364.537 203.598C364.539 203.664 364.472 203.666 364.473 203.731L364.406 203.732C364.405 203.666 364.472 203.599 364.537 203.598ZM363.608 203.942L363.742 203.94L363.675 204.006L363.542 204.007L363.608 203.942ZM363.145 204.08L363.211 204.012L363.278 204.078L363.145 204.08ZM360.279 203.844C360.28 203.91 360.28 203.91 360.347 203.977L360.349 204.11L360.149 204.112C360.215 204.044 360.215 204.044 360.215 203.978L360.147 203.911C360.347 203.91 360.145 203.779 360.145 203.713C360.211 203.646 360.411 203.643 360.346 203.843L360.279 203.844ZM366.074 204.047H366.141V204.112L366.075 204.114L366.074 204.047ZM371.599 204.053C371.601 204.119 371.601 204.119 371.665 204.119C371.665 204.052 371.665 204.052 371.599 204.053ZM367.138 204.035H367.205C367.273 204.1 367.273 204.1 367.273 204.167L367.139 204.168L367.138 204.035ZM363.744 204.072C363.676 204.14 363.61 204.208 363.411 204.21L363.278 204.078C363.409 204.143 363.543 204.141 363.744 204.072ZM368.472 204.221C368.536 204.087 368.736 204.018 369.002 204.015C369.003 204.082 368.937 204.216 368.94 204.282C368.873 204.282 368.472 204.288 368.472 204.221ZM363.677 204.273L363.744 204.206C363.744 204.273 363.744 204.273 363.812 204.272L363.746 204.34H363.679L363.677 204.273ZM370.734 204.196C370.734 204.263 370.734 204.263 370.801 204.263C370.734 204.263 370.734 204.263 370.736 204.329C370.734 204.263 370.734 204.263 370.668 204.264C370.734 204.263 370.734 204.263 370.734 204.196ZM364.479 204.397C364.479 204.331 364.479 204.331 364.545 204.264C364.545 204.331 364.479 204.331 364.479 204.397ZM369.804 204.273L369.869 204.205C369.935 204.138 369.935 204.138 370.002 204.204C369.936 204.272 370.139 204.469 370.073 204.534C370.006 204.535 369.872 204.473 369.805 204.473L369.804 204.273ZM368.474 204.487H368.541V204.551L368.474 204.553V204.487ZM370.404 204.465L370.274 204.599L370.205 204.469C370.204 204.335 370.271 204.335 370.404 204.465ZM369.004 204.281C369.069 204.213 369.069 204.213 369.136 204.213L369.138 204.414C369.338 204.411 369.536 204.141 369.601 204.141C369.669 204.208 369.541 204.541 369.742 204.606L369.34 204.61C369.271 204.412 368.94 204.349 368.94 204.282L369.004 204.281ZM363.618 204.805C363.683 204.737 363.749 204.67 363.749 204.603C363.749 204.67 363.55 204.607 363.618 204.805ZM348.375 204.974L348.374 204.84L348.307 204.841H348.241C348.241 204.908 348.31 204.974 348.375 204.974ZM342.784 205.035C342.984 205.032 343.051 205.03 342.984 204.965C342.85 204.966 342.784 204.967 342.784 205.035ZM371.671 204.584L371.673 204.717C371.407 204.786 371.403 204.52 371.671 204.584ZM371.273 204.722L371.406 204.721L371.407 204.786C371.34 204.853 371.34 204.853 371.274 204.855L371.273 204.722ZM362.352 204.819L362.553 204.817C362.62 204.884 362.621 204.951 362.621 205.016L362.888 205.013C363.088 205.011 363.221 204.943 363.285 204.808C363.019 204.813 362.886 204.747 362.951 204.613C362.752 204.682 362.417 204.554 362.351 204.62L362.35 204.554C362.281 204.422 362.149 204.424 362.017 204.558C361.952 204.623 362.018 204.622 362.085 204.689C362.152 204.688 362.284 204.687 362.351 204.62L362.352 204.819ZM348.976 205.033L348.842 204.967C348.842 205.035 348.91 205.1 349.111 205.165C349.11 205.098 349.043 205.032 348.976 205.033ZM373.141 204.967L373.207 204.9L373.274 204.899C373.207 204.9 373.207 204.9 373.141 204.967ZM350.177 205.353C350.243 205.352 350.31 205.352 350.377 205.284C350.176 205.286 350.109 205.287 350.177 205.353ZM374.868 204.883L374.871 205.148C374.872 205.215 374.938 205.214 375.005 205.214C375.004 205.013 374.935 204.947 374.868 204.883ZM373.606 205.096C373.674 205.295 373.941 205.291 374.541 205.152C374.54 205.085 374.406 205.088 374.406 205.021C374.139 205.09 373.936 204.893 373.738 204.961C373.737 204.827 373.669 204.761 373.535 204.762L373.47 204.831C373.404 204.898 373.337 204.898 373.274 204.899C373.275 205.099 373.406 205.165 373.606 205.096ZM376.071 205.069C375.937 205.071 375.871 205.071 375.804 205.138L376.074 205.268L376.071 205.069ZM375.405 205.143L375.272 205.144L375.273 205.277L375.407 205.276L375.405 205.143ZM355.035 205.3L354.969 205.367C354.903 205.435 354.903 205.435 354.903 205.501C355.104 205.5 355.439 205.694 355.506 205.694C355.504 205.495 355.036 205.367 355.035 205.3ZM348.382 205.506L348.383 205.705C349.117 205.831 349.517 205.828 349.581 205.759C349.314 205.562 348.648 205.571 348.382 205.506ZM351.647 205.738C351.577 205.538 350.846 205.678 350.644 205.482L350.247 205.619C350.247 205.686 350.515 205.816 350.583 205.881C350.779 205.612 351.38 205.807 351.647 205.738ZM327.424 206.601L327.094 206.804C327.092 206.737 327.225 206.669 327.424 206.601ZM326.093 206.616C326.093 206.682 326.227 206.747 326.428 206.746C326.36 206.679 326.491 206.544 326.489 206.477C326.225 206.413 326.025 206.549 325.829 206.752L325.894 206.751L326.029 206.816C325.962 206.751 326.026 206.682 326.093 206.616ZM362.443 207.016C362.509 206.949 362.509 206.949 362.443 206.95V207.016ZM367.573 207.227L367.705 207.226C367.77 207.091 367.77 207.025 367.638 207.026C367.704 207.092 367.573 207.16 367.573 207.227ZM356.79 207.412L356.723 207.346L356.655 207.279C356.721 207.212 356.856 207.344 356.79 207.412ZM356.321 207.283L356.323 207.417H356.259L356.192 207.351H356.125C356.191 207.284 356.258 207.284 356.321 207.283ZM355.924 207.354H355.991L355.992 207.419L355.925 207.421L355.924 207.354ZM384.481 207.172C384.548 207.172 384.412 206.976 384.346 207.043L384.481 207.172ZM357.458 207.536C357.324 207.537 357.257 207.47 357.254 207.273C357.388 207.271 357.455 207.338 357.458 207.536ZM354.993 207.563L354.863 207.565C354.863 207.565 354.927 207.563 354.993 207.563ZM384.812 207.103L384.814 207.235L384.748 207.303C384.881 207.301 384.946 207.234 384.946 207.167C384.879 207.168 384.812 207.168 384.812 207.103ZM328.437 207.92C328.636 207.919 328.769 207.851 328.701 207.719C328.501 207.722 328.435 207.788 328.437 207.92ZM352.398 207.592C352.33 207.526 352.33 207.526 352.33 207.46L352.262 207.462C352.264 207.526 352.198 207.527 352.198 207.594L352.265 207.66C352.332 207.726 352.332 207.726 352.398 207.658V207.592ZM320.977 207.738C321.181 208.068 321.25 208.133 321.314 207.999C321.248 207.999 321.179 207.736 320.977 207.738ZM350.535 207.544L350.665 207.479L350.667 207.544C350.734 207.61 350.735 207.675 350.735 207.742C350.668 207.743 350.468 207.613 350.268 207.615C350.334 207.547 350.401 207.547 350.535 207.544ZM348.871 207.629L348.873 207.764C348.806 207.764 348.805 207.697 348.871 207.629ZM351.068 207.673L351.133 207.671L351.202 207.737C351.202 207.804 351.136 207.805 351.068 207.74V207.673ZM350.272 207.814C350.27 207.748 350.27 207.748 350.337 207.748C350.335 207.681 350.27 207.681 350.137 207.683L350.272 207.814ZM348.14 207.772L348.141 207.837C348.14 207.772 348.206 207.771 348.271 207.704L348.406 207.703C348.406 207.767 348.473 207.767 348.54 207.766C348.471 207.7 348.404 207.569 348.203 207.506V207.571L348.138 207.639L348.136 207.571C348.07 207.507 348.07 207.507 348.003 207.508C348.004 207.573 348.072 207.639 348.138 207.639C348.204 207.704 348.204 207.704 348.14 207.772ZM349.27 207.692L349.272 207.893C349.205 207.827 349.139 207.76 349.138 207.694L349.27 207.692ZM327.64 207.996L327.506 207.998L327.508 208.13L327.641 208.129L327.64 207.996ZM355.06 207.561C355.06 207.628 355.661 207.622 355.665 207.889C355.53 207.89 355.328 207.693 355.061 207.695L355.06 207.561ZM351.003 207.939C350.937 207.941 350.869 207.808 350.801 207.608C350.933 207.607 351.001 207.74 351.003 207.939ZM348.941 207.962C349.206 207.96 349.339 207.891 349.405 207.824C349.335 207.557 348.804 207.499 348.604 207.566L348.605 207.699L348.54 207.766C348.607 207.766 348.807 207.831 348.873 207.829V207.764C348.939 207.762 348.939 207.829 348.941 207.962ZM347.345 207.98C347.411 208.047 347.677 207.977 347.607 207.777C347.408 207.713 347.342 207.78 347.345 207.98ZM357.925 207.731C357.991 207.797 358.059 207.863 358.06 207.928L357.926 207.865H357.859L357.792 207.866L357.726 207.8C357.723 207.733 357.79 207.665 357.925 207.731ZM356.328 207.814L356.33 207.948C356.264 207.948 356.263 207.817 356.328 207.814ZM369.841 207.733L370.108 207.731L369.908 207.732C369.908 207.799 369.91 207.866 369.843 207.867L369.841 207.733ZM378.896 207.766L379.292 207.563C379.09 207.365 378.427 207.64 378.095 207.642L378.097 207.843C378.297 207.774 378.694 207.636 378.761 207.636C378.762 207.703 378.829 207.767 378.896 207.766ZM350.739 208.076C350.805 208.009 351.07 208.006 351.137 207.938C351.207 208.204 351.74 208.131 351.807 208.197C351.872 208.13 352.005 208.062 352.337 208.058C352.335 207.991 352.135 207.927 351.804 207.932C351.802 207.865 351.532 207.533 351.464 207.337C351.198 207.407 350.599 207.279 350.333 207.349C350.263 207.149 350.129 207.086 349.999 207.218C349.932 207.287 349.933 207.353 349.934 207.486C350.069 207.486 350.136 207.55 350.201 207.616L350.137 207.683L350.07 207.684L350.004 207.751C349.934 207.551 349.603 207.689 349.535 207.622C349.47 207.69 349.539 207.89 349.473 207.957C349.671 207.889 349.871 207.886 350.072 207.882L350.139 207.949C350.141 208.015 350.208 208.082 350.275 208.081L350.272 207.814C350.606 207.944 350.737 208.009 350.739 208.076ZM347.546 208.11L347.279 208.115L347.28 208.313C347.414 208.313 347.481 208.311 347.547 208.244L347.546 208.11ZM352.604 208.19C352.671 208.189 352.672 208.323 352.739 208.321C352.805 208.255 352.669 207.989 352.604 208.19ZM355.068 208.162L355.202 208.226C355.137 208.427 355.001 208.163 354.934 208.163C354.999 208.096 354.999 208.096 355.068 208.162ZM370.377 207.994L370.379 208.194C370.312 208.195 370.312 208.195 370.246 208.128L370.179 208.129C370.179 208.062 370.244 207.995 370.377 207.994ZM347.681 208.243C347.682 208.377 347.682 208.443 347.748 208.443C347.811 208.308 347.811 208.242 347.681 208.243ZM370.445 208.059C370.512 208.125 370.576 208.058 370.776 207.99C370.974 207.987 371.043 208.053 371.044 208.187C370.977 208.255 370.511 207.992 370.446 208.194L370.445 208.059ZM374.106 208.086C374.173 208.085 374.173 208.152 374.174 208.219L374.107 208.153L374.106 208.086ZM358.19 207.594C358.393 207.791 359.654 207.578 359.92 207.575C359.922 207.709 359.99 207.842 360.057 207.906L360.19 207.839L360.322 207.704C360.389 207.704 360.389 207.771 360.392 207.97C360.325 207.904 359.992 208.04 359.927 208.042C360.128 208.239 360.195 208.306 360.129 208.373C360.062 208.374 359.995 208.175 359.795 208.243L359.792 207.977C359.727 208.043 359.39 207.914 359.326 208.115C359.259 208.049 359.06 207.985 358.66 207.989C358.659 207.922 358.659 207.856 358.591 207.789L358.524 207.723C358.457 207.726 358.528 207.99 358.327 207.925L358.324 207.66C358.257 207.661 358.257 207.661 358.259 207.727C358.192 207.728 358.19 207.661 358.19 207.594ZM355.67 208.422C355.604 208.49 355.535 208.424 355.469 208.357C355.467 208.291 355.467 208.291 355.401 208.291C355.467 208.224 355.667 208.221 355.67 208.422ZM357.665 208.267C357.6 208.267 357.531 208.201 357.331 208.269V208.204C357.397 208.135 357.397 208.135 357.397 208.07V208.135C357.463 208.07 357.597 208.068 357.73 208.133L357.864 208.264L357.866 208.464L357.665 208.267ZM354.473 208.501C354.339 208.502 354.272 208.438 354.271 208.371C354.405 208.369 354.472 208.434 354.473 208.501ZM365.456 208.381C365.52 208.381 365.587 208.313 365.653 208.245C365.72 208.311 365.523 208.514 365.457 208.515L365.32 208.249L365.456 208.381ZM371.18 208.519C371.048 208.52 370.981 208.453 370.981 208.387C371.112 208.386 371.18 208.451 371.18 208.519ZM366.057 208.64C366.056 208.576 366.056 208.576 366.123 208.507C366.123 208.574 366.056 208.576 366.057 208.64ZM351.544 208.668L351.281 208.869L351.747 208.865C351.814 208.797 351.746 208.731 351.544 208.668ZM345.356 208.935C345.422 208.868 345.421 208.801 345.287 208.736C345.288 208.869 345.289 208.936 345.356 208.935ZM362.463 208.815L362.53 208.878C362.797 208.811 363.263 208.739 363.461 208.737V208.803C363.462 208.868 363.462 208.868 363.529 208.866C363.727 208.668 364.129 208.86 364.125 208.53C363.791 208.467 363.723 208.334 363.591 208.602L363.46 208.603C363.394 208.538 363.393 208.471 363.393 208.403C363.326 208.405 363.327 208.538 363.128 208.54C363.126 208.473 363.126 208.406 363.059 208.407C362.992 208.407 362.992 208.407 362.991 208.342C362.925 208.342 362.859 208.475 362.659 208.412L362.592 208.347L362.524 208.214L362.261 208.683L362.462 208.68C362.396 208.747 362.396 208.747 362.463 208.815ZM365.327 208.846C365.393 208.846 365.393 208.846 365.325 208.783C365.259 208.784 365.192 208.784 365.191 208.717C365.125 208.85 365.127 208.917 365.261 208.914L365.327 208.846ZM370.786 208.988C370.852 208.921 370.852 208.921 370.852 208.854C370.784 208.788 370.65 208.723 370.518 208.725C370.519 208.857 370.586 208.99 370.787 209.055L370.786 208.988ZM355.077 209.093L355.211 209.091L355.213 209.358L355.212 209.226C355.145 209.159 355.145 209.159 355.078 209.227L355.077 209.093ZM382.504 209.125C382.572 209.19 382.573 209.257 382.506 209.258L382.504 209.125ZM347.826 209.572C347.762 209.64 347.826 209.639 347.893 209.639C347.959 209.571 347.753 208.842 347.815 208.576C347.75 208.576 347.416 208.579 347.418 208.646L347.759 209.372C347.825 209.439 347.825 209.506 347.826 209.572ZM332.381 209.543L332.715 209.539C332.716 209.606 332.516 209.74 332.119 209.812C332.119 209.745 332.382 209.609 332.381 209.543ZM382.173 209.196C382.04 209.331 381.973 209.332 381.906 209.266C381.905 209.199 381.972 209.198 382.173 209.196ZM348.896 209.828C348.962 209.893 349.026 209.625 348.958 209.561C348.892 209.626 348.894 209.693 348.896 209.828ZM348.029 209.77L348.03 209.905L348.228 209.901C348.228 209.835 348.162 209.769 348.029 209.77ZM333.384 209.798C333.452 209.931 333.586 209.996 333.718 209.993C333.72 210.194 333.318 209.932 333.32 210.131C333.121 210 332.853 209.937 332.586 209.94C332.649 209.672 333.318 209.865 333.384 209.798ZM373.655 209.623L373.657 209.755V209.688L373.655 209.623ZM364.74 209.92C364.675 209.987 364.608 209.988 364.541 209.989C364.539 209.789 364.606 209.789 364.74 209.92ZM375.922 209.797L375.923 209.864L375.857 209.931C375.856 209.865 375.856 209.865 375.789 209.865C375.789 209.798 375.855 209.798 375.922 209.797ZM365.47 209.912L365.539 210.045C365.473 210.112 365.272 209.981 365.272 209.915C365.337 209.846 365.404 209.846 365.47 209.912ZM367.868 210.02L368.003 210.019V210.084L367.87 210.087L367.868 210.02ZM366.139 210.037V209.971L366.27 209.969C366.337 210.036 366.538 210.034 366.605 210.1L366.141 210.105L366.139 210.037ZM364.87 209.852L364.938 209.918C364.938 209.984 364.94 210.051 365.007 210.05L364.94 210.051L364.874 210.119L364.87 209.852ZM333.323 210.332C333.325 210.532 333.26 210.532 333.191 210.466C333.191 210.399 333.257 210.332 333.323 210.332ZM372.064 210.039L372.196 210.037C372.198 210.105 372.065 210.172 371.997 210.107L372.064 210.039ZM371.331 210.048L371.465 210.046L371.467 210.179H371.4L371.332 210.18L371.331 210.048ZM367.07 210.029L367.136 209.893L367.469 209.891C367.535 209.889 367.473 210.158 367.473 210.221L367.072 210.094L367.07 210.029ZM333.123 210.333C332.992 210.469 332.992 210.536 333.127 210.599C333.06 210.666 332.926 210.601 332.725 210.538L333.123 210.333ZM333.994 210.721C334.059 210.655 334.059 210.655 334.125 210.655C334.324 210.585 334.458 210.584 334.458 210.584C334.523 210.518 334.592 210.65 334.657 210.581L334.527 210.851C334.726 210.714 334.925 210.646 335.123 210.643C335.19 210.71 335.057 210.779 334.991 210.711C334.993 210.779 335.19 210.71 335.125 210.91C334.795 210.914 334.461 210.918 334.126 210.854L334.195 210.92L334.197 211.054L333.996 211.056C333.929 211.057 333.929 210.99 333.928 210.923L333.926 210.79L333.994 210.721ZM335.4 211.573C335.333 211.574 335.131 211.511 335.065 211.511C335.198 211.377 335.331 211.374 335.4 211.573ZM335.668 211.637C335.668 211.704 335.602 211.771 335.535 211.773C335.468 211.705 335.534 211.639 335.668 211.637ZM326.021 212.274L326.089 212.34V212.408L325.957 212.408C326.024 212.408 326.022 212.342 326.021 212.274ZM349.188 212.286C349.186 212.087 348.982 211.758 349.047 211.491C348.847 211.493 348.842 211.025 348.576 211.029C348.379 211.364 348.854 212.157 348.857 212.358C349.058 212.421 349.121 212.289 349.188 212.286ZM349.794 212.946C349.728 212.947 349.661 213.014 349.664 213.215C349.731 213.215 349.796 213.147 349.794 212.946ZM348.928 212.756C348.931 213.023 348.999 213.155 349.2 213.22C349.13 212.955 348.995 212.822 348.928 212.756ZM349.265 213.284C349.265 213.351 349.267 213.418 349.201 213.418L349.334 213.416L349.264 213.22L349.265 213.284ZM342.147 213.562L342.345 213.627C342.546 213.625 342.613 213.691 342.679 213.757L342.613 213.758C342.546 213.691 342.346 213.761 342.149 213.896L342.147 213.562ZM343.148 213.884L343.215 213.883V213.95L343.148 213.952V213.884ZM345.151 214.662C345.287 214.725 345.353 214.725 345.351 214.594V214.527L345.484 214.526C345.485 214.658 345.487 214.724 345.421 214.791L345.087 214.795C345.154 214.794 345.153 214.727 345.151 214.662ZM332.056 210.145C332.256 210.211 332.524 210.274 332.857 210.271C332.924 210.336 332.858 210.403 332.657 210.405C332.725 210.471 332.658 210.538 332.593 210.604C332.527 210.605 332.527 210.605 332.527 210.672L333.862 210.924C333.863 211.057 333.931 211.191 334.065 211.321C334.264 211.12 334.599 211.316 334.932 211.245C334.933 211.379 334.934 211.446 335.001 211.512C334.934 211.512 334.867 211.513 334.733 211.448C334.465 211.317 334.331 211.318 334.268 211.52L335.805 211.967C335.869 211.902 336.001 211.835 336.136 211.832C336.203 211.832 336.07 211.964 336.138 212.029C336.337 211.961 336.472 212.094 336.537 212.092C336.602 212.025 336.601 211.958 336.534 211.894C336.469 211.83 336.468 211.763 336.468 211.695C336.532 211.695 336.931 211.625 337.132 211.621L337.067 211.688C337 211.756 337 211.756 337.068 211.822C337.134 211.821 337.201 211.821 337.265 211.752C337.332 211.685 337.399 211.685 337.399 211.751C337.202 211.952 337.002 212.02 336.934 211.823C336.935 211.89 336.802 211.956 336.601 211.958C336.668 212.024 336.606 212.359 336.675 212.424C336.939 212.354 337.609 212.681 337.806 212.413C337.81 212.745 338.406 212.472 338.608 212.669C338.615 213.268 339.406 212.662 339.411 213.194C339.478 213.26 339.545 213.193 339.544 213.126L339.744 213.124C339.747 213.387 340.213 213.318 340.214 213.517C340.283 213.582 340.348 213.515 340.347 213.448V213.381C340.418 213.782 340.482 213.581 340.814 213.577C340.814 213.644 340.814 213.644 340.882 213.71V213.776C341.083 213.773 341.216 213.705 341.28 213.705L341.282 213.838C341.75 213.833 341.952 213.964 342.02 214.163C342.086 214.095 342.684 214.09 342.888 214.419L343.153 214.417C343.351 214.149 343.947 213.943 344.15 214.207C344.084 214.274 344.017 214.275 343.95 214.275C343.884 214.342 343.817 214.344 343.818 214.411C343.885 214.409 344.085 214.408 344.152 214.474C344.152 214.407 344.217 214.34 344.283 214.272C344.35 214.272 344.417 214.27 344.417 214.337C344.351 214.339 344.352 214.538 344.285 214.538L343.423 214.548C343.492 214.813 344.356 214.803 344.358 215.002C344.493 215.001 344.691 214.933 344.957 214.796L344.959 215.063C345.224 215.06 346.161 215.449 346.427 215.446C346.361 215.379 346.224 215.115 346.29 215.048C346.223 214.982 345.557 215.055 345.624 214.989C345.687 214.789 345.955 214.851 346.22 214.781C346.151 214.518 346.004 213.386 345.801 213.057C345.87 213.123 345.936 213.123 345.933 212.989C345.929 212.522 345.926 212.255 345.857 212.056C345.723 212.057 345.656 211.993 345.655 211.86L345.789 211.859C345.719 211.66 345.645 210.861 345.441 210.598L345.507 210.529L345.441 210.531C345.44 210.464 345.37 210.134 345.298 209.667C345.359 209.2 345.221 208.803 345.016 208.405L345.15 208.403C345.015 208.272 344.884 208.207 344.749 208.142C344.683 208.21 344.217 208.215 344.285 208.414L344.017 208.149C344.017 208.216 343.95 208.218 343.883 208.15C343.887 208.552 343.682 208.02 343.548 208.023C343.352 208.091 342.883 207.962 342.617 207.965L342.351 207.968L342.349 207.901C342.282 207.901 342.283 208.035 342.216 208.037C342.216 207.97 342.149 207.903 342.018 207.905C341.484 207.912 340.751 207.852 339.884 207.663C339.82 207.863 339.552 207.799 339.55 207.6C339.483 207.602 339.417 207.668 339.22 207.736C338.951 207.475 338.017 207.551 337.819 207.353C337.752 207.354 337.752 207.354 337.752 207.421H337.686C337.618 207.289 337.551 207.29 337.352 207.491L337.285 207.425C337.217 207.36 337.217 207.36 337.284 207.293C336.818 207.298 336.085 207.239 335.017 207.05L335.018 207.184C334.819 207.053 334.084 206.928 332.951 206.873C332.484 206.812 332.151 206.749 332.088 206.816C332.086 206.749 332.021 206.751 331.954 206.751L330.422 206.768C330.355 206.703 330.219 206.637 330.154 206.637C330.155 206.838 329.421 206.711 329.223 206.714V206.648C329.156 206.582 329.156 206.582 329.155 206.515C328.688 206.587 327.823 206.463 326.957 206.473C326.891 206.606 326.758 206.674 326.558 206.744L326.562 206.943C326.828 206.94 326.962 207.006 326.963 207.139C327.163 207.138 327.359 206.801 327.56 206.866C327.627 206.931 327.363 207.001 327.363 207.068C327.43 207.134 327.432 207.268 327.3 207.402C327.499 207.332 327.632 207.398 327.635 207.598C327.966 207.528 328.232 207.526 328.367 207.657L328.364 207.457C328.432 207.523 328.566 207.522 328.631 207.455C328.634 207.654 329.099 207.649 329.103 207.914C329.037 207.981 328.836 207.917 328.638 207.985C328.773 208.185 328.907 208.315 329.107 208.247C329.108 208.313 329.175 208.38 329.373 208.377C329.314 208.844 330.045 208.836 330.111 208.903C330.047 208.903 329.979 208.971 330.047 209.037L330.049 209.17C330.248 209.101 330.514 209.165 330.718 209.494C330.915 209.425 331.254 209.888 331.518 209.684C331.521 209.886 331.92 209.815 331.922 210.013L332.056 210.145ZM350.022 215.473C350.089 215.473 350.153 215.405 350.152 215.273C349.952 215.207 349.954 215.274 350.022 215.473ZM335.254 216.567C335.189 216.568 335.187 216.501 335.12 216.501L335.121 216.635L335.189 216.634C335.256 216.634 335.256 216.634 335.254 216.567ZM351.831 216.452V216.519H351.764L351.697 216.453C351.697 216.386 351.763 216.386 351.831 216.452ZM336.193 217.023C336.261 217.089 336.392 217.021 336.391 216.954L336.193 217.023ZM353.63 216.766C353.631 216.832 353.567 216.899 353.5 216.901C353.5 216.834 353.565 216.767 353.63 216.766ZM337.461 217.409C337.395 217.41 337.328 217.41 337.328 217.477L337.463 217.476L337.461 217.409ZM338.195 217.601C338.129 217.667 338.13 217.733 338.13 217.8L338.263 217.666C338.261 217.6 338.261 217.6 338.195 217.601ZM339 218.124L339.068 218.19C339 218.124 339.133 217.988 339.131 217.922L338.865 217.925C338.866 217.992 338.866 218.058 338.935 218.125L339 218.124ZM364.11 219.247H364.043L364.11 219.312V219.247ZM353.827 222.555C353.896 222.688 353.961 222.754 354.028 222.752C354.027 222.62 353.96 222.554 353.827 222.555ZM347.926 224.615C347.926 224.682 347.926 224.682 347.992 224.682C347.991 224.615 347.991 224.549 347.925 224.484L347.926 224.615ZM364.844 225.431L364.911 225.429L364.912 225.495H364.845L364.844 225.431ZM348.138 225.813C348.136 225.746 348.135 225.679 348.202 225.679L348.336 225.677L348.339 225.944C348.271 225.944 348.204 225.879 348.138 225.813ZM367.911 226.061L367.979 226.059L367.98 226.193C367.913 226.195 367.913 226.128 367.847 226.128L367.911 226.061ZM373.581 227.132L373.582 227.197L373.518 227.265H373.451C373.451 227.199 373.517 227.133 373.581 227.132ZM321.976 201.402C322.04 201.335 322.04 201.268 321.974 201.268C321.974 201.203 322.106 201.201 322.037 201.001C322.169 201 322.236 200.999 322.303 201.065C322.832 200.595 323.759 200.319 324.292 200.245L326.752 199.952C326.818 199.885 326.885 199.951 326.886 200.083L327.15 199.947C327.351 199.944 327.42 200.078 327.485 200.077C327.818 200.073 328.151 200.07 328.418 200.001C328.751 200.196 330.013 199.916 330.284 200.245C331.012 200.038 332.949 200.484 333.414 200.479C333.481 200.477 333.547 200.544 333.614 200.609C334.147 200.537 335.281 200.789 335.747 200.718C336.349 200.977 336.816 201.107 337.015 201.037C337.284 201.233 338.282 201.223 338.553 201.486L338.617 201.42L338.75 201.352L339.018 201.481C339.086 201.548 339.086 201.548 339.152 201.546L339.282 201.411L339.284 201.612C339.485 201.677 340.351 201.667 340.619 201.864C340.818 201.862 341.486 202.052 341.819 201.982L341.82 202.116C342.02 202.047 342.15 201.979 342.217 201.978C342.287 202.245 342.952 202.17 342.955 202.37C343.287 202.299 343.885 202.36 344.087 202.357C344.15 202.09 344.078 201.626 343.87 201.029L343.937 201.027C343.789 199.632 343.648 198.835 343.511 198.503C343.777 198.5 343.505 198.103 343.504 197.903L343.636 197.902C343.631 197.304 343.419 196.176 343.411 195.575L343.545 195.574C343.337 194.711 343.328 193.778 343.381 192.78C343.042 192.117 343.434 191.581 343.425 190.782C343.359 190.782 343.295 190.85 343.361 190.916C343.226 190.583 343.289 190.319 343.486 190.116C343.417 189.917 343.478 189.517 343.806 188.914C344.142 189.242 344.414 189.773 344.555 190.438C344.823 190.699 344.961 191.097 344.967 191.697C345.034 191.764 345.172 192.093 345.378 192.757L345.716 193.087C345.717 193.154 345.717 193.22 345.651 193.221C345.854 193.485 345.795 194.351 345.865 194.617C345.866 194.683 345.933 194.683 346.066 194.682C345.999 194.682 346.068 194.879 346.068 194.879C346.135 194.945 346.137 195.012 346.07 195.012C346.071 195.079 346.138 195.145 346.269 195.143C346.272 195.345 346.207 195.479 346.143 195.544C346.209 195.61 346.279 196.077 346.48 196.142C346.552 196.605 346.366 197.806 346.7 198.002C346.636 198.201 346.841 198.6 346.642 198.801C346.711 199.001 346.981 199.33 347.051 199.529C347.318 199.526 347.045 198.931 347.042 198.73C347.109 198.73 347.11 198.797 347.176 198.796L347.174 198.662C347.172 198.463 347.042 198.664 346.975 198.664L346.907 198.533C347.04 198.397 347.037 198.332 346.904 198.333C346.971 198.265 347.17 198.264 347.237 198.329C347.241 198.595 347.448 199.391 347.386 199.725C347.389 199.925 347.456 199.991 347.523 199.99C347.529 200.521 347.671 201.386 347.675 201.72C347.607 201.721 347.607 201.654 347.539 201.588V201.521C347.34 201.524 347.34 201.591 347.543 201.788C347.544 201.855 347.486 202.786 347.687 202.785L347.685 202.519L347.95 202.782C348.084 202.78 348.151 202.78 348.151 202.847C348.217 202.713 348.351 202.711 348.418 202.777C348.485 202.776 348.751 202.706 349.281 202.634C349.348 202.698 349.349 202.766 349.349 202.833C349.881 202.693 350.216 202.824 350.42 203.154C350.553 203.153 350.618 203.218 350.62 203.284C350.951 203.216 351.152 203.213 351.286 203.277L351.287 203.476C351.355 203.475 351.553 203.407 351.753 203.404L351.756 203.538C351.821 203.537 352.286 203.532 352.352 203.465C352.42 203.464 352.485 203.464 352.487 203.531C352.554 203.53 353.221 203.655 353.219 203.455C353.954 203.714 355.747 203.36 356.482 203.685C356.547 203.619 356.547 203.552 356.546 203.485C356.814 203.549 357.745 203.538 358.015 203.801C358.346 203.532 358.612 203.595 358.749 203.928C358.816 203.927 358.881 203.793 359.082 203.857L359.086 204.125C359.349 204.12 360.019 204.314 360.35 204.244L360.349 204.11L360.483 204.109L360.479 203.775C360.674 203.574 360.878 203.838 361.077 203.836C361.213 203.967 360.68 204.173 361.148 204.167C361.214 204.1 361.213 203.967 361.211 203.767L361.343 203.766C361.681 204.095 361.949 204.16 362.142 203.89C362.276 203.889 362.343 203.954 362.345 204.022L362.41 203.954L362.476 203.886C362.678 204.085 362.879 204.216 363.079 204.213L363.082 204.481C363.68 204.474 363.947 204.47 364.015 204.537C364.279 204.467 364.412 204.332 364.477 204.199C364.411 204.199 364.209 204.001 364.01 204.07C364.006 203.87 364.072 203.801 364.068 203.403C364.268 203.333 364.271 203.6 364.338 203.6C364.272 203.667 364.206 203.8 364.207 203.867C364.207 203.934 364.408 203.999 364.343 204.066C364.609 204.063 364.743 204.062 364.743 204.129L364.807 204.062L364.94 203.993C365.139 203.991 365.34 204.056 365.409 204.187C365.606 203.985 365.741 204.184 365.941 204.115C365.942 204.182 365.81 204.317 365.877 204.383L365.945 204.449C366.012 204.515 366.012 204.515 365.946 204.579C366.28 204.776 366.612 204.64 366.747 204.771L367.81 204.759C367.741 204.496 367.078 204.702 367.075 204.503L366.543 204.508C366.543 204.441 366.608 204.308 366.608 204.242C366.541 204.31 366.475 204.377 366.476 204.443C366.342 204.378 366.274 204.312 366.205 204.179C366.273 204.111 366.606 204.174 366.672 204.107L366.673 204.242C366.807 204.24 366.873 204.238 366.873 204.305C366.94 204.303 366.871 204.039 366.938 204.038L367.006 204.17L367.139 204.168C367.208 204.368 367.41 204.433 367.739 204.429H367.807L367.875 204.494C367.873 204.428 367.807 204.429 367.739 204.429L367.541 204.231C367.474 204.165 367.407 204.165 367.406 204.099C367.868 203.961 368.202 204.091 368.406 204.422C368.207 204.425 368.075 204.492 367.942 204.625C368.01 204.69 368.211 204.755 368.677 204.75C368.678 204.817 368.678 204.817 368.612 204.884V204.951C368.946 204.946 369.209 204.876 369.342 204.809C369.409 204.808 369.476 204.808 369.61 204.873C369.811 204.937 369.944 204.936 369.943 204.803C370.01 204.869 370.343 204.865 370.875 204.86C370.875 204.926 370.875 204.926 370.942 204.924L371.01 205.057C371.144 205.056 371.21 204.989 371.209 204.922C371.274 204.855 371.274 204.855 371.274 204.921L371.342 205.054C371.41 205.054 371.475 204.987 371.475 204.919C371.541 204.918 371.609 204.984 371.81 205.05C371.876 204.982 371.809 204.982 371.742 204.917C371.674 204.85 371.607 204.784 371.673 204.717C371.74 204.716 371.805 204.649 371.805 204.583L371.871 204.647L371.807 204.716C372.137 204.645 372.669 204.64 373.003 204.636C373.205 204.833 373.271 204.832 373.269 204.634H373.203C373.137 204.635 373.07 204.569 373.133 204.436C373.07 204.635 372.598 204.176 372.401 204.378C372.266 204.247 372.199 204.179 372.132 204.181C372.13 204.047 372.262 203.978 372.462 203.977L372.797 204.041C372.864 204.106 372.932 204.172 372.933 204.305C373 204.303 373.066 204.237 372.997 204.172L372.996 204.038C373.197 204.036 373.327 203.968 373.394 203.967C373.462 204.033 373.463 204.165 373.465 204.366C373.929 204.16 374.4 204.487 374.731 204.419L374.732 204.55C375.197 204.478 375.464 204.475 375.666 204.673C376.93 204.593 377.661 204.519 377.994 204.58C378.326 204.379 378.724 204.374 379.191 204.435C379.258 204.434 379.323 204.368 379.321 204.235C379.588 204.231 379.854 204.162 379.857 204.428C380.055 204.228 381.054 204.282 380.787 204.351L380.788 204.417C380.854 204.351 381.122 204.414 381.32 204.213C381.32 204.279 381.455 204.41 381.455 204.477C381.389 204.544 381.328 204.945 381.328 205.011C381.794 204.94 382.464 205.466 382.929 205.26L382.996 205.327L383.129 205.325C383.128 205.258 383.128 205.258 383.062 205.258C383.261 205.257 383.537 206.184 383.805 206.249C383.872 206.314 383.81 206.714 384.078 206.778L384.011 206.846L384.012 206.913C384.476 206.775 384.742 206.705 384.809 206.771C384.742 206.772 384.477 206.841 384.412 206.909C384.546 207.04 384.614 207.107 384.614 207.17C384.68 207.039 384.744 206.972 384.943 206.969C385.012 207.167 385.015 207.299 384.949 207.368C385.283 207.498 385.353 207.762 385.156 208.166C384.958 208.234 384.758 208.303 384.496 208.506L384.228 208.509C384.165 208.774 383.497 208.648 383.498 208.849C383.167 208.785 382.899 208.654 382.765 208.591C382.702 208.79 382.1 208.73 382.036 208.997C381.838 208.932 381.571 209.001 381.107 209.207V209.141C381.105 209.074 381.105 209.074 381.039 209.074C380.974 209.275 380.443 209.215 380.377 209.281L380.243 209.284C380.043 209.219 380.043 209.219 379.844 209.289L379.845 209.422L379.777 209.289L379.379 209.494C378.715 209.5 378.315 209.571 378.117 209.64C377.451 209.515 376.855 209.854 376.123 209.863C376.056 209.863 376.121 209.662 376.053 209.596L375.987 209.663L375.854 209.664C375.921 209.597 375.919 209.463 375.851 209.399L375.718 209.4L375.522 209.802L374.724 209.81C374.791 209.942 374.727 210.011 374.527 210.012C374.593 209.945 374.59 209.745 374.455 209.547C374.322 209.615 374.255 209.616 374.188 209.549C374.057 209.684 373.991 209.751 373.992 209.818H374.058C374.126 209.884 374.126 209.952 374.06 210.019C374.193 209.95 374.326 209.949 374.458 209.947C374.46 210.013 374.261 210.082 373.795 210.151C373.793 210.088 373.726 210.022 373.724 209.821C373.591 209.822 373.459 209.891 373.395 210.092C373.128 210.029 372.994 209.963 372.994 209.896C372.996 210.097 372.727 209.834 372.663 210.034C372.661 209.966 372.66 209.767 372.659 209.701C372.592 209.701 372.527 209.901 372.461 209.836L372.061 209.84C371.726 209.577 370.128 209.661 369.796 209.597C369.729 209.599 369.729 209.599 369.662 209.666L369.596 209.734C369.129 209.606 368.797 209.61 368.6 209.745C368.665 209.677 368.665 209.677 368.598 209.611C368.531 209.679 368.465 209.679 368.464 209.612C368.397 209.614 368.398 209.681 368.4 209.814C367.532 209.623 367.134 209.693 367.069 209.894L366.47 209.901C366.469 209.835 366.469 209.835 366.536 209.835C366.603 209.834 366.67 209.831 366.734 209.764L366.666 209.7V209.633C366.533 209.634 366.467 209.701 366.469 209.768C366.469 209.835 366.469 209.835 366.403 209.901C366.336 209.836 366.203 209.838 365.937 209.84L365.869 209.707C365.868 209.508 365.47 209.778 365.07 209.783C364.735 209.453 363.537 209.667 363.203 209.471C363.206 209.538 363.206 209.538 363.139 209.538C363.072 209.472 362.671 209.476 362.604 209.544C362.538 209.544 362.469 209.345 362.402 209.346L362.536 209.345C362.602 209.343 362.602 209.343 362.668 209.276V209.209C362.6 209.077 362.466 209.079 362.269 209.28L362.337 209.347L362.405 209.48C361.94 209.551 361.273 209.559 360.807 209.563C360.741 209.631 360.741 209.631 360.674 209.566L360.672 209.432C360.606 209.433 360.541 209.433 360.541 209.5C360.476 209.567 360.476 209.567 360.41 209.501C360.407 209.367 359.608 209.377 359.609 209.51C359.476 209.577 359.409 209.511 359.407 209.38C359.341 209.447 358.609 209.387 358.413 209.657C358.211 209.458 357.813 209.73 357.549 209.733L357.546 209.532C357.414 209.534 357.346 209.534 357.346 209.468L357.28 209.601L357.282 209.735C357.214 209.669 356.614 209.677 356.412 209.478L356.415 209.745C356.217 209.748 356.215 209.481 356.015 209.482C356.016 209.616 355.949 209.616 355.748 209.552C355.681 209.486 355.544 209.222 355.208 208.827L354.94 208.83C354.875 208.764 354.875 208.764 354.939 208.697L355.006 208.629C355.005 208.563 354.739 208.565 354.737 208.364C354.871 208.363 355.07 208.495 355.408 208.759C355.54 208.758 355.605 208.689 355.537 208.557C355.604 208.557 355.672 208.622 355.672 208.689C355.739 208.754 355.874 208.819 355.872 208.62L355.871 208.487C355.938 208.553 355.938 208.553 355.939 208.62C356.006 208.684 356.007 208.751 356.007 208.818C356.204 208.616 356.203 208.55 356.136 208.485C356.333 208.415 356.536 208.612 356.741 208.942L356.87 208.675L356.934 208.474C356.936 208.541 357.069 208.607 357.269 208.605L357.271 208.672C357.338 208.67 357.603 208.668 357.67 208.734C357.734 208.6 357.932 208.397 357.865 208.398L357.932 208.397C358.132 208.395 358.467 208.524 358.667 208.455C358.734 208.588 358.801 208.654 359.001 208.586C359.001 208.651 359.266 208.716 359.269 208.913C359.533 208.713 360.001 208.841 360.267 208.771L360.27 208.97C360.335 208.902 360.401 208.836 360.401 208.77L360.665 208.766C360.733 208.833 360.803 209.096 361.003 209.161C361.068 209.161 361.135 209.093 361.133 208.96C361.133 208.893 361.066 208.893 360.999 208.895L361.467 208.889C361.799 208.952 362.065 208.883 362.129 208.75C362.129 208.684 361.997 208.62 361.73 208.622C361.66 208.422 361.528 208.424 361.196 208.562C361.129 208.562 361.129 208.495 361.128 208.429C361.062 208.496 360.861 208.431 360.529 208.303C360.461 208.236 360.589 207.967 360.658 208.167C360.725 208.1 360.723 208.033 360.656 207.967L360.79 208.033C360.99 208.03 360.988 207.764 360.788 207.765C360.854 207.698 360.988 207.764 361.19 207.962C361.257 207.961 361.254 207.827 361.454 207.826C361.388 207.893 361.524 208.025 361.524 208.091L361.657 207.957L361.722 207.889C361.922 207.888 362.056 208.219 362.256 208.149C362.322 208.082 362.055 208.018 362.054 207.951C362.119 207.884 362.187 207.884 362.253 207.882L362.386 207.814L362.388 207.948C362.455 207.947 362.585 207.812 362.652 207.812C362.657 208.145 362.921 208.009 363.123 208.207L363.121 208.006C363.188 208.006 363.255 208.005 363.322 208.072L363.454 208.135C363.521 208.135 363.786 208.066 363.853 207.998C363.919 207.998 363.989 208.264 364.056 208.263C364.322 208.393 365.254 208.316 365.257 208.65C365.458 208.715 365.922 208.509 365.925 208.708C365.992 208.708 365.99 208.643 365.99 208.576C365.989 208.509 365.989 208.509 366.055 208.441C366.253 208.439 366.387 208.438 366.452 208.371C366.519 208.369 366.519 208.437 366.586 208.437C366.853 208.367 367.455 208.626 367.652 208.424C367.852 208.488 367.987 208.753 368.056 208.817L368.453 208.682C368.384 208.55 368.451 208.482 368.518 208.482L368.651 208.48C368.651 208.414 368.185 208.485 368.117 208.219C368.382 208.282 368.717 208.345 369.114 208.34C369.181 208.406 369.718 208.601 369.786 208.798C369.853 208.797 370.054 208.861 370.387 208.924C370.455 208.924 370.454 208.79 370.45 208.528L370.515 208.459C370.58 208.392 370.647 208.391 370.714 208.456C370.648 208.524 370.715 208.589 370.851 208.722C370.918 208.787 370.985 208.785 370.985 208.852C371.182 208.651 371.449 208.649 371.718 208.844L371.851 208.775C371.849 208.645 371.716 208.579 371.449 208.582C371.515 208.515 371.513 208.448 371.512 208.313C371.579 208.313 371.646 208.313 371.713 208.379L371.846 208.444C374.37 207.949 372.91 208.233 373.441 208.226C373.506 208.094 373.572 208.025 373.771 207.957C373.705 208.091 373.773 208.155 373.973 208.154L373.976 208.354C374.108 208.286 374.242 208.352 374.309 208.417C374.375 208.35 374.443 208.349 374.642 208.414C374.774 208.412 374.774 208.347 374.707 208.212L374.506 208.215C374.506 208.148 374.436 207.882 374.436 207.817C374.503 207.881 374.571 208.014 374.573 208.148C374.638 208.08 374.836 207.944 374.903 207.944C374.905 208.144 374.973 208.277 375.173 208.34L375.239 208.274C375.306 208.272 375.306 208.272 375.238 208.207V208.141C375.704 208.136 375.905 208.265 375.975 208.6C376.041 208.533 376.108 208.464 376.175 208.464L376.306 208.463C376.305 208.396 376.039 208.398 376.038 208.199C376.37 208.128 376.569 208.259 376.573 208.592C376.64 208.591 376.707 208.591 376.773 208.524C376.84 208.522 376.906 208.521 376.906 208.455L376.772 208.456L376.705 208.392C376.703 208.325 376.836 208.257 377.037 208.255C377.032 207.853 376.567 207.925 376.432 207.795C376.497 207.727 377.03 207.721 377.23 207.651C377.499 207.783 377.763 207.846 378.03 207.776C377.827 207.512 377.758 207.38 377.758 207.38C377.161 207.454 376.76 207.324 376.557 206.995C376.358 207.197 376.293 207.261 376.293 207.328C376.095 207.331 376.029 207.398 375.963 207.465C375.763 207.401 374.898 207.544 374.698 207.346C374.699 207.413 374.231 207.351 374.232 207.551C373.965 207.488 373.236 207.563 372.899 207.366C372.833 207.433 372.766 207.435 372.634 207.436C372.634 207.369 372.634 207.369 372.567 207.303L372.498 207.239C372.233 207.307 371.301 207.186 371.102 207.387C370.9 207.256 370.633 207.192 370.169 207.198C370.168 207.132 370.302 207.13 370.367 207.13L370.435 207.129V207.063C370.097 206.732 369.762 206.669 369.565 206.938C369.499 206.872 369.365 206.873 369.165 206.875C369.169 207.143 369.768 207.069 369.836 207.269L368.836 207.079C368.77 207.146 368.77 207.146 368.837 207.212L368.907 207.411C368.706 207.345 368.172 207.285 368.105 207.287C368.105 207.351 368.173 207.418 368.374 207.483C368.576 207.547 368.642 207.613 368.644 207.746C367.775 207.556 367.375 207.427 367.308 207.496C367.242 207.428 366.909 207.365 366.308 207.372L366.239 207.241C366.239 207.175 366.239 207.175 366.175 207.175C365.908 207.245 365.172 207.053 364.976 207.322C364.908 207.122 364.377 207.129 364.11 207.198C363.841 207.001 363.376 206.939 362.644 207.015C362.644 207.081 362.645 207.146 362.711 207.146C362.378 207.151 362.245 207.086 362.245 207.019C362.178 207.02 362.112 207.154 362.115 207.353C362.115 207.418 362.181 207.417 362.316 207.483C362.25 207.483 362.183 207.484 362.115 207.418C362.047 207.354 361.983 207.354 361.916 207.419C361.778 206.957 360.981 207.165 360.712 206.902C360.645 206.904 360.245 206.841 360.047 206.909C360.045 206.709 359.78 206.846 359.712 206.78C359.644 206.78 359.646 206.847 359.646 206.914C359.58 206.914 359.58 206.981 359.581 207.048C358.979 206.722 358.513 206.659 358.317 206.995C358.245 206.595 357.912 206.599 357.251 207.006C357.251 206.939 357.185 206.94 357.118 206.942C356.917 206.877 356.85 206.811 356.915 206.744C356.848 206.744 356.783 206.812 356.718 206.88C356.717 206.812 356.649 206.679 356.649 206.613C356.381 206.549 356.248 206.484 356.248 206.484C356.18 206.486 356.048 206.552 355.983 206.621C355.916 206.556 355.583 206.691 355.514 206.492L355.384 206.759C355.314 206.495 354.853 206.7 354.652 206.502C354.386 206.705 353.846 206.111 353.515 206.314C353.448 206.051 352.781 206.123 352.579 205.926C352.313 205.929 352.317 206.261 352.184 206.396C352.117 206.329 351.919 206.332 351.653 206.334C351.653 206.401 351.721 206.467 351.855 206.533L351.989 206.73C352.188 206.729 352.321 206.661 352.387 206.592C352.456 206.792 352.523 206.859 352.59 206.858C352.653 206.657 352.789 206.79 352.989 206.72C353.055 206.72 352.991 206.986 353.191 206.985C352.996 207.454 353.73 207.644 353.994 207.442C354.129 207.573 354.196 207.639 354.198 207.706L354.394 207.438C354.662 207.566 354.796 207.631 354.797 207.698C354.73 207.698 354.464 207.834 354.265 207.771C354.267 207.971 354.533 207.967 354.535 208.168C354.468 208.168 353.8 208.042 353.534 207.98C353.598 207.779 353.398 207.647 353.398 207.58C353.198 207.649 352.996 207.454 352.796 207.457C352.798 207.52 352.933 207.651 352.867 207.852C353.066 207.784 353.2 207.85 353.203 208.049C353.004 208.118 352.871 208.186 352.871 208.186C352.872 208.253 353.137 208.183 352.941 208.385C353.14 208.383 353.339 208.313 353.405 208.18C353.604 208.311 353.673 208.511 353.609 208.844C353.809 208.842 353.738 208.377 353.806 208.376L354.141 208.639L354.208 208.637L354.272 208.505C354.275 208.703 354.476 208.835 354.477 208.902C354.544 208.9 354.61 208.833 354.607 208.634C354.807 208.631 354.875 208.764 354.878 209.096C354.612 209.032 354.344 208.967 354.143 208.97L354.145 209.104L354.148 209.302C354.081 209.238 353.877 208.908 353.676 208.91C353.611 208.975 353.545 209.043 353.546 209.176C353.349 209.179 353.214 209.047 353.014 209.115C353.014 209.048 353.28 208.979 353.348 209.045C353.347 208.913 353.212 208.914 352.945 208.983C352.88 208.983 352.677 208.855 352.683 209.186C352.549 209.188 351.885 209.195 351.881 208.864L351.882 208.995C351.883 209.061 351.883 209.061 351.816 209.062L350.016 208.884C350.013 208.617 349.878 208.486 349.545 208.49C349.546 208.557 349.748 208.687 349.683 208.888C349.616 208.888 349.55 208.889 349.349 208.823C349.083 208.761 348.95 208.83 348.885 208.897C348.817 208.764 348.615 208.699 348.15 208.704C348.151 208.904 348.565 210.098 348.572 210.829C348.772 210.761 348.837 210.626 348.7 210.297C348.762 209.829 348.759 209.563 348.557 209.432L348.553 208.967H348.486C348.685 208.899 348.955 209.093 349.158 209.425C349.223 209.424 349.221 209.291 349.219 209.024C349.42 209.222 349.229 210.024 349.43 210.089C349.365 210.355 349.301 210.555 349.368 210.621H349.435L349.501 210.552C349.57 210.752 349.442 211.353 349.643 211.351C349.782 211.814 349.918 212.146 349.986 212.211C349.922 212.413 349.856 212.546 349.856 212.614C349.859 212.681 349.925 212.679 349.991 212.677C349.991 212.744 350.067 213.542 350.002 213.542C350.002 213.609 350.069 213.609 350.136 213.608C350.138 213.874 350.281 214.737 350.08 214.74L350.214 214.804C350.282 214.871 350.349 214.87 350.349 214.937C350.285 215.138 350.559 215.802 350.361 216.004C350.563 216.199 350.502 216.665 350.703 216.864C351.035 216.793 351.771 217.118 352.233 216.913C352.169 217.114 352.039 217.183 351.839 217.251L351.973 217.25C352.104 217.181 352.169 217.181 352.238 217.247C352.569 217.044 353.033 216.906 353.5 216.901C353.501 216.968 353.632 217.031 353.901 217.162C353.901 217.23 353.57 217.232 353.637 217.432C353.637 217.497 353.704 217.497 353.771 217.495C353.971 217.494 354.038 217.558 353.974 217.692C354.038 217.558 354.238 217.623 354.975 217.881C354.975 217.816 355.237 217.68 355.303 217.479C355.57 217.542 355.837 217.538 356.035 217.471C355.971 217.671 355.438 217.743 355.372 217.81C355.374 217.877 355.642 218.007 355.643 218.074L355.709 218.007C355.707 217.94 355.707 217.873 355.773 217.94L355.776 218.073C356.041 218.003 356.441 218.132 356.641 218.13V218.197C356.708 218.263 356.708 218.263 356.709 218.33C356.976 218.26 357.645 218.518 357.842 218.45C357.909 218.449 357.911 218.516 357.911 218.583C358.708 218.441 358.977 218.571 359.44 218.432L360.776 218.882L360.712 219.017C360.981 219.28 361.913 219.204 362.113 219.268C362.575 218.996 363.043 219.058 363.577 219.386C363.909 219.248 364.244 219.311 364.578 219.507L365.176 219.501C365.509 219.431 365.71 219.429 365.71 219.496C365.644 219.563 365.578 219.697 365.579 219.763C365.647 219.761 366.311 219.621 366.51 219.687L366.513 219.887C367.109 219.681 368.645 220.064 369.112 219.99C369.711 220.183 370.579 220.306 371.713 220.426C372.777 220.482 373.377 220.542 373.71 220.605C373.778 220.67 373.842 220.469 373.909 220.469C374.175 220.467 375.043 220.724 375.307 220.654C376.708 220.906 377.842 221.027 378.774 220.949C379.043 221.147 380.039 221.003 380.375 221.198C381.239 221.123 383.239 221.366 384.304 221.356L384.305 221.487C385.035 221.479 385.504 221.541 385.838 221.671L387.169 221.656C388.036 221.846 390.502 222.019 391.502 222.274C391.702 222.206 392.237 222.532 392.434 222.33C392.769 222.393 392.904 222.459 392.968 222.392C393.169 222.457 393.7 222.451 393.903 222.647C394.367 222.442 395.568 222.694 396.1 222.491C396.299 222.555 396.563 222.486 396.764 222.417C396.829 222.349 396.896 222.349 396.963 222.415C397.032 222.481 397.097 222.481 397.163 222.479C397.959 222.138 398.763 222.595 399.036 223.19C399.369 223.386 399.709 223.982 399.986 224.911C399.924 225.178 400.143 226.971 399.81 227.042C399.812 227.242 399.948 227.374 399.815 227.509L399.749 227.576C399.82 227.975 399.624 228.308 399.16 228.58C398.297 228.79 395.037 228.892 389.444 228.754C388.845 228.76 387.91 228.571 386.712 228.517L384.113 228.347C383.846 228.217 383.579 228.22 383.249 228.356C382.647 228.231 381.715 228.107 380.384 227.988C379.116 227.869 378.182 227.746 377.582 227.619C377.515 227.553 377.45 227.62 377.451 227.687L377.317 227.688C377.316 227.621 377.25 227.622 377.249 227.556C376.984 227.759 376.247 227.233 375.984 227.504L375.982 227.369C375.918 227.571 375.583 227.44 375.583 227.507C375.514 227.242 374.916 227.315 374.915 227.248C374.848 227.182 374.782 227.25 374.782 227.316C374.782 227.316 374.718 227.385 374.651 227.385L374.649 227.185C374.448 227.186 374.182 227.125 373.912 226.995C373.847 226.995 373.916 227.26 373.716 227.261C373.781 226.996 373.38 226.867 373.183 227.07C373.116 227.003 372.848 226.94 372.314 226.813L372.313 226.746C372.38 226.678 372.38 226.678 372.377 226.612C372.311 226.612 372.246 226.679 372.115 226.814C371.58 226.62 370.514 226.498 370.046 226.438C370.046 226.37 369.979 226.305 369.911 226.239C369.845 226.306 369.78 226.375 369.713 226.375C369.578 226.375 369.512 226.31 369.51 226.176C369.446 226.244 368.376 225.856 368.178 226.191L368.045 226.126L368.177 226.058C368.11 225.992 368.045 225.925 367.846 225.928C367.779 225.928 367.779 225.995 367.78 226.129C367.714 226.129 367.578 225.865 367.511 225.866C366.512 225.812 364.375 225.235 363.308 225.046L363.31 225.18C363.242 225.18 363.242 225.115 363.24 224.913C362.372 224.858 360.236 224.217 359.37 224.226C359.172 224.094 358.702 223.967 357.967 223.84C357.967 223.773 357.901 223.774 357.769 223.776L357.569 223.779C356.632 223.454 355.432 223.136 353.898 222.887C353.896 222.821 353.564 222.757 353.628 222.556C353.429 222.559 353.363 222.626 353.363 222.693C353.296 222.694 353.228 222.563 353.295 222.494C353.227 222.428 353.162 222.496 353.163 222.563C353.163 222.628 353.096 222.628 353.03 222.63C352.962 222.565 352.962 222.498 353.095 222.497C353.026 222.297 352.693 222.301 352.164 222.506C351.828 222.311 351.427 222.181 351.026 222.186C351.228 222.384 351.368 223.048 351.438 223.245C351.37 223.18 351.372 223.245 351.307 223.314C351.241 223.381 351.241 223.448 351.174 223.448C351.382 224.046 350.996 225.447 351.269 226.043C351.27 226.177 351.204 226.244 351.071 226.245C351.071 226.312 351.138 226.311 351.205 226.311L350.894 228.245C350.697 228.447 349.912 229.655 349.383 229.927C349.448 229.86 349.709 229.523 349.709 229.456C349.248 229.728 348.848 229.866 348.448 229.87C348.38 229.671 348.709 229.335 348.708 229.268C348.772 229 348.633 228.47 348.632 228.403L348.631 228.27C348.632 228.337 348.632 228.337 348.699 228.336C348.698 228.269 348.631 228.204 348.495 228.006L348.628 228.004L348.068 225.547C348.202 225.613 348.269 225.611 348.266 225.479C348.265 225.279 348.066 225.481 348.001 225.481C347.931 225.082 347.858 224.551 347.651 223.819C347.716 223.752 347.716 223.752 347.785 223.818L347.851 223.884C347.848 223.486 347.644 223.155 347.64 222.89L347.44 222.891L347.437 222.558L347.304 222.559C347.367 222.226 347.16 221.63 347.157 221.362C347.09 221.297 347.09 221.297 347.156 221.23C347.285 220.896 347.086 220.964 347.088 221.031L346.952 220.9C346.354 220.839 344.548 220.127 343.813 220.069C343.813 220.002 343.746 220.003 343.746 219.936C343.28 219.807 342.612 219.616 342.143 219.354L341.876 219.357C341.274 219.096 339.402 218.453 339.07 218.391L338.8 218.126L338.736 218.193C338.669 218.26 338.669 218.26 338.602 218.195C338.399 217.996 338.198 217.866 338.064 217.868L338.062 217.667C337.996 217.668 337.995 217.603 337.93 217.604L337.934 217.869L337.13 217.547L337.127 217.413C337.063 217.48 336.863 217.482 336.662 217.418C336.728 217.351 336.861 217.283 337.193 217.212C337.123 216.946 336.461 217.221 336.395 217.222C335.392 216.965 333.25 215.79 331.983 215.538C331.98 215.272 331.379 215.211 331.11 214.947C331.043 215.015 331.044 215.081 331.046 215.148C330.442 214.69 330.106 214.428 329.907 214.497C329.771 214.164 329.501 214.035 329.103 214.039L329.102 213.905C328.836 213.908 328.564 213.512 328.232 213.582C328.296 213.382 328.029 213.254 327.831 213.322C327.763 213.122 327.494 212.992 327.028 212.997C327.094 212.928 327.026 212.864 326.893 212.798C326.824 212.732 326.757 212.667 326.757 212.599L326.69 212.601C326.69 212.667 326.624 212.735 326.557 212.668L326.556 212.535L326.292 212.538C326.225 212.473 326.156 212.34 326.221 212.206H326.155C326.088 212.207 326.02 212.14 326.087 212.073C325.754 212.277 325.351 211.817 325.151 211.886C324.95 211.688 324.816 211.557 324.75 211.625L324.683 211.559C324.616 211.492 324.616 211.492 324.682 211.425C324.146 211.23 323.674 210.701 323.407 210.508C323.339 210.441 323.339 210.441 323.406 210.374L323.205 210.376L321.928 209.125L321.862 209.194C321.794 209.194 321.793 209.127 321.793 209.061C321.724 208.861 321.724 208.861 321.524 208.862C321.525 208.929 321.525 208.929 321.592 208.997C321.525 208.997 321.255 208.6 321.056 208.669C321.048 208.135 320.845 207.807 320.445 207.61L320.449 207.875C320.381 207.81 320.242 207.212 320.04 207.148C320.102 206.681 319.889 205.419 320.085 205.149C320.146 204.551 320.342 204.216 320.673 204.012C320.603 203.746 320.793 203.013 320.79 202.812C320.923 202.677 320.989 202.611 320.989 202.545C321.255 202.542 321.384 202.075 321.449 202.008C321.312 201.61 321.775 201.405 321.907 201.27L321.974 201.268L321.976 201.402Z" fill="white"/>
<path fill-rule="evenodd" clip-rule="evenodd" d="M334.704 274.256C338.375 279.352 342.401 283.607 347.015 287.265L348.651 288.563L349.997 286.964C353.838 282.397 356.901 277.346 359.103 271.951L360.394 268.787L356.982 268.992C349.245 269.456 342.244 270.087 336.174 270.866L332.592 271.326L334.704 274.256ZM399.746 268.033C391.331 267.972 383.237 268.037 375.656 268.224L371.301 268.331L374.033 271.723C378.203 276.901 383.048 281.59 387.733 286.124L387.881 286.268C386.949 287.537 385.94 288.886 384.846 290.138C378.924 284.135 373.166 278.031 368.48 272.789L366.386 270.449L364.959 273.247C361.442 280.145 357.01 286.964 351.777 293.529L346.404 294C338.678 286.649 331.41 278.924 324.777 271.015C325.183 268.567 326.292 264.958 327.401 262.377C330.28 263.63 333.716 263.76 336.827 263.879L337.763 263.915C354.747 264.622 373.134 263.708 397.218 260.953C398.41 263.274 399.309 265.806 399.746 268.033Z" fill="white"/>
</svg>
