<svg width="90" height="61" viewBox="0 0 90 61" fill="none" xmlns="http://www.w3.org/2000/svg">
<g clip-path="url(#clip0_1_25659)">
<g opacity="0.7">
<path d="M88.7056 42.2091L88.5452 42.1901C88.6507 41.1668 88.2251 40.0942 87.2834 39.0026C82.556 33.5371 65.5606 28.3103 45.9518 26.2901C26.3468 24.2699 8.62881 25.9225 2.86609 30.3078C1.71354 31.1833 1.0767 32.1498 0.967312 33.1732L0.811035 33.158L1.45959 26.9951C1.56898 25.9604 2.19018 24.9863 3.30757 24.1069C8.99219 19.6307 26.7961 17.9327 46.6199 19.9756C58.3446 21.1847 69.2412 23.5119 77.3051 26.5365C85.4004 29.5687 89.6782 32.9496 89.3538 36.05L88.7093 42.2091C88.7056 42.2053 88.7056 42.2091 88.7056 42.2091ZM29.8826 25.282C34.9382 25.282 40.3766 25.5586 45.9714 26.1348C65.6154 28.1587 82.6535 33.4082 87.4085 38.904C88.0802 39.681 88.4946 40.4504 88.6545 41.2009L89.1977 36.0273C89.8582 29.7431 70.7492 22.6098 46.6043 20.1234C26.8234 18.0881 9.0625 19.7748 3.40915 24.2245C2.32302 25.0773 1.72135 26.0134 1.61586 27.0103L1.0728 32.1802C1.38535 31.4752 1.95186 30.8081 2.76841 30.1865C6.90976 27.033 17.1811 25.282 29.8826 25.282Z" fill="white"/>
<path d="M22.901 55.5209H22.815V55.445L22.8072 55.5209C21.4203 55.4188 20.3341 54.9711 19.584 54.1906L19.4902 54.0922C18.9315 53.5119 18.5604 52.7539 18.3924 51.8408C18.2283 50.9534 18.2517 49.9114 18.4627 48.7362C18.6698 47.5841 19.0526 46.303 19.6074 44.9196C20.1544 43.5475 20.8733 42.0694 21.7445 40.5192C23.5066 37.3732 25.8429 34.0037 28.6833 30.5053C31.6252 26.8819 34.9812 23.2774 38.6616 19.7866C42.3458 16.2958 46.1277 13.1309 49.9096 10.383C53.5668 7.72606 57.0674 5.56564 60.3177 3.95858C61.9194 3.16642 63.4471 2.51829 64.8496 2.03693C66.2718 1.54799 67.5847 1.22582 68.7529 1.07042C69.9482 0.915021 71.0033 0.937763 71.8902 1.13864C72.808 1.34332 73.5543 1.74508 74.1172 2.32499L74.211 2.42353C74.961 3.20053 75.3674 4.29212 75.41 5.67177L75.4143 5.75895L75.1522 5.73997C68.3816 5.37233 55.2739 13.0741 43.221 24.4978C31.172 35.9216 22.8306 48.5544 22.8971 55.2706L22.901 55.5209ZM70.2336 1.12348C69.7724 1.12348 69.2839 1.1576 68.7683 1.22582C67.6119 1.37743 66.3111 1.6996 64.9007 2.18475C63.5019 2.66232 61.986 3.30665 60.3843 4.09881C57.1452 5.70209 53.6525 7.85872 50.0033 10.5081C46.2293 13.2522 42.4474 16.4133 38.7709 19.8965C35.0945 23.3797 31.7424 26.9804 28.8083 30.6001C25.9758 34.0909 23.6433 37.4528 21.8852 40.5912C21.0217 42.1338 20.3029 43.6082 19.7598 44.9765C19.2089 46.3485 18.8299 47.6258 18.6229 48.763C18.4158 49.9189 18.3924 50.9459 18.5525 51.8141C18.7127 52.6972 19.0683 53.4284 19.6074 53.9895L19.7012 54.088C20.4084 54.8197 21.428 55.2481 22.733 55.3616V55.3428C22.604 48.6073 30.9805 35.8761 43.1037 24.3841C54.9107 13.1954 67.745 5.56944 74.6797 5.56944C74.8672 5.56944 75.0468 5.57323 75.2268 5.58458H75.2422C75.1836 4.28454 74.7969 3.25738 74.0896 2.52587L73.9958 2.42732C73.4568 1.87016 72.7377 1.48735 71.8508 1.28646C71.3629 1.17655 70.8233 1.12348 70.2336 1.12348Z" fill="white"/>
<path d="M59.6887 50.2372C54.516 50.2372 49.0893 49.9494 43.5336 49.377C37.6068 48.7667 31.8909 47.8723 26.5423 46.7162C21.3734 45.5981 16.7671 44.2866 12.8446 42.8198C10.9145 42.0959 9.16812 41.3378 7.65617 40.5646C6.13245 39.7876 4.83534 38.9879 3.8039 38.1919C2.74903 37.377 1.95983 36.5584 1.45584 35.7548C0.932304 34.921 0.709609 34.0985 0.795561 33.2988L0.811189 33.1623C0.92449 32.0935 1.58476 31.0928 2.77247 30.187L2.83108 30.1415L3.0108 30.3348H2.99907C7.88665 35.7472 24.8037 40.9133 44.2095 42.9108C63.6154 44.9082 81.2395 43.3012 87.1509 39.003L87.3538 38.8438L87.4124 38.9007C88.3893 40.0302 88.8267 41.1407 88.7132 42.2096L88.6978 42.346C88.6157 43.142 88.2253 43.9076 87.5413 44.6126C86.8809 45.2986 85.9354 45.9392 84.7363 46.5191C83.5602 47.0876 82.1263 47.607 80.4735 48.058C78.8367 48.5052 76.9692 48.8919 74.9296 49.2064C70.7882 49.8467 66.0023 50.188 60.7124 50.2297C60.3726 50.2334 60.0285 50.2372 59.6887 50.2372ZM2.80373 30.3499C1.68635 31.2179 1.06905 32.1655 0.963561 33.1699L0.947933 33.3063C0.869792 34.0682 1.08077 34.8641 1.58476 35.6638C2.07704 36.4522 2.85843 37.2596 3.89767 38.0631C4.92129 38.8552 6.21059 39.6474 7.72648 40.4206C9.23065 41.19 10.9731 41.9442 12.8993 42.6682C16.814 44.135 21.4164 45.4427 26.5736 46.5608C31.9144 47.7167 37.6263 48.6111 43.5453 49.2214C49.4643 49.8317 55.2388 50.12 60.7087 50.0783C65.9906 50.0366 70.7648 49.6953 74.8987 49.0587C76.934 48.7437 78.7935 48.3612 80.4267 47.9141C82.0715 47.4664 83.4979 46.9512 84.6618 46.3864C85.8459 45.8141 86.7754 45.1811 87.4242 44.5102C88.0846 43.828 88.4596 43.0965 88.5374 42.3309L88.5534 42.1944C88.6588 41.1862 88.2487 40.1325 87.3384 39.0561L87.3107 39.0789C81.4349 43.4376 63.7049 45.075 44.1939 43.0624C24.6787 41.0574 7.66789 35.8382 2.82717 30.3803L2.80373 30.3499Z" fill="white"/>
<path d="M27.8081 60.0312C27.7378 60.0312 27.6713 60.0312 27.6049 60.0275C26.0031 59.9933 24.7646 59.5386 23.9324 58.678L19.5879 54.1831L19.7051 54.0767C20.4278 54.8234 21.4749 55.2556 22.8228 55.3541C23.0299 55.3691 23.2448 55.377 23.4636 55.377C30.3593 55.377 43.1194 47.7927 54.9224 36.6076C67.0963 25.0664 75.4531 12.3425 75.2422 5.66797C75.1991 4.33002 74.8124 3.27254 74.0895 2.52587L74.2067 2.41974L78.5516 6.91493C83.0366 11.558 74.4374 26.9425 59.3802 41.2128C47.4641 52.5078 34.8249 60.0312 27.8081 60.0312ZM20.4552 54.8539L24.0496 58.5758C24.8505 59.4059 26.0499 59.8456 27.6088 59.8756C30.8828 59.9516 35.7743 58.1778 41.3612 54.8956C47.1435 51.4958 53.3361 46.7276 59.2667 41.1066C74.2616 26.8932 82.857 11.6035 78.4302 7.02486L74.84 3.31044C75.1836 3.96615 75.3711 4.75452 75.3983 5.66797C75.6134 12.3843 67.2369 25.1535 55.0316 36.7251C43.2053 47.9366 30.3984 55.5359 23.4596 55.5397C23.237 55.5397 23.022 55.5322 22.8111 55.5172C21.8891 55.445 21.0998 55.2214 20.4552 54.8539Z" fill="white"/>
<mask id="mask0_1_25659" style="mask-type:luminance" maskUnits="userSpaceOnUse" x="0" y="0" width="90" height="61">
<g opacity="0.7">
<path d="M89.8401 0.5H0.308838V60.5H89.8401V0.5Z" fill="white"/>
<path d="M88.7056 42.2091L88.5452 42.1901C88.6507 41.1668 88.2251 40.0942 87.2834 39.0026C82.556 33.5371 65.5606 28.3103 45.9518 26.2901C26.3468 24.2699 8.62881 25.9225 2.86609 30.3078C1.71354 31.1833 1.0767 32.1498 0.967312 33.1732L0.811035 33.158L1.45959 26.9951C1.56898 25.9604 2.19018 24.9863 3.30757 24.1069C8.99219 19.6307 26.7961 17.9327 46.6199 19.9756C58.3446 21.1847 69.2412 23.5119 77.3051 26.5365C85.4004 29.5687 89.6782 32.9496 89.3538 36.05L88.7093 42.2091C88.7056 42.2053 88.7056 42.2091 88.7056 42.2091ZM29.8826 25.282C34.9382 25.282 40.3766 25.5586 45.9714 26.1348C65.6154 28.1587 82.6535 33.4082 87.4085 38.904C88.0802 39.681 88.4946 40.4504 88.6545 41.2009L89.1977 36.0273C89.8582 29.7431 70.7492 22.6098 46.6043 20.1234C26.8234 18.0881 9.0625 19.7748 3.40915 24.2245C2.32302 25.0773 1.72135 26.0134 1.61586 27.0103L1.0728 32.1802C1.38535 31.4752 1.95186 30.8081 2.76841 30.1865C6.90976 27.033 17.1811 25.282 29.8826 25.282Z" fill="black"/>
<path d="M22.901 55.5209H22.815V55.445L22.8072 55.5209C21.4203 55.4188 20.3341 54.9711 19.584 54.1906L19.4902 54.0922C18.9315 53.5119 18.5604 52.7539 18.3924 51.8408C18.2283 50.9534 18.2517 49.9114 18.4627 48.7362C18.6698 47.5841 19.0526 46.303 19.6074 44.9196C20.1544 43.5475 20.8733 42.0694 21.7445 40.5192C23.5066 37.3732 25.8429 34.0037 28.6833 30.5053C31.6252 26.8819 34.9812 23.2774 38.6616 19.7866C42.3458 16.2958 46.1277 13.1309 49.9096 10.383C53.5668 7.72606 57.0674 5.56564 60.3177 3.95858C61.9194 3.16642 63.4471 2.51829 64.8496 2.03693C66.2718 1.54799 67.5847 1.22582 68.7529 1.07042C69.9482 0.915021 71.0033 0.937763 71.8902 1.13864C72.808 1.34332 73.5543 1.74508 74.1172 2.32499L74.211 2.42353C74.961 3.20053 75.3674 4.29212 75.41 5.67177L75.4143 5.75895L75.1522 5.73997C68.3816 5.37233 55.2739 13.0741 43.221 24.4978C31.172 35.9216 22.8306 48.5544 22.8971 55.2706L22.901 55.5209ZM70.2336 1.12348C69.7724 1.12348 69.2839 1.1576 68.7683 1.22582C67.6119 1.37743 66.3111 1.6996 64.9007 2.18475C63.5019 2.66232 61.986 3.30665 60.3843 4.09881C57.1452 5.70209 53.6525 7.85872 50.0033 10.5081C46.2293 13.2522 42.4474 16.4133 38.7709 19.8965C35.0945 23.3797 31.7424 26.9804 28.8083 30.6001C25.9758 34.0909 23.6433 37.4528 21.8852 40.5912C21.0217 42.1338 20.3029 43.6082 19.7598 44.9765C19.2089 46.3485 18.8299 47.6258 18.6229 48.763C18.4158 49.9189 18.3924 50.9459 18.5525 51.8141C18.7127 52.6972 19.0683 53.4284 19.6074 53.9895L19.7012 54.088C20.4084 54.8197 21.428 55.2481 22.733 55.3616V55.3428C22.604 48.6073 30.9805 35.8761 43.1037 24.3841C54.9107 13.1954 67.745 5.56944 74.6797 5.56944C74.8672 5.56944 75.0468 5.57323 75.2268 5.58458H75.2422C75.1836 4.28454 74.7969 3.25738 74.0896 2.52587L73.9958 2.42732C73.4568 1.87016 72.7377 1.48735 71.8508 1.28646C71.3629 1.17655 70.8233 1.12348 70.2336 1.12348Z" fill="black"/>
<path d="M59.6887 50.2372C54.516 50.2372 49.0893 49.9494 43.5336 49.377C37.6068 48.7667 31.8909 47.8723 26.5423 46.7162C21.3734 45.5981 16.7671 44.2866 12.8446 42.8198C10.9145 42.0959 9.16812 41.3378 7.65617 40.5646C6.13245 39.7876 4.83534 38.9879 3.8039 38.1919C2.74903 37.377 1.95983 36.5584 1.45584 35.7548C0.932304 34.921 0.709609 34.0985 0.795561 33.2988L0.811189 33.1623C0.92449 32.0935 1.58476 31.0928 2.77247 30.187L2.83108 30.1415L3.0108 30.3348H2.99907C7.88665 35.7472 24.8037 40.9133 44.2095 42.9108C63.6154 44.9082 81.2395 43.3012 87.1509 39.003L87.3538 38.8438L87.4124 38.9007C88.3893 40.0302 88.8267 41.1407 88.7132 42.2096L88.6978 42.346C88.6157 43.142 88.2253 43.9076 87.5413 44.6126C86.8809 45.2986 85.9354 45.9392 84.7363 46.5191C83.5602 47.0876 82.1263 47.607 80.4735 48.058C78.8367 48.5052 76.9692 48.8919 74.9296 49.2064C70.7882 49.8467 66.0023 50.188 60.7124 50.2297C60.3726 50.2334 60.0285 50.2372 59.6887 50.2372ZM2.80373 30.3499C1.68635 31.2179 1.06905 32.1655 0.963561 33.1699L0.947933 33.3063C0.869792 34.0682 1.08077 34.8641 1.58476 35.6638C2.07704 36.4522 2.85843 37.2596 3.89767 38.0631C4.92129 38.8552 6.21059 39.6474 7.72648 40.4206C9.23065 41.19 10.9731 41.9442 12.8993 42.6682C16.814 44.135 21.4164 45.4427 26.5736 46.5608C31.9144 47.7167 37.6263 48.6111 43.5453 49.2214C49.4643 49.8317 55.2388 50.12 60.7087 50.0783C65.9906 50.0366 70.7648 49.6953 74.8987 49.0587C76.934 48.7437 78.7935 48.3612 80.4267 47.9141C82.0715 47.4664 83.4979 46.9512 84.6618 46.3864C85.8459 45.8141 86.7754 45.1811 87.4242 44.5102C88.0846 43.828 88.4596 43.0965 88.5374 42.3309L88.5534 42.1944C88.6588 41.1862 88.2487 40.1325 87.3384 39.0561L87.3107 39.0789C81.4349 43.4376 63.7049 45.075 44.1939 43.0624C24.6787 41.0574 7.66789 35.8382 2.82717 30.3803L2.80373 30.3499Z" fill="black"/>
<path d="M27.8081 60.0312C27.7378 60.0312 27.6713 60.0312 27.6049 60.0275C26.0031 59.9933 24.7646 59.5386 23.9324 58.678L19.5879 54.1831L19.7051 54.0767C20.4278 54.8234 21.4749 55.2556 22.8228 55.3541C23.0299 55.3691 23.2448 55.377 23.4636 55.377C30.3593 55.377 43.1194 47.7927 54.9224 36.6076C67.0963 25.0664 75.4531 12.3425 75.2422 5.66797C75.1991 4.33002 74.8124 3.27254 74.0895 2.52587L74.2067 2.41974L78.5516 6.91493C83.0366 11.558 74.4374 26.9425 59.3802 41.2128C47.4641 52.5078 34.8249 60.0312 27.8081 60.0312ZM20.4552 54.8539L24.0496 58.5758C24.8505 59.4059 26.0499 59.8456 27.6088 59.8756C30.8828 59.9516 35.7743 58.1778 41.3612 54.8956C47.1435 51.4958 53.3361 46.7276 59.2667 41.1066C74.2616 26.8932 82.857 11.6035 78.4302 7.02486L74.84 3.31044C75.1836 3.96615 75.3711 4.75452 75.3983 5.66797C75.6134 12.3843 67.2369 25.1535 55.0316 36.7251C43.2053 47.9366 30.3984 55.5359 23.4596 55.5397C23.237 55.5397 23.022 55.5322 22.8111 55.5172C21.8891 55.445 21.0998 55.2214 20.4552 54.8539Z" fill="black"/>
</g>
</mask>
<g mask="url(#mask0_1_25659)">
<path d="M59.1895 41.1814L59.2443 41.2383L59.3985 41.0897L59.3441 41.0328L59.1895 41.1814ZM88.7057 42.21L88.6804 42.4229L88.9199 42.4513V42.2099L88.7057 42.21ZM88.5454 42.1911L88.3321 42.1691L88.3106 42.3792L88.5201 42.404L88.5454 42.1911ZM0.967462 33.1741L0.946767 33.3875L1.15802 33.408L1.18058 33.1969L0.967462 33.1741ZM0.811185 33.159L0.598026 33.1365L0.575411 33.3515L0.79049 33.3723L0.811185 33.159ZM88.7095 42.21L88.5604 42.3639L88.8768 42.671L88.9227 42.2323L88.7095 42.21ZM88.6546 41.2018L88.4451 41.2466L88.8679 41.2242L88.6546 41.2018ZM1.07295 32.1811L0.859785 32.1587L1.26889 32.268L1.07295 32.1811ZM22.901 55.5214V55.7356H23.1187L23.1154 55.5181L22.901 55.5214ZM22.8151 55.5214H22.6007V55.7356H22.8151V55.5214ZM22.8151 55.4455H23.0294L22.6019 55.4234L22.8151 55.4455ZM22.8072 55.5214L22.7915 55.7352L22.9991 55.7506L23.0205 55.5434L22.8072 55.5214ZM19.584 54.1911L19.4288 54.3388L19.4295 54.3397L19.584 54.1911ZM19.4903 54.0927L19.6455 53.9445L19.6446 53.9436L19.4903 54.0927ZM18.3924 51.8413L18.6032 51.8023L18.6032 51.8019L18.3924 51.8413ZM68.7529 1.07089L68.7252 0.858341L68.7248 0.858425L68.7529 1.07089ZM71.8902 1.13911L71.8429 1.34816L71.8434 1.34832L71.8902 1.13911ZM74.1173 2.32546L74.2724 2.1777L74.271 2.17621L74.1173 2.32546ZM74.211 2.424L74.0554 2.57175L74.0568 2.57287L74.211 2.424ZM75.4101 5.67223L75.1959 5.67889L75.1963 5.68184L75.4101 5.67223ZM75.4143 5.75942L75.3988 5.97317L75.6393 5.99056L75.6285 5.74981L75.4143 5.75942ZM75.1523 5.74044L75.1677 5.52664L75.164 5.52645L75.1523 5.74044ZM22.8971 55.2711L22.6828 55.2734V55.2744L22.8971 55.2711ZM64.9007 2.18522L64.9701 2.38805L64.9706 2.3879L64.9007 2.18522ZM50.0034 10.5086L49.8777 10.3351L49.8773 10.3352L50.0034 10.5086ZM19.7599 44.9769L19.9587 45.0568L19.9591 45.056L19.7599 44.9769ZM18.6229 48.7634L18.4121 48.725L18.412 48.7255L18.6229 48.7634ZM18.5526 51.8145L18.7635 51.7761L18.7634 51.7756L18.5526 51.8145ZM19.6075 53.99L19.7628 53.8423L19.762 53.8414L19.6075 53.99ZM19.7013 54.0884L19.546 54.2366L19.5471 54.2375L19.7013 54.0884ZM22.733 55.362L22.7144 55.5758L22.9474 55.5959V55.362H22.733ZM22.733 55.3433H22.9474L22.9473 55.3391L22.733 55.3433ZM75.2268 5.58505L75.2132 5.79898L75.2198 5.79941H75.2268V5.58505ZM75.2423 5.58505V5.79941H75.4663L75.4565 5.57539L75.2423 5.58505ZM74.0896 2.52634L73.9345 2.67409L73.9359 2.67531L74.0896 2.52634ZM73.9959 2.42779L74.1515 2.28004L74.1501 2.27874L73.9959 2.42779ZM0.795557 33.2992L0.58261 33.2748L0.58245 33.2763L0.795557 33.2992ZM0.811185 33.1628L1.02414 33.1872L1.02433 33.1854L0.811185 33.1628ZM2.77247 30.1874L2.90246 30.3579L2.90388 30.3568L2.77247 30.1874ZM2.83108 30.142L2.98805 29.996L2.85455 29.8524L2.69967 29.9727L2.83108 30.142ZM3.0108 30.3353V30.5496H3.50273L3.16777 30.1893L3.0108 30.3353ZM2.99907 30.3353V30.1209H2.51673L2.84 30.4789L2.99907 30.3353ZM87.1509 39.0035L87.2765 39.1769L87.2798 39.1746L87.2831 39.1723L87.1509 39.0035ZM87.3538 38.8443L87.5029 38.6905L87.3688 38.5602L87.2216 38.6756L87.3538 38.8443ZM87.4124 38.9012L87.5746 38.761L87.5685 38.7539L87.5615 38.7473L87.4124 38.9012ZM88.7132 42.21L88.9265 42.2345V42.2326L88.7132 42.21ZM88.6977 42.3465L88.4849 42.3221L88.4845 42.3245L88.6977 42.3465ZM87.5413 44.6131L87.3876 44.4638L87.3871 44.4644L87.5413 44.6131ZM2.80372 30.3504L2.9733 30.2193L2.8419 30.0493L2.67224 30.1812L2.80372 30.3504ZM0.963557 33.1704L1.17651 33.1948L1.17672 33.1927L0.963557 33.1704ZM0.947929 33.3068L0.734971 33.2824L0.734712 33.2849L0.947929 33.3068ZM1.58476 35.6643L1.76656 35.5508L1.76609 35.55L1.58476 35.6643ZM88.5374 42.3313L88.3246 42.307V42.3096L88.5374 42.3313ZM88.5534 42.1949L88.7662 42.2193L88.7667 42.2172L88.5534 42.1949ZM87.3384 39.0566L87.502 38.9182L87.3646 38.7559L87.201 38.8918L87.3384 39.0566ZM87.3107 39.0793L87.4387 39.2515L87.4434 39.2479L87.4481 39.2441L87.3107 39.0793ZM2.82717 30.3807L2.6576 30.5119L2.66202 30.5175L2.66681 30.523L2.82717 30.3807ZM27.605 60.028L27.6172 59.8138H27.6134H27.6095L27.605 60.028ZM19.588 54.1836L19.4441 54.0247L19.2799 54.1733L19.4338 54.3322L19.588 54.1836ZM19.7051 54.0772L19.8591 53.9281L19.7149 53.7791L19.5613 53.9183L19.7051 54.0772ZM74.2068 2.42021L74.361 2.27126L74.2171 2.12208L74.0629 2.26133L74.2068 2.42021ZM20.4553 54.8544L20.5615 54.6683L20.3011 55.003L20.4553 54.8544ZM24.0497 58.5762L24.2039 58.4277L24.2038 58.4272L24.0497 58.5762ZM27.6089 59.8761L27.6139 59.6619H27.6131L27.6089 59.8761ZM74.8401 3.31092L74.9938 3.16195L74.6502 3.41045L74.8401 3.31092ZM22.8112 55.5177L22.7945 55.7314H22.7958L22.8112 55.5177ZM88.731 41.9972L88.5707 41.9782L88.5201 42.404L88.6804 42.4229L88.731 41.9972ZM88.7587 42.2131C88.8721 41.1104 88.4099 39.9812 87.4457 38.8635L87.1213 39.1435C88.0401 40.209 88.4296 41.225 88.3321 42.1691L88.7587 42.2131ZM87.4457 38.8635C86.2368 37.4662 84.2596 36.0994 81.6848 34.8041C79.1067 33.507 75.9145 32.274 72.2615 31.1504C64.9546 28.9032 55.7896 27.0891 45.9739 26.0779L45.93 26.5043C55.7231 27.5132 64.8599 29.3226 72.1354 31.5602C75.7729 32.679 78.9417 33.9037 81.4921 35.187C84.0463 36.472 85.9663 37.808 87.1213 39.1435L87.4457 38.8635ZM45.9739 26.0779C36.1601 25.0666 26.8151 24.9741 19.1983 25.6844C15.3901 26.0396 12.01 26.5957 9.21738 27.3397C6.42851 28.0827 4.20952 29.0172 2.73644 30.1382L2.99589 30.4794C4.40418 29.4078 6.56112 28.491 9.32777 27.754C12.0907 27.0178 15.4459 26.4649 19.2381 26.1113C26.8223 25.404 36.1388 25.4953 45.93 26.5043L45.9739 26.0779ZM2.73644 30.1382C1.55585 31.035 0.872156 32.0492 0.754341 33.1513L1.18058 33.1969C1.28156 32.2523 1.87139 31.3336 2.99589 30.4794L2.73644 30.1382ZM0.988157 32.9608L0.831881 32.9457L0.79049 33.3723L0.946767 33.3875L0.988157 32.9608ZM1.02434 33.1814L1.67289 27.0185L1.24659 26.9735L0.598026 33.1365L1.02434 33.1814ZM1.67289 27.0185C1.77427 26.0596 2.35153 25.1331 3.44027 24.2764L3.17517 23.9395C2.02914 24.8413 1.364 25.863 1.24659 26.9735L1.67289 27.0185ZM3.44027 24.2764C4.82848 23.1832 6.97512 22.2471 9.74205 21.4935C12.5052 20.7409 15.8704 20.1745 19.682 19.8109C27.305 19.0838 36.6976 19.1695 46.5981 20.1897L46.6421 19.7634C36.7188 18.7407 27.2974 18.6539 19.6413 19.3842C15.8134 19.7493 12.4228 20.319 9.62941 21.0799C6.83984 21.8397 4.62926 22.7945 3.17517 23.9395L3.44027 24.2764ZM46.5981 20.1897C58.311 21.3976 69.1884 23.7218 77.2298 26.7381L77.3802 26.3368C69.2943 23.3038 58.3785 20.9737 46.6421 19.7634L46.5981 20.1897ZM77.2298 26.7381C81.2681 28.2506 84.3379 29.8446 86.354 31.4368C88.3785 33.0356 89.2912 34.5917 89.1412 36.0286L89.5673 36.0733C89.7412 34.4098 88.6771 32.7252 86.6198 31.1004C84.554 29.469 81.4377 27.8564 77.3802 26.3368L77.2298 26.7381ZM89.1412 36.0286L88.4962 42.1877L88.9227 42.2323L89.5673 36.0733L89.1412 36.0286ZM88.859 42.0562C88.8496 42.0474 88.8206 42.0198 88.7732 42.0045C88.7465 41.9959 88.709 41.9896 88.6659 41.998C88.6209 42.0067 88.5838 42.0286 88.5566 42.0549C88.5098 42.1005 88.4985 42.1527 88.4957 42.1664C88.4934 42.1772 88.4924 42.1865 88.492 42.1931C88.4915 42.1966 88.4915 42.1997 88.4915 42.2025C88.4915 42.2039 88.4915 42.2053 88.4915 42.2066C88.4915 42.2072 88.4915 42.2078 88.4915 42.2084C88.4915 42.2087 88.4915 42.209 88.4915 42.2093C88.4915 42.2091 88.4915 42.2095 88.4915 42.2093C88.4915 42.2093 88.4915 42.2099 88.4915 42.2099C88.4915 42.2101 88.4915 42.2102 88.7057 42.21C88.9199 42.2099 88.9199 42.2098 88.9199 42.2099C88.9199 42.2101 88.9199 42.2106 88.9199 42.2108C88.9199 42.2111 88.9199 42.2114 88.9199 42.2117C88.9199 42.2123 88.9199 42.2129 88.9199 42.2135C88.9199 42.2148 88.9199 42.2161 88.9199 42.2175C88.9199 42.2202 88.9195 42.2233 88.9195 42.2267C88.919 42.2332 88.9176 42.2421 88.9157 42.2526C88.9129 42.2658 88.9021 42.3173 88.8552 42.3624C88.8285 42.3884 88.792 42.4101 88.7474 42.4188C88.7043 42.4271 88.6673 42.4208 88.6415 42.4124C88.5951 42.3974 88.5674 42.3708 88.5604 42.3639L88.859 42.0562ZM29.8827 25.4972C34.9307 25.4972 40.3618 25.7735 45.9496 26.3489L45.9935 25.9225C40.3918 25.3456 34.9459 25.0685 29.8827 25.0685V25.4972ZM45.9496 26.3489C55.7601 27.3597 64.9166 29.1757 72.2104 31.4232C75.8573 32.547 79.0349 33.7775 81.5938 35.0672C84.1565 36.3587 86.0845 37.7021 87.2465 39.0452L87.5704 38.7648C86.3554 37.36 84.3702 35.9862 81.787 34.6844C79.2004 33.3809 75.9988 32.1421 72.3365 31.0136C65.0113 28.7564 55.8271 26.9356 45.9935 25.9225L45.9496 26.3489ZM87.2465 39.0452C87.9018 39.8031 88.2946 40.5408 88.4451 41.2466L88.8646 41.1571C88.6949 40.362 88.259 39.5608 87.5704 38.7648L87.2465 39.0452ZM88.8679 41.2242L89.4112 36.0506L88.9846 36.0058L88.4418 41.1795L88.8679 41.2242ZM89.4112 36.0506C89.5884 34.3614 88.4357 32.6726 86.347 31.0716C84.247 29.4619 81.1438 27.8945 77.2781 26.4513C69.5437 23.5637 58.7118 21.1557 46.6264 19.9112L46.5825 20.3376C58.642 21.5795 69.4368 23.9813 77.1281 26.8529C80.9756 28.2893 84.0341 29.8389 86.0863 31.4118C88.1493 32.9934 89.1374 34.5529 88.9846 36.0058L89.4112 36.0506ZM46.6264 19.9112C36.7247 18.8923 27.3248 18.8046 19.6888 19.5296C15.8709 19.8921 12.49 20.4582 9.70568 21.2143C6.92524 21.9695 4.7231 22.9186 3.27674 24.057L3.54166 24.394C4.92197 23.3075 7.06015 22.377 9.81804 21.628C12.5721 20.88 15.9277 20.3173 19.7293 19.9564C27.3323 19.2345 36.7034 19.3211 46.5825 20.3376L46.6264 19.9112ZM3.27674 24.057C2.16255 24.9318 1.51645 25.9154 1.40287 26.9887L1.82916 27.0338C1.92656 26.1134 2.4836 25.2247 3.54166 24.394L3.27674 24.057ZM1.40287 26.9887L0.859785 32.1587L1.28611 32.2035L1.82916 27.0338L1.40287 26.9887ZM1.26889 32.268C1.56282 31.605 2.10157 30.9646 2.89839 30.358L2.63873 30.0169C1.80246 30.6535 1.20819 31.3472 0.877007 32.0942L1.26889 32.268ZM2.89839 30.358C4.92664 28.8135 8.48726 27.5943 13.1532 26.7636C17.8107 25.9345 23.5408 25.4972 29.8827 25.4972V25.0685C23.5232 25.0685 17.7669 25.5068 13.0781 26.3416C8.39759 27.1748 4.75183 28.4079 2.63873 30.0169L2.89839 30.358ZM22.901 55.3072H22.8151V55.7356H22.901V55.3072ZM23.0294 55.5214V55.4455H22.6007V55.5214H23.0294ZM22.6019 55.4234L22.5941 55.4994L23.0205 55.5434L23.0283 55.4675L22.6019 55.4234ZM22.823 55.3077C21.4731 55.2078 20.4425 54.7752 19.7386 54.0425L19.4295 54.3397C20.2258 55.1684 21.3675 55.6302 22.7915 55.7352L22.823 55.3077ZM19.7393 54.0434L19.6455 53.9445L19.335 54.2403L19.4288 54.3388L19.7393 54.0434ZM19.6446 53.9436C19.1192 53.3984 18.7647 52.6803 18.6032 51.8023L18.1816 51.8797C18.3561 52.8284 18.744 53.6267 19.3359 54.2413L19.6446 53.9436ZM18.6032 51.8019C18.445 50.9473 18.4659 49.932 18.6737 48.7747L18.2518 48.6987C18.0376 49.8917 18.0116 50.9609 18.1817 51.8802L18.6032 51.8019ZM18.6737 48.7747C18.8776 47.6398 19.2558 46.373 19.8064 44.9998L19.4085 44.8403C18.8496 46.234 18.462 47.5292 18.2518 48.6987L18.6737 48.7747ZM19.8064 44.9998C20.3492 43.6383 21.0639 42.1683 21.9314 40.6246L21.5577 40.4146C20.6828 41.9713 19.9597 43.4578 19.4085 44.8403L19.8064 44.9998ZM21.9314 40.6246C23.6862 37.4917 26.0152 34.1321 28.8497 30.6409L28.5169 30.3707C25.6707 33.8763 23.3271 37.2557 21.5577 40.4146L21.9314 40.6246ZM28.8497 30.6409C31.7853 27.0252 35.1349 23.4275 38.8091 19.9426L38.5142 19.6315C34.8277 23.1281 31.4651 26.7395 28.5169 30.3707L28.8497 30.6409ZM38.8091 19.9426C42.4872 16.4576 46.262 13.2988 50.0357 10.5569L49.7835 10.2101C45.9936 12.964 42.2045 16.1349 38.5142 19.6315L38.8091 19.9426ZM50.0357 10.5569C53.6849 7.90541 57.1752 5.75178 60.4129 4.15118L60.2226 3.76691C56.9591 5.38044 53.4482 7.54766 49.7835 10.2101L50.0357 10.5569ZM60.4129 4.15118C62.0081 3.36228 63.5273 2.71796 64.9195 2.24013L64.7802 1.83467C63.3674 2.31956 61.8313 2.97149 60.2226 3.76691L60.4129 4.15118ZM64.9195 2.24013C66.3313 1.75478 67.6298 1.4365 68.781 1.28336L68.7248 0.858425C67.5393 1.01608 66.2127 1.34214 64.7802 1.83467L64.9195 2.24013ZM68.7806 1.28344C69.9585 1.13029 70.987 1.15434 71.8429 1.34816L71.9376 0.930073C71.0193 0.722128 69.9379 0.700694 68.7252 0.858341L68.7806 1.28344ZM71.8434 1.34832C72.7265 1.54519 73.4338 1.92882 73.9631 2.4747L74.271 2.17621C73.6752 1.56228 72.8901 1.14239 71.9367 0.929913L71.8434 1.34832ZM73.9617 2.4732L74.0554 2.57175L74.3662 2.27625L74.2724 2.1777L73.9617 2.4732ZM74.0568 2.57287C74.7609 3.30222 75.1542 4.33786 75.1959 5.67889L75.6243 5.66558C75.5802 4.24731 75.1612 3.09978 74.3652 2.27513L74.0568 2.57287ZM75.1963 5.68184L75.2001 5.76903L75.6285 5.74981L75.6243 5.66262L75.1963 5.68184ZM75.4298 5.54562L75.1677 5.52664L75.1368 5.95423L75.3988 5.97317L75.4298 5.54562ZM75.164 5.52645C73.4315 5.43233 71.3118 5.85444 68.9296 6.70803C66.5442 7.56256 63.8821 8.85434 61.0588 10.5128C55.4127 13.8298 49.1099 18.6216 43.0736 24.3427L43.3684 24.6539C49.3851 18.9513 55.6626 14.1803 61.2763 10.8824C64.0832 9.23342 66.7204 7.95472 69.074 7.11158C71.4299 6.2675 73.4882 5.86475 75.141 5.95447L75.164 5.52645ZM43.0736 24.3427C37.0392 30.0639 31.9305 36.0904 28.3369 41.5319C26.5402 44.2527 25.12 46.8305 24.1525 49.1534C23.1861 51.4738 22.6658 53.5536 22.6828 55.2734L23.1115 55.2692C23.0952 53.6309 23.5927 51.6125 24.5482 49.3184C25.5026 47.0268 26.9082 44.4732 28.6946 41.7682C32.2674 36.3583 37.3537 30.3565 43.3684 24.6539L43.0736 24.3427ZM22.6828 55.2744L22.6867 55.5247L23.1154 55.5181L23.1114 55.2678L22.6828 55.2744ZM70.2337 0.909617C69.7621 0.909617 69.2643 0.944501 68.7402 1.01381L68.7965 1.43881C69.3041 1.37166 69.7832 1.33829 70.2337 1.33829V0.909617ZM68.7407 1.01377C67.5665 1.16767 66.2516 1.49391 64.8309 1.98254L64.9706 2.3879C66.3707 1.90622 67.6574 1.58812 68.7965 1.43881L68.7407 1.01377ZM64.8313 1.98238C63.4223 2.46357 61.8974 3.1118 60.2891 3.90716L60.479 4.29141C62.0746 3.50245 63.5816 2.86201 64.9701 2.38805L64.8313 1.98238ZM60.2891 3.90716C57.0374 5.5169 53.534 7.68036 49.8777 10.3351L50.1295 10.682C53.7712 8.03806 57.2531 5.88823 60.479 4.29141L60.2891 3.90716ZM49.8773 10.3352C46.0952 13.0852 42.3062 16.2523 38.6236 19.7414L38.9184 20.0525C42.5887 16.5752 46.3635 13.4202 50.1295 10.682L49.8773 10.3352ZM38.6236 19.7414C34.941 23.2305 31.5823 26.838 28.6418 30.4656L28.9748 30.7356C31.9025 27.1239 35.2482 23.5299 38.9184 20.0525L38.6236 19.7414ZM28.6418 30.4656C25.8035 33.9635 23.4636 37.3355 21.6982 40.4869L22.0722 40.6964C23.823 37.5711 26.148 34.2193 28.9748 30.7356L28.6418 30.4656ZM21.6982 40.4869C20.8313 42.0357 20.1079 43.5188 19.5606 44.8978L19.9591 45.056C20.4979 43.6985 21.2122 42.2329 22.0722 40.6964L21.6982 40.4869ZM19.561 44.897C19.0058 46.2797 18.6222 47.5709 18.4121 48.725L18.8338 48.8019C19.0378 47.6816 19.4121 46.4182 19.9587 45.0568L19.561 44.897ZM18.412 48.7255C18.2017 49.8992 18.1757 50.9534 18.3418 51.8534L18.7634 51.7756C18.6091 50.9398 18.63 49.9395 18.8339 48.8009L18.412 48.7255ZM18.3417 51.853C18.5083 52.7713 18.8804 53.5428 19.453 54.1386L19.762 53.8414C19.2562 53.3155 18.9173 52.6241 18.7635 51.7761L18.3417 51.853ZM19.4522 54.1377L19.546 54.2366L19.8565 53.9408L19.7628 53.8423L19.4522 54.1377ZM19.5471 54.2375C20.2995 55.0161 21.3732 55.4586 22.7144 55.5758L22.7516 55.1488C21.483 55.0381 20.5173 54.6242 19.8553 53.9398L19.5471 54.2375ZM22.9474 55.362L22.9474 55.3433H22.5187V55.362H22.9474ZM22.9473 55.3391C22.9159 53.6966 23.4038 51.6692 24.3549 49.362C25.3049 47.0579 26.7114 44.4882 28.5029 41.7655C32.0858 36.3202 37.1995 30.2768 43.2513 24.5402L42.9564 24.229C36.8849 29.9843 31.7487 36.0527 28.1448 41.5299C26.3429 44.2684 24.9218 46.8626 23.9586 49.1989C22.9965 51.5323 22.4857 53.622 22.5187 55.3475L22.9473 55.3391ZM43.2513 24.5402C49.1451 18.955 55.2927 14.2614 60.8282 10.9656C66.3735 7.66409 71.2734 5.78422 74.6798 5.78422V5.35555C71.151 5.35555 66.1663 7.28867 60.6093 10.5973C55.0424 13.9117 48.8695 18.6255 42.9564 24.229L43.2513 24.5402ZM74.6798 5.78422C74.8645 5.78422 75.0393 5.78797 75.2132 5.79898L75.2404 5.37116C75.0548 5.35939 74.8701 5.35555 74.6798 5.35555V5.78422ZM75.2268 5.79941H75.2423V5.37073H75.2268V5.79941ZM75.4565 5.57539C75.396 4.2382 74.9967 3.15603 74.2438 2.37737L73.9359 2.67531C74.5973 3.35967 74.9713 4.33182 75.0281 5.5947L75.4565 5.57539ZM74.2452 2.37859L74.1515 2.28004L73.8407 2.57554L73.9345 2.67409L74.2452 2.37859ZM74.1501 2.27874C73.5773 1.68684 72.8188 1.28638 71.8982 1.07789L71.8035 1.49597C72.6571 1.68925 73.3363 2.05442 73.8421 2.57684L74.1501 2.27874ZM71.8982 1.07789C71.3915 0.963849 70.836 0.909617 70.2337 0.909617V1.33829C70.8112 1.33829 71.3338 1.39025 71.804 1.49604L71.8982 1.07789ZM59.6887 50.0234C54.524 50.0234 49.1043 49.7356 43.5555 49.1642L43.5116 49.5908C49.0738 50.1636 54.5081 50.4519 59.6887 50.4519V50.0234ZM43.5555 49.1642C37.6358 48.5548 31.9278 47.6614 26.5876 46.5072L26.497 46.9261C31.8539 48.0838 37.5776 48.9795 43.5116 49.5908L43.5555 49.1642ZM26.5876 46.5072C21.4263 45.3907 16.8304 44.0819 12.9196 42.6195L12.7693 43.021C16.7036 44.4922 21.3204 45.8063 26.497 46.9261L26.5876 46.5072ZM12.9196 42.6195C10.9955 41.8978 9.25704 41.143 7.75376 40.3743L7.55857 40.7559C9.0792 41.5336 10.8333 42.2948 12.7693 43.021L12.9196 42.6195ZM7.75376 40.3743C6.23852 39.6016 4.95317 38.8085 3.93485 38.0227L3.67287 38.362C4.71742 39.1681 6.02641 39.9746 7.55857 40.7559L7.75376 40.3743ZM3.93485 38.0227C2.89244 37.2175 2.1237 36.4167 1.6374 35.6414L1.27426 35.8692C1.79595 36.7009 2.60553 37.5375 3.67287 38.362L3.93485 38.0227ZM1.6374 35.6414C1.13334 34.8385 0.928973 34.0636 1.00867 33.3221L0.58245 33.2763C0.49024 34.1343 0.731267 35.0043 1.27426 35.8692L1.6374 35.6414ZM1.0085 33.3236L1.02414 33.1872L0.598243 33.1384L0.58261 33.2748L1.0085 33.3236ZM1.02433 33.1854C1.12929 32.1951 1.74276 31.2424 2.90246 30.3579L2.64249 30.017C1.42677 30.9442 0.719681 31.9927 0.598045 33.1402L1.02433 33.1854ZM2.90388 30.3568L2.96249 30.3113L2.69967 29.9727L2.64106 30.0181L2.90388 30.3568ZM2.6741 30.2879L2.85382 30.4812L3.16777 30.1893L2.98805 29.996L2.6741 30.2879ZM3.0108 30.1209H2.99907V30.5496H3.0108V30.1209ZM2.84 30.4789C4.08809 31.861 6.08937 33.2131 8.67607 34.4948C11.266 35.7781 14.4568 36.9977 18.0974 38.1089C25.3787 40.3313 34.4734 42.1246 44.1875 43.1245L44.2314 42.698C34.5399 41.7005 25.473 39.9119 18.2225 37.6989C14.5972 36.5923 11.4295 35.3807 8.86638 34.1107C6.30007 32.8391 4.35385 31.5157 3.15815 30.1916L2.84 30.4789ZM44.1875 43.1245C53.9015 44.1244 63.1734 44.2225 70.7601 43.5317C74.5532 43.1863 77.9292 42.6433 80.7299 41.9157C83.5279 41.189 85.7676 40.2743 87.2765 39.1769L87.0248 38.8302C85.5782 39.8818 83.3981 40.7798 80.6226 41.5008C77.8499 42.221 74.4984 42.7608 70.7212 43.1048C63.1663 43.7927 53.9231 43.6956 44.2314 42.698L44.1875 43.1245ZM87.2831 39.1723L87.486 39.0131L87.2216 38.6756L87.0187 38.8348L87.2831 39.1723ZM87.2048 38.9982L87.2634 39.055L87.5615 38.7473L87.5029 38.6905L87.2048 38.9982ZM87.2502 39.0414C88.2037 40.1441 88.6054 41.1978 88.5004 42.1874L88.9265 42.2326C89.0484 41.0846 88.5745 39.9172 87.5746 38.761L87.2502 39.0414ZM88.5004 42.1857L88.4849 42.3221L88.9106 42.3709L88.9265 42.2345L88.5004 42.1857ZM88.4845 42.3245C88.4085 43.0625 88.0457 43.7853 87.3876 44.4638L87.6951 44.7623C88.4048 44.0308 88.8229 43.2224 88.911 42.3685L88.4845 42.3245ZM87.3871 44.4644C86.7501 45.1263 85.8281 45.7535 84.6431 46.3266L84.8296 46.7125C86.0427 46.1258 87.0121 45.4719 87.6956 44.7617L87.3871 44.4644ZM84.6431 46.3266C83.4815 46.888 82.0607 47.4031 80.4173 47.8517L80.5303 48.2652C82.192 47.8114 83.639 47.2881 84.8296 46.7125L84.6431 46.3266ZM80.4173 47.8517C78.7893 48.2961 76.9302 48.6814 74.8973 48.995L74.9624 49.4188C77.0081 49.1033 78.884 48.7152 80.5303 48.2652L80.4173 47.8517ZM74.8973 48.995C70.769 49.6334 65.9929 49.9742 60.7106 50.0159L60.7143 50.4444C66.0117 50.4027 70.8084 50.0609 74.9624 49.4188L74.8973 48.995ZM60.7106 50.0159C60.3702 50.0197 60.0271 50.0234 59.6887 50.0234V50.4519C60.0299 50.4519 60.3745 50.4481 60.7143 50.4444L60.7106 50.0159ZM2.67224 30.1812C1.52747 31.0704 0.86407 32.0656 0.750394 33.148L1.17672 33.1927C1.27402 32.2663 1.84521 31.3664 2.93521 30.5197L2.67224 30.1812ZM0.750614 33.146L0.734971 33.2824L1.16087 33.3312L1.17651 33.1948L0.750614 33.146ZM0.734712 33.2849C0.650727 34.1038 0.879384 34.947 1.40343 35.7786L1.76609 35.55C1.28215 34.7821 1.08885 34.0335 1.16114 33.3287L0.734712 33.2849ZM1.40296 35.7778C1.91318 36.595 2.71529 37.4203 3.76657 38.2331L4.02884 37.894C3.00163 37.0998 2.24089 36.3104 1.76656 35.5508L1.40296 35.7778ZM3.76657 38.2331C4.8036 39.0356 6.10498 39.8346 7.62907 40.612L7.82407 40.2303C6.31638 39.4612 5.03904 38.6758 4.02884 37.894L3.76657 38.2331ZM7.62907 40.612C9.14201 41.3859 10.892 42.1432 12.8239 42.8693L12.9746 42.468C11.0542 41.7463 9.31948 40.9952 7.82407 40.2303L7.62907 40.612ZM12.8239 42.8693C16.7505 44.3406 21.3634 45.651 26.5281 46.7707L26.619 46.3518C21.4693 45.2353 16.8775 43.9304 12.9746 42.468L12.8239 42.8693ZM26.5281 46.7707C31.8773 47.9285 37.5972 48.8244 43.5233 49.4352L43.5673 49.0086C37.6554 48.3992 31.9514 47.5058 26.619 46.3518L26.5281 46.7707ZM43.5233 49.4352C49.4493 50.0459 55.2318 50.3347 60.7101 50.293L60.7068 49.8641C55.2459 49.9058 49.4793 49.6184 43.5673 49.0086L43.5233 49.4352ZM60.7101 50.293C65.9999 50.2513 70.7849 49.9095 74.931 49.2706L74.8659 48.8473C70.7451 49.482 65.9812 49.8228 60.7068 49.8641L60.7101 50.293ZM74.931 49.2706C76.9729 48.9552 78.8409 48.5708 80.4834 48.1213L80.3704 47.7073C78.7467 48.1517 76.8951 48.5338 74.8659 48.8473L74.931 49.2706ZM80.4829 48.1213C82.1371 47.6713 83.5762 47.1517 84.7556 46.5797L84.5685 46.1939C83.4192 46.7515 82.0063 47.2628 80.3704 47.7073L80.4829 48.1213ZM84.7551 46.5799C85.9532 46.0006 86.9067 45.3543 87.5784 44.6597L87.2699 44.3616C86.6446 45.0088 85.7381 45.6285 84.5685 46.1939L84.7551 46.5799ZM87.5784 44.6597C88.2637 43.9514 88.6668 43.1772 88.7507 42.3531L88.3246 42.3096C88.2524 43.0167 87.9051 43.7054 87.2699 44.3616L87.5784 44.6597ZM88.7507 42.3557L88.7662 42.2193L88.3401 42.1705L88.3246 42.307L88.7507 42.3557ZM88.7667 42.2172C88.8801 41.1308 88.4343 40.021 87.502 38.9182L87.1748 39.195C88.0626 40.245 88.4376 41.2426 88.3401 42.1726L88.7667 42.2172ZM87.201 38.8918L87.1738 38.9145L87.4481 39.2441L87.4752 39.2214L87.201 38.8918ZM87.1832 38.9072C85.746 39.9733 83.5663 40.8843 80.7843 41.6164C78.0056 42.3475 74.6409 42.8964 70.8459 43.247C63.2563 43.9481 53.9601 43.8548 44.2158 42.8496L44.1718 43.2761C53.939 44.2835 63.2634 44.3779 70.8852 43.6738C74.6962 43.3217 78.0852 42.7698 80.8931 42.0309C83.6976 41.293 85.9377 40.3647 87.4387 39.2515L87.1832 38.9072ZM44.2158 42.8496C34.4696 41.8483 25.3521 40.0446 18.0704 37.8117C14.4295 36.6952 11.2512 35.4725 8.68427 34.1912C6.11412 32.9081 4.1713 31.5732 2.98752 30.2385L2.66681 30.523C3.90338 31.9172 5.90219 33.2814 8.49284 34.5747C11.0868 35.8696 14.2885 37.1004 17.9448 38.2215C25.2574 40.464 34.4029 42.2724 44.1718 43.2761L44.2158 42.8496ZM2.99674 30.2496L2.9733 30.2193L2.63415 30.4815L2.6576 30.5119L2.99674 30.2496ZM27.8081 59.8175C27.7367 59.8175 27.6765 59.8175 27.6172 59.8138L27.5928 60.2417C27.6664 60.2459 27.7389 60.2459 27.8081 60.2459V59.8175ZM27.6095 59.8138C26.0444 59.7805 24.8675 59.337 24.0865 58.5294L23.7784 58.8275C24.6617 59.7411 25.9618 60.2075 27.6004 60.2422L27.6095 59.8138ZM24.0866 58.5298L19.742 54.0345L19.4338 54.3322L23.7784 58.8275L24.0866 58.5298ZM19.7318 54.3425L19.849 54.2361L19.5613 53.9183L19.4441 54.0247L19.7318 54.3425ZM19.5512 54.2262C20.3201 55.0208 21.4224 55.467 22.8072 55.5683L22.8386 55.1408C21.5276 55.0452 20.5358 54.627 19.8591 53.9281L19.5512 54.2262ZM22.8072 55.5683C23.0198 55.5837 23.2399 55.5917 23.4636 55.5917V55.1628C23.2497 55.1628 23.0401 55.1558 22.8386 55.1408L22.8072 55.5683ZM23.4636 55.5917C26.9727 55.5917 31.9292 53.6689 37.4625 50.3713C43.0055 47.0677 49.1587 42.3653 55.0696 36.7637L54.7748 36.4525C48.8831 42.0359 42.7548 46.7181 37.2431 50.0028C31.7217 53.2934 26.8503 55.1628 23.4636 55.1628V55.5917ZM55.0696 36.7637C61.1666 30.9838 66.3107 24.905 69.906 19.4309C71.7032 16.694 73.116 14.1047 74.0667 11.7766C75.0163 9.45144 75.5104 7.37281 75.4565 5.66169L75.0281 5.67523C75.0796 7.30137 74.6085 9.31616 73.6696 11.6146C72.7326 13.9101 71.3348 16.4746 69.5474 19.1956C65.9737 24.6374 60.8521 30.6912 54.7748 36.4525L55.0696 36.7637ZM75.4565 5.66169C75.4124 4.28656 75.0135 3.17247 74.2438 2.37737L73.9359 2.67531C74.6118 3.37356 74.9863 4.37446 75.0281 5.67523L75.4565 5.66169ZM74.2335 2.68522L74.3507 2.5791L74.0629 2.26133L73.9457 2.36745L74.2335 2.68522ZM74.0531 2.56917L78.3974 7.06437L78.7059 6.76653L74.361 2.27126L74.0531 2.56917ZM78.3974 7.06437C79.4484 8.15244 79.7606 9.89858 79.3546 12.1891C78.9496 14.4744 77.8368 17.255 76.1071 20.3495C72.6492 26.5362 66.7499 33.9332 59.2326 41.0577L59.5274 41.3688C67.0673 34.223 72.997 26.7926 76.4812 20.5587C78.2231 17.443 79.3602 14.615 79.7765 12.2639C80.1923 9.91798 79.897 7.99995 78.7059 6.76653L78.3974 7.06437ZM59.2326 41.0577C53.2841 46.6962 47.1577 51.3908 41.6472 54.6739C36.1276 57.9627 31.2558 59.8175 27.8081 59.8175V60.2459C31.3773 60.2459 36.3334 58.3391 41.8666 55.0423C47.4088 51.74 53.5602 47.0252 59.5274 41.3688L59.2326 41.0577ZM20.3011 55.003L23.8955 58.7253L24.2038 58.4272L20.6095 54.7053L20.3011 55.003ZM23.8955 58.7253C24.7479 59.6084 26.0093 60.0594 27.6047 60.0908L27.6131 59.6619C26.0907 59.6323 24.9533 59.2044 24.2039 58.4277L23.8955 58.7253ZM27.6039 60.0908C30.941 60.1677 35.8765 58.3667 41.4699 55.0808L41.2527 54.7109C35.6723 57.9898 30.8248 59.7364 27.6139 59.6619L27.6039 60.0908ZM41.4699 55.0808C47.2686 51.6711 53.474 46.8924 59.4145 41.2627L59.1196 40.9515C53.1979 46.5636 47.0183 51.3209 41.2527 54.7114L41.4699 55.0808ZM59.4145 41.2627C66.9229 34.1455 72.8352 26.753 76.3185 20.5582C78.0595 17.462 79.1995 14.6539 79.6232 12.3218C80.0456 9.99523 79.762 8.09436 78.5845 6.87636L78.2765 7.1743C79.312 8.24558 79.6138 9.97297 79.2013 12.2451C78.7898 14.5118 77.6737 17.2729 75.9449 20.3481C72.4879 26.4962 66.606 33.8554 59.1196 40.9515L59.4145 41.2627ZM78.5845 6.87636L74.9938 3.16195L74.6859 3.45988L78.2765 7.1743L78.5845 6.87636ZM74.6502 3.41045C74.9756 4.03157 75.1579 4.78665 75.1841 5.67486L75.6126 5.66202C75.5849 4.72334 75.3918 3.90168 75.0299 3.21139L74.6502 3.41045ZM75.1841 5.67486C75.2366 7.31155 74.7651 9.33748 73.8248 11.6465C72.8854 13.9526 71.4848 16.5276 69.6937 19.2587C66.111 24.7209 60.9768 30.7936 54.8845 36.57L55.1793 36.8811C61.2918 31.086 66.4485 24.9882 70.0518 19.4938C71.8537 16.7467 73.2693 14.1468 74.2218 11.8081C75.1729 9.4723 75.6679 7.38345 75.6126 5.66202L75.1841 5.67486ZM54.8845 36.57C48.9806 42.1666 42.835 46.8592 37.3032 50.1519C31.762 53.45 26.8679 55.3241 23.4596 55.3259L23.4597 55.7548C26.9901 55.7525 31.969 53.8255 37.5225 50.5198C43.0855 47.2089 49.2562 42.4961 55.1793 36.8811L54.8845 36.57ZM23.4596 55.3259C23.2418 55.3259 23.0322 55.3184 22.8265 55.3039L22.7958 55.7314C23.0121 55.7469 23.2321 55.7548 23.4597 55.7548L23.4596 55.3259ZM22.8279 55.3039C21.9302 55.2336 21.173 55.017 20.5615 54.6683L20.3491 55.0405C21.0268 55.4267 21.8481 55.6573 22.7945 55.7314L22.8279 55.3039Z" fill="white"/>
</g>
</g>
<path d="M70.3265 24.2102L68.3338 26.3592C69.1424 26.5222 69.7677 26.852 70.213 27.3409C70.6508 27.8336 70.8735 28.4287 70.881 29.1261C70.889 29.6946 70.7404 30.2253 70.4357 30.7104C70.131 31.1993 69.6623 31.5898 69.0294 31.8891C68.4004 32.1886 67.6152 32.3364 66.6773 32.3364C65.9896 32.3364 65.3099 32.2568 64.634 32.09C63.9735 31.9271 63.3955 31.7034 62.9108 31.404C62.3291 31.0477 61.5552 30.4678 61.4071 30.3238L62.9268 28.6182C63.0088 28.7281 63.9032 29.3649 63.9266 29.38C64.2941 29.615 64.7005 29.797 65.1496 29.9258C65.6263 30.066 66.0993 30.1343 66.5638 30.1343C67.0368 30.1343 67.4118 30.0471 67.6893 29.8728C67.9626 29.6984 68.0994 29.452 68.0957 29.1298C68.0877 28.5045 67.5876 28.1937 66.5952 28.1937H65.4388L65.4191 26.4691L67.1343 24.6081H63.2938L63.2704 22.8381H56.8593L56.8279 20.2456L60.6726 17.5962C61.4305 17.0731 61.8562 16.5804 61.8482 15.9664C61.829 14.3745 59.4534 14.3139 59.473 15.8792H56.8316C56.7773 11.3309 64.4737 11.0543 64.5519 15.6935C64.5852 17.7921 62.9629 18.8814 61.3921 19.936C61.1188 20.1193 60.8474 20.3018 60.5863 20.4882H65.2044L65.2007 22.5007H70.3068L70.3265 24.2102Z" fill="white"/>
<path d="M40.8134 26.064C42.7921 26.064 44.3961 24.474 44.3961 22.5126C44.3961 20.5512 42.7921 18.9611 40.8134 18.9611C38.8347 18.9611 37.2307 20.5512 37.2307 22.5126C37.2307 24.474 38.8347 26.064 40.8134 26.064Z" fill="white"/>
<path fill-rule="evenodd" clip-rule="evenodd" d="M35.1448 37.7454V39.7277H33.4023V38.9924H30.7925V39.7277H29.136V37.7417H29.3039C29.5813 37.7379 29.7728 37.59 29.8783 37.302C29.9838 37.0139 30.0502 36.6084 30.0736 36.0853L30.1322 34.5275H34.3634V37.7454H35.1448ZM31.4293 37.1655C31.3825 37.4081 31.3004 37.6014 31.1754 37.7417H32.7616V35.7707H31.5348L31.5192 36.199C31.5035 36.6008 31.4762 36.923 31.4293 37.1655Z" fill="white"/>
<path d="M40.7738 38.1544C40.9964 38.5145 41.309 38.7949 41.7075 38.9958C42.106 39.1967 42.5592 39.299 43.0671 39.3028C43.5867 39.3028 44.0321 39.1929 44.4111 38.9693C44.7862 38.7494 45.0557 38.4425 45.212 38.0482L43.9696 37.4153C43.7586 37.8246 43.4539 38.0293 43.0554 38.0293C42.7663 38.0293 42.528 37.9308 42.3404 37.7375C42.1529 37.5441 42.0591 37.275 42.0591 36.9339C42.0591 36.5966 42.1529 36.3312 42.3404 36.1418C42.5319 35.9523 42.7663 35.8575 43.0554 35.8575C43.4578 35.8575 43.7626 36.0622 43.9696 36.4715L45.212 35.8385C45.0557 35.4482 44.7901 35.1411 44.4111 34.9175C44.0321 34.6939 43.5867 34.584 43.0671 34.584C42.5592 34.584 42.106 34.6825 41.7075 34.8834C41.309 35.0843 40.9964 35.361 40.7738 35.7173C40.5511 36.0735 40.4417 36.4791 40.4417 36.9339C40.4417 37.3887 40.5511 37.7943 40.7738 38.1544Z" fill="white"/>
<path fill-rule="evenodd" clip-rule="evenodd" d="M50.0375 39.1822H48.6115V37.9693H47.8845L47.0721 39.1822H45.3726L46.3844 37.7533C46.0797 37.6206 45.8492 37.4425 45.689 37.2113C45.5288 36.9839 45.4468 36.711 45.4468 36.3888C45.4468 35.8544 45.65 35.4412 46.0563 35.1456C46.4626 34.8499 47.0174 34.7021 47.7284 34.7021H50.0375V39.1822ZM47.0916 36.4457C47.0916 36.6238 47.1463 36.7527 47.2559 36.8322C47.3651 36.9156 47.5329 36.9574 47.7598 36.9574H48.6115V35.9416H47.7673C47.3182 35.9453 47.0916 36.1121 47.0916 36.4457Z" fill="white"/>
<path d="M56.8781 39.1702H55.2056V34.7129H56.827V37.0552H56.9132L58.2646 34.7129H59.9371V39.1702H58.3078V36.8657H58.222L56.8781 39.1702Z" fill="white"/>
<path d="M75.5459 39.1702H77.2184L78.5623 36.8657H78.6481V39.1702H80.2812V34.7129H78.605L77.2536 37.0552H77.1673V34.7129H75.5459V39.1702Z" fill="white"/>
<path d="M60.4025 39.1705L60.3561 39.1703L60.3013 39.1702V37.9611C60.9149 37.9611 61.0555 37.7185 61.1413 36.8998L61.3756 34.7129H65.2513V39.1702H63.6224V36.0091H62.7627L62.5283 37.8588C62.3638 39.1781 61.16 39.1734 60.4025 39.1705Z" fill="white"/>
<path fill-rule="evenodd" clip-rule="evenodd" d="M70.4785 36.9419C70.4785 35.5168 69.5096 34.5995 68.0325 34.5995C66.5518 34.5995 65.5088 35.5054 65.5088 36.923C65.5088 38.3556 66.54 39.2805 68.0208 39.2805C69.158 39.2805 70.0758 38.7612 70.3107 37.9311L68.9077 37.681C68.7788 37.9653 68.5013 38.1661 68.1108 38.1661C67.6186 38.1661 67.2943 37.8629 67.185 37.3816H70.463C70.4705 37.2982 70.4785 37.0708 70.4785 36.9419ZM67.1733 36.5174C67.2591 36.0246 67.5558 35.7139 67.9974 35.7139C68.4661 35.7139 68.8022 36.0777 68.8374 36.5174H67.1733Z" fill="white"/>
<path fill-rule="evenodd" clip-rule="evenodd" d="M83.0714 34.5995C84.5479 34.5995 85.5168 35.5168 85.5168 36.9419C85.5168 37.0708 85.5093 37.2982 85.5014 37.3816H82.2234C82.3331 37.8629 82.657 38.1661 83.1492 38.1661C83.5401 38.1661 83.8176 37.9653 83.9465 37.681L85.349 37.9311C85.1146 38.7612 84.1964 39.2805 83.0596 39.2805C81.5789 39.2805 80.5476 38.3556 80.5476 36.923C80.5476 35.5054 81.5906 34.5995 83.0714 34.5995ZM83.04 35.7139C82.5984 35.7139 82.3017 36.0246 82.2154 36.5174H83.88C83.8448 36.0777 83.5087 35.7139 83.04 35.7139Z" fill="white"/>
<path fill-rule="evenodd" clip-rule="evenodd" d="M40.2773 36.9419C40.2773 35.5168 39.3084 34.5995 37.8315 34.5995C36.3508 34.5995 35.3076 35.5054 35.3076 36.923C35.3076 38.3556 36.3391 39.2805 37.8198 39.2805C38.9567 39.2805 39.8748 38.7612 40.1093 37.9311L38.7067 37.681C38.5778 37.9653 38.3004 38.1661 37.9096 38.1661C37.4174 38.1661 37.0931 37.8629 36.9837 37.3816H40.2617L40.2632 37.3483V37.3476C40.2681 37.2473 40.2773 37.056 40.2773 36.9419ZM36.972 36.5174C37.0579 36.0246 37.3549 35.7139 37.7964 35.7139C38.2652 35.7139 38.6012 36.0777 38.6364 36.5174H36.972Z" fill="white"/>
<path d="M73.7838 39.1702H72.1507V36.0091H70.7402V34.7129H75.1863V36.0091H73.7838V39.1702Z" fill="white"/>
<path d="M51.8118 39.1702H53.4412V36.0091H54.8475V34.7129H50.4014V36.0091H51.8118V39.1702Z" fill="white"/>
<path d="M32.0457 46.9593H30.3735V42.502H31.9949V44.8405H32.0809L33.4327 42.502H35.1088V46.9593H33.4756V44.651H33.3897L32.0457 46.9593Z" fill="white"/>
<path fill-rule="evenodd" clip-rule="evenodd" d="M38.3511 47.0348H39.9842V43.8738H41.1012C40.9928 44.1463 40.9346 44.4525 40.9346 44.7873C40.9346 46.22 41.966 47.1448 43.4468 47.1448C44.5837 47.1448 45.5018 46.6256 45.7363 45.7955L44.3337 45.5453C44.2047 45.8296 43.9273 46.0305 43.5366 46.0305C43.0444 46.0305 42.7201 45.7273 42.6107 45.2459H45.8886C45.8964 45.1625 45.9043 44.9389 45.9043 44.8063C45.9043 43.3811 44.9353 42.4639 43.4585 42.4639C42.5635 42.4639 41.8283 42.7949 41.3868 43.3697V42.5775H36.9407V43.8738H38.3511V47.0348ZM43.4272 43.582C42.9858 43.582 42.6888 43.8928 42.6029 44.3856H44.2672C44.2321 43.9459 43.8961 43.582 43.4272 43.582Z" fill="white"/>
<path d="M45.3057 47.0352H47.1966L47.986 45.6555H48.0718L48.8686 47.0352H50.7596L49.2319 44.7231L50.6893 42.5779H48.8532L48.0718 43.8325H47.986L47.2121 42.5779H45.3681L46.8254 44.7231L45.3057 47.0352Z" fill="white"/>
<path d="M52.5462 47.0348H50.9248V42.5889H52.5462V44.1505H53.8353V42.5889H55.4646V47.0348H53.8353V45.4467H52.5462V47.0348Z" fill="white"/>
<path fill-rule="evenodd" clip-rule="evenodd" d="M58.2575 42.4678C56.7069 42.4678 55.7258 43.3471 55.7258 44.8102C55.7258 46.2618 56.7144 47.1525 58.2575 47.1525C59.7932 47.1525 60.7818 46.2732 60.7818 44.8102C60.7818 43.3585 59.7932 42.4678 58.2575 42.4678ZM58.2575 45.7918C57.7185 45.7918 57.3552 45.3863 57.3552 44.8064C57.3552 44.2265 57.7185 43.8209 58.2575 43.8209C58.7854 43.8209 59.1604 44.2265 59.1604 44.8064C59.1604 45.3863 58.7891 45.7918 58.2575 45.7918Z" fill="white"/>
<path d="M60.891 47.0355L60.8882 47.0354L60.8409 47.0353L60.7898 47.0352V45.8261C61.4034 45.8261 61.544 45.5835 61.6298 44.7649L61.8642 42.5779H65.7398V47.0352H64.1109V43.8741H63.2512L63.0168 45.7238C62.8523 47.0431 61.6485 47.0384 60.891 47.0355Z" fill="white"/>
<path fill-rule="evenodd" clip-rule="evenodd" d="M68.5337 42.4678C66.9826 42.4678 66.002 43.3471 66.002 44.8102C66.002 46.2618 66.9901 47.1525 68.5337 47.1525C70.0688 47.1525 71.0574 46.2732 71.0574 44.8102C71.0537 43.3585 70.0651 42.4678 68.5337 42.4678ZM68.5337 45.7918C67.9941 45.7918 67.6309 45.3863 67.6309 44.8064C67.6309 44.2265 67.9941 43.8209 68.5337 43.8209C69.061 43.8209 69.436 44.2265 69.436 44.8064C69.436 45.3863 69.061 45.7918 68.5337 45.7918Z" fill="white"/>
<path d="M72.9356 47.0352H71.3142V42.5779H74.9634V43.8741H72.9356V47.0352Z" fill="white"/>
<path d="M75.3262 47.0352H76.9987L78.3426 44.7307H78.4284V47.0352H80.0577V42.5779H78.3857L77.0338 44.9202H76.9476V42.5779H75.3262V47.0352Z" fill="white"/>
<path d="M84.1682 40.5919C84.1682 41.3613 83.586 41.9147 82.7812 41.9147C81.9843 41.9147 81.4021 41.3613 81.4021 40.5919H82.3827C82.3827 40.9368 82.5313 41.1453 82.7812 41.1453C83.039 41.1453 83.1876 40.9368 83.1876 40.5919H84.1682Z" fill="white"/>
<path d="M80.4177 47.0353H82.0898L83.4337 44.7308H83.5199V47.0353H85.153V42.578H83.4768L82.1249 44.9203H82.0391V42.578H80.4177V47.0353Z" fill="white"/>
<path fill-rule="evenodd" clip-rule="evenodd" d="M25.4828 46.9593H23.9443L23.947 46.963H22.0209L20.8488 45.1741H20.1417V46.963H18.5242V42.5057H20.1456V44.1393H20.8527L22.0131 42.5057H23.8067V42.502H25.4281V44.8405H25.518L26.8697 42.502H28.5419V46.9593H26.9127V44.651H26.8268L25.4828 46.9593ZM22.2553 44.6472L23.8067 46.771V42.651L22.2553 44.6472Z" fill="white"/>
<path d="M4.28735 46.9633H5.90871V45.3752H7.20195V46.9633H8.83113V42.5135H7.19801V44.0751H5.90871V42.5135H4.28735V46.9633Z" fill="white"/>
<path fill-rule="evenodd" clip-rule="evenodd" d="M10.6477 47.0659C11.2298 47.0659 11.7651 46.8499 12.0191 46.4367H12.105V46.9636H13.7342V44.0337C13.7342 43.0331 12.8591 42.3926 11.5307 42.3926C10.1945 42.3926 9.33888 43.0331 9.33888 44.0261H10.9095C10.9095 43.6471 11.1595 43.4197 11.5151 43.4197C11.8862 43.4197 12.105 43.6433 12.105 43.9731V44.1702L11.3236 44.265C9.85849 44.462 9.15527 44.9206 9.15527 45.7848C9.15916 46.5997 9.76474 47.0659 10.6477 47.0659ZM11.2806 46.0918C10.9251 46.0918 10.718 45.9099 10.718 45.6332C10.718 45.3755 10.9095 45.1935 11.3861 45.1329L12.105 45.0306V45.2997C12.105 45.7545 11.7651 46.0918 11.2806 46.0918Z" fill="white"/>
<path d="M16.8324 47.0391L18.4851 42.506H16.8207L16.0432 44.6399L14.9493 42.506H13.1912L15.3673 46.5047L14.5313 48.8052H16.1956L16.8324 47.0391Z" fill="white"/>
<path d="M75.2564 22.4973H70.6931L70.7166 24.6084H72.5292L72.623 32.1472H75.3773L75.2564 22.4973Z" fill="white"/>
<path d="M47.4476 15.8792C47.389 11.3309 55.0896 11.0543 55.1674 15.6935C55.204 17.7852 53.5901 18.8715 52.0259 19.9243C51.7479 20.1115 51.4713 20.2976 51.206 20.4882H55.8237V22.8381H47.4748L47.4434 20.2456L51.288 17.5962C52.046 17.0731 52.4716 16.5804 52.4641 15.9664C52.4445 14.3745 50.0688 14.3139 50.0885 15.8792H47.4476Z" fill="white"/>
</g>
<defs>
<clipPath id="clip0_1_25659">
<rect width="89.5312" height="60" fill="white" transform="translate(0.308838 0.5)"/>
</clipPath>
</defs>
</svg>
