<svg width="169" height="60" viewBox="0 0 169 60" fill="none" xmlns="http://www.w3.org/2000/svg">
<g clip-path="url(#clip0_565_11552)">
<path d="M6.24363 5.12109V13.0241H5.29762V5.94301H1.32442V13.0241H0.378418V5.12109H6.24363Z" fill="white"/>
<path d="M8.19873 13.0241V5.12109H10.8475C11.4782 5.12109 11.9827 5.24754 12.3611 5.43722C12.7395 5.69011 13.0549 5.94301 13.2441 6.32236C13.4333 6.7017 13.5594 7.14428 13.5594 7.58685C13.5594 8.02942 13.4963 8.47199 13.2441 8.85134C12.9918 9.23068 12.7395 9.5468 12.3611 9.73648C11.9827 9.92615 11.4782 10.0526 10.8475 10.0526H8.95553V9.29391H10.8475C11.289 9.29391 11.6043 9.23068 11.8566 9.10423C12.1089 8.97778 12.2981 8.78811 12.4242 8.53521C12.5503 8.28232 12.6134 8.02942 12.6134 7.65007C12.6134 7.33395 12.5503 7.01783 12.4242 6.82815C12.2981 6.57526 12.1089 6.38558 11.8566 6.25913C11.6043 6.13268 11.2259 6.06946 10.8475 6.06946H9.14473V13.1506H8.19873V13.0241Z" fill="white"/>
<path d="M15.1362 5.12109H16.0822V11.3803H16.1453L20.4969 5.12109H21.4429V13.0241H20.4969V6.76493H20.4338L16.1453 13.0241H15.1993V5.12109H15.1362Z" fill="white"/>
<path d="M31.1549 5.12109V5.94301H27.3078V13.0241H26.3618V5.12109H31.1549Z" fill="white"/>
<path d="M32.6055 13.0241V5.12109H35.2543C35.8849 5.12109 36.3895 5.24754 36.7679 5.43722C37.1463 5.69011 37.4616 5.94301 37.6508 6.32236C37.84 6.7017 37.9661 7.14428 37.9661 7.58685C37.9661 8.02942 37.9031 8.47199 37.6508 8.85134C37.3985 9.23068 37.1463 9.5468 36.7679 9.73648C36.3895 9.92615 35.8849 10.0526 35.2543 10.0526H33.3623V9.29391H35.2543C35.6957 9.29391 36.0111 9.23068 36.2633 9.10423C36.5156 8.97778 36.7048 8.78811 36.8309 8.53521C36.9571 8.28232 37.0201 8.02942 37.0201 7.65007C37.0201 7.33395 36.9571 7.01783 36.8309 6.82815C36.7048 6.57526 36.5156 6.38558 36.2633 6.25913C36.0111 6.13268 35.6327 6.06946 35.2543 6.06946H33.5515V13.1506H32.6055V13.0241Z" fill="white"/>
<path d="M39.0384 13.0241H38.0293L40.9304 5.12109H41.9394L44.8405 13.0241H43.8314L41.4349 6.32236H41.3718L39.0384 13.0241ZM39.4168 9.92615H43.453V10.7481H39.4168V9.92615Z" fill="white"/>
<path d="M46.1016 13.0241V5.12109H47.0476V8.66166H51.273V5.12109H52.219V13.0241H51.273V9.48358H47.0476V13.0241H46.1016Z" fill="white"/>
<path d="M53.6699 5.94301V5.12109H59.5982V5.94301H57.1386V13.0241H56.1926V5.94301H53.6699Z" fill="white"/>
<path d="M67.4814 9.10398C67.4814 9.9259 67.3553 10.6846 67.04 11.2536C66.7246 11.8859 66.3462 12.3284 65.7786 12.6446C65.2741 12.9607 64.6434 13.1503 63.9497 13.1503C63.256 13.1503 62.6884 12.9607 62.1208 12.6446C61.6162 12.3284 61.1748 11.8226 60.8594 11.2536C60.5441 10.6214 60.418 9.9259 60.418 9.10398C60.418 8.28206 60.5441 7.52337 60.8594 6.95435C61.1748 6.32211 61.5532 5.87954 62.1208 5.56341C62.6253 5.24729 63.256 5.05762 63.9497 5.05762C64.6434 5.05762 65.211 5.24729 65.7786 5.56341C66.2832 5.87954 66.7246 6.38533 67.04 6.95435C67.2922 7.52337 67.4814 8.21884 67.4814 9.10398ZM66.5354 9.10398C66.5354 8.40851 66.4093 7.83949 66.2201 7.3337C65.9678 6.89113 65.7156 6.51178 65.2741 6.25888C64.8326 6.00598 64.4542 5.87954 63.9497 5.87954C63.4452 5.87954 63.0668 6.00598 62.6253 6.25888C62.1838 6.51178 61.9316 6.89113 61.6793 7.3337C61.427 7.77627 61.364 8.40851 61.364 9.10398C61.364 9.79945 61.4901 10.3685 61.6793 10.8743C61.9316 11.3168 62.1838 11.6962 62.6253 11.9491C63.0037 12.202 63.4452 12.3284 63.9497 12.3284C64.4542 12.3284 64.8326 12.202 65.2741 11.9491C65.6525 11.6962 65.9678 11.3801 66.2201 10.8743C66.4093 10.3685 66.5354 9.73623 66.5354 9.10398Z" fill="white"/>
<path d="M69.0581 13.0241V5.12109H71.833C72.4006 5.12109 72.8421 5.24754 73.2205 5.43722C73.5989 5.62689 73.8512 5.87979 74.0404 6.19591C74.2296 6.51203 74.2926 6.89138 74.2926 7.27072C74.2926 7.58685 74.2296 7.90297 74.1034 8.09264C73.9773 8.34554 73.8512 8.47199 73.662 8.59844C73.4728 8.72489 73.2836 8.85134 73.0313 8.91456V8.97778C73.2836 8.97778 73.5358 9.10423 73.7881 9.23068C74.0404 9.35713 74.2296 9.61003 74.4188 9.92615C74.608 10.2423 74.671 10.5584 74.671 11.001C74.671 11.3803 74.608 11.7597 74.4188 12.0758C74.2296 12.3919 73.9773 12.6448 73.5358 12.8345C73.0944 13.0241 72.6529 13.0874 72.0222 13.0874H69.0581V13.0241ZM70.0672 8.59844H71.833C72.1484 8.59844 72.4006 8.53521 72.5898 8.40876C72.8421 8.28232 73.0313 8.15587 73.1574 7.90297C73.2836 7.7133 73.3466 7.4604 73.3466 7.14428C73.3466 6.76493 73.2205 6.51203 72.9682 6.25913C72.716 6.00624 72.3376 5.87979 71.833 5.87979H70.0041V8.59844H70.0672ZM70.0672 12.2022H71.9592C72.5898 12.2022 73.0313 12.0758 73.2836 11.8229C73.5358 11.57 73.662 11.2539 73.662 10.9377C73.662 10.6848 73.5989 10.4319 73.4728 10.179C73.3466 9.92615 73.1574 9.73648 72.9052 9.61003C72.6529 9.48358 72.3376 9.42036 72.0222 9.42036H70.0672V12.2022Z" fill="white"/>
<path d="M82.8066 9.10398C82.8066 9.9259 82.6805 10.6846 82.3652 11.2536C82.0498 11.8859 81.6714 12.3284 81.1038 12.6446C80.5993 12.9607 79.9686 13.1503 79.2749 13.1503C78.5812 13.1503 78.0136 12.9607 77.446 12.6446C76.9414 12.3284 76.5 11.8226 76.1846 11.2536C75.8693 10.6214 75.7432 9.9259 75.7432 9.10398C75.7432 8.28206 75.8693 7.52337 76.1846 6.95435C76.5 6.32211 76.8784 5.87954 77.446 5.56341C77.9505 5.24729 78.5812 5.05762 79.2749 5.05762C79.9686 5.05762 80.5362 5.24729 81.1038 5.56341C81.6084 5.87954 82.0498 6.38533 82.3652 6.95435C82.6805 7.52337 82.8066 8.21884 82.8066 9.10398ZM81.9237 9.10398C81.9237 8.40851 81.7976 7.83949 81.6084 7.3337C81.3561 6.89113 81.1038 6.51178 80.6624 6.25888C80.2209 6.00598 79.8425 5.87954 79.338 5.87954C78.8334 5.87954 78.455 6.00598 78.0136 6.25888C77.5721 6.51178 77.3198 6.89113 77.0676 7.3337C76.8153 7.77627 76.7522 8.40851 76.7522 9.10398C76.7522 9.79945 76.8784 10.3685 77.0676 10.8743C77.3198 11.3168 77.5721 11.6962 78.0136 11.9491C78.392 12.202 78.8334 12.3284 79.338 12.3284C79.8425 12.3284 80.2209 12.202 80.6624 11.9491C81.0408 11.6962 81.3561 11.3801 81.6084 10.8743C81.7976 10.3685 81.9237 9.73623 81.9237 9.10398Z" fill="white"/>
<path d="M84.4463 5.12084H85.3923V11.3801H85.4554L89.807 5.12084H90.753V13.0239H89.807V6.76467H89.6808L85.3923 13.0239H84.4463V5.12084ZM88.3564 3.09766H89.1763C89.1763 3.54023 89.0502 3.85635 88.7348 4.10925C88.4195 4.36215 88.0411 4.48859 87.5366 4.48859C87.032 4.48859 86.6536 4.36215 86.4014 4.10925C86.086 3.85635 85.9599 3.477 85.9599 3.09766H86.7798C86.7798 3.28733 86.8428 3.477 86.969 3.60345C87.0951 3.7299 87.2843 3.85635 87.5366 3.85635C87.7888 3.85635 87.978 3.79312 88.1042 3.60345C88.2934 3.477 88.3564 3.35055 88.3564 3.09766Z" fill="white"/>
<path d="M6.24363 19.2207V27.1238H5.29762V20.1058H1.32442V27.187H0.378418V19.2207H6.24363Z" fill="white"/>
<path d="M14.8838 23.2036C14.8838 24.0255 14.7577 24.7842 14.4423 25.3532C14.127 25.9855 13.7486 26.428 13.181 26.7442C12.6765 27.0603 12.0458 27.25 11.3521 27.25C10.6583 27.25 10.0907 27.0603 9.52312 26.7442C9.01858 26.428 8.57711 25.9222 8.26178 25.3532C7.94645 24.721 7.82031 24.0255 7.82031 23.2036C7.82031 22.3817 7.94645 21.623 8.26178 21.054C8.57711 20.4217 8.95551 19.9791 9.52312 19.663C10.0276 19.3469 10.6583 19.1572 11.3521 19.1572C12.0458 19.1572 12.6134 19.3469 13.181 19.663C13.6855 19.9791 14.127 20.4849 14.4423 21.054C14.6946 21.623 14.8838 22.3817 14.8838 23.2036ZM13.9378 23.2036C13.9378 22.5081 13.8117 21.9391 13.6225 21.4333C13.3702 20.9907 13.1179 20.6114 12.6765 20.3585C12.235 20.1056 11.8566 20.0424 11.3521 20.0424C10.8475 20.0424 10.4691 20.1688 10.0276 20.4217C9.58618 20.6746 9.33391 21.054 9.08165 21.4965C8.95551 21.9391 8.82938 22.5081 8.82938 23.2036C8.82938 23.8991 8.95551 24.4681 9.14471 24.9739C9.39698 25.4164 9.64925 25.7958 10.0907 26.0487C10.4691 26.3016 10.9106 26.428 11.4151 26.428C11.9197 26.428 12.2981 26.3016 12.7395 26.0487C13.1179 25.7958 13.4333 25.4797 13.6855 24.9739C13.8117 24.4681 13.9378 23.8991 13.9378 23.2036Z" fill="white"/>
<path d="M15.8296 29.0835V26.3016H16.3341C16.5233 26.1119 16.6495 25.9222 16.8387 25.6061C16.9648 25.29 17.154 24.9107 17.2171 24.4049C17.3432 23.8991 17.4063 23.2668 17.4063 22.5081L17.5955 19.1572H22.3255V26.2384H23.2084V29.0202H22.3255V27.1235H16.7756V29.0202H15.8296V29.0835ZM17.4693 26.3016H21.3795V20.0424H18.4784L18.3523 22.5713C18.3523 23.1404 18.2892 23.6462 18.1631 24.152C18.1 24.5945 17.9739 25.0371 17.8477 25.4164C17.7847 25.7326 17.5955 26.0487 17.4693 26.3016Z" fill="white"/>
<path d="M24.3438 29.0835V26.3016H24.8483C25.0375 26.1119 25.1636 25.9222 25.3528 25.6061C25.479 25.29 25.6682 24.9107 25.7312 24.4049C25.8574 23.8991 25.9204 23.2668 25.9204 22.5081L26.1096 19.1572H30.8396V26.2384H31.7226V29.0202H30.8396V27.1235H25.2898V29.0202H24.3438V29.0835ZM25.9835 26.3016H29.8936V20.0424H26.9926L26.8664 22.5713C26.8664 23.1404 26.8034 23.6462 26.6772 24.152C26.6142 24.5945 26.488 25.0371 26.3619 25.4164C26.2988 25.7326 26.1727 26.0487 25.9835 26.3016Z" fill="white"/>
<path d="M33.2363 27.187V19.2207H37.9663V20.0426H34.1823V22.698H37.7771V23.52H34.1823V26.2386H38.0925V27.0605H33.2363V27.187Z" fill="white"/>
<path d="M39.7319 27.187V19.2207H42.3807C43.0114 19.2207 43.5159 19.3472 43.8943 19.5368C44.2727 19.7265 44.5881 20.0426 44.7773 20.422C44.9665 20.8013 45.0926 21.2439 45.0926 21.6865C45.0926 22.129 45.0295 22.5716 44.7773 22.9509C44.525 23.3303 44.2727 23.6464 43.8943 23.8361C43.5159 24.0258 43.0114 24.2787 42.3807 24.2787H40.4887V23.4567H42.3807C42.8222 23.4567 43.1375 23.3935 43.3898 23.2671C43.6421 23.1406 43.8313 22.9509 43.9574 22.698C44.0835 22.4452 44.1466 22.1923 44.1466 21.8129C44.1466 21.4968 44.0835 21.1807 43.9574 20.991C43.8313 20.7381 43.6421 20.5484 43.3898 20.422C43.1375 20.2955 42.7591 20.2323 42.3807 20.2323H40.6779V27.3134H39.7319V27.187Z" fill="white"/>
<path d="M45.9756 27.187L48.5613 23.0774L46.2279 19.2839H47.3631L49.4443 22.8245H52.3453L54.4265 19.2839H55.5617L53.1652 23.0774L55.7509 27.187H54.6788L52.4715 23.6464H49.2551L47.1108 27.187H45.9756ZM51.3363 19.2207V27.1238H50.3903V19.2207H51.3363Z" fill="white"/>
<path d="M61.6161 27.187L58.9042 23.52H57.9582V27.187H57.0122V19.2207H57.9582V22.6348H58.3997L61.553 19.2207H62.6882L59.4718 22.698L62.7513 27.1238H61.6161V27.187Z" fill="white"/>
<path d="M63.9497 27.187V19.2207H68.7428V20.0426H64.8957V22.698H68.4905V23.52H64.8957V26.2386H68.8058V27.0605H63.9497V27.187Z" fill="white"/>
<path d="M0 34.0781H2.39654L4.41467 39.0096H4.47774L6.49588 34.0781H8.89241V41.9812H7.00041V37.1129H6.93734L5.04534 41.918H3.84707L1.95507 37.0497H1.892V41.9812H0V34.0781Z" fill="white"/>
<path d="M10.0274 34.0781H11.9194V38.6303H11.9825L15.0728 34.0781H16.7125V41.9812H14.8205V37.429H14.7574L11.6041 41.9812H9.96436V34.0781H10.0274Z" fill="white"/>
<path d="M17.9741 41.9812V34.0781H19.8661V37.2393H22.9564V34.0781H24.8484V41.9812H22.9564V38.82H19.8661V41.9812H17.9741Z" fill="white"/>
<path d="M33.5513 37.9983C33.5513 38.8834 33.3621 39.6421 33.0468 40.2111C32.7315 40.8434 32.29 41.2859 31.6593 41.6021C31.0917 41.9182 30.4611 42.0446 29.7673 42.0446C29.0736 42.0446 28.4429 41.855 27.8753 41.5388C27.3077 41.2227 26.8663 40.7801 26.5509 40.1479C26.2356 39.5156 26.0464 38.8202 26.0464 37.935C26.0464 37.0499 26.2356 36.2912 26.5509 35.7222C26.8663 35.0899 27.3077 34.6474 27.8753 34.3312C28.4429 34.0151 29.0736 33.8887 29.7673 33.8887C30.4611 33.8887 31.0917 34.0151 31.6593 34.3312C32.2269 34.6474 32.6684 35.0899 33.0468 35.7222C33.4252 36.4177 33.5513 37.1763 33.5513 37.9983ZM31.5963 37.9983C31.5963 37.4925 31.5332 37.0499 31.4071 36.6705C31.2809 36.2912 31.0287 36.0383 30.7764 35.8486C30.5241 35.659 30.2088 35.5957 29.7673 35.5957C29.3889 35.5957 29.0736 35.659 28.7583 35.8486C28.506 36.0383 28.2537 36.2912 28.1276 36.6705C28.0015 37.0499 27.9384 37.4925 27.9384 37.9983C27.9384 38.5041 28.0015 38.9466 28.1276 39.326C28.2537 39.7053 28.506 39.9582 28.7583 40.1479C29.0105 40.3376 29.3259 40.4008 29.7673 40.4008C30.1457 40.4008 30.4611 40.3376 30.7764 40.1479C31.0287 39.9582 31.2809 39.7053 31.4071 39.326C31.5332 38.9466 31.5963 38.5673 31.5963 37.9983Z" fill="white"/>
<path d="M34.6865 41.9812V34.0781H40.1103V35.6587H36.6416V36.9232H37.7137C38.3444 36.9232 38.912 37.0497 39.4165 37.2393C39.9211 37.429 40.2364 37.7451 40.5517 38.1245C40.8671 38.5038 40.9301 38.9464 40.9301 39.4522C40.9301 39.958 40.804 40.4006 40.5517 40.7799C40.2995 41.1593 39.9211 41.4754 39.4165 41.6651C38.912 41.8547 38.4075 41.9812 37.7137 41.9812H34.6865ZM36.5785 40.4638H37.6507C37.9029 40.4638 38.1552 40.4006 38.3444 40.3373C38.5336 40.2109 38.6597 40.0844 38.7859 39.958C38.912 39.7683 38.912 39.5787 38.912 39.389C38.912 39.0729 38.7859 38.82 38.5967 38.6303C38.3444 38.4406 38.0291 38.3142 37.6507 38.3142H36.5785V40.4638Z" fill="white"/>
<path d="M41.75 41.9812V34.0781H45.0295C45.5971 34.0781 46.1647 34.2046 46.5431 34.3942C46.9215 34.5839 47.2999 34.9633 47.5521 35.3426C47.8044 35.7852 47.9305 36.2278 47.9305 36.7968C47.9305 37.3658 47.8044 37.8084 47.5521 38.2509C47.2999 38.6303 46.9845 38.9464 46.5431 39.1993C46.1016 39.4522 45.5971 39.5154 44.9664 39.5154H42.9483V37.998H44.588C44.9033 37.998 45.0925 37.9348 45.2817 37.8716C45.4709 37.8084 45.5971 37.6187 45.7232 37.429C45.8493 37.2393 45.8493 37.0497 45.8493 36.7968C45.8493 36.5439 45.7863 36.3542 45.7232 36.1645C45.6601 35.9749 45.534 35.8484 45.3448 35.722C45.1556 35.5955 44.9033 35.5955 44.6511 35.5955H43.642V41.9812H41.75Z" fill="white"/>
<path d="M48.8135 41.9812V34.0781H50.7055V37.2393H53.7958V34.0781H55.6878V41.9812H53.7958V38.82H50.7055V41.9812H48.8135Z" fill="white"/>
<path d="M58.715 41.9812H56.6338L59.2826 34.0781H61.8053L64.4541 41.9812H62.3729L60.5439 36.0381H60.4809L58.715 41.9812ZM58.3997 38.8832H62.6882V40.3373H58.3997V38.8832Z" fill="white"/>
<path d="M65.5892 42.1079V40.5905H65.9676C66.1568 40.5905 66.346 40.5905 66.4721 40.5273C66.5983 40.464 66.7244 40.4008 66.7875 40.3376C66.8505 40.2744 66.9136 40.0847 66.9767 39.9583L67.0397 39.7054L64.1387 34.1416H66.0937L67.8596 37.6822L69.2471 34.1416H71.2022L68.4903 40.4008C68.3641 40.7169 68.1749 40.9698 67.9857 41.286C67.7965 41.5389 67.5443 41.7918 67.2289 41.9182C66.9136 42.1079 66.5983 42.1711 66.1568 42.1711H65.5892V42.1079Z" fill="white"/>
<path d="M76.8155 41.9809L74.2929 38.6933H73.9145V41.9809H72.0225V34.0779H73.9145V37.1126H74.2929L77.1309 34.0146H79.6535L76.1218 37.8713L79.2751 41.9177H76.8155V41.9809Z" fill="white"/>
<path d="M80.3472 34.0781H82.2392V38.6303H82.3023L85.3926 34.0781H87.0323V41.9812H85.1403V37.429H85.0772L81.9239 41.9812H80.2842V34.0781H80.3472Z" fill="white"/>
<path d="M0 56.4594V48.4932H3.27947C3.84707 48.4932 4.41467 48.6196 4.79307 48.8093C5.17147 48.999 5.54987 49.3783 5.80214 49.7577C6.05441 50.2002 6.18054 50.6428 6.18054 51.2118C6.18054 51.7808 6.05441 52.2234 5.80214 52.666C5.54987 53.0453 5.23454 53.3615 4.79307 53.6143C4.35161 53.8672 3.84707 53.9305 3.2164 53.9305H1.19827V52.4131H2.838C3.15334 52.4131 3.34254 52.3499 3.53174 52.2866C3.72094 52.2234 3.84707 52.0337 3.97321 51.8441C4.09934 51.6544 4.09934 51.4647 4.09934 51.2118C4.09934 50.9589 4.03627 50.7692 3.97321 50.5796C3.91014 50.3899 3.72094 50.2635 3.53174 50.137C3.34254 50.0106 3.09027 50.0106 2.838 50.0106H1.892V56.3962H0V56.4594Z" fill="white"/>
<path d="M14.5684 52.4768C14.5684 53.3619 14.3792 54.1206 14.0639 54.6896C13.7486 55.3219 13.3071 55.7644 12.6764 56.0806C12.1088 56.3967 11.4782 56.5231 10.7844 56.5231C10.0907 56.5231 9.46001 56.3335 8.89241 56.0173C8.32481 55.7012 7.88334 55.2587 7.56801 54.6264C7.25268 53.9942 7.06348 53.2987 7.06348 52.4136C7.06348 51.5284 7.25268 50.7697 7.56801 50.2007C7.88334 49.5685 8.32481 49.1259 8.89241 48.8098C9.46001 48.4936 10.0907 48.3672 10.7844 48.3672C11.4782 48.3672 12.1088 48.4936 12.6764 48.8098C13.244 49.1259 13.6855 49.5685 14.0639 50.2007C14.3792 50.8962 14.5684 51.5916 14.5684 52.4768ZM12.6134 52.4768C12.6134 51.971 12.5503 51.5284 12.4242 51.1491C12.298 50.7697 12.0458 50.5168 11.7935 50.3271C11.5412 50.1375 11.2259 50.0742 10.7844 50.0742C10.406 50.0742 10.0907 50.1375 9.77535 50.3271C9.46001 50.5168 9.27081 50.7697 9.14468 51.1491C9.01855 51.5284 8.95548 51.971 8.95548 52.4768C8.95548 52.9826 9.01855 53.4251 9.14468 53.8045C9.27081 54.1838 9.52308 54.4367 9.77535 54.6264C10.0276 54.8161 10.3429 54.8793 10.7844 54.8793C11.1628 54.8793 11.4782 54.8161 11.7935 54.6264C12.0458 54.4367 12.298 54.1838 12.4242 53.8045C12.5503 53.4251 12.6134 52.9826 12.6134 52.4768Z" fill="white"/>
<path d="M22.8303 51.4012H20.9383C20.9383 51.2116 20.8752 51.0219 20.7491 50.8322C20.686 50.6425 20.5599 50.5161 20.4338 50.4529C20.3076 50.3264 20.1184 50.2632 19.9923 50.2C19.8031 50.1367 19.6139 50.1368 19.4247 50.1368C19.0463 50.1368 18.731 50.2 18.4156 50.3896C18.1003 50.5793 17.9111 50.8322 17.785 51.2116C17.6588 51.5909 17.5327 51.9703 17.5327 52.4761C17.5327 52.9818 17.5958 53.4244 17.785 53.8038C17.9742 54.1831 18.1634 54.436 18.4156 54.6257C18.6679 54.8154 19.0463 54.8786 19.3616 54.8786C19.5508 54.8786 19.74 54.8786 19.9292 54.8154C20.1184 54.7521 20.2446 54.6889 20.3707 54.5625C20.4968 54.436 20.623 54.3096 20.686 54.1831C20.7491 54.0567 20.8122 53.867 20.8752 53.6773H22.8303C22.7672 54.0567 22.7042 54.3728 22.515 54.6889C22.3258 55.005 22.1366 55.3212 21.8212 55.6373C21.5059 55.9534 21.1906 56.1431 20.7491 56.3327C20.3076 56.5224 19.8662 56.5856 19.2986 56.5856C18.6048 56.5856 17.9111 56.4592 17.4066 56.0798C16.839 55.7637 16.3975 55.3212 16.0822 54.6889C15.7668 54.0567 15.5776 53.3612 15.5776 52.4761C15.5776 51.5909 15.7668 50.8322 16.0822 50.2632C16.3975 49.6942 16.839 49.1884 17.4066 48.8723C17.9742 48.5561 18.6048 48.4297 19.2986 48.4297C19.8031 48.4297 20.2446 48.4929 20.623 48.6194C21.0014 48.7458 21.3798 48.9355 21.6951 49.1884C22.0104 49.4413 22.2627 49.7574 22.4519 50.1368C22.7042 50.5161 22.8303 50.8954 22.8303 51.4012Z" fill="white"/>
<path d="M31.0921 51.4012H29.137C29.137 51.2116 29.074 51.0219 28.9478 50.8322C28.8848 50.6425 28.7586 50.5161 28.6325 50.4529C28.5064 50.3264 28.3172 50.2632 28.191 50.2C28.0018 50.1367 27.8126 50.1368 27.6234 50.1368C27.245 50.1368 26.9297 50.2 26.6144 50.3896C26.299 50.5793 26.1098 50.8322 25.9837 51.2116C25.8576 51.5909 25.7314 51.9703 25.7314 52.4761C25.7314 52.9818 25.7945 53.4244 25.9837 53.8038C26.1729 54.1831 26.3621 54.436 26.6144 54.6257C26.8666 54.8154 27.245 54.8786 27.5604 54.8786C27.7496 54.8786 27.9388 54.8786 28.128 54.8154C28.3172 54.7521 28.4433 54.6889 28.5694 54.5625C28.6956 54.436 28.8217 54.3096 28.8848 54.1831C28.9478 54.0567 29.0109 53.867 29.074 53.6773H31.029C30.966 54.0567 30.9029 54.3728 30.7137 54.6889C30.5245 55.005 30.3353 55.3212 30.02 55.6373C29.7046 55.9534 29.3893 56.1431 28.9478 56.3327C28.5064 56.5224 28.0649 56.5856 27.4973 56.5856C26.8036 56.5856 26.1098 56.4592 25.6053 56.0798C25.0377 55.7637 24.5962 55.3212 24.2809 54.6889C23.9656 54.0567 23.7764 53.3612 23.7764 52.4761C23.7764 51.5909 23.9656 50.8322 24.2809 50.2632C24.5962 49.6942 25.0377 49.1884 25.6053 48.8723C26.1729 48.5561 26.8036 48.4297 27.4973 48.4297C28.0018 48.4297 28.4433 48.4929 28.8217 48.6194C29.2001 48.7458 29.5785 48.9355 29.8938 49.1884C30.2092 49.4413 30.4614 49.7574 30.6506 50.1368C30.966 50.5161 31.0921 50.8954 31.0921 51.4012Z" fill="white"/>
<path d="M32.2271 48.4932H34.1191V53.0453H34.1822L37.2725 48.4932H38.9122V56.3962H37.0202V51.8441H36.9571L33.8038 56.3962H32.1641V48.4932H32.2271Z" fill="white"/>
<path d="M40.1104 48.4932H42.0024V53.0453H42.0654L45.1557 48.4932H46.7954V56.3962H44.9034V51.8441L41.7501 56.3962H40.1104V48.4932Z" fill="white"/>
<path d="M149.216 29.399C149.216 29.1461 149.342 29.0829 149.468 29.0197C149.594 29.0197 149.657 28.9564 149.783 28.9564C151.675 28.5771 153.567 26.8068 153.694 24.7836C153.757 23.6456 153.378 22.634 152.748 21.9385C152.621 21.8121 152.621 21.5592 152.811 21.4327C152.874 21.3695 153 21.3063 153.063 21.3063C159.117 17.2599 163.973 9.10396 164.478 8.34527C164.478 8.28205 164.541 8.28205 164.604 8.34527C166.307 9.67298 166.685 12.5181 165.046 14.8574C163.91 16.438 161.388 18.2715 158.676 19.9153C158.739 20.2315 158.739 20.5476 158.739 20.8637C164.352 19.536 167.568 15.5529 168.073 14.9206C168.136 14.8574 168.199 14.8574 168.199 14.9206C169.397 16.9438 168.767 19.7889 166.811 21.0534C165.046 22.1914 162.144 22.8237 158.55 23.3295C158.487 23.6456 158.487 23.8985 158.424 24.2146C163.973 25.0365 168.073 22.8237 168.767 22.3811C168.83 22.3811 168.893 22.3811 168.893 22.4443C169.397 24.9733 168.136 27.1229 165.613 27.6287C163.091 28.1345 157.667 26.6171 157.667 26.6171C157.541 26.87 157.414 27.1862 157.288 27.4391C160.883 29.9048 165.992 29.5887 166.748 29.5887C166.811 29.5887 166.875 29.6519 166.875 29.7151C167.001 32.8131 164.541 33.6983 162.271 33.3189C160.379 33.0028 157.73 31.4854 155.901 29.7784C155.712 30.0313 155.522 30.2842 155.27 30.4738C156.973 34.0776 161.262 35.595 162.712 35.7847C162.775 35.7847 162.838 35.9111 162.775 35.9744C161.892 38.0608 159.748 38.7562 157.414 37.3021C156.027 36.4801 154.45 34.3305 153.441 31.9912C153.189 32.1177 152.874 32.3073 152.621 32.3706C153.063 36.8595 156.595 39.7678 157.288 40.2736L157.351 40.3368V40.4633C156.153 42.1703 153.567 42.1703 152.117 39.7678C151.234 38.3137 150.729 35.7215 150.603 32.8131C150.351 32.8131 149.973 32.8764 149.594 32.9396C149.405 33.0028 149.279 32.8764 149.279 32.6867V29.399H149.216Z" fill="white"/>
<path d="M126.323 29.399C126.323 29.1461 126.196 29.0829 126.07 29.0197C125.944 29.0197 125.881 28.9564 125.755 28.9564C123.863 28.5771 121.971 26.8068 121.845 24.7836C121.782 23.6456 122.16 22.634 122.791 21.9385C122.917 21.8121 122.917 21.5592 122.728 21.4327C122.665 21.3695 122.539 21.3063 122.476 21.3063C116.421 17.2599 111.565 9.10396 111.06 8.34527C111.06 8.28205 110.997 8.28205 110.934 8.34527C109.231 9.67298 108.853 12.5181 110.493 14.8574C111.628 16.438 114.151 18.2715 116.863 19.9153C116.8 20.2315 116.8 20.5476 116.8 20.8637C111.187 19.536 107.97 15.5529 107.466 14.9206C107.403 14.8574 107.339 14.8574 107.339 14.9206C106.141 16.9438 106.772 19.7889 108.727 21.0534C110.493 22.1914 113.394 22.8237 116.989 23.3295C117.052 23.6456 117.052 23.8985 117.115 24.2146C111.565 25.0365 107.466 22.8237 106.772 22.3811C106.709 22.3811 106.646 22.3811 106.646 22.4443C106.141 24.9733 107.403 27.1229 109.925 27.6287C112.448 28.1345 117.872 26.6171 117.872 26.6171C117.998 26.87 118.124 27.1862 118.25 27.4391C114.655 29.9048 109.547 29.5887 108.79 29.5887C108.727 29.5887 108.664 29.6519 108.664 29.7151C108.538 32.8131 110.997 33.6983 113.268 33.3189C115.16 33.0028 117.809 31.4854 119.638 29.7784C119.827 30.0313 120.016 30.2842 120.268 30.4738C118.565 34.0776 114.277 35.595 112.826 35.7847C112.763 35.7847 112.7 35.9111 112.763 35.9744C113.646 38.0608 115.79 38.7562 118.124 37.3021C119.511 36.4801 121.088 34.3305 122.097 31.9912C122.349 32.1177 122.665 32.3073 122.917 32.3706C122.476 36.8595 118.944 39.7678 118.25 40.2736L118.187 40.3368V40.4633C119.385 42.1703 121.971 42.1703 123.422 39.7678C124.304 38.3137 124.809 35.7215 124.935 32.8131C125.187 32.8131 125.566 32.8764 125.944 32.9396C126.133 33.0028 126.26 32.8764 126.26 32.6867V29.399H126.323Z" fill="white"/>
<path d="M126.071 10.1159H130.296C133.828 10.1159 135.404 7.96628 135.909 6.06955H139.504C140.008 7.96628 141.585 10.1159 145.117 10.1159H149.342C149.342 10.1159 150.099 9.10432 150.288 8.59853C150.982 6.82824 150.099 6.00632 148.838 6.00632L147.261 7.46048L145.684 6.00632C144.423 6.00632 143.603 6.82824 144.234 8.59853C144.297 8.85142 144.549 9.16754 144.738 9.48367C143.225 9.29399 141.333 8.2824 140.891 6.06955C140.891 6.06955 141.963 4.29926 142.279 3.60379C143.288 1.07482 142.026 0 140.134 0L137.738 2.8451L135.341 0C133.512 0 132.188 1.01159 133.197 3.60379C133.449 4.29926 134.585 6.06955 134.585 6.06955C134.143 8.2824 132.251 9.29399 130.738 9.48367C130.927 9.16754 131.116 8.85142 131.242 8.59853C131.936 6.82824 131.053 6.00632 129.792 6.00632L128.215 7.46048L126.638 6.00632C125.377 6.00632 124.557 6.82824 125.188 8.59853C125.314 9.10432 126.071 10.1159 126.071 10.1159Z" fill="white"/>
<path d="M132.882 21.8761H136.792C136.981 21.8761 137.107 21.6864 137.044 21.4967C136.161 18.3987 134.647 15.8698 133.008 14.4788C134.332 13.8466 135.72 12.2027 135.593 11.1279C131.368 12.6453 123.043 10.306 122.412 13.8466C122.286 14.6053 122.665 15.7433 123.043 16.1227C123.106 15.8698 123.485 15.1111 124.62 14.9214C128.467 14.3524 131.872 18.0194 132.566 21.6864C132.692 21.8129 132.755 21.8761 132.882 21.8761Z" fill="white"/>
<path d="M153 13.9091C152.306 10.3053 143.981 12.7078 139.819 11.1904C139.756 12.2652 141.08 13.9091 142.405 14.5413C140.765 15.9955 139.251 18.4612 138.368 21.5592C138.305 21.7489 138.432 21.9386 138.621 21.9386H142.531C142.657 21.9386 142.783 21.8121 142.783 21.6857C143.414 18.0819 146.882 14.3517 150.73 14.9207C151.865 15.1103 152.243 15.869 152.306 16.1219C152.748 15.8058 153.126 14.6678 153 13.9091Z" fill="white"/>
<path d="M142.72 26.8701C140.513 26.2378 137.801 26.2378 137.801 26.2378C137.801 26.2378 135.089 26.2378 132.881 26.8701C130.485 27.5656 128.215 26.4907 127.332 25.9217C127.142 25.8585 126.953 25.9849 127.016 26.1746C127.205 27.2494 128.151 29.8416 131.935 30.7268C135.53 31.5487 137.17 35.6583 137.675 37.3021C137.738 37.4918 137.99 37.4918 138.053 37.3021C138.557 35.6583 140.197 31.5487 143.792 30.7268C147.576 29.8416 148.459 27.2494 148.711 26.1746C148.774 25.9849 148.522 25.8585 148.396 25.9217C147.387 26.4275 145.116 27.5656 142.72 26.8701Z" fill="white"/>
<path d="M141.396 34.0784C141.648 34.2681 141.9 34.3945 142.215 34.3945C142.972 34.3945 143.603 33.7623 143.603 33.0036C143.603 32.8139 143.54 32.6242 143.477 32.4346C142.657 32.8139 141.963 33.3829 141.396 34.0784Z" fill="white"/>
<path d="M145.054 31.9286C145.18 32.2447 145.306 32.6241 145.306 33.0034C145.306 34.7105 143.918 36.1014 142.216 36.1014C141.585 36.1014 140.954 35.9118 140.45 35.5324C140.134 36.1647 139.882 36.7337 139.693 37.1762C140.45 37.6188 141.27 37.9349 142.216 37.9349C144.927 37.9349 147.135 35.7221 147.135 33.0034C147.135 32.3712 146.946 31.7389 146.756 31.1699C146.252 31.486 145.684 31.6757 145.054 31.9286Z" fill="white"/>
<path d="M135.152 35.5324C134.648 35.8485 134.08 36.1014 133.449 36.1014C131.747 36.1014 130.359 34.7105 130.359 33.0034C130.359 32.6241 130.485 32.2447 130.611 31.9286C129.981 31.7389 129.413 31.486 128.972 31.1699C128.719 31.7389 128.593 32.3712 128.593 33.0034C128.593 35.7221 130.801 37.9349 133.512 37.9349C134.395 37.9349 135.215 37.682 135.972 37.2395C135.72 36.7337 135.468 36.1647 135.152 35.5324Z" fill="white"/>
<path d="M132.188 32.4346C132.125 32.6242 132.062 32.7507 132.062 33.0036C132.062 33.7623 132.693 34.3945 133.449 34.3945C133.765 34.3945 134.017 34.2681 134.206 34.1416C133.639 33.3829 133.008 32.8139 132.188 32.4346Z" fill="white"/>
<path fill-rule="evenodd" clip-rule="evenodd" d="M161.64 4.61523C161.703 4.61523 161.703 4.48878 161.64 4.48878C159.937 3.66686 160.442 2.65527 159.433 1.7069C158.361 0.695314 156.784 0.695314 156.406 0.695314C154.577 0.568865 154.009 0.884987 153.82 1.01144C153.442 1.32756 152.874 1.89658 152.496 3.16107C152.117 4.36233 152.432 4.86813 152.559 4.99458C152.622 5.0578 152.685 5.0578 152.748 5.0578C153 4.99458 153.82 4.74168 153.82 4.74168C154.261 4.86813 155.081 5.24747 154.892 6.95453C154.64 9.23061 151.55 9.67319 150.667 9.79963L150.604 10.0525C152.054 10.0525 156.027 9.60996 156.595 7.52355C157.162 5.43715 156.09 4.552 156.09 4.552C155.838 4.23588 154.703 4.23588 154.009 4.42556C153.946 4.42556 153.631 3.91976 154.009 2.84494C154.703 0.884987 155.018 1.01144 156.343 1.01144C156.469 1.01144 156.658 1.07466 156.784 1.13788C157.667 1.83335 157.604 2.97139 157.856 3.91976C158.55 6.82808 160.064 6.70164 161.199 7.08098C161.325 7.14421 161.388 6.95453 161.325 6.89131C160.631 6.32229 159.559 5.3107 159.685 4.42556C159.685 4.36233 159.748 4.36233 159.811 4.36233C160.064 4.61523 160.82 4.99458 161.64 4.61523Z" fill="white"/>
<path fill-rule="evenodd" clip-rule="evenodd" d="M113.772 4.61523C113.709 4.61523 113.709 4.48878 113.772 4.48878C115.475 3.66686 114.971 2.65527 115.98 1.7069C117.052 0.695314 118.629 0.695314 119.007 0.695314C120.836 0.568865 121.403 0.884987 121.593 1.01144C121.971 1.32756 122.539 1.89658 122.917 3.16107C123.295 4.36233 122.98 4.86813 122.854 4.99458C122.791 5.0578 122.728 5.0578 122.665 5.0578C122.413 4.99458 121.593 4.74168 121.593 4.74168C121.151 4.86813 120.331 5.24747 120.521 6.95453C120.773 9.23061 123.863 9.67319 124.746 9.79963L124.809 10.0525C123.359 10.0525 119.385 9.60996 118.818 7.52355C118.25 5.43715 119.322 4.552 119.322 4.552C119.575 4.23588 120.71 4.23588 121.403 4.42556C121.467 4.42556 121.782 3.91976 121.403 2.84494C120.71 0.884987 120.394 1.01144 119.07 1.01144C118.944 1.01144 118.755 1.07466 118.629 1.13788C117.746 1.83335 117.809 2.97139 117.556 3.91976C116.863 6.82808 115.349 6.70164 114.214 7.08098C114.088 7.14421 114.025 6.95453 114.088 6.89131C114.781 6.32229 115.854 5.3107 115.727 4.42556C115.727 4.36233 115.664 4.36233 115.601 4.36233C115.349 4.61523 114.592 4.99458 113.772 4.61523Z" fill="white"/>
<path d="M155.649 46.8498L153.82 48.3039L151.991 46.8498C151.234 47.2924 150.73 47.9878 150.477 48.8097C149.342 48.9362 146.315 48.3039 146.63 47.8614C149.91 43.246 147.513 40.4641 144.486 40.5273C143.981 41.2228 142.972 42.108 141.774 42.7402C139.314 44.0047 138.116 44.9531 137.738 45.2692C137.359 44.9531 136.161 44.0047 133.702 42.7402C132.44 42.108 131.494 41.2228 130.99 40.5273C128.026 40.5273 125.692 43.246 128.908 47.8614C129.224 48.3039 126.07 48.9994 124.62 48.8097C124.241 48.4304 123.674 48.1775 123.043 48.1775C122.791 48.1775 122.539 48.2407 122.286 48.3039C122.286 48.3039 116.547 42.8666 116.421 42.8034L116.484 42.677C116.8 42.0447 116.295 41.4125 115.98 41.4125C116.358 40.9699 116.358 39.01 114.34 38.5674C114.403 38.9467 114.403 39.7686 114.403 39.7686C114.403 39.7686 112.826 38.9467 112.007 39.6422C111.313 40.4641 112.259 41.9815 112.259 41.9815H111.061C111.628 43.9415 113.583 43.815 114.025 43.4357C114.025 43.7518 114.718 44.1944 115.286 43.815L115.538 43.6886C115.601 43.7518 121.214 49.0626 121.214 49.0626C120.962 49.442 120.836 49.8846 120.899 50.3904C121.025 51.149 121.656 51.8445 122.539 51.971C123.106 52.0974 123.674 51.971 124.115 51.7181L125.629 53.109C125.755 53.2355 125.944 53.2987 126.133 53.2987C126.512 53.2987 126.764 52.9826 126.764 52.6664C126.764 52.54 126.701 52.4135 126.575 52.2871L125.061 50.8961C126.26 50.011 128.593 49.442 130.485 49.442C130.8 49.442 130.99 49.1891 130.864 48.873C129.981 46.7866 131.873 45.3324 133.765 46.5337C134.206 46.7866 134.584 47.2291 135.026 48.0511C133.26 48.8097 129.981 52.0974 129.791 52.9193C130.359 55.069 132.188 55.7012 132.188 55.7012C131.746 54.6896 131.936 52.6664 134.711 51.2755C133.008 52.9826 132.377 54.4999 132.819 55.9541C133.26 57.2818 134.584 57.8508 135.594 57.8508C134.9 55.638 135.215 53.678 136.666 52.0342C136.035 53.8045 135.152 59.1153 137.738 60.0005C140.324 59.1153 139.441 53.7413 138.81 52.0342C140.324 53.6148 140.639 55.638 139.882 57.8508C140.891 57.8508 142.279 57.2818 142.657 55.9541C143.098 54.4999 142.468 52.9826 140.765 51.2755C143.54 52.6664 143.729 54.6896 143.288 55.7012C143.288 55.7012 145.117 55.069 145.684 52.9193C145.495 52.1606 142.342 48.9362 140.576 48.1143C140.954 47.2291 141.396 46.7866 141.837 46.5337C143.729 45.3324 145.621 46.7866 144.738 48.873C144.612 49.1259 144.801 49.442 145.117 49.442C147.261 49.442 149.91 50.2007 150.982 51.2755C151.676 52.2871 152.874 52.9193 154.261 52.7929C155.838 52.6664 157.162 51.4652 157.288 49.9478C157.415 48.6201 156.721 47.482 155.649 46.8498Z" fill="white"/>
<path d="M155.081 45.648L153.82 44.3203L152.559 45.648L153.82 46.7861L155.081 45.648Z" fill="white"/>
</g>
<defs>
<clipPath id="clip0_565_11552">
<rect width="169" height="60" fill="white"/>
</clipPath>
</defs>
</svg>
