<svg width="63" height="61" viewBox="0 0 63 61" fill="none" xmlns="http://www.w3.org/2000/svg">
<path d="M42.572 29.8994C42.572 29.6465 42.6979 29.5833 42.8239 29.52C42.9498 29.52 43.0127 29.4568 43.1387 29.4568C45.0253 29.0775 46.9127 27.3072 47.0387 25.284C47.1016 24.146 46.7239 23.1344 46.095 22.4389C45.969 22.3125 45.969 22.0596 46.1579 21.9331C46.2209 21.8699 46.3468 21.8067 46.4098 21.8067C52.449 17.7603 57.2927 9.60436 57.7957 8.84567C57.7957 8.78243 57.8586 8.78243 57.9216 8.84567C59.6201 10.1734 59.9978 13.0185 58.3623 15.3578C57.2297 16.9384 54.7134 18.7719 52.0083 20.4157C52.0712 20.7319 52.0712 21.048 52.0712 21.3641C57.6704 20.0364 60.8786 16.0532 61.3816 15.421C61.4445 15.3578 61.5075 15.3578 61.5075 15.421C62.703 17.4442 62.0734 20.2893 60.1238 21.5538C58.3623 22.6918 55.4682 23.324 51.8824 23.8299C51.8194 24.146 51.8194 24.3989 51.7564 24.715C57.2927 25.5369 61.3816 23.324 62.0734 22.8815C62.1364 22.8815 62.1993 22.8815 62.1993 22.9447C62.703 25.4737 61.4445 27.6233 58.9282 28.1291C56.4119 28.6349 51.0016 27.1175 51.0016 27.1175C50.8757 27.3704 50.7505 27.6865 50.6245 27.9394C54.2104 30.4052 59.306 30.0891 60.0608 30.0891C60.1238 30.0891 60.1867 30.1523 60.1867 30.2155C60.3119 33.3135 57.8586 34.1987 55.5942 33.8193C53.7068 33.5032 51.0646 31.9858 49.2401 30.2787C49.052 30.5316 48.8631 30.7845 48.6112 30.9742C50.3098 34.578 54.5875 36.0954 56.0342 36.285C56.0971 36.285 56.1601 36.4115 56.0971 36.4747C55.2164 38.5611 53.0779 39.2566 50.7505 37.8024C49.3661 36.9805 47.7935 34.8309 46.7868 32.4916C46.5357 32.618 46.2209 32.8077 45.969 32.8709C46.4097 37.3599 49.9327 40.2682 50.6245 40.774L50.6875 40.8372C50.6875 40.9004 50.6875 40.9004 50.6875 40.9636C49.492 42.6707 46.9127 42.6707 45.4661 40.2682C44.5853 38.814 44.0816 36.2218 43.9564 33.3135C43.7046 33.3135 43.3268 33.3767 42.9498 33.44C42.7609 33.5032 42.635 33.3767 42.635 33.1871V29.8994H42.572Z" fill="white"/>
<path d="M19.7366 29.8994C19.7366 29.6465 19.6107 29.5833 19.4847 29.52C19.3595 29.52 19.2966 29.4568 19.1706 29.4568C17.2833 29.0775 15.3959 27.3072 15.2699 25.284C15.207 24.146 15.5847 23.1344 16.2136 22.4389C16.3396 22.3125 16.3396 22.0596 16.1507 21.9331C16.0877 21.8699 15.9625 21.8067 15.8995 21.8067C9.86031 17.7603 5.01592 9.60436 4.51294 8.84567C4.51294 8.78243 4.44999 8.78243 4.38703 8.84567C2.68852 10.1734 2.31076 13.0185 3.947 15.3578C5.07888 16.9384 7.59517 18.7719 10.3003 20.4157C10.2374 20.7319 10.2374 21.048 10.2374 21.3641C4.63886 20.0364 1.43071 16.0532 0.927041 15.421C0.864082 15.3578 0.801128 15.3578 0.801128 15.421C-0.39371 17.4442 0.235183 20.2893 2.18553 21.5538C3.947 22.6918 6.84036 23.324 10.4263 23.8299C10.4892 24.146 10.4892 24.3989 10.5522 24.715C5.01592 25.5369 0.927041 23.324 0.235183 22.8815C0.172224 22.8815 0.109271 22.8815 0.109271 22.9447C-0.39371 25.4737 0.864085 27.6233 3.38037 28.1291C5.89666 28.6349 11.307 27.1175 11.307 27.1175C11.4329 27.3704 11.5588 27.6865 11.6847 27.9394C8.09885 30.4052 3.00331 30.0891 2.24849 30.0891C2.18553 30.0891 2.12257 30.1523 2.12257 30.2155C1.99665 33.3135 4.44998 34.1987 6.71443 33.8193C8.60182 33.5032 11.244 31.9858 13.0685 30.2787C13.2573 30.5316 13.4455 30.7845 13.6974 30.9742C11.9988 34.578 7.72109 36.0954 6.27441 36.285C6.21145 36.285 6.14849 36.4115 6.21145 36.4747C7.09219 38.5611 9.23072 39.2566 11.5588 37.8024C12.9425 36.9805 14.5151 34.8309 15.5218 32.4916C15.7736 32.618 16.0877 32.8077 16.3396 32.8709C15.8995 37.3599 12.3766 40.2682 11.6847 40.774L11.6218 40.8372C11.6218 40.9004 11.6218 40.9004 11.6218 40.9636C12.8166 42.6707 15.3959 42.6707 16.8432 40.2682C17.7233 38.814 18.2269 36.2218 18.3529 33.3135C18.604 33.3135 18.9818 33.3767 19.3595 33.44C19.5477 33.5032 19.6736 33.3767 19.6736 33.1871V29.8994H19.7366Z" fill="white"/>
<path d="M19.4855 10.6159H23.7002C27.2232 10.6159 28.7958 8.46633 29.2988 6.5696H32.8847C33.3876 8.46633 34.9602 10.6159 38.4832 10.6159H42.698C42.698 10.6159 43.4535 9.60436 43.6417 9.09855C44.3342 7.32829 43.4535 6.50636 42.195 6.50636L40.6224 7.96051L39.0498 6.50636C37.7913 6.50636 36.9735 7.32829 37.6024 9.09855C37.6654 9.35142 37.9172 9.66753 38.1061 9.98371C36.5965 9.794 34.7091 8.78244 34.2684 6.5696C34.2684 6.5696 35.338 4.79927 35.6528 4.10382C36.6587 1.57487 35.4009 0.5 33.5136 0.5L31.1232 3.34513L28.7328 0.5C26.9084 0.5 25.5869 1.51163 26.5936 4.10382C26.8454 4.79927 27.978 6.5696 27.978 6.5696C27.5373 8.78244 25.6499 9.794 24.1403 9.98371C24.3291 9.66753 24.518 9.35142 24.6439 9.09855C25.3358 7.32829 24.4551 6.50636 23.1966 6.50636L21.624 7.96051L20.0514 6.50636C18.7929 6.50636 17.9751 7.32829 18.6047 9.09855C18.7299 9.60436 19.4855 10.6159 19.4855 10.6159Z" fill="white"/>
<path d="M26.2795 22.376H30.1795C30.3684 22.376 30.4943 22.1863 30.4313 21.9966C29.5506 18.8986 28.041 16.3696 26.4054 14.9787C27.7262 14.3465 29.1106 12.7026 28.9847 11.6278C24.7699 13.1452 16.4655 10.8059 15.8366 14.3465C15.7107 15.1052 16.0884 16.2432 16.4655 16.6226C16.5284 16.3696 16.9062 15.6109 18.0388 15.4213C21.8758 14.8522 25.2728 18.5193 25.9647 22.1863C26.0906 22.3127 26.1536 22.376 26.2795 22.376Z" fill="white"/>
<path d="M46.3468 14.4093C45.655 10.8055 37.3506 13.208 33.1988 11.6907C33.1358 12.7655 34.4573 14.4093 35.778 15.0415C34.1425 16.4957 32.6328 18.9614 31.7521 22.0594C31.6891 22.2491 31.8151 22.4387 32.0032 22.4387H35.9039C36.0299 22.4387 36.1558 22.3123 36.1558 22.1859C36.7847 18.5821 40.2447 14.8518 44.0817 15.4209C45.2143 15.6105 45.592 16.3692 45.655 16.6222C46.095 16.306 46.4728 15.1679 46.3468 14.4093Z" fill="white"/>
<path d="M36.0928 27.3703C33.8913 26.738 31.1861 26.738 31.1861 26.738C31.1861 26.738 28.481 26.738 26.2795 27.3703C23.8891 28.0658 21.624 26.991 20.7432 26.4219C20.5544 26.3587 20.3662 26.4852 20.4291 26.6749C20.6173 27.7497 21.561 30.3418 25.3358 31.227C28.9217 32.0489 30.5572 36.1585 31.0602 37.8023C31.1232 37.992 31.375 37.992 31.438 37.8023C31.941 36.1585 33.5765 32.0489 37.1624 31.227C40.9372 30.3418 41.8179 27.7497 42.0691 26.6749C42.132 26.4852 41.8809 26.3587 41.755 26.4219C40.7483 26.9277 38.4838 28.0658 36.0928 27.3703Z" fill="white"/>
<path d="M34.7721 34.578C35.0232 34.7677 35.2751 34.8942 35.5899 34.8942C36.3447 34.8942 36.9736 34.2619 36.9736 33.5032C36.9736 33.3136 36.9106 33.1238 36.8477 32.9342C36.0299 33.3135 35.338 33.8825 34.7721 34.578Z" fill="white"/>
<path d="M38.4202 32.4288C38.5461 32.745 38.672 33.1243 38.672 33.5036C38.672 35.2107 37.2883 36.6016 35.5898 36.6016C34.9602 36.6016 34.3313 36.4119 33.8283 36.0326C33.5135 36.6648 33.2617 37.2339 33.0735 37.6764C33.8283 38.119 34.6461 38.4351 35.5898 38.4351C38.2949 38.4351 40.4964 36.2222 40.4964 33.5036C40.4964 32.8714 40.3075 32.2391 40.1187 31.6701C39.6157 31.9863 39.0498 32.1759 38.4202 32.4288Z" fill="white"/>
<path d="M28.544 36.0326C28.0411 36.3487 27.4744 36.6016 26.8455 36.6016C25.147 36.6016 23.7633 35.2107 23.7633 33.5036C23.7633 33.1243 23.8892 32.745 24.0145 32.4288C23.3856 32.2391 22.8196 31.9863 22.3789 31.6701C22.1277 32.2391 22.0018 32.8714 22.0018 33.5036C22.0018 36.2222 24.2033 38.4351 26.9085 38.4351C27.7892 38.4351 28.607 38.1822 29.3618 37.7396C29.11 37.2339 28.8588 36.6648 28.544 36.0326Z" fill="white"/>
<path d="M25.5877 32.9342C25.5247 33.1238 25.4618 33.2503 25.4618 33.5032C25.4618 34.2619 26.0907 34.8942 26.8455 34.8942C27.1603 34.8942 27.4114 34.7677 27.6003 34.6412C27.0344 33.8825 26.4055 33.3135 25.5877 32.9342Z" fill="white"/>
<path fill-rule="evenodd" clip-rule="evenodd" d="M54.9653 5.11539C55.0282 5.11539 55.0282 4.98892 54.9653 4.98892C53.2668 4.16706 53.7704 3.15543 52.7638 2.2071C51.6942 1.19546 50.1216 1.19546 49.7438 1.19546C47.9201 1.06906 47.3534 1.38517 47.1646 1.51157C46.7875 1.82775 46.2216 2.39674 45.8438 3.66124C45.4661 4.86252 45.7808 5.36826 45.9068 5.49474C45.9697 5.55797 46.0327 5.55797 46.0957 5.55797C46.3468 5.49474 47.1646 5.24186 47.1646 5.24186C47.6053 5.36827 48.4231 5.74761 48.2342 7.4547C47.9823 9.73077 44.9001 10.1734 44.0194 10.2998L43.9564 10.5527C45.4031 10.5527 49.3667 10.1101 49.9327 8.02368C50.4993 5.93732 49.4297 5.05215 49.4297 5.05215C49.1779 4.73605 48.0453 4.73605 47.3534 4.92575C47.2905 4.92575 46.9764 4.41994 47.3534 3.34514C48.0453 1.38517 48.3601 1.51157 49.6809 1.51157C49.8068 1.51157 49.9957 1.57481 50.1216 1.63804C51.0023 2.3335 50.9393 3.47154 51.1912 4.41994C51.883 7.32823 53.3927 7.20183 54.5252 7.58117C54.6512 7.64434 54.7141 7.4547 54.6512 7.39146C53.9586 6.82248 52.8897 5.81085 53.0156 4.92575C53.0156 4.86252 53.0786 4.86252 53.1408 4.86252C53.3927 5.11539 54.1475 5.49474 54.9653 5.11539Z" fill="white"/>
<path fill-rule="evenodd" clip-rule="evenodd" d="M7.21748 5.11539C7.15521 5.11539 7.15521 4.98892 7.21748 4.98892C8.91599 4.16706 8.41301 3.15543 9.41966 2.2071C10.4893 1.19546 12.0619 1.19546 12.4389 1.19546C14.2634 1.06906 14.83 1.38517 15.0182 1.51157C15.3959 1.82775 15.9619 2.39674 16.3396 3.66124C16.7167 4.86252 16.4026 5.36826 16.2767 5.49474C16.2137 5.55797 16.1507 5.55797 16.0878 5.55797C15.8359 5.49474 15.0182 5.24186 15.0182 5.24186C14.5781 5.36827 13.7604 5.74761 13.9492 7.4547C14.2004 9.73077 17.2833 10.1734 18.164 10.2998L18.227 10.5527C16.7796 10.5527 12.8167 10.1101 12.2507 8.02368C11.6841 5.93732 12.7537 5.05215 12.7537 5.05215C13.0056 4.73605 14.1374 4.73605 14.83 4.92575C14.8922 4.92575 15.207 4.41994 14.83 3.34514C14.1374 1.38517 13.8233 1.51157 12.5019 1.51157C12.376 1.51157 12.1878 1.57481 12.0619 1.63804C11.1811 2.3335 11.2441 3.47154 10.9922 4.41994C10.3004 7.32823 8.79076 7.20183 7.65819 7.58117C7.53227 7.64434 7.4693 7.4547 7.53226 7.39146C8.22412 6.82248 9.29374 5.81085 9.16782 4.92575C9.16782 4.86252 9.10486 4.86252 9.0419 4.86252C8.79076 5.11539 8.03525 5.49474 7.21748 5.11539Z" fill="white"/>
<path d="M48.9891 47.3495L47.1647 48.8036L45.3402 47.3495C44.5854 47.792 44.0817 48.4875 43.8306 49.3094C42.698 49.4358 39.6781 48.8036 39.9929 48.361C43.264 43.7456 40.8736 40.9637 37.8536 41.027C37.3507 41.7224 36.344 42.6076 35.1492 43.2399C32.6958 44.5043 31.5003 45.4527 31.1226 45.7688C30.7455 45.4527 29.55 44.5043 27.0966 43.2399C25.8388 42.6076 24.8951 41.7224 24.3915 41.027C21.4352 41.027 19.1071 43.7456 22.3159 48.361C22.63 48.8036 19.4848 49.4991 18.0381 49.3094C17.6604 48.9301 17.0945 48.6771 16.4649 48.6771C16.2137 48.6771 15.9619 48.7404 15.71 48.8036C15.71 48.8036 9.98562 43.3663 9.8597 43.3031L9.92265 43.1767C10.2374 42.5444 9.73378 41.9121 9.41968 41.9121C9.79674 41.4696 9.79674 39.5096 7.78413 39.067C7.84709 39.4464 7.84708 40.2683 7.84708 40.2683C7.84708 40.2683 6.2738 39.4464 5.45602 40.1419C4.76416 40.9637 5.70786 42.4811 5.70786 42.4811C5.70786 42.4811 4.89008 42.4811 4.51233 42.4811C5.07896 44.4411 7.02931 44.3147 7.46933 43.9353C7.46933 44.2515 8.16119 44.694 8.72782 44.3147L8.97896 44.1882C9.04192 44.2515 14.6411 49.5623 14.6411 49.5623C14.3893 49.9416 14.2634 50.3842 14.3263 50.89C14.4522 51.6487 15.0811 52.3442 15.9619 52.4706C16.5278 52.5971 17.0944 52.4706 17.5345 52.2177L19.0441 53.6086C19.17 53.7351 19.3589 53.7983 19.5478 53.7983C19.9248 53.7983 20.1767 53.4822 20.1767 53.166C20.1767 53.0396 20.1137 52.9132 19.9878 52.7867L18.4782 51.3958C19.6737 50.5106 22.0011 49.9416 23.8885 49.9416C24.2026 49.9416 24.3915 49.6888 24.2656 49.3726C23.3848 47.2862 25.2722 45.8321 27.1596 47.0333C27.5996 47.2862 27.9774 47.7288 28.4181 48.5507C26.6566 49.3094 23.3848 52.5971 23.1966 53.419C23.7626 55.5686 25.587 56.2009 25.587 56.2009C25.1463 55.1892 25.3352 53.1661 28.1033 51.7751C26.4048 53.4822 25.7759 54.9996 26.2159 56.4537C26.6566 57.7817 27.9774 58.3504 28.984 58.3504C28.2922 56.1376 28.6063 54.1777 30.0536 52.5338C29.424 54.3041 28.5433 59.6151 31.1226 60.5C33.7018 59.6151 32.8211 54.2409 32.1922 52.5338C33.7018 54.1144 34.0166 56.1376 33.2618 58.3504C34.2684 58.3504 35.6521 57.7817 36.0299 56.4537C36.4699 54.9996 35.841 53.4822 34.1425 51.7751C36.9106 53.1661 37.0988 55.1892 36.6588 56.2009C36.6588 56.2009 38.4832 55.5686 39.0492 53.419C38.8603 52.6603 35.7151 49.4358 33.9536 48.6139C34.3314 47.7288 34.7714 47.2862 35.2121 47.0333C37.0988 45.8321 38.9862 47.2862 38.1055 49.3726C37.9796 49.6255 38.1684 49.9416 38.4832 49.9416C40.6218 49.9416 43.264 50.7003 44.3336 51.7751C45.0254 52.7867 46.221 53.419 47.6047 53.2925C49.1773 53.1661 50.4987 51.9648 50.6246 50.4474C50.7499 49.1197 50.058 47.9817 48.9891 47.3495Z" fill="white"/>
<path d="M48.4232 46.1478L47.1647 44.8201L45.9069 46.1478L47.1647 47.2859L48.4232 46.1478Z" fill="white"/>
</svg>
