<svg width="24" height="25" viewBox="0 0 24 25" fill="none" xmlns="http://www.w3.org/2000/svg">
<path fill-rule="evenodd" clip-rule="evenodd" d="M22 12.5C22 18.0228 17.5228 22.5 12 22.5C6.47715 22.5 2 18.0228 2 12.5C2 6.97715 6.47715 2.5 12 2.5C17.5228 2.5 22 6.97715 22 12.5ZM13.5585 8.16138C12.5866 6.86543 10.5591 7.19444 10.0468 8.73126L9.71151 9.73717C9.58053 10.1301 9.15579 10.3425 8.76283 10.2115C8.36987 10.0805 8.1575 9.65579 8.28849 9.26283L8.62379 8.25691C9.5187 5.5722 13.0606 4.99743 14.7585 7.26138C15.7532 8.58755 15.6838 10.4289 14.5922 11.6765L13.673 12.727C13.078 13.407 12.75 14.2798 12.75 15.1834V15.5C12.75 15.9142 12.4142 16.25 12 16.25C11.5858 16.25 11.25 15.9142 11.25 15.5V15.1834C11.25 13.9165 11.7098 12.6927 12.5441 11.7392L13.4633 10.6887C14.0882 9.97458 14.1279 8.92052 13.5585 8.16138ZM12 19.5C12.5523 19.5 13 19.0523 13 18.5C13 17.9477 12.5523 17.5 12 17.5C11.4477 17.5 11 17.9477 11 18.5C11 19.0523 11.4477 19.5 12 19.5Z" fill="#6625A5"/>
</svg>
