<svg width="22" height="22" viewBox="0 0 22 22" fill="none" xmlns="http://www.w3.org/2000/svg">
<path d="M3.89585 7.14551H1.60417C0.719587 7.14551 0 7.86509 0 8.74968V19.2914C0 20.176 0.719587 20.8956 1.60417 20.8956H3.89585C4.78044 20.8956 5.50003 20.176 5.50003 19.2914V8.74968C5.50003 7.86509 4.78044 7.14551 3.89585 7.14551Z" fill="#F7BC14"/>
<path d="M18.3343 7.83337H14.0076C14.0076 7.83337 14.6951 6.45836 14.6951 4.16668C14.6951 1.41667 12.6326 0.5 11.7159 0.5C10.7993 0.5 10.3409 0.958335 10.3409 3.25001C10.3409 5.42802 8.23167 7.1807 6.875 8.08362V19.4393C8.34259 20.1186 11.2805 21.1251 15.841 21.1251H17.3076C19.0951 21.1251 20.6168 19.8418 20.9193 18.0817L21.946 12.1234C22.331 9.87754 20.6076 7.83337 18.3343 7.83337Z" fill="#FED130"/>
</svg>
