<svg width="594" height="124" viewBox="0 0 594 124" fill="none" xmlns="http://www.w3.org/2000/svg">
<path d="M194.992 0H185.875C185.358 0 184.935 0.163234 184.606 0.489701C184.277 0.816168 184.113 1.23591 184.113 1.74893V18.6553H166.712V1.76059C166.712 1.24757 166.536 0.827828 166.184 0.50136C165.831 0.174893 165.397 0.0116595 164.88 0.0116595H155.762C155.245 0.0116595 154.822 0.174893 154.493 0.50136C154.164 0.827828 154 1.24757 154 1.76059V47.3611C154 47.8741 154.164 48.2938 154.493 48.6203C154.822 48.9468 155.245 49.11 155.762 49.11H164.88C165.397 49.11 165.831 48.9351 166.184 48.5853C166.536 48.2355 166.712 47.8274 166.712 47.3611V29.8951H184.113V47.3611C184.113 47.8274 184.277 48.2355 184.606 48.5853C184.935 48.9351 185.358 49.11 185.875 49.11H194.992C195.509 49.11 195.932 48.9351 196.261 48.5853C196.59 48.2355 196.755 47.8274 196.755 47.3611V1.76059C196.755 1.24757 196.59 0.827828 196.261 0.50136C195.932 0.174893 195.509 0.0116595 194.992 0.0116595V0Z" fill="black"/>
<path d="M235.01 1.9588C234.869 1.44578 234.575 0.991061 234.129 0.594637C233.682 0.198212 233.059 0 232.249 0H221.78C220.981 0 220.359 0.198212 219.912 0.594637C219.466 0.991061 219.172 1.44578 219.031 1.9588L202.418 46.9996C202.371 47.1862 202.348 47.396 202.348 47.6292C202.348 48.0023 202.5 48.3405 202.806 48.6436C203.111 48.9468 203.452 49.0983 203.828 49.0983H212.522C213.321 49.0983 213.885 48.9234 214.214 48.5737C214.543 48.2239 214.754 47.9091 214.848 47.6292L217.539 40.4703H236.42L239.181 47.6292C239.275 47.9091 239.498 48.2239 239.85 48.5737C240.203 48.9234 240.732 49.0983 241.437 49.0983H250.131C250.554 49.0983 250.918 48.9468 251.223 48.6436C251.529 48.3405 251.682 48.0023 251.682 47.6292C251.682 47.396 251.635 47.1862 251.541 46.9996L235.01 1.9588ZM220.441 30.3731L227.02 11.8461L233.6 30.3731H220.441Z" fill="black"/>
<path d="M270.105 35.1885C269.376 36.2029 268.554 36.9491 267.661 37.4388C266.768 37.9285 265.687 38.1733 264.406 38.1733H261.716C261.199 38.1733 260.776 38.3366 260.447 38.663C260.118 38.9895 259.953 39.4093 259.953 39.9223V47.3611C259.953 47.8274 260.118 48.2355 260.447 48.5853C260.776 48.9351 261.199 49.11 261.716 49.11H265.464C268.107 49.11 270.328 48.8651 272.149 48.3754C273.958 47.8857 275.533 47.0812 276.848 45.9503C278.164 44.8309 279.374 43.3502 280.491 41.5313C281.595 39.7007 282.746 37.4621 283.921 34.7921L297.997 2.72833C298.091 2.54178 298.173 2.33191 298.243 2.09872C298.314 1.86553 298.349 1.65566 298.349 1.4691C298.349 1.096 298.196 0.75787 297.891 0.454722C297.585 0.151574 297.221 0 296.798 0H287.54C287.07 0 286.647 0.116595 286.271 0.349786C285.895 0.582977 285.613 0.956083 285.425 1.4691L276.707 21.232L266.474 1.4691C266.239 1.00272 265.969 0.641275 265.663 0.384765C265.358 0.128255 264.947 0 264.43 0H254.666C254.196 0 253.797 0.163234 253.456 0.489701C253.115 0.816168 252.963 1.16595 252.963 1.53906C252.963 1.77225 253.01 1.98212 253.104 2.16867L270.586 34.419C270.422 34.6638 270.269 34.9553 270.105 35.1768V35.1885Z" fill="black"/>
<path d="M319.215 35.0137C320.531 35.0137 321.835 34.9204 323.139 34.7338C324.431 34.5473 325.653 34.2441 326.781 33.8244C327.909 33.4046 328.849 32.8916 329.613 32.2853V47.3728C329.613 47.8392 329.777 48.2472 330.106 48.597C330.435 48.9468 330.858 49.1217 331.375 49.1217H340.492C341.009 49.1217 341.444 48.9468 341.796 48.597C342.149 48.2472 342.325 47.8392 342.325 47.3728V1.76065C342.325 1.24763 342.149 0.827887 341.796 0.50142C341.444 0.174952 341.009 0.0117188 340.492 0.0117188H331.375C330.858 0.0117188 330.435 0.174952 330.106 0.50142C329.777 0.827887 329.613 1.24763 329.613 1.76065V19.1567C329.613 19.9495 329.354 20.6258 328.825 21.1854C328.309 21.7451 327.651 22.1998 326.852 22.5263C326.053 22.8528 325.207 23.086 324.314 23.2259C323.421 23.3658 322.587 23.4357 321.835 23.4357C319.097 23.4357 317.147 22.8877 315.96 21.7917C314.774 20.6957 314.186 18.9701 314.186 16.6382V1.76065C314.186 1.24763 314.022 0.827887 313.693 0.50142C313.364 0.174952 312.941 0.0117188 312.424 0.0117188H303.236C302.766 0.0117188 302.355 0.174952 302.002 0.50142C301.65 0.827887 301.474 1.24763 301.474 1.76065V17.1862C301.474 23.2142 302.931 27.7031 305.856 30.618C308.782 33.5446 313.235 35.002 319.215 35.002V35.0137Z" fill="black"/>
<path d="M393.587 0H384.469C383.952 0 383.529 0.163234 383.2 0.489701C382.871 0.816168 382.707 1.23591 382.707 1.74893V18.6553H365.307V1.76059C365.307 1.24757 365.13 0.827828 364.778 0.50136C364.425 0.174893 363.991 0.0116595 363.474 0.0116595H354.357C353.84 0.0116595 353.417 0.174893 353.088 0.50136C352.759 0.827828 352.594 1.24757 352.594 1.76059V47.3611C352.594 47.8741 352.759 48.2938 353.088 48.6203C353.417 48.9468 353.84 49.11 354.357 49.11H363.474C363.991 49.11 364.425 48.9351 364.778 48.5853C365.13 48.2355 365.307 47.8274 365.307 47.3611V29.8951H382.707V47.3611C382.707 47.8274 382.871 48.2355 383.2 48.5853C383.529 48.9351 383.952 49.11 384.469 49.11H393.587C394.103 49.11 394.526 48.9351 394.855 48.5853C395.184 48.2355 395.349 47.8274 395.349 47.3611V1.76059C395.349 1.24757 395.184 0.827828 394.855 0.50136C394.526 0.174893 394.103 0.0116595 393.587 0.0116595V0Z" fill="black"/>
<path d="M433.604 1.9588C433.463 1.44578 433.169 0.991061 432.723 0.594637C432.276 0.198212 431.654 0 430.855 0H420.386C419.576 0 418.965 0.198212 418.507 0.594637C418.06 0.991061 417.766 1.44578 417.625 1.9588L401.012 46.9996C400.965 47.1862 400.942 47.396 400.942 47.6292C400.942 48.0023 401.095 48.3405 401.4 48.6436C401.705 48.9468 402.058 49.0983 402.422 49.0983H411.116C411.915 49.0983 412.491 48.9234 412.82 48.5737C413.149 48.2239 413.36 47.9091 413.454 47.6292L416.145 40.4703H435.026L437.787 47.6292C437.881 47.9091 438.104 48.2239 438.456 48.5737C438.809 48.9234 439.338 49.0983 440.042 49.0983H448.737C449.16 49.0983 449.524 48.9468 449.829 48.6436C450.135 48.3405 450.288 48.0023 450.288 47.6292C450.288 47.396 450.241 47.1862 450.147 46.9996L433.604 1.9588ZM419.047 30.3731L425.626 11.8461L432.206 30.3731H419.059H419.047Z" fill="black"/>
<path d="M493.839 0H475.041C470.94 0 467.474 0.699572 464.643 2.11038C461.811 3.50952 459.661 5.44501 458.181 7.89351C456.689 10.3537 455.949 13.152 455.949 16.2767C455.949 19.4015 456.689 22.3863 458.181 24.7649C459.661 27.1551 461.729 28.9973 464.361 30.3032C464.49 30.3614 464.631 30.4081 464.76 30.4664L455.103 46.8597C454.962 47.1395 454.891 47.396 454.891 47.6292C454.891 48.0023 455.032 48.3405 455.314 48.6436C455.596 48.9468 455.949 49.0983 456.372 49.0983H465.771C466.581 49.0983 467.192 48.9001 467.651 48.5037C468.097 48.1073 468.438 47.6759 468.673 47.2095L476.874 32.262H482.889V47.3494C482.889 47.8158 483.065 48.2239 483.418 48.5737C483.77 48.9234 484.182 49.0983 484.651 49.0983H493.839C494.309 49.0983 494.72 48.9234 495.073 48.5737C495.425 48.2239 495.602 47.8158 495.602 47.3494V1.76059C495.602 1.24757 495.425 0.827827 495.073 0.50136C494.72 0.174893 494.309 0.0116595 493.839 0.0116595V0ZM482.889 22.3863H475.323C473.243 22.3863 471.704 21.85 470.694 20.7773C469.683 19.7046 469.178 18.2005 469.178 16.2884C469.178 14.3762 469.707 12.8605 470.764 11.6246C471.822 10.3887 473.349 9.7707 475.323 9.7707H482.889V22.398V22.3863Z" fill="black"/>
<path d="M189.047 93.5327C189.846 93.1596 190.704 92.5533 191.632 91.7022C192.549 90.8627 193.324 89.8017 193.97 88.5075C194.616 87.2132 194.922 85.7325 194.922 84.0535C194.922 81.1969 194.299 78.7368 193.042 76.6497C191.785 74.5626 189.87 72.9653 187.285 71.846C184.7 70.7266 181.375 70.167 177.322 70.167H155.762C155.245 70.167 154.822 70.3302 154.493 70.6567C154.164 70.9832 154 71.4029 154 71.9159V117.516C154 117.983 154.164 118.391 154.493 118.741C154.822 119.09 155.245 119.265 155.762 119.265H177.956C181.822 119.265 185.088 118.671 187.755 117.481C190.422 116.292 192.443 114.578 193.829 112.363C195.227 110.136 195.92 107.489 195.92 104.399C195.92 101.823 195.227 99.584 193.829 97.6602C192.431 95.7364 190.845 94.3605 189.059 93.5211L189.047 93.5327ZM166.701 79.2848H175.888C177.827 79.2848 179.272 79.7628 180.236 80.7189C181.199 81.675 181.681 82.8992 181.681 84.4033C181.681 85.9074 181.199 87.1549 180.236 88.1577C179.272 89.1604 177.815 89.6617 175.888 89.6617H166.701V79.2731V79.2848ZM181.128 108.399C180.095 109.576 178.555 110.159 176.535 110.159H166.712V98.5813H176.535C178.508 98.5813 180.036 99.141 181.105 100.26C182.162 101.38 182.691 102.767 182.691 104.399C182.691 105.892 182.174 107.233 181.128 108.399Z" fill="black"/>
<path d="M217.82 81.7103C219.335 80.2878 221.38 79.5766 223.976 79.5766C226.15 79.5766 227.971 80.0313 229.463 80.9408C230.943 81.8502 232.012 83.5525 232.682 86.0243C232.917 86.7239 233.199 87.2136 233.528 87.4584C233.857 87.715 234.339 87.8432 234.95 87.8432H244.49C244.913 87.8432 245.277 87.7033 245.583 87.4235C245.888 87.1436 246.017 86.7938 245.97 86.3741C245.923 83.7507 245.348 81.4071 244.243 79.3201C243.139 77.2447 241.588 75.4608 239.614 73.9917C237.64 72.5226 235.326 71.3916 232.682 70.6221C230.039 69.8525 227.172 69.4678 224.047 69.4678C219.664 69.4678 215.869 70.1907 212.662 71.6364C209.454 73.0822 206.964 75.2392 205.166 78.0958C203.368 80.9524 202.381 84.4153 202.193 88.4845C202.146 90.4899 202.123 92.6003 202.123 94.7923C202.123 96.9843 202.146 99.048 202.193 100.972C202.381 105.134 203.368 108.621 205.131 111.43C206.905 114.24 209.384 116.362 212.591 117.82C215.799 119.266 219.617 120 224.047 120C227.16 120 230.039 119.615 232.682 118.834C235.326 118.065 237.629 116.945 239.614 115.465C241.6 113.984 243.139 112.212 244.243 110.136C245.348 108.061 245.923 105.706 245.97 103.082C246.017 102.662 245.888 102.313 245.583 102.033C245.277 101.753 244.913 101.613 244.49 101.613H234.95C234.339 101.613 233.857 101.741 233.505 101.998C233.152 102.254 232.87 102.732 232.694 103.432C232.083 105.869 231.014 107.548 229.51 108.481C227.994 109.413 226.161 109.88 224 109.88C221.403 109.88 219.359 109.169 217.843 107.746C216.339 106.324 215.505 103.945 215.376 100.622C215.235 96.5995 215.235 92.6703 215.376 88.8343C215.517 85.5113 216.339 83.1444 217.843 81.7103H217.82Z" fill="black"/>
<path d="M288.738 109.18H265.616V99.4327H286.612C287.129 99.4327 287.552 99.2578 287.881 98.908C288.21 98.5582 288.374 98.1501 288.374 97.6837V91.5858C288.374 91.0728 288.21 90.6414 287.881 90.2916C287.552 89.9418 287.129 89.7669 286.612 89.7669H265.616V80.2994H288.174C288.691 80.2994 289.114 80.1361 289.443 79.8097C289.772 79.4832 289.937 79.0635 289.937 78.5504V71.9628C289.937 71.4498 289.772 71.03 289.443 70.7036C289.114 70.3771 288.691 70.2139 288.174 70.2139H255.16C254.643 70.2139 254.22 70.3771 253.891 70.7036C253.562 71.03 253.397 71.4498 253.397 71.9628V117.563C253.397 118.03 253.562 118.438 253.891 118.788C254.22 119.137 254.643 119.312 255.16 119.312H288.75C289.267 119.312 289.69 119.137 290.019 118.788C290.348 118.438 290.512 118.03 290.512 117.563V110.976C290.512 110.463 290.348 110.043 290.019 109.716C289.69 109.39 289.267 109.227 288.75 109.227L288.738 109.18Z" fill="black"/>
<path d="M340.844 70.167H306.349C305.832 70.167 305.385 70.3302 305.033 70.6567C304.68 70.9832 304.504 71.4029 304.504 71.9159V86.1522C304.504 89.3819 304.387 92.3201 304.152 94.9552C303.917 97.6019 303.517 99.8638 302.941 101.753C302.377 103.653 301.649 105.146 300.756 106.242C299.863 107.338 298.747 108.002 297.431 108.235C296.256 108.422 295.657 109.04 295.657 110.066V117.435C295.657 117.948 295.845 118.379 296.221 118.729C296.597 119.079 297.043 119.254 297.56 119.254C301.473 119.16 304.692 118.531 307.206 117.365C309.721 116.199 311.683 114.357 313.081 111.862C314.467 109.355 315.431 106.137 315.971 102.172C316.512 98.2198 316.782 93.4161 316.782 87.7496V81.3602H329.941V117.493C329.941 117.959 330.105 118.368 330.434 118.717C330.763 119.067 331.186 119.242 331.703 119.242H340.82C341.337 119.242 341.772 119.067 342.124 118.717C342.477 118.368 342.653 117.959 342.653 117.493V71.9159C342.653 71.4029 342.477 70.9832 342.124 70.6567C341.772 70.3302 341.337 70.167 340.82 70.167H340.844Z" fill="black"/>
<path d="M387.864 109.18H364.742V99.4327H385.738C386.255 99.4327 386.678 99.2578 387.007 98.908C387.336 98.5582 387.5 98.1501 387.5 97.6837V91.5858C387.5 91.0728 387.336 90.6414 387.007 90.2916C386.678 89.9418 386.255 89.7669 385.738 89.7669H364.742V80.2994H387.301C387.817 80.2994 388.24 80.1361 388.569 79.8097C388.898 79.4832 389.063 79.0635 389.063 78.5504V71.9628C389.063 71.4498 388.898 71.03 388.569 70.7036C388.24 70.3771 387.817 70.2139 387.301 70.2139H354.286C353.769 70.2139 353.346 70.3771 353.017 70.7036C352.688 71.03 352.523 71.4498 352.523 71.9628V117.563C352.523 118.03 352.688 118.438 353.017 118.788C353.346 119.137 353.769 119.312 354.286 119.312H387.864C388.381 119.312 388.804 119.137 389.133 118.788C389.462 118.438 389.627 118.03 389.627 117.563V110.976C389.627 110.463 389.462 110.043 389.133 109.716C388.804 109.39 388.381 109.227 387.864 109.227V109.18Z" fill="black"/>
<path d="M438.702 70.167H429.585C429.068 70.167 428.645 70.3302 428.316 70.6567C427.987 70.9832 427.823 71.4029 427.823 71.9159V88.8223H410.422V71.9159C410.422 71.4029 410.246 70.9832 409.894 70.6567C409.541 70.3302 409.107 70.167 408.59 70.167H399.472C398.955 70.167 398.532 70.3302 398.203 70.6567C397.874 70.9832 397.71 71.4029 397.71 71.9159V117.516C397.71 118.029 397.874 118.449 398.203 118.776C398.532 119.102 398.955 119.265 399.472 119.265H408.59C409.107 119.265 409.541 119.09 409.894 118.741C410.246 118.391 410.422 117.983 410.422 117.516V100.05H427.823V117.516C427.823 117.983 427.987 118.391 428.316 118.741C428.645 119.09 429.068 119.265 429.585 119.265H438.702C439.219 119.265 439.642 119.09 439.971 118.741C440.3 118.391 440.465 117.983 440.465 117.516V71.9159C440.465 71.4029 440.3 70.9832 439.971 70.6567C439.642 70.3302 439.219 70.167 438.702 70.167Z" fill="black"/>
<path d="M491.373 70.167H482.255C481.738 70.167 481.316 70.3302 480.987 70.6567C480.658 70.9832 480.493 71.4029 480.493 71.9159V88.8223H463.093V71.9159C463.093 71.4029 462.917 70.9832 462.564 70.6567C462.212 70.3302 461.777 70.167 461.26 70.167H452.143C451.626 70.167 451.203 70.3302 450.874 70.6567C450.545 70.9832 450.38 71.4029 450.38 71.9159V117.516C450.38 118.029 450.545 118.449 450.874 118.776C451.203 119.102 451.626 119.265 452.143 119.265H461.26C461.777 119.265 462.212 119.09 462.564 118.741C462.917 118.391 463.093 117.983 463.093 117.516V100.05H480.493V117.516C480.493 117.983 480.658 118.391 480.987 118.741C481.316 119.09 481.738 119.265 482.255 119.265H491.373C491.89 119.265 492.313 119.09 492.642 118.741C492.971 118.391 493.135 117.983 493.135 117.516V71.9159C493.135 71.4029 492.971 70.9832 492.642 70.6567C492.313 70.3302 491.89 70.167 491.373 70.167Z" fill="black"/>
<path d="M531.39 72.1258C531.249 71.6128 530.955 71.1581 530.509 70.7616C530.05 70.3652 529.439 70.167 528.629 70.167H518.16C517.361 70.167 516.739 70.3652 516.281 70.7616C515.834 71.1581 515.54 71.6128 515.399 72.1258L498.786 117.167C498.739 117.353 498.716 117.563 498.716 117.796C498.716 118.169 498.868 118.507 499.174 118.811C499.479 119.114 499.82 119.265 500.196 119.265H508.89C509.701 119.265 510.265 119.09 510.594 118.741C510.923 118.391 511.134 118.076 511.228 117.796L513.919 110.637H532.788L535.549 117.796C535.643 118.076 535.866 118.391 536.219 118.741C536.571 119.09 537.1 119.265 537.816 119.265H546.511C546.934 119.265 547.298 119.114 547.603 118.811C547.909 118.507 548.062 118.169 548.062 117.796C548.062 117.563 548.015 117.353 547.921 117.167L531.378 72.1258H531.39ZM516.821 100.54L523.4 82.0131L529.98 100.54H516.821Z" fill="black"/>
<path d="M592.861 70.6567C592.509 70.3302 592.097 70.167 591.627 70.167H572.817C568.717 70.167 565.251 70.8666 562.431 72.2774C559.6 73.6765 557.45 75.612 555.957 78.0605C554.477 80.5207 553.725 83.319 553.725 86.4437C553.725 89.5685 554.465 92.5533 555.957 94.9319C557.438 97.3221 559.506 99.1643 562.149 100.47C562.278 100.528 562.419 100.575 562.537 100.633L552.879 117.027C552.738 117.307 552.668 117.563 552.668 117.796C552.668 118.169 552.809 118.507 553.091 118.811C553.373 119.114 553.725 119.265 554.148 119.265H563.547C564.346 119.265 564.969 119.067 565.415 118.671C565.874 118.274 566.203 117.843 566.438 117.376L574.638 102.429H580.654V117.516C580.654 117.983 580.83 118.391 581.183 118.741C581.535 119.09 581.946 119.265 582.416 119.265H591.604C592.074 119.265 592.485 119.09 592.838 118.741C593.19 118.391 593.366 117.983 593.366 117.516V71.9159C593.366 71.4029 593.19 70.9832 592.838 70.6567H592.861ZM580.666 92.5533H573.099C571.031 92.5533 569.481 92.017 568.47 90.9443C567.46 89.8716 566.955 88.3675 566.955 86.4554C566.955 84.5432 567.483 83.0275 568.541 81.7916C569.598 80.5556 571.114 79.9377 573.099 79.9377H580.666V92.565V92.5533Z" fill="black"/>
<path d="M6.83273 117.469C3.41299 114.05 3.41299 108.505 6.83273 105.085L105.726 6.19201C109.146 2.77227 114.69 2.77227 118.11 6.19201C121.53 9.61174 121.53 15.1562 118.11 18.576L19.2167 117.469C15.7969 120.889 10.2525 120.889 6.83273 117.469Z" fill="url(#paint0_linear_406_1465)"/>
<path d="M51.6554 113.354C49.7054 111.404 49.7054 108.242 51.6554 106.292L115.98 41.9681C117.93 40.0181 121.091 40.0181 123.041 41.9681C124.991 43.9181 124.991 47.0797 123.041 49.0297L58.7169 113.354C56.7669 115.304 53.6054 115.304 51.6554 113.354Z" fill="url(#paint1_linear_406_1465)"/>
<path d="M10.7554 46.0175C9.57111 44.8331 9.57111 42.913 10.7554 41.7286L50.3394 2.14466C51.5237 0.960332 53.4439 0.960332 54.6282 2.14466C55.8126 3.32899 55.8126 5.24918 54.6283 6.43351L15.0443 46.0175C13.86 47.2018 11.9398 47.2018 10.7554 46.0175Z" fill="url(#paint2_linear_406_1465)"/>
<path d="M7.52199 78.542C5.88727 76.9072 5.88727 74.2568 7.52199 72.6221L56.6843 23.4598C58.3191 21.8251 60.9695 21.8251 62.6042 23.4598C64.2389 25.0945 64.2389 27.7449 62.6042 29.3796L13.4418 78.542C11.8071 80.1767 9.15671 80.1767 7.52199 78.542Z" fill="url(#paint3_linear_406_1465)"/>
<path d="M81.8345 116.343C80.1998 114.708 80.1998 112.058 81.8345 110.423L114.986 77.2718C116.62 75.6371 119.271 75.6371 120.905 77.2718C122.54 78.9065 122.54 81.5569 120.905 83.1916L87.7543 116.343C86.1196 117.977 83.4692 117.977 81.8345 116.343Z" fill="url(#paint4_linear_406_1465)"/>
<defs>
<linearGradient id="paint0_linear_406_1465" x1="6.83272" y1="117.469" x2="117.314" y2="6.98795" gradientUnits="userSpaceOnUse">
<stop stop-color="#6625A5" stop-opacity="0"/>
<stop offset="0.06" stop-color="#6824A3" stop-opacity="0.02"/>
<stop offset="0.14" stop-color="#6F24A0" stop-opacity="0.09"/>
<stop offset="0.22" stop-color="#7B249B" stop-opacity="0.2"/>
<stop offset="0.3" stop-color="#8C2495" stop-opacity="0.35"/>
<stop offset="0.39" stop-color="#A2248C" stop-opacity="0.55"/>
<stop offset="0.47" stop-color="#BC2481" stop-opacity="0.79"/>
<stop offset="0.54" stop-color="#D32478"/>
<stop offset="0.55" stop-color="#D52673"/>
<stop offset="0.69" stop-color="#E53E4B"/>
<stop offset="0.81" stop-color="#F14F2E"/>
<stop offset="0.92" stop-color="#F85A1D"/>
<stop offset="1" stop-color="#FB5E17"/>
</linearGradient>
<linearGradient id="paint1_linear_406_1465" x1="51.6554" y1="113.354" x2="122.531" y2="42.4787" gradientUnits="userSpaceOnUse">
<stop stop-color="#6625A5" stop-opacity="0"/>
<stop offset="0.06" stop-color="#6824A3" stop-opacity="0.02"/>
<stop offset="0.14" stop-color="#6F24A0" stop-opacity="0.09"/>
<stop offset="0.22" stop-color="#7B249B" stop-opacity="0.2"/>
<stop offset="0.3" stop-color="#8C2495" stop-opacity="0.35"/>
<stop offset="0.39" stop-color="#A2248C" stop-opacity="0.55"/>
<stop offset="0.47" stop-color="#BC2481" stop-opacity="0.79"/>
<stop offset="0.54" stop-color="#D32478"/>
<stop offset="0.55" stop-color="#D52673"/>
<stop offset="0.69" stop-color="#E53E4B"/>
<stop offset="0.81" stop-color="#F14F2E"/>
<stop offset="0.92" stop-color="#F85A1D"/>
<stop offset="1" stop-color="#FB5E17"/>
</linearGradient>
<linearGradient id="paint2_linear_406_1465" x1="10.7554" y1="46.0175" x2="54.3144" y2="2.45847" gradientUnits="userSpaceOnUse">
<stop stop-color="#6625A5" stop-opacity="0"/>
<stop offset="0.06" stop-color="#6824A3" stop-opacity="0.02"/>
<stop offset="0.14" stop-color="#6F24A0" stop-opacity="0.09"/>
<stop offset="0.22" stop-color="#7B249B" stop-opacity="0.2"/>
<stop offset="0.3" stop-color="#8C2495" stop-opacity="0.35"/>
<stop offset="0.39" stop-color="#A2248C" stop-opacity="0.55"/>
<stop offset="0.47" stop-color="#BC2481" stop-opacity="0.79"/>
<stop offset="0.54" stop-color="#D32478"/>
<stop offset="0.55" stop-color="#D52673"/>
<stop offset="0.69" stop-color="#E53E4B"/>
<stop offset="0.81" stop-color="#F14F2E"/>
<stop offset="0.92" stop-color="#F85A1D"/>
<stop offset="1" stop-color="#FB5E17"/>
</linearGradient>
<linearGradient id="paint3_linear_406_1465" x1="7.52199" y1="78.5419" x2="121.291" y2="-35.2267" gradientUnits="userSpaceOnUse">
<stop stop-color="#6625A5" stop-opacity="0"/>
<stop offset="0.06" stop-color="#6824A3" stop-opacity="0.02"/>
<stop offset="0.14" stop-color="#6F24A0" stop-opacity="0.09"/>
<stop offset="0.22" stop-color="#7B249B" stop-opacity="0.2"/>
<stop offset="0.3" stop-color="#8C2495" stop-opacity="0.35"/>
<stop offset="0.39" stop-color="#A2248C" stop-opacity="0.55"/>
<stop offset="0.47" stop-color="#BC2481" stop-opacity="0.79"/>
<stop offset="0.54" stop-color="#D32478"/>
<stop offset="0.55" stop-color="#D52673"/>
<stop offset="0.69" stop-color="#E53E4B"/>
<stop offset="0.81" stop-color="#F14F2E"/>
<stop offset="0.92" stop-color="#F85A1D"/>
<stop offset="1" stop-color="#FB5E17"/>
</linearGradient>
<linearGradient id="paint4_linear_406_1465" x1="81.8345" y1="116.343" x2="162.533" y2="35.6443" gradientUnits="userSpaceOnUse">
<stop stop-color="#6625A5" stop-opacity="0"/>
<stop offset="0.06" stop-color="#6824A3" stop-opacity="0.02"/>
<stop offset="0.14" stop-color="#6F24A0" stop-opacity="0.09"/>
<stop offset="0.22" stop-color="#7B249B" stop-opacity="0.2"/>
<stop offset="0.3" stop-color="#8C2495" stop-opacity="0.35"/>
<stop offset="0.39" stop-color="#A2248C" stop-opacity="0.55"/>
<stop offset="0.47" stop-color="#BC2481" stop-opacity="0.79"/>
<stop offset="0.54" stop-color="#D32478"/>
<stop offset="0.55" stop-color="#D52673"/>
<stop offset="0.69" stop-color="#E53E4B"/>
<stop offset="0.81" stop-color="#F14F2E"/>
<stop offset="0.92" stop-color="#F85A1D"/>
<stop offset="1" stop-color="#FB5E17"/>
</linearGradient>
</defs>
</svg>
