<svg width="12" height="20" viewBox="0 0 12 20" fill="none" xmlns="http://www.w3.org/2000/svg">
<path d="M5.01531 14.0871C3.46487 13.9253 2.06692 13.5435 0.870049 12.6074C0.72154 12.4909 0.568213 12.3787 0.432691 12.2486C-0.0911746 11.7455 -0.143959 11.1692 0.270567 10.5754C0.625187 10.0673 1.22048 9.93132 1.83923 10.2231C1.95904 10.2797 2.0732 10.3502 2.18254 10.4261C4.41311 11.9587 7.47733 12.001 9.71628 10.495C9.9381 10.3249 10.1752 10.1862 10.45 10.1154C10.9844 9.97824 11.4827 10.1745 11.7694 10.642C12.097 11.1759 12.0928 11.6971 11.6892 12.1116C11.07 12.7471 10.3254 13.2069 9.49802 13.5278C8.71568 13.8311 7.85877 13.9838 7.01065 14.0852C7.13863 14.2245 7.19896 14.293 7.27897 14.3734C8.4306 15.5305 9.58725 16.6827 10.7351 17.8433C11.1262 18.2388 11.2079 18.7292 10.9925 19.1891C10.7571 19.6919 10.2301 20.0226 9.71335 19.9872C9.38596 19.9646 9.13062 19.8016 8.90377 19.5731C8.03471 18.6986 7.14932 17.8402 6.29785 16.9491C6.05006 16.69 5.93087 16.7391 5.71219 16.964C4.8379 17.8641 3.94936 18.7503 3.05558 19.6315C2.65425 20.0272 2.17668 20.0984 1.71125 19.8724C1.2165 19.6326 0.901678 19.1276 0.925975 18.62C0.942732 18.2767 1.11156 18.0145 1.3472 17.7792C2.48689 16.6412 3.62343 15.5003 4.7604 14.3604C4.83559 14.2846 4.90576 14.2041 5.01531 14.0871Z" fill="white"/>
<path d="M5.95986 10.1231C3.19391 10.1137 0.925851 7.82072 0.94198 5.05037C0.957899 2.24944 3.22743 -0.00773022 6.02061 1.98982e-05C8.81945 0.00756055 11.0659 2.2972 11.0519 5.12724C11.0377 7.89194 8.75388 10.1328 5.95986 10.1231ZM8.47362 5.05707C8.46881 3.68153 7.37332 2.58646 6.0005 2.58521C4.61616 2.58374 3.51083 3.69871 3.52151 5.08682C3.53177 6.45712 4.63669 7.54444 6.01328 7.53941C7.38568 7.5346 8.47823 6.4324 8.47362 5.05707Z" fill="white"/>
</svg>
