<svg width="30" height="30" viewBox="0 0 30 30" fill="none" xmlns="http://www.w3.org/2000/svg">
<path fill-rule="evenodd" clip-rule="evenodd" d="M27.7272 21.2784C27.9018 21.1039 27.9999 20.8671 28 20.6202H22.4138C22.1669 20.6204 21.9303 20.7186 21.7557 20.8932C21.5812 21.0677 21.483 21.3044 21.4828 21.5512V27.1374C21.605 27.1374 21.7261 27.1134 21.839 27.0665C21.952 27.0197 22.0546 26.9511 22.141 26.8646L27.7272 21.2784ZM21.9962 18.8003C22.2695 18.2026 22.4119 17.5533 22.4138 16.8961C22.4138 15.9753 22.1408 15.0753 21.6293 14.3098C21.1177 13.5442 20.3907 12.9476 19.5401 12.5952C18.6895 12.2429 17.7535 12.1507 16.8504 12.3303C15.9474 12.5099 15.118 12.9533 14.4669 13.6043C13.8159 14.2554 13.3725 15.0849 13.1929 15.9879C13.0133 16.8909 13.1055 17.8269 13.4578 18.6775C13.8101 19.5281 14.4068 20.2552 15.1723 20.7667C15.9379 21.2782 16.8379 21.5512 17.7586 21.5512C18.4159 21.5493 19.0652 21.407 19.6629 21.1337C19.7522 20.5468 20.0268 20.0038 20.4466 19.584C20.8663 19.1642 21.4093 18.8896 21.9962 18.8003ZM18.6897 15.965H20.5517C20.7987 15.965 21.0355 16.0631 21.2101 16.2377C21.3847 16.4123 21.4828 16.6491 21.4828 16.8961C21.4828 17.143 21.3847 17.3798 21.2101 17.5544C21.0355 17.729 20.7987 17.8271 20.5517 17.8271H18.6897V19.6892C18.6897 19.9361 18.5916 20.1729 18.417 20.3475C18.2424 20.5221 18.0055 20.6202 17.7586 20.6202C17.5117 20.6202 17.2749 20.5221 17.1003 20.3475C16.9257 20.1729 16.8276 19.9361 16.8276 19.6892V17.8271H14.9655C14.7186 17.8271 14.4818 17.729 14.3072 17.5544C14.1326 17.3798 14.0345 17.143 14.0345 16.8961C14.0345 16.6491 14.1326 16.4123 14.3072 16.2377C14.4818 16.0631 14.7186 15.965 14.9655 15.965H16.8276V14.103C16.8276 13.856 16.9257 13.6192 17.1003 13.4446C17.2749 13.27 17.5117 13.1719 17.7586 13.1719C18.0055 13.1719 18.2424 13.27 18.417 13.4446C18.5916 13.6192 18.6897 13.856 18.6897 14.103V15.965ZM10.3103 6.65468H25.2069C25.9474 6.65549 26.6574 6.95002 27.181 7.47365C27.7047 7.99728 27.9992 8.70725 28 9.44778V18.7581H24.0014C24.4184 17.3658 24.3589 15.8742 23.8322 14.5195C23.3056 13.1649 22.3419 12.0247 21.094 11.2797C19.846 10.5347 18.3851 10.2274 16.9428 10.4066C15.5005 10.5858 14.1592 11.2412 13.1315 12.2689C12.1037 13.2966 11.4484 14.6379 11.2692 16.0802C11.09 17.5226 11.3973 18.9834 12.1423 20.2314C12.8873 21.4793 14.0274 22.443 15.3821 22.9696C16.7367 23.4963 18.2284 23.5558 19.6207 23.1388V27.1374H10.3103C9.56982 27.1366 8.85985 26.8421 8.33622 26.3185C7.81259 25.7948 7.51805 25.0849 7.51725 24.3443V9.44778C7.51805 8.70725 7.81259 7.99728 8.33622 7.47365C8.85985 6.95002 9.56982 6.65549 10.3103 6.65468Z" fill="#6625A5"/>
<path d="M5.65518 9.44778C5.65663 8.2136 6.14755 7.03038 7.02025 6.15768C7.89295 5.28498 9.07617 4.79406 10.3103 4.79261H21.3144L6.87035 3.01918C6.15885 2.93414 5.44261 3.13404 4.878 3.57524C4.31338 4.01644 3.94625 4.6631 3.85675 5.37405L2.01969 20.3361C1.93343 21.0478 2.13287 21.7646 2.57429 22.3295C3.01571 22.8944 3.6631 23.2613 4.37455 23.3496L5.65518 23.5069V9.44778Z" fill="#511988"/>
</svg>
