<svg width="240" height="100" viewBox="0 0 240 100" fill="none" xmlns="http://www.w3.org/2000/svg">
<rect x="0.5" width="238.75" height="100" rx="10" fill="white"/>
<rect x="1" y="0.5" width="237.75" height="99" rx="9.5" stroke="#2C2433" stroke-opacity="0.05"/>
<g clip-path="url(#clip0_65_17661)">
<path d="M55.415 61.5055C55.415 60.4469 55.5912 59.4731 55.9468 58.5876C56.3025 57.7021 56.8071 56.9387 57.4642 56.294C58.1213 55.6494 58.9105 55.1506 59.8352 54.7944C60.7599 54.4381 61.7964 54.2617 62.948 54.2617C64.0725 54.2617 65.1022 54.4314 66.0336 54.7639C66.9651 55.0998 67.7577 55.5781 68.4147 56.2024C69.0718 56.8267 69.5799 57.5867 69.9423 58.4858C70.3048 59.3849 70.4843 60.4062 70.4843 61.5462C70.4843 62.6048 70.3081 63.5785 69.9525 64.464C69.5968 65.3496 69.0922 66.113 68.4351 66.7576C67.778 67.4023 66.9854 67.901 66.0539 68.2573C65.1225 68.6135 64.0894 68.7899 62.948 68.7899C61.8235 68.7899 60.7938 68.6271 59.8623 68.298C58.9308 67.9689 58.1383 67.4939 57.4812 66.8696C56.8241 66.2453 56.316 65.4819 55.9536 64.576C55.5912 63.6701 55.415 62.6489 55.415 61.5055ZM58.0671 61.5258C58.0671 62.2112 58.1721 62.8558 58.3787 63.4564C58.5854 64.0603 58.897 64.5828 59.3136 65.0273C59.7302 65.4717 60.2417 65.8212 60.8514 66.0824C61.461 66.3437 62.1689 66.476 62.9717 66.476C63.7202 66.476 64.3943 66.3539 64.9904 66.113C65.5865 65.8721 66.0946 65.5362 66.518 65.1053C66.9414 64.6744 67.2631 64.1553 67.4935 63.5446C67.7204 62.9339 67.8356 62.2587 67.8356 61.5224C67.8356 60.8371 67.7306 60.1924 67.5239 59.5919C67.3173 58.988 67.0057 58.4655 66.5891 58.021C66.1725 57.5799 65.661 57.2271 65.0514 56.9658C64.4417 56.7046 63.7338 56.5723 62.931 56.5723C62.1825 56.5723 61.5051 56.6944 60.9022 56.9353C60.2993 57.1762 59.7878 57.5155 59.3644 57.9531C58.941 58.3908 58.6226 58.9099 58.3991 59.5139C58.1755 60.1178 58.0671 60.7896 58.0671 61.5258Z" fill="#005E7F"/>
<path d="M72.9131 54.4824H82.8982V56.7964H75.4229V59.3138H78.1766C80.1174 59.3138 81.5739 59.6837 82.546 60.4199C83.5181 61.1596 84.0024 62.3063 84.0024 63.8603C84.0024 64.6372 83.8635 65.3192 83.5892 65.9028C83.3148 66.4864 82.9185 66.9749 82.4037 67.3719C81.8889 67.7688 81.269 68.0674 80.5442 68.2676C79.8193 68.4678 79.0098 68.5696 78.1122 68.5696H72.9097V54.4824H72.9131ZM75.4263 61.6278V66.2556H78.0987C78.5932 66.2556 79.0471 66.2149 79.4535 66.1335C79.8634 66.0521 80.2089 65.9197 80.4968 65.7297C80.7847 65.5431 81.0048 65.2921 81.1606 64.9765C81.3131 64.661 81.391 64.2674 81.391 63.7992C81.391 62.9544 81.1132 62.381 80.5577 62.079C80.0022 61.7771 79.1826 61.6278 78.0953 61.6278H75.4263Z" fill="#005E7F"/>
<path d="M89.0694 64.1826V68.5696H86.5562V54.4824H91.2371C93.4591 54.4824 95.0713 54.8828 96.0705 55.6801C97.0697 56.4774 97.5676 57.6683 97.5676 59.2528C97.5676 60.9017 97.0324 62.1367 95.9587 62.9578C94.8884 63.7755 93.3134 64.186 91.2371 64.186H89.0694V64.1826ZM89.0694 56.7964V61.8687H91.42C92.5987 61.8687 93.4828 61.6651 94.0721 61.2546C94.6615 60.844 94.9561 60.1587 94.9561 59.1917C94.9561 58.3197 94.6818 57.7022 94.1331 57.3392C93.5844 56.9762 92.6936 56.7964 91.4607 56.7964H89.0694Z" fill="#005E7F"/>
<path d="M111.814 68.5725H109.141L107.796 65.2305H101.347L100.02 68.5725H97.4692L103.176 54.4854H106.028L111.814 68.5725ZM106.868 62.9166L104.558 57.142L102.248 62.9166H106.868Z" fill="#005E7F"/>
<path d="M113.501 55.5308C113.904 55.2356 114.5 54.954 115.289 54.686C116.078 54.4179 117.037 54.2822 118.161 54.2822C118.951 54.2822 119.669 54.3535 120.312 54.4926C120.956 54.6351 121.508 54.8488 121.968 55.1372C122.429 55.4256 122.785 55.792 123.032 56.2331C123.279 56.6776 123.405 57.2069 123.405 57.8244C123.405 59.4495 122.575 60.5556 120.912 61.146C123.056 61.4683 124.126 62.5676 124.126 64.4472C124.126 65.0512 124.004 65.6178 123.764 66.147C123.523 66.6763 123.161 67.1344 122.68 67.5144C122.199 67.8978 121.599 68.2031 120.881 68.4304C120.163 68.6578 119.337 68.7731 118.399 68.7731C117.755 68.7731 117.155 68.7222 116.6 68.6238C116.044 68.522 115.543 68.3897 115.093 68.2201C114.642 68.0538 114.256 67.8638 113.928 67.6569C113.599 67.4499 113.342 67.2362 113.155 67.0224V63.9213C113.369 64.2844 113.643 64.6203 113.978 64.929C114.314 65.2378 114.703 65.5058 115.143 65.7331C115.584 65.9604 116.085 66.1403 116.641 66.2658C117.196 66.3947 117.796 66.4558 118.439 66.4558C118.869 66.4558 119.269 66.4083 119.645 66.3133C120.021 66.2183 120.346 66.0826 120.62 65.8994C120.895 65.7195 121.112 65.4922 121.274 65.2242C121.433 64.9562 121.515 64.6406 121.515 64.2776C121.515 63.6465 121.271 63.1851 120.78 62.8899C120.292 62.5947 119.496 62.4488 118.399 62.4488H116.268V60.3758H118.378C118.832 60.3758 119.215 60.3249 119.523 60.2231C119.831 60.1213 120.078 59.9856 120.265 59.8092C120.451 59.6362 120.59 59.4326 120.678 59.2053C120.766 58.9779 120.81 58.7303 120.81 58.4622C120.81 58.1399 120.742 57.8617 120.61 57.6276C120.475 57.3935 120.289 57.2035 120.048 57.0542C119.808 56.9083 119.526 56.7963 119.205 56.7217C118.883 56.647 118.534 56.6029 118.161 56.5894C117.626 56.5758 117.118 56.6369 116.644 56.7692C116.17 56.9049 115.733 57.0881 115.337 57.3222C114.94 57.5563 114.585 57.821 114.273 58.1162C113.958 58.4113 113.701 58.7133 113.501 59.022V55.5308Z" fill="#005E7F"/>
<path d="M125.796 61.5055C125.796 60.4469 125.972 59.4731 126.328 58.5876C126.683 57.7021 127.188 56.9387 127.845 56.294C128.502 55.6494 129.291 55.1506 130.216 54.7944C131.141 54.4381 132.177 54.2617 133.329 54.2617C134.453 54.2617 135.483 54.4314 136.414 54.7639C137.346 55.0998 138.138 55.5781 138.796 56.2024C139.453 56.8267 139.961 57.5867 140.323 58.4858C140.686 59.3849 140.865 60.4062 140.865 61.5462C140.865 62.6048 140.689 63.5785 140.333 64.464C139.978 65.3496 139.473 66.113 138.816 66.7576C138.159 67.4023 137.366 67.901 136.435 68.2573C135.503 68.6135 134.47 68.7899 133.329 68.7899C132.204 68.7899 131.175 68.6271 130.243 68.298C129.312 67.9689 128.519 67.4939 127.862 66.8696C127.205 66.2453 126.697 65.4819 126.334 64.576C125.972 63.6701 125.796 62.6489 125.796 61.5055ZM128.448 61.5258C128.448 62.2112 128.553 62.8558 128.76 63.4564C128.966 64.0603 129.278 64.5828 129.694 65.0273C130.111 65.4717 130.623 65.8212 131.232 66.0824C131.842 66.3437 132.55 66.476 133.353 66.476C134.101 66.476 134.775 66.3539 135.371 66.113C135.967 65.8721 136.475 65.5362 136.899 65.1053C137.322 64.6744 137.644 64.1553 137.874 63.5446C138.101 62.9339 138.216 62.2587 138.216 61.5224C138.216 60.8371 138.111 60.1924 137.905 59.5919C137.698 58.988 137.387 58.4655 136.97 58.021C136.553 57.5799 136.042 57.2271 135.432 56.9658C134.823 56.7046 134.115 56.5723 133.312 56.5723C132.563 56.5723 131.886 56.6944 131.283 56.9353C130.68 57.1762 130.169 57.5155 129.745 57.9531C129.322 58.3908 129.003 58.9099 128.78 59.5139C128.56 60.1178 128.448 60.7896 128.448 61.5258Z" fill="#005E7F"/>
<path d="M143.297 68.5725V54.4854H149.404C152.564 54.4854 154.146 55.6525 154.146 57.9868C154.146 58.7909 153.976 59.4627 153.644 59.9987C153.309 60.5348 152.781 60.9454 152.056 61.227C152.926 61.3762 153.563 61.7189 153.966 62.2652C154.369 62.808 154.569 63.5443 154.569 64.4705C154.569 65.1966 154.44 65.8175 154.186 66.3434C153.932 66.8659 153.567 67.2934 153.092 67.6225C152.618 67.9516 152.042 68.1925 151.365 68.3486C150.688 68.5046 149.922 68.5793 149.065 68.5793H143.297V68.5725ZM149.041 60.4398C149.844 60.4398 150.478 60.2736 150.942 59.9377C151.402 59.6018 151.636 59.1336 151.636 58.5296C151.636 57.9664 151.439 57.5355 151.043 57.2404C150.647 56.9452 150 56.7993 149.106 56.7993H145.81V60.4432H149.041V60.4398ZM149.224 66.2552C150.19 66.2552 150.898 66.0991 151.355 65.7836C151.809 65.468 152.039 64.9693 152.039 64.2839C152.039 63.5986 151.798 63.1168 151.314 62.8352C150.83 62.5536 150.149 62.4111 149.265 62.4111H145.81V66.2552H149.224Z" fill="#005E7F"/>
<path d="M169.879 68.5725H167.206L165.861 65.2305H159.412L158.085 68.5725H155.534L161.241 54.4854H164.093L169.879 68.5725ZM164.937 62.9166L162.627 57.142L160.317 62.9166H164.937Z" fill="#005E7F"/>
<path d="M181.872 62.4726H174.177V68.5696H171.664V54.4824H174.177V60.1587H181.872V54.4824H184.386V68.5696H181.872V62.4726Z" fill="#005E7F"/>
<path d="M190.35 65.01L198.025 54.4854H200.759V68.5725H198.245V57.885L190.53 68.5725H187.837V54.4854H190.35V65.01Z" fill="#005E7F"/>
<path d="M213.196 62.4726H206.727V66.2556H214.162V68.5696H204.214V54.4824H213.938V56.7964H206.724V60.1587H213.193V62.4726H213.196Z" fill="#005E7F"/>
<path d="M93.3204 37.9963L96.4907 35.6553H85.8789V49.7153H96.4907V47.3742H88.907V43.7744H95.3763V41.4333H88.907V37.9963H93.3204Z" fill="#21A038"/>
<path d="M77.8651 41.1345H74.1799V37.9927H80.0633L83.2336 35.6516H71.1484V49.7116H77.4721C81.0184 49.7116 83.0541 48.1034 83.0541 45.2941C83.0575 42.6138 81.2149 41.1345 77.8651 41.1345ZM77.3401 47.3739H74.1799V43.4755H77.3401C79.2639 43.4755 80.1581 44.127 80.1581 45.423C80.1581 46.7496 79.2097 47.3739 77.3401 47.3739Z" fill="#21A038"/>
<path d="M105.09 35.6553H99.312V49.7153H102.34V45.7321H105.09C108.779 45.7321 111.069 43.7913 111.069 40.6869C111.069 37.5824 108.779 35.6553 105.09 35.6553ZM105.026 43.391H102.34V37.9963H105.026C106.967 37.9963 108.037 38.9531 108.037 40.6937C108.034 42.4342 106.967 43.391 105.026 43.391Z" fill="#21A038"/>
<path d="M65.9522 46.6716C65.1765 47.0991 64.2722 47.3264 63.3373 47.3264C60.6073 47.3264 58.6259 45.3756 58.6259 42.685C58.6259 39.9945 60.6073 38.0436 63.3373 38.0436C64.3704 38.0436 65.2951 38.3354 66.091 38.9088L68.2622 37.3039L68.1199 37.1784C66.8531 36.0622 65.1562 35.4718 63.2188 35.4718C61.1154 35.4718 59.2085 36.1809 57.8469 37.4702C56.4751 38.7663 55.7231 40.5916 55.7231 42.607C55.7231 44.6325 56.4751 46.485 57.8401 47.8218C59.2085 49.162 61.112 49.9016 63.2019 49.9016C65.3865 49.9016 67.2935 49.1382 68.584 47.7506C67.5881 47.0143 66.6228 46.3052 66.6228 46.3052L65.9522 46.6716Z" fill="#21A038"/>
<path d="M46.2699 35.54C46.822 36.2525 47.2928 37.0329 47.6688 37.8641L37.0401 45.7118L32.5996 42.9229V39.5674L37.0401 42.3563L46.2699 35.54Z" fill="#21A038"/>
<path d="M28.0677 42.685C28.0677 42.5357 28.0711 42.3864 28.0779 42.2372L25.3885 42.1014C25.3818 42.2948 25.375 42.4882 25.375 42.685C25.375 45.9116 26.679 48.8329 28.7926 50.9466L30.6995 49.0364C29.0737 47.4079 28.0677 45.1618 28.0677 42.685Z" fill="url(#paint0_linear_65_17661)"/>
<path d="M37.0401 33.7007C37.1891 33.7007 37.3381 33.7075 37.4872 33.7143L37.6226 31.017C37.4296 31.0068 37.2331 31 37.0401 31C33.8189 31 30.9026 32.3063 28.7925 34.4234L30.6994 36.3336C32.3218 34.7084 34.5675 33.7007 37.0401 33.7007Z" fill="url(#paint1_linear_65_17661)"/>
<path d="M37.0401 51.6693C36.8911 51.6693 36.742 51.6659 36.593 51.6591L36.4575 54.353C36.6506 54.3632 36.8436 54.3666 37.0401 54.3666C40.2612 54.3666 43.1775 53.0603 45.2877 50.9432L43.3807 49.033C41.7549 50.6616 39.5127 51.6693 37.0401 51.6693Z" fill="url(#paint2_linear_65_17661)"/>
<path d="M42.097 35.2682L44.3663 33.5921C42.3612 31.9704 39.8141 31 37.04 31V33.7007C38.9131 33.7007 40.6541 34.2775 42.097 35.2682Z" fill="url(#paint3_linear_65_17661)"/>
<path d="M48.7054 42.685C48.7054 41.9691 48.641 41.2702 48.5191 40.5916L46.0092 42.4441C46.0126 42.5221 46.0126 42.6036 46.0126 42.685C46.0126 45.3246 44.8712 47.6996 43.0591 49.3452L44.8678 51.3504C47.2218 49.2129 48.7054 46.122 48.7054 42.685Z" fill="#21A038"/>
<path d="M37.0403 51.6693C34.4051 51.6693 32.0342 50.5259 30.3914 48.7107L28.3896 50.5225C30.5235 52.8839 33.6092 54.3666 37.0403 54.3666V51.6693Z" fill="url(#paint4_linear_65_17661)"/>
<path d="M31.0247 36.0248L29.216 34.0197C26.8552 36.1572 25.375 39.248 25.375 42.685H28.0711C28.0677 40.0454 29.2092 37.6704 31.0247 36.0248Z" fill="url(#paint5_linear_65_17661)"/>
</g>
<defs>
<linearGradient id="paint0_linear_65_17661" x1="29.3367" y1="50.6091" x2="26.3834" y2="42.0869" gradientUnits="userSpaceOnUse">
<stop offset="0.1444" stop-color="#F2E913"/>
<stop offset="0.3037" stop-color="#E7E518"/>
<stop offset="0.5823" stop-color="#CADB26"/>
<stop offset="0.891" stop-color="#A3CD39"/>
</linearGradient>
<linearGradient id="paint1_linear_65_17661" x1="29.5603" y1="34.9001" x2="37.147" y2="32.0138" gradientUnits="userSpaceOnUse">
<stop offset="0.0592" stop-color="#0FA8E0"/>
<stop offset="0.5385" stop-color="#0099F9"/>
<stop offset="0.9234" stop-color="#0291EB"/>
</linearGradient>
<linearGradient id="paint2_linear_65_17661" x1="36.2785" y1="52.7407" x2="44.8555" y2="50.8055" gradientUnits="userSpaceOnUse">
<stop offset="0.1226" stop-color="#A3CD39"/>
<stop offset="0.2846" stop-color="#86C339"/>
<stop offset="0.8693" stop-color="#21A038"/>
</linearGradient>
<linearGradient id="paint3_linear_65_17661" x1="36.4751" y1="31.9049" x2="43.8092" y2="34.164" gradientUnits="userSpaceOnUse">
<stop offset="0.0566" stop-color="#0291EB"/>
<stop offset="0.79" stop-color="#0C8ACB"/>
</linearGradient>
<linearGradient id="paint4_linear_65_17661" x1="29.0653" y1="50.1957" x2="37.0494" y2="53.1738" gradientUnits="userSpaceOnUse">
<stop offset="0.1324" stop-color="#F2E913"/>
<stop offset="0.2977" stop-color="#EBE716"/>
<stop offset="0.5306" stop-color="#D9E01F"/>
<stop offset="0.8023" stop-color="#BBD62D"/>
<stop offset="0.9829" stop-color="#A3CD39"/>
</linearGradient>
<linearGradient id="paint5_linear_65_17661" x1="26.3783" y1="43.0121" x2="29.5913" y2="34.6679" gradientUnits="userSpaceOnUse">
<stop offset="0.0698" stop-color="#A3CD39"/>
<stop offset="0.2599" stop-color="#81C55F"/>
<stop offset="0.9216" stop-color="#0FA8E0"/>
</linearGradient>
<clipPath id="clip0_65_17661">
<rect width="189" height="38" fill="white" transform="translate(25.375 31)"/>
</clipPath>
</defs>
</svg>
