<svg width="30" height="29" viewBox="0 0 30 29" fill="none" xmlns="http://www.w3.org/2000/svg">
<path d="M27.3866 10.957L18.9651 10.1759L15.6198 2.40794C15.3856 1.86402 14.6144 1.86402 14.3802 2.40794L11.0349 10.1759L2.61345 10.957C2.02375 11.0117 1.78548 11.7451 2.23035 12.136L8.58439 17.7179L6.72486 25.9686C6.59465 26.5463 7.2186 26.9996 7.72776 26.6973L15 22.3791L22.2723 26.6973C22.7815 26.9996 23.4053 26.5463 23.2752 25.9686L21.4156 17.7179L27.7697 12.136C28.2145 11.7451 27.9762 11.0117 27.3866 10.957Z" fill="#6625A5"/>
<path d="M16.8362 5.23271L15.6197 2.40794C15.3855 1.86402 14.6143 1.86402 14.3801 2.40794L11.0349 10.1759L2.61345 10.957C2.02375 11.0117 1.78548 11.7451 2.23035 12.136L8.58439 17.7179L6.72486 25.9686C6.59464 26.5463 7.2186 26.9996 7.72776 26.6973L8.69565 26.1225C10.2824 15.8511 14.7432 8.31112 16.8362 5.23271Z" fill="#511988"/>
</svg>
