<svg width="220" height="151" viewBox="0 0 220 151" fill="none" xmlns="http://www.w3.org/2000/svg">
<path d="M37.0858 39.5063L37.5042 39.437V39.013V9.63699L67.7679 17.0251L68.1195 17.111L68.3109 16.8037L78.2319 0.872432L98.1865 16.9289L98.403 17.1031L98.6652 17.0113L145.033 0.769158L154.723 29.8597L154.827 30.1701L155.152 30.1996L211.03 35.2557L180.319 53.3623L179.673 53.7428L180.273 54.1928L218.588 82.9663L160.012 96.3348L159.822 96.3783L159.711 96.5398L144.935 118.125L144.201 119.196L145.464 118.893L182.349 110.055L166.546 148.349L165.409 128.167L165.38 127.646L164.861 127.697L118.514 132.248L125.099 104.262L125.364 103.134L124.361 103.715L81.7508 128.399L86.0414 97.1732L86.1369 96.4783L85.4488 96.6146L17.6822 110.045L30.7859 85.8171L31.0964 85.243L30.4612 85.0927L2.22002 78.4112L25.8411 69.951L26.6438 69.6635L26.001 69.1033L25.6725 69.4803C26.001 69.1033 26.0009 69.1033 26.0007 69.1031L25.9998 69.1022L25.9959 69.0989L25.9805 69.0854L25.9193 69.032L25.6808 68.8236C25.4721 68.6409 25.1663 68.3729 24.7782 68.0318C24.0021 67.3495 22.897 66.3747 21.5817 65.2049C18.9507 62.865 15.4796 59.7459 12.1168 56.6273C8.75158 53.5065 5.50347 50.394 3.31396 48.065C2.21413 46.895 1.40306 45.9453 0.974452 45.2998C0.895728 45.1812 0.833288 45.0779 0.785688 44.9895C1.92228 44.9267 4.48149 44.5952 7.69626 44.1337C11.2867 43.6184 15.7494 42.9323 20.1026 42.2469C24.4561 41.5614 28.7019 40.8763 31.8591 40.3625C33.4378 40.1056 34.7444 39.8916 35.6564 39.7417C36.1123 39.6668 36.4697 39.608 36.713 39.5678L36.9907 39.522L37.0618 39.5103L37.0798 39.5073L37.0843 39.5065L37.0855 39.5063C37.0857 39.5063 37.0858 39.5063 37.0042 39.013L37.0858 39.5063ZM0.45093 45.0009C0.45087 45.0008 0.452127 45.0007 0.454877 45.0005C0.452364 45.0009 0.450989 45.001 0.45093 45.0009Z" fill="white" stroke="#CCCCCC"/>
</svg>
