<svg width="23" height="19" viewBox="0 0 23 19" fill="none" xmlns="http://www.w3.org/2000/svg">
<path fill-rule="evenodd" clip-rule="evenodd" d="M2.05368 7.78892C7.88409 5.24871 11.7719 3.57404 13.7172 2.76493C19.2715 0.454736 20.4256 0.0534317 21.1778 0.0401804C21.3433 0.0372659 21.7132 0.0782687 21.9528 0.272707C22.1551 0.436887 22.2108 0.658671 22.2374 0.814332C22.2641 0.969993 22.2973 1.32459 22.2709 1.60167C21.9699 4.76414 20.6676 12.4386 20.005 15.9807C19.7246 17.4794 19.1726 17.9819 18.6382 18.0311C17.4767 18.138 16.5948 17.2636 15.4699 16.5262C13.7096 15.3723 12.7152 14.654 11.0066 13.528C9.03193 12.2268 10.312 11.5116 11.4373 10.3428C11.7318 10.0369 16.8492 5.3823 16.9482 4.96005C16.9606 4.90725 16.9721 4.7104 16.8551 4.60646C16.7382 4.50251 16.5656 4.53806 16.441 4.56633C16.2645 4.6064 13.4525 6.46505 8.00493 10.1423C7.20674 10.6904 6.48377 10.9574 5.83601 10.9434C5.12191 10.928 3.74826 10.5397 2.72709 10.2077C1.47459 9.8006 0.479126 9.58534 0.565809 8.89389C0.610958 8.53374 1.10692 8.16542 2.05368 7.78892Z" fill="white"/>
</svg>
