<svg width="78" height="70" viewBox="0 0 78 70" fill="none" xmlns="http://www.w3.org/2000/svg">
<path d="M29.4009 31.0703C37.9548 44.1395 46.2126 56.7412 54.8089 69.8741C46.7198 70.1928 39.1803 69.8103 31.6605 69.7678C24.121 69.7254 16.5598 69.5766 8.44897 69.4491C15.5247 56.4861 22.3252 44.0545 29.4009 31.0915" fill="white"/>
<path d="M36.1164 19.8288C24.3093 27.6703 12.4609 35.5331 0.0834377 43.7571C-0.127717 38.4657 0.12588 33.7055 0.147616 28.9453C0.147616 24.1852 0.253196 19.4464 0.316336 14.6862C0.379475 9.86221 0.442613 5.03835 0.506787 0.426928C0.801783 0.150667 0.864924 0.0869162 0.9498 0.0444161C1.03468 0.00191594 1.14025 -0.0193339 1.22409 0.0231663C2.13289 0.448178 3.08309 0.85194 3.97014 1.34071C14.5941 7.22712 25.1964 13.1349 35.7997 19.0638C35.926 19.1276 35.9477 19.3826 36.1371 19.85" fill="white"/>
<path d="M77.1976 53.0648C65.3056 46.5195 53.985 40.3143 42.1572 33.7903C54.1755 25.8639 65.6441 18.2986 77.5982 10.4146C77.8311 17.8948 77.5143 24.8226 77.4719 31.7502C77.4294 38.6142 77.3032 45.4994 77.1976 53.0648Z" fill="white"/>
</svg>
