<svg width="72" height="70" viewBox="0 0 72 70" fill="none" xmlns="http://www.w3.org/2000/svg">
<path d="M27.8568 41.7707C27.8668 39.6862 27.7776 38.6438 27.0035 38.4438C26.4927 38.3122 25.6818 38.5544 24.398 39.1018C20.3815 40.9337 19.1445 41.2969 14.78 41.9707C12.9541 42.2444 11.2375 42.6497 9.49526 42.9288C8.44233 43.0972 8.39995 47.5085 9.26326 48.5508C11.7327 50.3301 19.3921 48.0454 22.1973 47.2295C25.9138 46.1715 27.8356 46.1872 27.8568 41.7759" fill="white"/>
<path d="M54.8147 62.4582C53.4093 61.2369 48.7347 56.4782 45.5927 56.4624C42.4495 56.4678 38.0281 62.1266 36.3595 62.4582C35.5854 62.4319 31.9849 59.584 31.164 58.9681C28.8049 57.2258 27.6739 55.4886 24.7516 57.6574C23.1254 58.8681 16.6505 63.39 16.4453 64.8902C16.5345 65.8167 18.3615 67.3854 19.2249 67.9065C20.5354 68.7014 20.9414 68.5329 21.9196 67.5223C23.2202 66.1694 25.4789 63.3531 27.8312 64.1743C29.2901 64.9113 30.1111 65.5746 31.2956 66.68C31.6849 67.0537 32.0697 67.4222 32.4534 67.796C37.0276 72.2125 37.7069 69.1436 41.4657 65.9746C42.4707 65.1534 44.0601 63.7742 45.4767 63.9479C45.5135 63.9479 45.5503 63.9585 45.5871 63.969C45.6239 63.9637 45.6663 63.9585 45.7031 63.9532C47.1196 63.7795 48.7035 65.1586 49.7096 65.9799C53.4093 68.9067 52.8204 68.2803 57.2786 67.0064C58.3471 66.701 55.3992 62.9688 54.8147 62.4635" fill="white"/>
<path d="M59.8572 25.7518C52.5191 24.5726 44.7024 20.9194 38.2164 17.3451C37.2271 16.7976 36.4842 16.566 35.8429 16.5449C35.2004 16.5608 34.4531 16.7976 33.4626 17.3451C26.9722 20.9194 19.1611 24.5726 11.8229 25.7518C10.5748 25.9518 9.04786 25.7938 8.80582 27.0677C8.58498 28.2364 8.46451 31.3895 9.67471 31.9476C13.186 33.5584 24.1513 29.484 27.8567 28.0837C28.7256 27.6416 30.8359 26.2307 31.726 27.0309C32.8837 28.5839 31.8888 40.2543 31.7527 42.8968C31.6412 46.0289 31.1839 49.1347 33.6478 51.5299C34.4263 52.2879 35.0632 52.8038 35.8373 52.7511C36.6114 52.809 37.2483 52.2932 38.0324 51.5299C40.4963 49.1295 40.0378 46.0289 39.9274 42.8968C39.7958 40.2596 38.7953 28.5891 39.9542 27.0362C40.8487 26.2361 42.9546 27.6468 43.8224 28.089C47.5288 29.4892 58.4942 33.5636 62.0043 31.9528C63.2156 31.3949 63.0941 28.2417 62.8732 27.0731C62.6312 25.7992 61.1042 25.957 59.8572 25.757" fill="white"/>
<path d="M62.173 42.9283C60.4263 42.6492 58.7098 42.2439 56.8883 41.9701C52.5249 41.2963 51.2879 40.9384 47.2714 39.1012C45.9921 38.5485 45.1812 38.3117 44.6648 38.4433C43.8918 38.6433 43.8015 39.6855 43.8126 41.7702C43.8338 46.1814 45.7545 46.1709 49.471 47.2236C52.2773 48.0449 59.9367 50.3242 62.405 48.5449C63.2684 47.5079 63.226 43.0914 62.173 42.9229" fill="white"/>
<path d="M68.485 12.4863C64.3692 11.8125 53.5299 9.06475 49.4765 7.50655C45.2816 5.84317 43.0385 4.09022 39.4704 1.50553C38.0594 0.484302 36.8905 0.0421171 35.8376 0C34.7846 0.0368525 33.6168 0.479037 32.2058 1.50027C28.6366 4.08487 26.3936 5.83781 22.1986 7.50131C18.1452 9.0595 7.28024 13.3181 3.16892 13.9919C1.85287 14.2077 0.605309 14.2445 0.231542 15.6027C-0.147468 16.9871 -0.24741 19.8034 1.42121 20.3825C5.99052 21.7353 26.1047 13.2654 30.4525 11.1861C33.1952 9.87541 34.0585 8.30673 35.8376 8.38034C37.6166 8.30149 38.4799 9.87541 41.2282 11.1861C45.576 13.2654 65.6686 20.2246 70.2384 18.8717C71.9014 18.2926 71.8066 15.4763 71.4285 14.0919C71.0537 12.7338 69.8012 12.6969 68.4906 12.4811" fill="white"/>
</svg>
