<svg width="58" height="70" viewBox="0 0 58 70" fill="none" xmlns="http://www.w3.org/2000/svg">
<path d="M27.7647 21.4163C27.5817 23.6769 26.8161 35.2382 25.1352 39.1801C24.6763 40.2608 24.3055 40.7621 23.1309 40.3601C19.4553 39.0478 15.4776 35.1932 12.3369 32.8261C10.9128 31.7501 11.5619 33.1288 12.0136 33.8075C14.3436 37.2908 16.6688 39.8304 17.501 44.0066C17.9764 46.3926 16.8566 47.5797 15.5324 48.1567C12.3655 49.5826 12.2513 49.4597 6.81153 51.595C5.18771 52.2334 -0.34007 54.3949 0.016487 55.0026C0.373132 55.6103 5.31132 54.2364 11.084 54.0638C15.4468 53.9337 16.9018 53.8935 13.3213 59.3655C12.2704 60.9711 14.2866 59.9307 17.0801 58.5402C18.5566 57.8048 22.4272 56.0974 24.8214 57.2254C27.76 58.6111 28.2189 66.6394 29.1057 69.4724C29.46 70.6169 29.7643 69.6355 29.9664 69.0042C30.7819 66.4691 32.8789 57.3106 37.4651 57.2679C39.2768 57.2515 39.7785 57.5068 42.836 58.8878C51.4287 62.7683 41.9468 56.8187 41.6282 54.0661C41.4808 52.7939 43.1213 53.2976 46.9158 53.6783C52.6621 54.2553 57.6268 55.2248 57.983 54.6171C58.3419 54.0094 52.8119 51.8456 51.1886 51.2095C45.7485 49.0741 45.6344 49.1971 42.4675 47.7713C40.8888 47.0358 40.235 46.1513 41.0457 44.0326C42.1774 41.0767 44.2768 37.863 46.2716 34.4956C47.872 31.7951 46.2858 32.9586 44.9139 33.9872C42.0942 36.106 39.2269 38.842 36.0529 40.3459C34.8261 40.8804 34.1557 40.8756 33.6254 39.5632C32.7053 37.286 32.2655 32.9774 31.9516 30.5276C30.7605 20.889 30.5156 11.2692 29.605 1.63527C29.1413 -3.2952 28.9345 4.43275 28.8965 5.09252C28.8608 5.7097 28.8204 6.32454 28.7728 6.9441C28.3996 11.7635 28.1618 16.5946 27.7647 21.421" fill="white"/>
</svg>
