<svg width="53" height="40" viewBox="0 0 53 40" fill="none" xmlns="http://www.w3.org/2000/svg">
<path d="M37.3543 5.48369C37.4214 5.4831 37.4549 5.51582 37.422 5.58289C37.3884 5.55017 37.155 5.55269 37.1202 5.42106C37.1533 5.38701 37.2196 5.35281 37.2861 5.35222C37.2538 5.45156 37.3209 5.48369 37.3543 5.48369ZM36.7137 4.72608C36.746 4.65916 36.746 4.62554 36.679 4.62628C36.6795 4.65989 36.6795 4.69336 36.6468 4.72682L36.7137 4.72608ZM36.4153 4.86214C36.5834 5.02649 36.5126 4.62806 36.3475 4.79567C36.3811 4.79522 36.3811 4.82868 36.4153 4.86214ZM36.3148 4.86274C36.2497 4.96401 36.2502 5.02975 36.3502 5.02901C36.3489 4.92921 36.3489 4.89575 36.3148 4.86274ZM36.2565 5.59563C36.1574 5.63042 36.1238 5.63042 36.1226 5.53063C36.2224 5.52915 36.256 5.56261 36.2565 5.59563ZM36.0225 5.46474L35.9562 5.46533L35.955 5.36672C35.9885 5.36672 36.0221 5.3996 36.0225 5.46474ZM36.177 4.43144C35.9435 4.33461 35.7766 4.30308 35.7449 4.40376C35.7772 4.40301 36.1781 4.53197 36.177 4.43144ZM35.7153 4.7699C35.7489 4.80262 35.7489 4.80262 35.7824 4.80218C35.7489 4.80262 35.7489 4.76916 35.7153 4.7699ZM35.7235 5.50205C35.7229 5.46859 35.788 5.33504 35.6881 5.33623C35.7867 5.23525 35.8549 5.36806 35.8897 5.49954L35.7235 5.50205ZM35.6779 4.40434C35.6431 4.2708 35.5427 4.23867 35.377 4.27464C35.3776 4.37399 35.4775 4.40612 35.6779 4.40434ZM35.8868 5.20046C35.7849 5.06883 35.487 5.23895 35.3524 5.07328C35.518 5.03789 35.6844 5.00309 35.9183 5.03404C35.9195 5.13413 35.9195 5.16685 35.8868 5.20046ZM35.2589 5.64049C35.2252 5.64049 35.1924 5.64123 35.1583 5.60762C35.1583 5.57475 35.1918 5.57416 35.2581 5.57342L35.2589 5.64049ZM35.1108 4.27716C35.2113 4.30944 35.2777 4.27539 35.3099 4.20832C35.2771 4.24178 35.1431 4.21024 34.9097 4.14569L34.8761 4.1793C34.8434 4.21335 34.8434 4.21335 34.8775 4.24637C34.9103 4.21276 35.011 4.24504 35.1108 4.27716ZM34.8206 5.17884C34.8541 5.1784 34.8541 5.17839 34.8869 5.14479L34.787 5.14671C34.7541 5.18017 34.7541 5.18017 34.7541 5.21319L34.8206 5.17884ZM35.1583 5.60762C35.0255 5.60939 34.727 5.71274 34.7245 5.51286C34.7908 5.51153 35.1253 5.57475 35.1583 5.60762ZM34.8104 4.24681C34.8098 4.21335 34.8098 4.21335 34.7763 4.18048L34.5784 4.24933L34.8104 4.24681ZM34.9482 4.64524C34.6486 4.58202 34.4817 4.61681 34.4506 4.75095C34.6833 4.81417 34.8504 4.77938 34.9482 4.64524ZM34.5587 5.5481C34.4593 5.54884 34.4259 5.51582 34.4247 5.45008C34.5246 5.4489 34.5582 5.4489 34.5917 5.48058C34.6252 5.51405 34.5923 5.54765 34.5587 5.5481ZM34.3116 4.21912C34.1434 4.12096 34.0434 4.1217 34.0112 4.22224C34.1788 4.32084 34.2793 4.31891 34.3116 4.21912ZM33.9827 4.62258C34.0162 4.65604 34.0162 4.65604 33.9827 4.65604L33.9506 4.65664H33.917C33.9511 4.75658 34.0175 4.78737 34.1175 4.75391C34.1502 4.72119 34.1832 4.72119 34.2167 4.71986C34.2495 4.68684 34.2495 4.68684 34.2159 4.65338L34.1484 4.62125C34.1819 4.58705 34.2818 4.58646 34.2805 4.48592C33.9808 4.48903 33.8157 4.55803 33.7842 4.69143C33.8182 4.72489 33.884 4.72356 33.9827 4.62258ZM33.6924 5.42477C33.726 5.42432 33.8917 5.38953 33.9251 5.42225C33.9265 5.52115 33.6931 5.52411 33.6924 5.42477ZM33.6154 4.49348L33.6147 4.46076L33.5483 4.4612V4.49407L33.6154 4.49348ZM33.4592 5.49317C33.4585 5.39397 33.5591 5.4261 33.5926 5.45956C33.5932 5.49183 33.5596 5.49184 33.4592 5.49317ZM33.812 4.19129C33.7109 4.09253 33.344 4.06425 33.1797 4.16479C33.3111 4.16331 33.6786 4.22608 33.812 4.19129ZM33.1468 4.2323C33.1797 4.16479 33.1456 4.13177 33.112 4.13251L32.9792 4.1673C33.0128 4.20002 33.0797 4.23304 33.1468 4.2323ZM32.5935 5.4369L32.5922 5.33697C32.6921 5.33578 32.7592 5.3685 32.7592 5.40211C32.7263 5.40211 32.627 5.4369 32.5935 5.4369ZM32.4614 5.47155C32.4607 5.43809 32.4937 5.40463 32.5272 5.40404L32.4614 5.47155ZM32.1205 4.74266L32.1862 4.74192C32.1862 4.70905 32.2192 4.67559 32.2528 4.67559L32.2521 4.64213L32.1521 4.64272C32.1527 4.67618 32.1527 4.67618 32.1187 4.64331L32.1205 4.74266ZM32.092 5.20919C32.092 5.24221 32.0926 5.27567 32.0592 5.27626L32.092 5.20919ZM31.6804 4.11474L31.781 4.11356L31.7802 4.04827L31.7133 4.049C31.7139 4.08172 31.7139 4.08173 31.6804 4.08247V4.11474ZM31.7947 5.37931C31.6942 5.38005 31.6609 5.34704 31.6938 5.31357C31.7607 5.31298 31.7943 5.34585 31.7947 5.37931ZM31.1896 4.95246C31.1573 4.98607 31.1233 4.91974 31.1556 4.88628C31.1892 4.88554 31.1896 4.919 31.1896 4.95246ZM30.9968 5.45408L30.8963 5.38879C30.9951 5.35473 31.0956 5.35355 31.0633 5.45334L30.9968 5.45408ZM31.4813 4.11726C31.1145 4.12096 30.9164 4.18936 30.8842 4.2899C31.0836 4.28782 31.4496 4.31714 31.982 4.34483C32.0806 4.21024 32.6813 4.37015 32.7118 4.10334C32.6788 4.13755 32.4796 4.10571 32.4474 4.20639C32.2793 4.10853 31.5818 4.183 31.4148 4.18433C31.4148 4.15072 31.4813 4.15013 31.4813 4.11726ZM30.6606 5.22444L30.7256 5.05758L30.7927 5.0903C30.7939 5.18965 30.6606 5.19157 30.6606 5.22444ZM30.6168 4.29315C30.6504 4.29241 30.6838 4.29241 30.6833 4.25881C30.6498 4.25881 30.6168 4.25954 30.6168 4.29315ZM30.5638 5.49257C30.5302 5.45956 30.563 5.4261 30.6631 5.42477C30.6301 5.45838 30.5972 5.49257 30.5638 5.49257ZM30.6889 4.7591C30.5891 4.76043 30.5228 4.79389 30.5232 4.86022C30.6231 4.82542 30.6896 4.79271 30.6889 4.7591ZM30.5174 4.2936C30.551 4.2936 30.551 4.2936 30.5504 4.26014C30.517 4.26088 30.517 4.26088 30.5174 4.2936ZM30.3817 3.99645C30.4139 3.99585 30.4474 3.99585 30.4474 3.96239C30.4139 3.96298 30.3817 3.96298 30.3817 3.99645ZM30.3519 4.32913L30.3854 4.32839C30.3846 4.29567 30.3846 4.29567 30.4169 4.29493V4.26206L30.3842 4.26266C30.3846 4.29567 30.3846 4.29567 30.3512 4.29567L30.3519 4.32913ZM30.5922 5.09238C30.5593 5.12584 30.5599 5.15944 30.5599 5.1929C30.46 5.16063 30.3614 5.22814 30.3279 5.19542C30.3279 5.16181 30.5271 5.15989 30.5587 5.05936C30.5915 5.0253 30.6258 5.05877 30.5922 5.09238ZM30.2508 4.26384L30.2185 4.29745C30.185 4.29804 30.1855 4.33165 30.1855 4.36392C30.2862 4.39665 30.2848 4.29611 30.2508 4.26384ZM30.2146 3.99837L30.2475 3.96491L30.1812 3.9655L30.1489 3.9997L30.2146 3.99837ZM30.2645 5.49569C30.2311 5.46282 30.1648 5.46356 30.1313 5.46356C30.1305 5.39708 30.1636 5.36347 30.2634 5.36229L30.2645 5.49569ZM30.2616 5.19587C30.228 5.22948 30.228 5.22948 30.262 5.26249C30.228 5.22948 30.1622 5.23022 30.0617 5.2314C30.0281 5.19838 30.0275 5.16492 30.0269 5.06587L30.2616 5.19587ZM30.3215 4.56307C30.3229 4.69587 30.1887 4.63132 30.0888 4.66552C30.123 4.76472 29.9239 4.76724 29.9239 4.80011C30.0237 4.79952 30.3221 4.66226 30.4557 4.76161C30.4891 4.76087 30.5547 4.66034 30.5878 4.65989L31.8511 4.51243C31.8517 4.5795 31.8853 4.61237 31.9524 4.61177C31.9845 4.51124 32.2177 4.54219 32.3178 4.50799C31.5513 4.44995 30.9526 4.48903 30.5213 4.66034L30.3215 4.56307ZM30.1528 4.39798C30.1191 4.3657 30.1186 4.33209 30.0849 4.33209C30.0515 4.29937 30.0179 4.26636 30.0179 4.26636L30.0509 4.26591C30.0845 4.26591 30.118 4.23156 30.0838 4.19884L29.6867 4.40301C29.7872 4.53523 30.0527 4.39872 30.1528 4.39798ZM29.7638 5.40152L29.664 5.36924C29.664 5.33578 29.6975 5.33504 29.7632 5.33445C29.7968 5.36806 29.7973 5.40078 29.7638 5.40152ZM29.6608 5.03611L29.6942 5.03537C29.6608 5.06957 29.6608 5.06957 29.6279 5.06957C29.6272 5.03611 29.6272 5.03611 29.6608 5.03611ZM29.4211 4.43973C29.4541 4.43914 29.4541 4.43914 29.4541 4.40568C29.4205 4.40612 29.4205 4.40612 29.4211 4.43973ZM29.4868 4.37207L29.5204 4.37148L29.6513 4.20328C29.6177 4.17101 29.4185 4.20639 29.4199 4.3392C29.4533 4.3392 29.4533 4.3392 29.4868 4.37207ZM29.2973 5.30676C29.3965 5.27241 29.762 5.2012 29.8599 5.06705C29.8276 5.10111 29.8276 5.10111 29.8599 5.10052C29.9268 5.09992 29.9604 5.13205 29.9946 5.16492C29.9293 5.33327 29.5305 5.27064 29.3642 5.33904C29.3636 5.27241 29.33 5.27315 29.2973 5.30676ZM29.3655 5.47229L29.2654 5.47363C29.2643 5.37309 29.2973 5.33948 29.3642 5.33904L29.3655 5.47229ZM28.9677 5.54262C28.9665 5.47688 29.0315 5.44253 29.1985 5.44075C29.1657 5.47436 29.0992 5.50842 28.9677 5.54262ZM28.6965 5.14671L28.697 5.21319H28.6636L28.6628 5.1473L28.6965 5.14671ZM28.6591 4.78116C28.8254 4.77938 29.0576 4.7431 29.3572 4.70653L29.3561 4.6408C29.3888 4.6066 29.3561 4.60734 29.323 4.60734C29.2232 4.64213 28.7912 4.68003 28.6591 4.78116ZM28.4915 4.71616C28.3251 4.71793 28.2595 4.75213 28.2601 4.8192C28.4258 4.81713 28.4923 4.78308 28.4915 4.71616ZM28.3353 5.68224L28.2033 5.68342C28.2355 5.58422 28.3007 5.58289 28.4681 5.61399C28.4353 5.68165 28.4024 5.71526 28.3353 5.68224ZM28.1608 4.88553C28.1608 4.85267 28.1938 4.85193 28.1938 4.81965L28.0937 4.82039L28.1608 4.88553ZM27.9605 4.78871C27.9605 4.82172 27.9605 4.82172 27.9276 4.85444L27.9605 4.78871ZM27.6583 4.62555C27.8251 4.62377 28.9228 4.47823 29.3213 4.5074C29.3547 4.5068 29.3528 4.30692 29.3522 4.27331C28.8552 4.41249 28.522 4.44921 28.3544 4.38421C28.2576 4.55226 27.7569 4.49155 27.6583 4.62555ZM27.5949 4.92477C27.6285 4.92477 27.6278 4.89116 27.6278 4.8577C27.5942 4.85903 27.5949 4.89176 27.5949 4.92477ZM28.0622 4.98681C27.8296 5.05625 27.5292 4.92596 27.4653 5.12643C27.5647 5.12583 27.9301 5.12139 28.0622 4.98681ZM27.5272 4.76043L27.4273 4.76161C27.3281 4.7622 27.2945 4.7964 27.2618 4.82986C27.3293 4.89501 27.528 4.82735 27.5272 4.76043ZM27.1384 5.72903C27.17 5.59563 27.4696 5.59237 27.5038 5.62465C27.4046 5.72592 27.2712 5.69423 27.1384 5.72903ZM27.2977 5.06187C27.2635 4.9948 27.1972 5.029 27.1315 5.16374L27.2977 5.06187ZM27.0986 5.13013L27.0974 5.09741L27.0315 5.098V5.13087L27.0986 5.13013ZM27.1935 4.69706C27.0922 4.59845 27.0259 4.63251 26.9608 4.73319C27.1269 4.73111 27.194 4.73067 27.1935 4.69706ZM26.833 5.19972C26.8317 5.10052 26.5656 5.07017 26.566 5.17011C26.6667 5.20164 26.7336 5.23466 26.833 5.19972ZM26.2057 5.67217C26.1716 5.63989 26.1393 5.64049 26.1065 5.67395C26.1051 5.57416 26.138 5.54114 26.2374 5.57282C26.2708 5.57223 26.3044 5.6051 26.2714 5.67143L26.2057 5.67217ZM26.0098 5.94164C26.0419 5.94164 26.2411 5.90536 26.2739 5.87205C26.3087 6.00545 26.011 6.10776 26.0098 5.94164ZM25.5437 6.04646C25.5424 5.91366 25.7088 5.91114 25.7422 5.94415C25.7763 6.01048 25.71 6.04469 25.5437 6.04646ZM25.3749 5.74872L25.4076 5.74798L25.3728 5.61457L25.3736 5.64818L25.3749 5.74872ZM23.2041 17.2557L23.2048 17.3223H23.1718L23.1705 17.2564L23.2041 17.2557ZM23.2033 17.1559C23.17 17.1565 23.1357 17.1229 23.1351 17.0231C23.1685 17.0223 23.202 17.0559 23.2033 17.1559ZM23.1395 17.4896H23.173C23.242 17.6877 23.0769 17.823 23.079 17.9564C23.0446 17.9234 23.0769 17.823 23.1751 17.656C23.1743 17.6232 23.0744 17.5574 23.1061 17.4233C23.1389 17.4227 23.1395 17.4562 23.1395 17.4896ZM23.3735 35.7275L23.2735 35.7286C23.2401 35.6952 23.2383 35.5282 23.2048 35.4953L23.3735 35.7275ZM23.1258 19.2204L23.0264 19.2881C23.0593 19.2545 23.0587 19.221 23.0587 19.1874C23.0921 19.1874 23.0921 19.1874 23.1258 19.2204ZM23.1237 19.0547L23.091 19.087C22.9904 19.0231 22.9897 18.9896 23.0895 18.9548C23.1231 18.9548 23.1231 18.9548 23.1565 18.9878C23.1237 19.0213 23.1237 19.0213 23.1237 19.0547ZM22.9984 19.7882C22.9972 19.6547 23.0301 19.5879 23.0972 19.6206C23.0978 19.687 23.099 19.8193 22.9984 19.7882ZM22.9549 18.8227C22.9536 18.7234 23.084 18.4883 23.0492 18.3566C23.1497 18.3877 23.0877 18.7879 22.9549 18.8227ZM22.9139 21.1541L22.9069 20.554C22.9031 20.1878 22.9342 20.0217 22.9676 19.9874C22.9682 20.088 22.9379 20.3214 23.0384 20.4206C23.0067 20.5192 23.0454 21.0193 22.9139 21.1541ZM22.9404 23.5824C22.9069 23.5501 22.9062 23.5165 22.9048 23.4165C22.9385 23.416 22.939 23.483 22.9404 23.5824ZM22.8588 22.2195C22.8265 22.3196 22.8265 22.3196 22.8253 22.2195C22.8253 22.186 22.8253 22.186 22.8581 22.1524L22.8588 22.2195ZM22.8658 22.8847C22.8329 22.8855 22.7988 22.819 22.8316 22.7849C22.865 22.8184 22.865 22.8511 22.8658 22.8847ZM22.817 24.4833L22.8178 24.5496L22.7513 24.5504L22.7507 24.4839L22.817 24.4833ZM22.7495 24.3505C22.7475 24.1842 22.7467 24.1172 22.7803 24.0837C22.8797 24.0824 22.8486 24.3493 22.7495 24.3505ZM22.719 30.6417C22.7184 30.608 22.7184 30.608 22.7513 30.608L22.7848 30.6073C22.8182 30.6069 22.7525 30.6744 22.719 30.6417ZM22.6552 30.9418C22.6502 30.4436 22.6469 30.1769 22.6798 30.1433C22.7855 30.6409 22.755 30.9077 22.6552 30.9418ZM22.6842 27.48C22.8196 27.7107 22.6589 28.2462 22.7935 28.3442C22.6931 28.345 22.6622 28.4784 22.6628 28.5782L22.6597 28.3127C22.6589 28.2797 22.657 28.0465 22.6191 27.6133C22.6142 27.1808 22.645 26.9474 22.7115 26.9134C22.8133 27.0789 22.783 27.3793 22.6842 27.48ZM22.7082 29.6774C22.6742 29.5773 22.64 29.5115 22.6065 29.5115C22.6386 29.3781 22.702 29.1434 22.7318 28.778C22.8335 28.9431 22.841 29.6426 22.7082 29.6774ZM22.5646 31.7753L22.5319 31.8751L22.53 31.6425L22.5646 31.7753ZM22.3131 17.964L22.279 17.8981C22.2454 17.9325 22.2802 18.0645 22.3138 18.0645L22.3131 17.964ZM22.3187 18.4635C22.2543 18.6975 22.2562 18.8645 22.2903 18.9308C22.3878 18.6956 22.4194 18.5627 22.3187 18.4635ZM22.2472 18.0987C22.2808 18.098 22.2808 18.098 22.2802 18.0645C22.2472 18.0653 22.2472 18.0653 22.2472 18.0987ZM22.2695 23.125C22.3017 23.0245 22.2682 22.991 22.234 22.9582C22.2347 22.9918 22.2352 23.0579 22.2036 23.1579C22.2373 23.1579 22.2373 23.1579 22.2695 23.125ZM22.0153 24.1925L22.014 24.0261C22.0803 24.0254 22.0811 24.0912 22.0153 24.1925ZM21.9913 21.9616L21.9881 21.6631C22.0215 21.6625 22.024 21.9293 21.9913 21.9616ZM22.0196 24.5257L22.0203 24.5914C21.9875 24.625 21.9867 24.5927 21.9863 24.4922L22.0196 24.5257ZM22.0171 24.3588C21.9836 24.3588 21.9836 24.3588 21.9836 24.3253L22.0501 24.3246L22.0171 24.3588ZM21.914 18.0025L22.0153 18.1012C22.0431 17.6688 22.0722 17.2684 22.0691 16.9693C22.0356 16.9701 22.0033 16.9701 21.9691 16.9371C21.9374 17.0691 22.0455 17.9006 21.88 17.9362C21.8812 17.969 21.8812 17.969 21.914 18.0025ZM21.8787 23.861C21.9102 23.727 21.9097 23.6607 21.9097 23.6607C21.8761 23.6607 21.9115 23.8276 21.8787 23.861ZM21.8875 18.5678C21.8539 18.602 21.8217 18.669 21.8224 18.7361C21.8553 18.7354 21.8883 18.6683 21.8875 18.5678ZM21.7907 18.8688L21.7934 19.1015C21.8932 19.0681 21.8908 18.9011 21.7907 18.8688ZM21.7541 15.5737C21.7219 15.6072 21.7225 15.7079 21.7559 15.7073L21.7541 15.5737ZM21.8887 30.8503C21.8553 30.8507 21.8547 30.8172 21.8539 30.7179C21.8875 30.7175 21.8875 30.7509 21.8887 30.8503ZM21.9463 33.0469C21.8477 33.1816 21.9166 33.3796 21.8844 33.4801C21.8496 33.3138 21.8477 33.1481 21.8445 32.9148C21.9123 32.9805 21.9457 33.0134 21.9463 33.0469ZM21.77 26.0918C21.7712 26.2248 21.7719 26.2917 21.8054 26.2582C21.8034 26.1254 21.8027 26.0584 21.77 26.0918ZM21.7578 31.0854C21.8249 31.0849 21.8572 31.0513 21.8564 30.9508C21.8908 31.0506 21.8938 31.3162 21.8319 31.7506C21.9325 31.7829 21.7719 32.3166 21.9053 32.3153C21.8717 32.3153 21.9065 32.4487 21.8067 32.4829C21.806 32.383 21.7686 32.017 21.7281 31.3846C21.6884 30.7863 21.6834 30.3537 21.7136 30.087C21.8154 30.2521 21.8527 30.5847 21.7578 31.0854ZM21.7795 26.9569C21.7799 27.024 21.7484 27.1575 21.7168 27.3244C21.7559 27.8226 21.7599 28.1894 21.7288 28.455C21.696 28.489 21.7977 28.6212 21.7977 28.6547C21.7649 28.7218 21.7667 28.8217 21.7679 28.9551C21.7692 29.0545 21.8042 29.22 21.7723 29.3541L21.7737 29.4869C21.7408 29.5204 21.7414 29.5875 21.7427 29.7209L21.7451 29.92L21.7458 29.9529L21.7447 29.8196C21.7099 29.7216 21.6731 29.4554 21.6731 29.4218C21.7023 29.0229 21.6985 28.6559 21.6612 28.3562C21.6586 28.1244 21.6826 27.2914 21.7124 26.8918L21.7795 26.9569ZM21.6718 23.2649C21.6384 23.2313 21.6061 23.2654 21.6061 23.2984L21.6409 23.4305C21.7402 23.3957 21.6726 23.2977 21.6718 23.2649ZM21.6689 16.8732C21.7008 16.7404 21.7294 16.373 21.7232 15.7736C21.6271 16.1423 21.5708 17.0736 21.5397 17.2406C21.5732 17.24 21.6378 17.1066 21.6689 16.8732ZM21.608 17.3734C21.5082 17.4076 21.4777 17.7407 21.5782 17.773C21.6441 17.6731 21.6428 17.5391 21.608 17.3734ZM21.572 23.2319C21.6043 23.1983 21.6378 23.1983 21.6714 23.1979C21.67 23.0978 21.6681 22.8644 21.696 22.432C21.7251 21.9981 21.7219 21.6992 21.654 21.6005C21.6573 21.9337 21.6301 22.4654 21.5386 23.2327L21.572 23.2319ZM21.6472 33.1172V33.1499L21.6138 33.1507V33.1172H21.6472ZM21.4549 18.6729L21.4885 18.6722C21.4885 18.7056 21.5227 18.7386 21.5562 18.7721C21.4632 19.405 21.4007 19.7389 21.4342 19.7718C21.4012 19.806 21.371 20.1051 21.405 20.205C21.5347 19.8368 21.5581 18.9712 21.6554 18.6708C21.6548 18.6374 21.5543 18.6051 21.5202 18.506C21.5531 18.5053 21.6194 18.4382 21.6511 18.3048L21.5175 18.3062C21.5523 18.439 21.4203 18.5401 21.4215 18.6729H21.4549ZM21.5315 34.7487C21.4993 34.7821 21.5335 34.9482 21.5676 34.9818C21.5658 34.815 21.5651 34.7479 21.5315 34.7487ZM21.448 30.0901L21.457 30.8553C21.5885 30.8205 21.5858 30.5536 21.448 30.0901ZM21.4392 29.2573C21.44 29.3574 21.4404 29.4243 21.4733 29.4572C21.5055 29.3238 21.4715 29.2567 21.4392 29.2573ZM21.8926 22.0627C21.7439 23.7289 21.7244 24.9943 21.7675 25.8258L21.8002 25.8586H21.8338C21.8021 25.9926 21.8705 26.1248 21.8717 26.2569C21.7719 26.2917 21.811 26.8241 21.6782 26.8589C21.6731 26.4258 21.596 25.4287 21.7578 24.9606C21.6573 24.9614 21.6221 24.7628 21.6503 24.3296C21.6795 23.8966 21.6764 23.6303 21.6421 23.5303C21.6421 23.5639 21.5757 23.5981 21.5436 23.6986C21.579 23.8977 21.5498 24.2637 21.522 24.7963C21.4947 25.3299 21.4987 25.6619 21.4999 25.7954C21.4665 25.7954 21.433 25.7967 21.4342 25.8295C21.44 26.362 21.4847 27.4602 21.5562 27.8915C21.5245 28.0591 21.5283 28.3576 21.5663 28.8242C21.6049 29.289 21.5751 29.5893 21.5436 29.7563C21.6441 29.7878 21.5782 29.8885 21.613 30.0213C21.6151 30.2212 21.62 30.6537 21.6598 31.2853C21.7004 31.9169 21.7062 32.4172 21.6764 32.7168C21.7762 32.782 21.811 32.8812 21.7458 33.0159C21.7131 33.0494 21.6801 33.0828 21.6461 33.0501C21.6395 32.4847 21.563 31.5534 21.5581 31.1209C21.5245 31.1214 21.5562 30.9203 21.4574 30.9222C21.4259 31.0892 21.6314 31.6855 21.4671 31.8544C21.5013 32.0195 21.539 32.3519 21.5442 32.8514C21.5498 33.3498 21.5871 33.7165 21.6561 33.9157C21.7541 33.8145 21.7161 33.3485 21.7156 33.315C21.8187 33.5476 21.8547 33.8138 21.7578 34.1138C21.7244 34.1142 21.7567 33.981 21.6569 33.9822C21.6606 34.3476 21.696 34.5474 21.7959 34.5467L21.7972 34.646C21.7977 34.7454 21.8319 34.7781 21.8655 34.7781C21.9635 34.6112 21.6921 34.1813 21.8572 34.046L21.861 34.3792C21.9938 34.3444 21.8887 33.9126 21.8883 33.8134C21.9867 33.6786 22.0211 33.7786 22.0545 33.7786C22.0519 33.6117 22.1841 33.4764 22.0816 33.212C22.0828 33.3776 22.0836 33.4446 22.0506 33.4776C21.9836 33.4459 22.0159 33.3453 22.1139 33.1122C22.0785 32.945 22.0704 32.18 22.0551 30.782C22.1866 30.7472 22.0816 30.2158 22.0803 30.0826C22.0399 29.451 22.0349 28.9855 22.0973 28.6181C22.0956 28.4183 22.1158 27.22 22.1576 25.0563C22.0919 25.0233 22.0886 24.7578 22.1164 24.324C22.1449 23.8915 22.1752 23.6246 22.1746 23.5575C22.2404 23.4898 22.2726 23.3906 22.2384 23.2914L22.1714 23.2919C22.105 23.2926 22.1709 23.1921 22.1684 22.9922C22.1348 22.9595 22.1019 23.0264 22.1031 23.1598C22.0722 23.2596 22.0722 23.2932 22.0386 23.2932C22.0545 21.6625 22.1416 20.5957 22.2359 20.062C22.2011 19.9293 22.258 19.0636 22.1241 18.932C22.1001 19.7648 22.0393 20.2978 21.9755 20.5306C22.0109 20.6969 21.9488 21.1983 21.8926 22.0627ZM21.5107 29.8226V29.7891L21.412 29.7903C21.4443 29.7899 21.4443 29.7899 21.4454 29.8233L21.5107 29.8226ZM21.2912 21.8705C21.1908 21.8382 21.1896 21.7054 21.3221 21.6706C21.3228 21.7035 21.2906 21.8371 21.2912 21.8705ZM21.2956 22.303C21.2633 22.3701 21.2306 22.4037 21.197 22.3707C21.1951 22.2373 21.1945 22.1702 21.2281 22.1367C21.2938 22.136 21.3279 22.2025 21.2956 22.303ZM21.1896 21.7054C21.1888 21.6384 21.2198 21.405 21.2818 21.0056C21.3816 21.1036 21.2894 21.6706 21.1896 21.7054ZM21.2641 22.4371C21.2647 22.5029 21.2324 22.5699 21.166 22.6375C21.1983 22.5035 21.231 22.4371 21.2641 22.4371ZM21.2538 30.5909C21.2211 30.6579 21.2546 30.691 21.2886 30.7237C21.2538 30.6243 21.2538 30.5909 21.2538 30.5909ZM21.2484 30.0921C21.2148 30.1255 21.2496 30.2255 21.2832 30.2249C21.2818 30.1248 21.2811 30.0913 21.2484 30.0921ZM21.2456 29.8587L21.2451 29.7924H21.2115L21.2122 29.8595L21.2456 29.8587ZM21.2419 29.5268C21.2091 29.5602 21.2096 29.6273 21.2109 29.7265C21.3114 29.7588 21.2761 29.5596 21.2419 29.5268ZM21.202 25.9321L21.1686 25.8998L21.1711 26.0661L21.202 25.9321ZM21.2832 24.1665C21.2488 24.133 21.2154 24.1007 21.1831 24.1349C21.1868 24.5339 21.1635 25.4337 21.1668 25.6993C21.2956 25.3318 21.1875 24.5674 21.2832 24.1665ZM21.2115 26.764C21.2444 26.7305 21.2444 26.7305 21.2444 26.6971L21.1773 26.6977C21.178 26.7313 21.178 26.7313 21.1446 26.7647L21.2115 26.764ZM21.2115 20.6729C21.2122 20.7721 21.1825 21.0731 21.1212 21.5726C21.0932 22.0722 21.0642 22.4389 21.1003 22.7038L21.1326 22.6382C21.1326 22.6047 21.1326 22.6047 21.166 22.6375C21.1672 22.7368 21.168 22.8039 21.2016 22.8025C21.235 22.802 21.2343 22.7697 21.2672 22.7026C21.3014 22.8014 21.2028 22.9359 21.2034 22.9694C21.2028 22.9359 21.2356 22.9025 21.2691 22.9019L21.271 23.1024C21.1382 23.1035 21.0731 23.2704 21.1079 23.4032C21.1421 23.4362 21.1748 23.4028 21.1743 23.3361C21.2066 23.2356 21.2059 23.2029 21.2393 23.2022C21.2724 23.2352 21.2413 23.4014 21.2109 23.6681C21.3089 23.4343 21.3039 23.0353 21.3317 22.5021C21.3615 22.2017 21.3899 21.8029 21.383 21.2376L21.3721 20.205C21.3399 20.2391 21.3097 20.506 21.2818 21.0056C21.1477 20.9397 21.2778 20.6723 21.2115 20.6729ZM21.1545 27.6626C21.1237 27.8966 21.1262 28.0628 21.1933 28.0958C21.19 27.8624 21.1881 27.6956 21.1545 27.6626ZM21.1755 23.5018L21.109 23.5033C21.109 23.536 21.0155 24.1032 21.116 24.1355C21.1148 24.0026 21.1788 23.7688 21.1755 23.5018ZM21.149 33.1557C21.2496 33.2878 21.1199 33.6216 21.2538 33.6533C21.2855 33.4528 21.314 33.0534 21.3071 32.4551C21.3071 32.4215 21.2741 32.4215 21.2407 32.4222C21.2071 32.4222 21.1736 32.3899 21.173 32.3565C21.2691 31.989 21.2654 31.6234 21.1603 31.191C21.128 31.2915 21.2672 31.8229 21.1022 31.9238C21.0717 32.2243 21.2792 32.921 21.149 33.1557ZM21.0566 27.7974C21.156 27.7961 21.0535 27.5653 21.1193 27.4642C21.1527 27.4642 21.1545 27.6291 21.1875 27.6291C21.2527 27.4627 21.2496 27.1966 21.1465 26.8989C21.1477 26.9969 21.1502 27.2308 21.1181 27.3641C21.0195 27.4654 20.9884 27.6316 21.0566 27.7974ZM21.0232 24.7363C20.9897 24.7698 21.0572 24.8013 21.0902 24.7685C21.1204 24.5351 21.1181 24.3348 21.0497 24.1697C21.0535 24.5028 20.891 24.8703 20.9604 25.1693C20.9927 25.0687 20.9897 24.7698 21.0232 24.7363ZM21.0288 28.3632C20.9967 28.4631 20.9644 28.5308 20.965 28.5637L20.9314 28.5308L20.8973 28.4979C20.8979 28.5314 20.9662 28.6976 20.9346 28.8306C20.9681 28.8641 20.9327 28.6642 21.0332 28.6959C21.034 28.7965 21.0017 28.8968 20.9029 29.0317C20.9712 29.1626 21.0054 29.229 21.039 29.229C21.034 28.7965 21.2293 28.3608 20.96 28.1646L20.9625 28.3645L21.0288 28.3632ZM20.8998 25.7018C20.9004 25.7354 20.9339 25.7682 20.9669 25.7347L20.9004 25.7689L20.8341 25.803C20.9012 25.8352 20.9346 25.8352 20.9346 25.8016C20.9377 26.1014 21.0446 26.7325 21.0478 27.0317C21.08 26.8993 21.0067 26.2992 21.1048 26.1331C21.0042 26.1008 21.0029 25.9346 21.0326 25.6013C21.0617 25.2674 21.0928 25.0339 21.092 24.9341L21.0249 24.9347C21.0282 25.2686 20.965 25.5025 20.8656 25.6025C20.8991 25.6025 20.9327 25.6348 20.8998 25.7018ZM20.8562 27.7992C20.8239 27.8998 20.8581 27.9997 20.8917 27.999C20.891 27.8992 20.8896 27.8321 20.8562 27.7992ZM20.8171 36.3206C20.7848 36.354 20.8511 36.4204 20.8183 36.4538C20.7183 36.4217 20.6512 36.3558 20.6501 36.256C20.7177 36.3224 20.7848 36.354 20.8171 36.3206ZM20.525 30.9319L20.4571 30.8667L20.4583 30.9659C20.4919 30.9659 20.4919 30.9659 20.525 30.9319ZM20.5489 36.1567C20.5153 36.1252 20.5153 36.1251 20.4825 36.1251L20.4799 35.9589C20.5476 36.0587 20.5817 36.1244 20.5489 36.1567ZM20.2093 35.5282L20.2428 35.5616C20.21 35.5951 20.1757 35.5624 20.1752 35.4623L20.2093 35.5282ZM20.0709 34.9975C20.1695 34.9635 20.1702 35.0298 20.1714 35.1962L20.1404 35.3637C20.1062 35.2639 20.1031 35.0306 20.0709 34.9975ZM19.9065 32.2034C19.9065 32.2034 19.9071 32.2368 19.9413 32.3033L19.9754 32.4033C19.974 32.2699 19.94 32.2034 19.9065 32.2034ZM19.904 31.9706L19.8375 31.9714C19.8698 31.8714 19.9033 31.8714 19.904 31.9706ZM19.8155 30.008L19.8818 29.9403C19.8489 29.9745 19.8489 29.9745 19.8155 29.9745V30.008ZM19.8451 29.6418L19.8445 29.542V29.5747C19.8115 29.6089 19.8115 29.6089 19.8115 29.6426L19.8451 29.6418ZM19.8685 31.7721C19.8021 31.7728 19.8015 31.7394 19.8337 31.6387C19.8677 31.6715 19.8685 31.7386 19.8685 31.7721ZM19.8665 31.5718C19.7654 31.4731 19.8306 31.339 19.7952 31.1069C19.8288 31.1405 19.8634 31.2719 19.8665 31.5718ZM19.7952 28.1109L19.7944 28.0111L19.761 28.0117L19.7622 28.1109H19.7952ZM23.0713 35.5301C23.0384 35.5636 23.0384 35.5972 23.1389 35.5964C23.1395 35.6629 23.1067 35.697 23.0067 35.6977L23.0106 36.0644C22.9114 36.0322 22.8455 36.0992 22.7455 36.1004C22.7481 36.3326 22.6825 36.4672 22.5497 36.4685C22.516 36.4356 22.5155 36.4022 22.5155 36.3691L22.5141 36.3021C22.4818 36.3692 22.4503 36.5362 22.4521 36.7701C22.3556 37.0027 22.024 37.1065 21.856 37.0085C21.7914 37.1426 21.1598 37.1829 21.1552 36.8175L21.2558 36.8497C21.2894 36.8484 21.3557 36.8478 21.3887 36.8144C21.3544 36.715 20.9201 36.6525 20.8846 36.4196C20.9182 36.4196 20.953 36.5855 21.0529 36.5847C21.0162 36.3185 20.6487 36.1559 20.6147 36.0569L20.7145 36.0562C20.6122 35.7905 20.5091 35.5585 20.373 35.3277C20.3085 35.5276 20.5464 35.8918 20.6147 36.0569C20.5476 36.0252 20.4799 35.9253 20.4452 35.7925C20.4115 35.7925 20.4115 35.8261 20.3794 35.8601L20.38 35.9266C20.2802 35.9278 20.279 35.8273 20.3763 35.6269C20.2744 35.4288 20.205 35.1962 20.2352 34.896C20.2359 34.9293 20.2688 34.9287 20.3357 34.9279C20.3011 34.7954 20.2642 34.4635 20.1625 34.3311L20.1289 34.3319C20.1289 34.2984 20.1289 34.2984 20.1619 34.2641L20.1612 34.1977C20.0614 34.1654 20.0298 34.3325 20.1289 34.3319L20.1625 34.3311C20.1644 34.4975 20.1329 34.665 20.0683 34.798C20.031 34.3994 20.0279 34.0997 20.0589 33.8998C20.0247 33.8006 19.9931 33.9669 19.9588 33.9342C19.9241 33.8012 19.9563 33.7014 20.0552 33.6002C20.0208 33.5004 19.9551 33.5344 19.9893 33.6338C19.9874 33.5004 20.0473 32.8673 20.0096 32.4696C19.9765 32.5025 19.945 32.6353 19.9475 32.8685C19.847 32.8369 19.9748 32.3696 19.842 32.371C20.0038 31.936 19.9976 31.4042 19.8249 30.8072C19.7907 30.7737 19.8913 30.773 19.8905 30.7395C19.8893 30.6396 19.7888 30.6069 19.7888 30.5738C19.888 30.4733 19.7167 30.042 19.8805 29.8069C19.7129 29.7765 19.708 29.2763 19.8408 29.1753C19.6359 28.7452 19.632 28.4784 19.8306 28.3108C19.7281 28.0453 19.6889 27.5798 19.7154 26.8804C19.7407 26.2147 19.7693 25.7809 19.7339 25.5816C19.7339 25.548 19.7654 25.3819 19.7635 25.2491C19.7287 25.0828 19.7585 24.7831 19.7548 24.4164C19.749 23.8846 19.7679 22.6193 19.7977 22.2525L19.8843 21.0535L19.9641 19.3215L20.1089 17.3235C20.1689 16.6899 20.289 15.4574 20.3168 15.0237C20.3775 14.4913 20.4699 13.7576 20.6255 12.8566L20.9068 11.0905C21.2476 8.92294 21.4961 7.22264 21.7161 6.02188C21.6144 5.88967 21.6434 5.45704 21.6086 5.32423C21.5751 5.32423 21.5088 5.32498 21.4748 5.29225C21.4012 4.66034 21.3639 4.3278 21.3969 4.29434C21.563 4.22534 21.6612 4.09253 21.7599 3.89162C22.2599 3.98564 22.5243 3.78339 22.5514 3.28325C22.6842 3.24845 22.8171 3.28073 22.9858 3.44508C23.0194 3.44508 23.0858 3.41087 23.218 3.34262C23.6845 3.40465 24.2492 3.36483 24.9469 3.19086C25.6442 3.0163 26.1753 2.94434 26.4757 2.9741C26.7089 2.93797 27.4736 2.89622 27.8383 2.79199C28.8032 2.78118 29.5684 2.70641 30.1659 2.60158L30.2336 2.63312C30.2666 2.63312 30.2666 2.63312 30.2671 2.66614C30.3664 2.56561 30.599 2.66288 30.6978 2.5283C30.7977 2.52755 30.866 2.66037 30.8994 2.65962C30.9324 2.62616 31.1973 2.59004 31.6311 2.58515C31.7291 2.48403 32.2641 2.6768 32.3955 2.50979C32.6625 2.60662 32.9958 2.60336 33.4262 2.49854C33.4605 2.532 33.5275 2.59714 33.5609 2.59714C33.7937 2.56102 33.9601 2.59256 34.0611 2.69013C34.1604 2.65592 34.6947 2.78429 34.9262 2.64837C34.9596 2.68109 34.9602 2.7147 34.9602 2.74698C35.0608 2.74639 35.1272 2.71219 35.1265 2.67872C35.1601 2.67813 35.1608 2.71159 35.1608 2.7452L35.1949 2.77792C35.2266 2.71085 35.2929 2.6768 35.3264 2.6768C35.3606 2.80946 35.528 2.90747 35.626 2.77348C35.6944 2.87224 35.7279 2.9057 35.7614 2.9051C35.8292 3.0043 35.8967 3.07063 35.9638 3.10291C35.996 3.00312 36.1269 2.90126 36.1592 2.80072C36.1599 2.83419 36.1934 2.8672 36.2932 2.89933C36.3937 2.89874 36.3937 2.89874 36.3943 2.99808C36.3616 3.06516 36.2622 3.06634 36.1617 3.0006C36.1302 3.16821 36.23 3.20048 36.4626 3.13089L36.4621 3.06441C36.4614 3.03081 36.4608 2.96389 36.5613 2.96329C36.5942 2.96255 36.4962 3.1309 36.5296 3.16362C36.5632 3.16317 36.5961 3.12956 36.6284 3.02903C36.7953 3.1269 37.4649 3.41916 37.6318 3.5502C37.8672 3.68093 38.17 4.01095 38.2079 4.40938C38.1099 4.57757 38.0449 4.7431 38.0795 4.84319C37.9467 4.87799 37.816 5.14671 37.7166 5.18091L37.3176 5.1852C37.2847 5.21867 37.2519 5.25228 37.2526 5.3192C37.0854 5.28766 36.9849 5.25539 36.8838 5.15619C36.7852 5.19157 36.9522 5.289 36.8523 5.32379C36.8194 5.32379 36.1851 5.16433 35.9531 5.19972L35.9518 5.03359C36.0846 5.06587 36.1161 4.96519 36.2502 4.99673L36.1149 4.83164C35.9518 5.06706 35.7501 4.93543 35.4838 4.93795C35.4833 4.90567 35.5168 4.87162 35.5495 4.83816L35.6161 4.83742C35.5818 4.80469 35.549 4.77109 35.5154 4.77168C35.451 5.00561 35.2189 4.97526 35.0184 4.97733L35.0191 5.04352C35.0539 5.17647 35.2196 5.07461 35.2531 5.07387L35.2544 5.1744C35.52 5.17144 35.6533 5.17011 35.6223 5.4033C35.4889 5.43809 35.1558 5.342 35.1222 5.34274L35.088 5.27626L34.9875 5.17692C34.8889 5.3118 34.624 5.34777 34.5209 5.11562C34.1231 5.28692 33.8234 5.25672 33.6551 5.09238C33.7885 5.0903 34.1534 5.02027 34.2546 5.11888C34.288 5.11813 34.3203 5.08468 34.3868 5.01701C34.6215 5.11503 34.7864 5.1131 34.9527 5.01138C34.4525 4.94935 34.1862 4.9532 34.12 5.02027C34.0859 4.95379 33.9858 4.95497 33.8542 4.98977C33.8208 4.99051 33.8872 4.95631 33.7867 4.92344C33.7532 4.92403 33.7532 4.92403 33.7537 4.95749V4.9911C33.4206 4.99436 33.2226 5.02974 33.1899 5.09667C33.0223 5.06587 32.689 5.06957 32.1908 5.10807C31.6917 5.1473 31.2922 5.18461 30.993 5.15411C31.0923 5.05373 31.358 5.05062 31.3895 4.88376C31.456 4.88302 31.4566 4.91648 31.4237 4.94935L31.3908 4.98355C31.3908 5.01627 31.4577 5.01583 31.4577 5.04929C31.6242 5.01449 32.156 4.9418 32.3211 4.83994C32.4215 4.83875 32.4891 4.93795 32.5877 4.93677C32.6207 4.9033 32.6535 4.86896 32.6535 4.83697L32.4879 4.83816C32.3879 4.83949 32.3538 4.80647 32.3538 4.77361C32.6838 4.57002 32.9836 4.5333 33.2835 4.63058C33.3832 4.59652 33.4155 4.52901 33.4478 4.46194C33.315 4.46313 32.7496 4.53582 32.5834 4.50473C32.2869 4.74133 32.0547 4.87606 31.855 4.87843C31.8879 4.84437 31.8871 4.81091 31.8535 4.77997C31.755 4.78056 31.6551 4.81417 31.5559 4.91456C31.5552 4.81536 31.721 4.71408 31.5861 4.61548C31.5882 4.78249 31.3895 4.88376 31.2878 4.71868C31.1871 4.71986 31.1892 4.85267 31.1556 4.85267C31.1214 4.78737 31.0564 4.78811 30.9564 4.85444C30.9235 4.85518 30.957 4.92152 30.9241 4.95498L30.7906 4.88998C30.7579 4.92344 30.591 4.95883 30.3254 4.96149C30.3247 4.86214 30.4905 4.89368 30.4897 4.86022C30.4897 4.82676 30.2564 4.76339 30.2583 4.9298C30.2241 4.86347 30.1242 4.86392 29.9587 4.93232C29.8916 4.90005 29.6602 4.96904 29.2277 5.07387C29.26 4.94047 29.0593 4.87606 29.0278 5.04307C28.7957 5.04559 28.6617 5.01331 28.6611 4.98029C28.6281 4.98029 28.5946 5.01376 28.5623 5.11444V5.08156C28.5283 5.0481 28.4948 5.04855 28.4618 5.08216L28.4633 5.14923C28.4637 5.18269 28.4637 5.21571 28.3639 5.21689C28.3303 5.21748 28.2634 5.08408 28.2298 5.08468C27.7327 5.32379 27.4008 5.39397 27.1675 5.33001C26.9349 5.43246 26.7021 5.40152 26.468 5.30424C26.2362 5.44001 26.0375 5.50901 25.8719 5.54381C25.8731 5.64301 25.7061 5.67839 25.7073 5.81179C25.574 5.74605 25.507 5.71393 25.5064 5.68046C25.4741 5.781 25.4747 5.84733 25.5418 5.84659C25.5089 5.88079 25.3754 5.84851 25.3754 5.81505C25.244 5.95037 25.1155 6.38419 24.9568 7.15054C24.6925 7.2872 24.6362 8.22041 24.504 8.35455C24.5376 8.38801 24.5724 8.52022 24.573 8.55369C24.5402 8.58715 24.4743 8.65481 24.475 8.68709L23.7756 11.6906C23.7756 11.7242 23.7763 11.7577 23.8099 11.7907C23.6814 12.1915 23.5917 13.1243 23.4943 13.4244C23.4709 14.3237 23.1212 15.7255 23.0939 16.3579C23.1295 16.5241 23.1635 16.6241 23.1642 16.6577C23.132 16.7575 23.0326 16.8253 23.0334 16.8587C22.9657 16.7594 23.0642 16.6589 23.063 16.492C23.0295 16.5255 22.9992 16.7923 22.9379 17.2925C22.8791 17.9582 22.8499 18.3586 22.8841 18.4578C22.8513 18.4908 22.8526 18.6576 22.8196 18.6911C22.8203 18.7247 22.8874 18.7576 22.8874 18.7912C22.8215 18.8253 22.7886 18.858 22.7892 18.9244C22.767 19.923 22.7107 20.7891 22.6185 21.5229C22.6557 21.856 22.6266 22.2216 22.4971 22.6229C22.5311 22.6881 22.5982 22.7211 22.6988 22.7532C22.6665 22.8539 22.5994 22.8544 22.499 22.7886C22.4789 23.9546 22.4194 24.654 22.389 24.8532C22.2885 24.8209 22.4484 24.2538 22.3142 24.1552C22.284 24.3891 22.2549 24.8209 22.262 25.4217C22.2675 25.987 22.2719 26.3525 22.2404 26.5201C22.2744 26.5857 22.2752 26.6857 22.2769 26.8191C22.3105 26.8525 22.3105 26.8525 22.2769 26.8525L22.2442 26.8869C22.2802 27.1518 22.222 27.918 22.3245 28.1501C22.2284 28.4498 22.234 29.0164 22.3092 29.7804C22.3846 30.5789 22.4244 31.1449 22.394 31.4438C22.4275 31.4769 22.43 31.7102 22.4351 32.1428L22.3365 32.2438C22.4718 32.4089 22.4459 33.0749 22.5471 33.2069C22.5155 33.3726 22.4826 33.4395 22.4496 33.4739C22.4895 34.0384 22.5939 34.4374 22.7627 34.6688C22.7304 34.703 22.731 34.7686 22.6976 34.7686C22.7318 34.8351 22.7988 34.868 22.8316 34.8674C22.9284 34.6341 22.6179 33.6052 22.8474 33.2367C22.8461 33.1039 22.8455 33.0368 22.8778 33.0033L22.7449 33.0045C22.6357 32.1736 22.6287 31.542 22.7235 31.0411C22.7563 31.0411 22.791 31.1412 22.8246 31.1405C22.7963 31.6393 22.7666 31.9391 22.7677 32.0725C22.8348 32.0718 22.8675 32.0377 22.8335 31.9379C22.9321 31.9372 22.8037 32.3387 22.9365 32.3369C22.8058 32.5057 22.9139 33.2695 22.8828 33.4358L22.9833 33.5344C22.9839 33.6344 22.953 33.8676 22.9208 33.9682C23.0231 34.1995 22.9644 34.8662 23.0997 35.0311C23.1003 35.0981 23.1003 35.1311 23.0667 35.1317C23.137 35.43 23.1718 35.5624 23.1718 35.5958L23.1389 35.5964C23.1718 35.5624 23.1041 35.4971 23.0713 35.5301Z" fill="white"/>
<path d="M52.1659 11.6785C52.1323 11.6785 52.0989 11.6791 52.0995 11.7126C52.1329 11.712 52.1664 11.712 52.1659 11.6785ZM51.9647 11.6146C51.9319 11.616 51.899 11.616 51.8648 11.583C51.8983 11.5824 51.9319 11.5824 51.9647 11.6146ZM51.7985 11.6172C51.7985 11.5838 51.6643 11.5515 51.6973 11.5179C51.8307 11.5167 51.8978 11.5494 51.8648 11.583C51.8312 11.583 51.7985 11.5838 51.7985 11.6172ZM50.2157 12.9988C50.1827 13.0324 50.1827 13.0324 50.1823 12.9988H50.2157ZM49.2564 13.5084L49.0573 13.5439L49.0567 13.5104L49.2564 13.5084ZM48.6576 13.5817C48.6571 13.5482 48.6906 13.5476 48.7576 13.547C48.724 13.5812 48.6912 13.6147 48.6576 13.5817ZM48.3579 13.5178L48.4244 13.4509C48.458 13.4844 48.3913 13.5509 48.3579 13.5178ZM47.9905 13.4554C47.9905 13.4223 48.0912 13.4546 48.0892 13.3541C48.1568 13.4206 48.1235 13.454 47.9905 13.4554ZM47.7535 13.0254L47.7528 12.9924L47.6864 12.9939V13.0266L47.7535 13.0254ZM47.6586 13.4927C47.6922 13.4919 47.6922 13.4919 47.6915 13.4583C47.6586 13.4591 47.6586 13.4591 47.6586 13.4927ZM47.2615 13.7638C47.2944 13.7297 47.3943 13.6621 47.5935 13.6267C47.5264 13.5937 47.3936 13.6284 47.1944 13.664C47.1956 13.6974 47.2279 13.7303 47.2615 13.7638ZM46.9624 13.7663L46.9618 13.7H46.9282C46.8955 13.7007 46.8955 13.7007 46.8955 13.7343C46.929 13.7336 46.929 13.767 46.9624 13.7663ZM48.4743 11.9857C48.3743 11.9869 48.1417 12.0561 48.141 11.956C48.0412 11.9902 47.9747 12.0242 47.8755 11.9922C47.4765 12.0965 46.7449 12.1711 46.4464 12.2078C46.4457 12.1744 46.4457 12.1744 46.4122 12.1413C46.3794 12.2084 46.3471 12.2419 46.3136 12.2426C46.2808 12.2431 46.2473 12.2767 46.2479 12.3101C46.6804 12.3057 47.0458 12.2679 47.3437 12.1647L47.3773 12.1976C47.3773 12.1641 47.3773 12.1641 47.4108 12.1636C47.4442 12.1636 47.9432 12.1584 48.9409 12.047L49.3071 12.0097C49.5391 12.0072 49.739 11.972 49.8383 11.9378C49.5708 11.8403 48.9738 12.0136 48.6722 11.9169C48.6393 11.9505 48.5071 11.9523 48.4743 11.9857ZM46.4654 13.9044C46.4319 13.8714 46.3985 13.8721 46.3314 13.8726L46.2309 13.8416L46.4983 13.8385C46.4647 13.8385 46.4647 13.8714 46.4654 13.9044ZM45.783 15.4433H45.7495C45.783 15.4433 45.816 15.4428 45.816 15.4093C45.816 15.4428 45.816 15.4428 45.783 15.4433ZM45.6579 22.2687C45.625 22.2694 45.6237 22.236 45.5914 22.2364L45.591 22.203C45.6237 22.2024 45.6573 22.236 45.6579 22.2687ZM45.4858 21.8039L45.4866 21.871L45.4536 21.8374L45.4531 21.7711L45.4858 21.8039ZM45.417 21.5725L45.4506 21.6054L45.4176 21.6389L45.417 21.5725ZM45.5347 20.1396C45.5017 20.1402 45.5017 20.1402 45.4681 20.1737L45.4017 20.1744L45.4006 20.0746C45.4346 20.1073 45.4346 20.1073 45.4676 20.1073L45.5011 20.0733C45.5017 20.1737 45.5674 20.0727 45.6004 20.0727C45.6339 20.1054 45.6352 20.2055 45.5351 20.1732L45.5347 20.1396ZM45.4334 23.037V23.0704H45.4006L45.3998 23.0377L45.4334 23.037ZM45.4303 25.7996C45.3973 25.8003 45.3973 25.8003 45.3973 25.8326C45.4309 25.8326 45.4309 25.8326 45.4303 25.7996ZM45.4391 23.5688V23.6023C45.4068 23.6365 45.4068 23.6365 45.3733 23.6365L45.3727 23.5695L45.4391 23.5688ZM45.4208 21.8718C45.3866 21.8381 45.353 21.8051 45.3518 21.7053L45.4176 21.6389C45.3853 21.7046 45.3861 21.7717 45.4208 21.8718ZM45.3462 24.2359C45.4131 24.2682 45.4479 24.368 45.4493 24.5008C45.4158 24.5016 45.3487 24.4686 45.3157 24.4699C45.3157 24.4363 45.3128 24.2359 45.3462 24.2359ZM45.3203 21.8387L45.3538 21.8722C45.3203 21.8722 45.3203 21.8722 45.3208 21.9058L45.2867 21.8729V21.8395L45.3203 21.8387ZM45.3588 25.3671C45.3253 25.3671 45.3253 25.3671 45.3253 25.4006C45.3253 25.3671 45.3253 25.3671 45.2925 25.3679C45.3253 25.3671 45.3253 25.3671 45.3248 25.3342C45.3253 25.3671 45.3253 25.3671 45.3588 25.3671ZM45.2583 22.2397C45.2913 22.2397 45.2913 22.2397 45.3248 22.2725C45.2913 22.2725 45.2913 22.2397 45.2583 22.2397ZM45.3203 24.9018L45.3544 24.9346C45.3878 24.9675 45.3878 24.9675 45.355 25.0011C45.3208 24.9681 45.2221 25.0694 45.19 25.0364C45.1894 25.0029 45.2202 24.9358 45.2202 24.9024L45.3203 24.9018ZM45.2134 24.2371V24.2707H45.1811L45.1804 24.2371H45.2134ZM45.2242 25.202L45.1572 25.1369L45.2221 25.1027C45.2892 25.1022 45.2892 25.1357 45.2242 25.202ZM45.3165 24.502C45.3501 24.5343 45.3501 24.5343 45.3505 24.5679L45.25 24.5691C45.2513 24.669 45.386 24.7678 45.386 24.8005C45.353 24.8347 45.1862 24.7703 45.1539 24.8708L45.152 24.6702C45.2507 24.6354 45.2823 24.4699 45.3157 24.4699L45.3165 24.502ZM45.0541 21.809C45.0882 21.8413 45.1216 21.8747 45.1552 21.8743C45.1216 21.8747 45.1535 21.7749 45.0541 21.809ZM44.9699 14.1875L45.0369 14.1868L45.0363 14.1533V14.1206C45.0029 14.1206 44.9699 14.1548 44.9699 14.1875ZM44.9395 11.392C44.9408 11.492 44.9416 11.5254 44.9743 11.492C44.9739 11.4249 44.9731 11.392 44.9395 11.392ZM45.1647 25.8356L45.0984 25.8363C45.0636 25.7035 45.197 25.7016 45.1647 25.8356ZM45.0959 25.6364L45.0964 25.7028L45.0636 25.7035C45.0301 25.67 45.0301 25.67 45.0294 25.637L45.0959 25.6364ZM45.0471 21.176L45.0483 21.2766C45.0149 21.3102 44.9813 21.3106 44.949 21.3106L44.9503 21.4442C44.9515 21.5441 44.9851 21.6106 45.0528 21.6426C45.0503 21.5093 45.0831 21.443 45.1502 21.4753C45.116 21.3759 45.18 21.2083 45.1469 21.1753L45.18 21.1748C45.2457 21.1405 45.2449 21.0743 45.1779 21.0084C45.1452 20.9761 45.1456 21.0092 45.1121 21.0426C45.1129 21.0762 45.1135 21.1418 45.1469 21.1753L45.0471 21.176ZM44.9402 14.4879L44.9731 14.421C44.9395 14.421 44.9068 14.4551 44.8745 14.5556C44.908 14.555 44.9408 14.5215 44.9402 14.4879ZM44.9731 26.5704L45.0066 26.6034L45.0073 26.6369C45.0066 26.6034 45.0066 26.6034 44.9731 26.5704ZM44.7802 15.0886C44.7809 15.1216 44.7809 15.1549 44.815 15.1884C44.8137 15.088 44.8132 15.0545 44.7802 15.0886ZM45.0153 27.4342L44.8828 27.4354C44.8492 27.4361 44.8498 27.469 44.8498 27.5024C44.9503 27.5018 44.9833 27.4676 45.0153 27.4342ZM44.9086 26.8031C44.8092 26.8372 44.8111 26.9707 44.8807 27.2706C44.9143 27.2698 44.913 27.2028 44.9465 27.2028C44.9118 27.0694 45.0103 26.9681 44.9762 26.869C45.0433 26.8683 45.0762 26.8347 45.0756 26.7677L45.0414 26.7349C45.0079 26.7019 45.0079 26.6684 45.0073 26.6369C44.9072 26.6375 44.8745 26.7032 44.9086 26.8031ZM44.9225 28.0354C44.9213 27.9685 44.9213 27.9356 44.8877 27.9022L44.8227 28.0368L44.9225 28.0354ZM44.8852 27.7023L44.8846 27.636L44.8182 27.6366L44.8187 27.7035L44.8852 27.7023ZM44.8067 17.5174L44.7732 17.4845C44.7392 17.4516 44.7392 17.4516 44.7062 17.4516C44.7069 17.5521 44.6096 17.7197 44.6096 17.7532C44.7094 17.752 44.7732 17.5181 44.8067 17.5174ZM44.7036 14.1908L44.6043 14.1914C44.5412 14.5587 44.543 14.7586 44.5774 14.7907C44.6758 14.6569 44.6714 14.3242 44.7036 14.1908ZM44.588 15.8233C44.688 15.7886 44.6178 15.4231 44.7156 15.3219L44.6474 15.1234C44.6139 15.1234 44.5488 15.2574 44.5161 15.2914C44.6506 15.3896 44.5532 15.69 44.588 15.8233ZM44.1561 3.71178L44.055 3.54684C44.0885 3.5461 44.1225 3.61243 44.1561 3.71178ZM44.149 3.04655C44.1156 3.04655 44.0834 3.11362 44.084 3.21415C44.117 3.17995 44.1846 3.24569 44.2182 3.24436C44.2503 3.11229 44.182 3.0125 44.0808 2.91448L44.0815 2.9472L44.0486 3.01428C44.0815 2.98081 44.1156 3.01309 44.149 3.04655ZM43.9487 21.2216C43.9822 21.2543 43.9822 21.2543 43.9817 21.2216H43.9487ZM43.8431 23.7863L43.8439 23.8526C43.9114 23.8849 43.9443 23.8849 43.9437 23.8192C43.9106 23.8522 43.8766 23.7863 43.8431 23.7863ZM43.7507 18.395L43.7836 18.3616L43.8171 18.3274C43.8507 18.3604 43.7848 18.4279 43.7507 18.395ZM43.8153 18.1605L43.7482 18.1613V18.1294L43.7811 18.096V18.0624C43.8146 18.0954 43.8146 18.129 43.8153 18.1605ZM43.7799 17.9618V17.9954L43.747 17.9962L43.7463 17.9626L43.7799 17.9618ZM43.871 32.2406C43.871 32.274 43.969 32.2058 43.9354 32.1729L43.871 32.2406ZM43.6889 18.7289C43.6883 18.662 43.7217 18.6285 43.8203 18.6272C43.8211 18.6941 43.7876 18.7276 43.6889 18.7289ZM43.6755 17.4966L43.6742 17.4313C43.6742 17.4313 43.6755 17.4636 43.6755 17.4966ZM43.9052 32.4061L43.8393 32.4069L43.8051 32.3738C43.8064 32.4403 43.8399 32.4732 43.8733 32.4732C43.8729 32.4397 43.8729 32.4061 43.9052 32.4061ZM43.4967 4.21829C43.4971 4.31808 43.5315 4.38456 43.5972 4.35036C43.5959 4.25056 43.563 4.2177 43.4967 4.21829ZM43.661 16.199C43.6937 16.1648 43.6937 16.1648 43.7268 16.1648L43.726 16.1312C43.6937 16.132 43.6933 16.0989 43.6597 16.0989L43.6268 16.1326C43.5939 16.166 43.5939 16.166 43.6276 16.199H43.661ZM43.5877 0.488692C43.4226 0.590556 43.3904 0.624759 43.4574 0.657036C43.4574 0.624019 43.5889 0.589372 43.5877 0.488692ZM43.6846 15.2675L43.7173 15.3327L43.685 15.3333C43.6515 15.3668 43.6193 15.3675 43.5857 15.3675C43.5852 15.3339 43.6502 15.234 43.6495 15.1342C43.6831 15.1671 43.6831 15.2005 43.6846 15.2675ZM43.6421 14.4355L43.575 14.4367C43.575 14.4032 43.6085 14.4025 43.6421 14.4355ZM43.6205 15.5338L43.6212 15.5667L43.5882 15.6009C43.5547 15.6009 43.5541 15.5679 43.587 15.5338H43.6205ZM43.5497 15.1361C43.5827 15.1348 43.5827 15.1348 43.5827 15.1684C43.6162 15.1677 43.6162 15.1348 43.6154 15.0683L43.5497 15.1361ZM43.5707 14.07L43.5384 14.0705C43.5707 14.07 43.5711 14.1028 43.6048 14.1357L43.6055 14.2028C43.5732 14.2028 43.5732 14.2364 43.5737 14.2698C43.6067 14.2356 43.6723 14.202 43.704 14.1015H43.6711L43.6375 14.0688L43.6711 14.068C43.7034 14.0352 43.7034 14.0352 43.7028 14.0017C43.6705 14.0021 43.6375 14.0358 43.6375 14.0688C43.6048 14.1022 43.6048 14.1022 43.5707 14.07ZM43.611 14.6352L43.5104 14.6358C43.5435 14.6024 43.5769 14.5695 43.6098 14.5688L43.611 14.6352ZM43.4586 3.82001L43.458 3.75294L43.3916 3.75412L43.3923 3.82045L43.4586 3.82001ZM43.6763 17.5301C43.6427 17.5301 43.6458 17.8305 43.5124 17.8323C43.5116 17.7652 43.6105 17.6641 43.6092 17.5307L43.6763 17.5301ZM43.4872 15.5015C43.4865 15.4687 43.5529 15.4346 43.6527 15.4003C43.6535 15.4667 43.587 15.5003 43.4872 15.5015ZM43.4756 14.4707C43.477 14.6031 43.5112 14.6693 43.5446 14.7023C43.678 14.6675 43.7072 14.4019 43.6738 14.3021L43.6073 14.3027L43.5737 14.2698C43.5737 14.3033 43.5414 14.4037 43.5421 14.4367H43.575C43.5757 14.4696 43.5421 14.4696 43.4756 14.4707ZM43.4669 13.6723C43.4333 13.7057 43.4681 13.8385 43.568 13.8037C43.6003 13.7038 43.5667 13.6709 43.4669 13.6723ZM43.5914 18.9623C43.5584 18.9957 43.5251 19.0293 43.4928 19.0299L43.5244 18.963V18.9294L43.5238 18.8959L43.5566 18.8629C43.5902 18.8617 43.6243 18.8952 43.5914 18.9623ZM43.5497 18.1642L43.4826 18.165C43.4826 18.1319 43.5485 18.1315 43.5497 18.1642ZM43.5902 24.9206L43.5914 25.0541L43.5907 24.9542C43.5572 24.9542 43.5238 24.9549 43.5232 24.9213L43.5902 24.9206ZM43.5737 29.4481L43.6755 29.6462C43.7741 29.5449 43.637 29.2137 43.6357 29.0473L43.5352 29.0486C43.57 29.1484 43.639 29.3471 43.639 29.3805C43.6055 29.3811 43.5732 29.4146 43.5737 29.4481ZM43.4188 15.3693C43.4524 15.4023 43.4536 15.5351 43.4876 15.5686C43.355 15.6034 43.3911 15.8701 43.3581 15.9037C43.3916 15.9359 43.4259 16.0024 43.4277 16.1687C43.4611 16.1674 43.4934 16.0674 43.4909 15.9019C43.5244 15.9011 43.69 15.7658 43.7881 15.7322C43.7533 15.599 43.8171 15.2993 43.7824 15.1663C43.8824 15.1317 43.9139 15.0646 43.8476 14.9995C43.8134 14.966 43.7805 14.9666 43.7136 14.9672C43.714 15.0343 43.6817 15.0679 43.649 15.1006L43.6154 15.0683L43.6148 15.0349L43.5812 15.002C43.6813 14.9672 43.6123 14.8015 43.6458 14.7675C43.6117 14.7352 43.5116 14.7694 43.4782 14.7364C43.5124 14.8357 43.5137 14.9355 43.5156 15.036L43.4822 15.0696C43.4491 15.0704 43.4157 15.1038 43.4163 15.1373L43.5497 15.1361C43.4847 15.303 43.4524 15.3687 43.4188 15.3693ZM43.4018 13.7728L43.3991 13.6393L43.3001 13.64C43.3005 13.7071 43.3012 13.7405 43.3348 13.7734L43.4018 13.7728ZM43.3618 16.3021C43.3625 16.3355 43.2955 16.3361 43.2961 16.3696C43.3295 16.4026 43.4625 16.3344 43.3618 16.3021ZM43.3759 17.5338L43.3436 17.6009C43.2431 17.5686 43.3751 17.5003 43.3751 17.4669C43.4086 17.4996 43.4086 17.4996 43.3759 17.5338ZM43.46 25.1887L43.36 25.1895C43.3593 25.156 43.3593 25.156 43.3929 25.123L43.3923 25.0895C43.4259 25.0895 43.4594 25.1218 43.46 25.1887ZM43.3353 13.8403C43.2682 13.8411 43.2355 13.8411 43.2355 13.8739C43.3026 13.9056 43.336 13.9056 43.3353 13.8403ZM43.4271 25.2223C43.3941 25.2558 43.4277 25.2881 43.4619 25.3881C43.4631 25.4872 43.4302 25.5214 43.3631 25.522C43.3295 25.4885 43.4605 25.2553 43.36 25.2231L43.4271 25.2223ZM43.4138 27.0529C43.4144 27.0864 43.3809 27.0864 43.3473 27.0871L43.3803 27.0537L43.4138 27.0529ZM43.6597 19.0951C43.5612 19.1963 43.668 19.8272 43.6693 19.96C43.6022 19.9608 43.5358 19.9948 43.5036 20.0284L43.5371 20.0948L43.6048 20.1612C43.6048 20.1947 43.5711 20.1947 43.4719 20.196C43.5048 20.1624 43.4366 19.9961 43.4358 19.9633C43.3374 20.0638 43.3038 20.0974 43.2703 20.0644C43.2696 20.0309 43.3695 19.9973 43.3353 19.8975L43.4681 19.8962C43.4354 19.8633 43.4996 19.6951 43.3991 19.6629C43.4321 19.6294 43.4644 19.5301 43.4625 19.3302C43.4959 19.3297 43.529 19.3297 43.5624 19.2954L43.5953 19.2619C43.594 19.2285 43.4619 19.2638 43.4942 19.1633L43.6268 19.1621C43.6262 19.1285 43.6262 19.1285 43.5935 19.1293C43.5928 19.0958 43.6262 19.0951 43.6597 19.0951ZM43.2456 17.8348C43.212 17.8019 43.245 17.7677 43.2784 17.7343C43.3113 17.7337 43.3113 17.7337 43.3113 17.7006C43.3448 17.7337 43.3461 17.8336 43.2456 17.8348ZM43.3233 18.8327C43.3233 18.7998 43.3563 18.7656 43.3221 18.6657H43.355C43.389 18.6986 43.389 18.6986 43.4219 18.6986H43.389C43.4219 18.7316 43.4226 18.7987 43.3904 18.8648L43.3246 18.9319L43.2247 18.9332L43.3233 18.8327ZM43.2065 17.2366C43.2057 17.1696 43.238 17.1361 43.2715 17.1354C43.2721 17.2024 43.2398 17.2359 43.2065 17.2366ZM43.2664 22.7278C43.2664 22.76 43.3005 22.7936 43.3341 22.8263C43.3012 22.8599 43.2 22.7613 43.1995 22.7284L43.3323 22.6602L43.2664 22.7278ZM43.1974 25.5902C43.197 25.5239 43.2305 25.4904 43.2633 25.4904C43.2639 25.5562 43.2311 25.5902 43.1974 25.5902ZM43.1367 23.0287C43.169 23.0282 43.169 23.0282 43.2032 23.0617C43.1698 23.0617 43.169 23.0282 43.1367 23.0287ZM43.123 15.7722L43.0223 15.6407L43.0244 15.8733C43.0584 15.9069 43.0911 15.8729 43.123 15.7722ZM42.9894 12.6782C43.0229 12.7111 43.0563 12.7105 43.0886 12.6434C43.0223 12.6442 42.9888 12.6446 42.9894 12.6782ZM43.0495 21.2315L43.0179 21.2652C43.0515 21.3987 43.0874 21.6313 43.0882 21.7307H43.0552C43.0229 21.7311 43.0229 21.7311 43.0236 21.7647C43.123 21.8635 43.0269 22.0645 43.1918 22.0626C43.2235 21.8957 43.2898 21.8615 43.1557 21.7957L43.1553 21.7299C43.188 21.697 43.2214 21.6965 43.255 21.6965C43.2545 21.6628 43.188 21.6636 43.1868 21.5638C43.2202 21.5631 43.2537 21.5631 43.2533 21.5296C43.2533 21.496 43.2533 21.496 43.286 21.4955C43.286 21.4625 43.2191 21.4297 43.2506 21.3297L43.2835 21.2961L43.3498 21.262L43.1154 21.1306L43.1166 21.2311C43.0831 21.1981 43.0831 21.1981 43.0495 21.2315ZM43.0337 22.6633C43.0337 22.6967 43.0337 22.6967 43.0654 22.6627C43.0646 22.6297 43.0646 22.5962 43.0982 22.5956C43.0319 22.5627 42.9983 22.5633 42.9996 22.6304L43.0337 22.6633ZM42.9629 25.393C42.9964 25.4259 42.9964 25.4259 43.0298 25.4259C43.0629 25.3918 43.0951 25.3248 43.0944 25.259C43.0281 25.2596 42.9616 25.2931 42.9293 25.3936L42.9629 25.393ZM42.9105 17.5384L42.9111 17.6053L42.7777 17.6066L42.844 17.6059C42.8775 17.5724 42.8775 17.5724 42.8434 17.5388L42.9105 17.5384ZM42.8941 31.2522C42.8618 31.2858 42.8282 31.2864 42.8276 31.2529L42.8941 31.2522ZM42.6707 13.9132C42.6366 13.8809 42.6373 13.9132 42.6373 13.9466C42.6714 13.9795 43.0356 13.8764 43.169 13.9074C43.169 13.8751 43.1672 13.7082 43.1336 13.7088L42.7707 13.8796C42.7371 13.9124 42.7037 13.9124 42.6707 13.9132ZM42.6855 6.19043L42.6872 6.35759C42.6536 6.35803 42.5866 6.25824 42.5506 6.05954C42.5842 6.05954 42.6524 6.19117 42.6855 6.19043ZM42.8585 31.0866C42.7915 31.02 42.791 30.9865 42.8237 30.9531C42.8572 30.9525 42.858 30.9859 42.8585 31.0866ZM42.543 14.4479C42.5102 14.481 42.6442 14.5132 42.6764 14.479C42.6436 14.4462 42.6101 14.4468 42.543 14.4479ZM42.5716 14.0143L42.5045 14.0149L42.5063 14.1142C42.5393 14.1142 42.572 14.0808 42.5716 14.0143ZM42.5575 6.69205C42.4912 6.7261 42.4589 6.79303 42.4603 6.85891C42.3597 6.8601 42.4906 6.65903 42.3913 6.66022C42.4566 6.56043 42.4881 6.42628 42.4868 6.29303C42.6209 6.32457 42.5241 6.65903 42.5575 6.69205ZM42.6455 26.8277L42.5792 26.8285H42.6126L42.6455 26.8277ZM42.4968 22.3698C42.4634 22.3377 42.4628 22.3042 42.462 22.2706C42.5621 22.2694 42.5621 22.3028 42.4968 22.3698ZM42.5583 27.961L42.5248 27.9617L42.4912 27.9287C42.5241 27.9281 42.5241 27.9281 42.5241 27.8946C42.5575 27.8946 42.5575 27.9273 42.5583 27.961ZM42.5008 22.7352L42.4342 22.7696C42.4007 22.7367 42.4665 22.6362 42.4994 22.6362C42.5336 22.6685 42.5336 22.7019 42.5008 22.7352ZM42.4469 23.9342L42.4475 24.0013H42.4147L42.4135 23.9349L42.4469 23.9342ZM42.4381 23.0693H42.4711L42.4723 23.135C42.4388 23.1684 42.44 23.2691 42.407 23.3026L42.4044 23.0704L42.4381 23.0693ZM42.531 22.4351L42.498 22.4692C42.4646 22.4692 42.4311 22.4698 42.4317 22.5034L42.4311 22.4698L42.3975 22.4369L42.531 22.4351ZM42.2907 6.66155C42.1908 6.66274 42.1908 6.63001 42.2237 6.59566C42.2571 6.59566 42.2907 6.62868 42.2907 6.66155ZM42.4375 26.0318L42.4381 26.0981C42.4044 26.0988 42.371 26.0323 42.4033 25.9983L42.4375 26.0318ZM42.433 25.6656L42.4338 25.7325L42.3673 25.7333V25.6998L42.3667 25.6662L42.433 25.6656ZM42.4425 23.5352L42.5102 23.5682L42.5113 23.7343C42.5121 23.7673 42.3779 23.7364 42.3464 23.7364L42.4098 23.5359L42.4425 23.5352ZM42.2901 6.56161C42.2223 6.49587 42.1889 6.49587 42.1573 6.56368C42.1239 6.53007 42.1562 6.46315 42.1877 6.36247L42.2901 6.56161ZM42.096 6.99675C42.1295 7.02962 42.1295 7.02962 42.1295 7.06249C42.1643 7.16184 42.1649 7.22876 42.1649 7.22876C42.1979 7.26163 42.132 7.29583 42.1661 7.3287L42.0315 7.26356C42.0997 7.3629 42.1338 7.46225 42.1351 7.5613C42.1017 7.59476 42.0675 7.52843 42.1011 7.49571C42.0675 7.4963 42.1017 7.59476 42.0017 7.56263C41.9999 7.3977 41.998 7.23054 42.0296 7.06323L41.9967 7.09729L41.9298 7.09847L41.929 6.99794C41.9284 6.96448 41.9619 6.96448 41.9955 6.96389L42.0618 6.96314L42.096 6.99675ZM41.6705 7.69988C41.6698 7.66627 41.7013 7.56574 41.7013 7.53228C41.7684 7.59876 41.7696 7.66568 41.6705 7.69988ZM41.6382 7.83388C41.6048 7.83388 41.5712 7.80101 41.5704 7.7674C41.604 7.73394 41.6375 7.76695 41.6382 7.83388ZM41.3196 3.01057L41.2866 3.04463H41.253L41.2526 2.9783C41.2526 3.01176 41.286 3.01117 41.3196 3.01057ZM41.3138 14.5941C41.4132 14.5928 41.578 14.491 41.7115 14.5233C41.7103 14.4234 41.9443 14.421 41.9422 14.288C41.7749 14.1896 41.3784 14.4272 41.2777 14.4284C41.246 14.5291 41.3125 14.5606 41.3138 14.5941ZM40.9837 14.897C40.9831 14.8641 40.9496 14.8307 40.8491 14.8319C40.8495 14.8655 40.8831 14.8982 40.9837 14.897ZM41.0786 14.4639C40.9452 14.4653 40.8793 14.4993 40.847 14.5999C40.9794 14.5651 41.0457 14.4974 41.0786 14.4639ZM40.8147 14.6327C40.7813 14.6327 40.748 14.6333 40.748 14.6006L40.7486 14.6668L40.847 14.6321L40.8147 14.6327ZM40.6757 11.0734L40.6434 11.1727C40.6442 11.2731 40.6113 11.3066 40.5784 11.3396L40.5778 11.3066C40.6113 11.2731 40.5764 11.1732 40.5089 11.0746L40.6757 11.0734ZM40.5146 11.5741L40.5151 11.6077H40.4816L40.481 11.5741H40.5146ZM40.1257 12.5757C40.0941 12.6434 40.0941 12.6764 40.1599 12.6757H40.1933L40.1939 12.742C40.1276 12.7426 40.0946 12.7433 40.0611 12.7105L40.0593 12.5435C40.0598 12.5771 40.0934 12.5763 40.1257 12.5757ZM42.3843 6.02801C42.3514 6.12795 42.3199 6.26194 42.3212 6.42836C42.289 6.46182 42.2554 6.4288 42.2542 6.32827C42.2212 6.36247 42.1877 6.32901 42.1548 6.29673C42.1541 6.26327 42.1541 6.26327 42.1206 6.26372L41.9948 6.93087C41.9284 6.93161 41.8614 6.96566 41.7964 7.03273C41.8968 7.13208 41.7989 7.29968 41.8341 7.46595C41.7671 7.46654 41.7336 7.46714 41.7009 7.50075C41.7009 7.46714 41.7001 7.43367 41.733 7.3666C41.7981 7.23261 41.7976 7.16554 41.697 7.13401L41.4732 7.90228C41.506 7.93456 41.5395 8.00074 41.5407 8.06781C41.5407 8.10142 41.4749 8.03509 41.4422 8.06914C41.4764 8.16834 41.4099 8.23615 41.4107 8.26828C41.4441 8.30115 41.4776 8.30056 41.5097 8.26695C41.542 8.23467 41.5755 8.23423 41.6091 8.23423C41.6091 8.26577 41.6445 8.46564 41.6464 8.56617L41.6129 8.53331C41.5787 8.49984 41.5787 8.49985 41.546 8.5339C41.5464 8.56692 41.5464 8.60038 41.5806 8.6325C41.6143 8.66597 41.6143 8.69943 41.5812 8.69943C41.4807 8.60097 41.4467 8.50103 41.5453 8.46683C41.5117 8.46757 41.4789 8.40109 41.4776 8.30056C41.4447 8.33402 41.2771 8.30307 41.2449 8.33728C41.2796 8.46935 41.1165 8.80455 41.2505 8.90316C41.0842 8.90508 41.2209 9.20298 41.1223 9.3041C40.8226 9.30736 41.126 9.70312 40.8598 9.70563C40.8269 9.73909 40.8603 9.77255 40.8938 9.77211L40.8945 9.8719C40.7631 9.87368 40.7977 10.1066 40.6985 10.107C40.6656 10.1414 40.6993 10.1741 40.7327 10.1736H40.7662C40.5659 10.2089 40.6662 10.2412 40.6682 10.4068C40.6347 10.4068 40.6347 10.4068 40.6018 10.441H40.5688C40.5702 10.5416 40.6044 10.6079 40.6044 10.6402L40.5379 10.6409C40.5404 10.8749 40.4748 10.9758 40.3755 11.0102C40.4091 11.0429 40.412 11.3421 40.2471 11.4438L40.2484 11.5766C40.3823 11.6753 40.4853 11.9737 40.3532 12.075C40.3198 12.042 40.3192 12.0085 40.3192 11.9749C40.2857 11.9422 40.285 11.9086 40.2514 11.9092C40.2521 11.9426 40.2527 12.0427 40.2198 12.0762C40.2535 12.0762 40.2869 12.1085 40.321 12.1413C40.321 12.1748 40.3217 12.2084 40.2882 12.2084C40.2875 12.1755 40.1876 12.1761 40.1876 12.1425L40.1827 11.7114C40.0503 11.746 40.0555 12.1781 39.9556 12.1792C39.9563 12.2463 39.9904 12.3457 40.0586 12.4783L39.9252 12.4795C39.927 12.6119 39.7324 13.0803 39.7336 13.2137C39.7671 13.1803 39.8993 13.1119 39.9328 13.1449C39.9658 13.1114 39.9291 12.7787 39.9625 12.8118C40.0623 12.8437 40.0315 12.9773 40.0663 13.1101C40.1976 13.0753 40.7637 13.0019 40.9282 12.9007C40.8951 12.9348 40.8951 12.9678 40.9622 12.9666C41.1955 12.9645 41.3291 12.9628 41.4289 12.9286C41.4281 12.8615 41.4604 12.828 41.5269 12.8274L41.5275 12.8945C41.6268 12.8597 42.0265 12.8224 42.1579 12.7207L42.1921 12.7534L42.1914 12.7207C42.2249 12.72 42.3899 12.6852 42.6234 12.6492C42.8568 12.6794 43.0552 12.6105 43.2545 12.5081L43.255 12.5752C43.3208 12.5075 43.3531 12.4422 43.3859 12.3747C43.3519 12.3417 43.3494 12.1085 43.25 12.1425L43.3821 12.0085C43.3486 12.0085 43.348 11.9749 43.3816 11.9415C43.181 11.9434 43.4466 11.8409 43.4454 11.7739C43.4114 11.676 43.4757 11.4413 43.4745 11.3085L43.4727 11.1753L43.5062 11.1745C43.5062 11.1409 43.4391 11.1417 43.4383 11.1082C43.4719 11.1082 43.5054 11.0746 43.5042 11.0088C43.501 10.742 43.5307 10.3753 43.6255 9.94208C43.5251 9.90995 43.5572 9.77581 43.6566 9.77507C43.656 9.74161 43.623 9.70874 43.5889 9.60999C43.7192 9.4754 43.6813 9.00872 43.7805 8.90952C43.7799 8.87606 43.7799 8.87606 43.7463 8.87606V8.84304C43.812 8.80899 43.8116 8.77553 43.7111 8.67618L43.7445 8.64272C43.7768 8.60837 43.7768 8.60837 43.8103 8.64198C43.8076 8.40879 43.8374 8.04264 43.9317 7.5083L43.8646 7.50904C43.9303 7.40969 43.993 7.04221 44.0202 6.47559C44.0506 6.24225 44.0821 6.07538 44.0486 6.04385C44.0821 6.04311 44.0815 6.01039 44.0815 5.97678L44.0728 5.21102C44.1055 5.17756 44.1384 5.10975 44.1384 5.07703C44.038 5.07747 44.1011 4.71028 44.0999 4.61153H44.1327C44.1656 4.57792 44.1656 4.57792 44.1991 4.57748C44.1631 4.34414 44.2251 3.91151 44.2205 3.47859C44.1536 3.44557 44.1196 3.37924 44.0848 3.27915L43.9854 3.28123C43.9868 3.41403 43.9537 3.48096 43.8874 3.48155C43.888 3.58164 44.0562 3.6795 44.0239 3.78003C43.991 3.8135 43.9562 3.68143 43.9226 3.68143C43.8899 3.71489 43.8228 3.71622 43.7558 3.64989C43.7906 3.74968 43.7579 3.81601 43.6578 3.81735C43.6926 3.98302 43.6937 4.11583 43.6282 4.18349L43.7281 4.18216C43.6951 4.21577 43.6958 4.28284 43.7293 4.31556C43.6299 4.31689 43.6324 4.54964 43.4996 4.55142C43.4662 4.5187 43.4985 4.41817 43.4644 4.31882C43.3643 4.38634 43.2993 4.4534 43.3335 4.55349C43.3001 4.55394 43.267 4.58754 43.2682 4.6863C43.0349 4.65698 43.0389 5.02254 43.0053 5.05556C43.0053 5.02328 42.9711 4.98967 42.9383 5.02373L42.8719 5.02447C42.9061 5.12381 42.8742 5.25722 42.7099 5.35893C42.7442 5.45754 42.5128 5.62706 42.6145 5.75913C42.514 5.76046 42.5494 5.95975 42.45 5.96109L42.3843 6.02801ZM39.7203 15.0109C39.7203 15.0443 39.7543 15.0766 39.8202 15.076C39.8531 14.9761 39.8196 14.9768 39.7203 15.0109ZM39.1734 7.62704C39.1728 7.59432 39.2062 7.59358 39.2062 7.56012L39.1393 7.56071L39.1398 7.59432C39.1398 7.62778 39.1398 7.62778 39.1734 7.62704ZM39.2308 15.9157H39.1974V15.882L39.2304 15.8486C39.2638 15.8486 39.2638 15.8816 39.2308 15.9157ZM38.9451 8.09639C38.9122 8.13044 38.9464 8.19618 38.9799 8.19558L38.9451 8.09639ZM39.074 16.815C39.0407 16.8154 39.0071 16.7833 39.0065 16.7498C39.04 16.7498 39.0734 16.7827 39.074 16.815ZM38.7523 8.73052C38.7515 8.69765 38.7515 8.66419 38.7181 8.66419L38.7187 8.73126L38.7523 8.73052ZM38.6562 9.09726C38.6232 9.06439 38.5905 9.06498 38.5568 9.06498L38.6239 9.13146C38.6568 9.13072 38.6568 9.13072 38.6562 9.09726ZM38.395 9.50013L38.362 9.53418C38.395 9.50013 38.4625 9.56646 38.4956 9.56572L38.4944 9.43247C38.4608 9.43321 38.4279 9.43321 38.3943 9.46726L38.395 9.50013ZM37.8334 22.055V22.0216L37.8007 22.055H37.8334ZM36.1792 16.9134C36.1128 16.9478 36.08 16.9805 36.0807 17.0141C36.1469 17.0135 36.1799 16.98 36.1792 16.9134ZM35.1493 13.9632C35.1158 13.9632 35.1158 13.9632 35.1158 13.9959C35.1493 13.9953 35.1822 13.9953 35.2149 13.9625L35.1493 13.9632ZM34.7414 22.4218L34.7421 22.4553L34.7091 22.4558V22.4224L34.7414 22.4218ZM34.5504 14.0688C34.584 14.068 34.6175 14.0674 34.6175 14.101L34.618 14.168L34.4846 14.1693C34.4846 14.1357 34.5175 14.1022 34.5504 14.0688ZM34.4265 23.9557L34.4272 23.9893L34.3601 23.99C34.3594 23.9564 34.3929 23.9564 34.3929 23.9236L34.4265 23.9557ZM33.8908 26.7904L33.8585 26.7911L33.8245 26.7589V26.7254C33.8573 26.7254 33.8903 26.7583 33.8908 26.7904ZM46.7556 0.987797C46.7892 1.02007 46.8227 1.02008 46.8227 0.987059C46.8555 0.987059 46.8561 1.0528 46.9561 1.01859C46.9568 1.08433 46.9572 1.11794 46.9245 1.1514C47.159 1.41583 47.2975 1.87926 47.3342 2.14621L47.4808 3.37598C47.5144 3.40885 47.4815 3.44231 47.415 3.44305L47.4833 3.57512C47.4846 3.67565 47.4177 3.70985 47.4183 3.74272C47.4202 3.90899 47.4216 4.07541 47.4564 4.20881C47.3588 4.37567 47.4986 5.0067 47.3342 5.14202C47.4378 5.50625 47.2147 6.4744 47.2172 6.707C47.2184 6.74061 47.185 6.77348 47.1521 6.80709C47.1882 7.0733 47.0624 7.64036 47.0976 7.8737C46.9681 8.17471 46.9035 8.40805 46.9383 8.5074C46.8404 8.64198 46.8455 9.14094 46.7138 9.27626L46.7469 9.30854L46.7809 9.37487L46.7164 9.50901C46.6829 9.54306 46.6829 9.54306 46.6836 9.57593L46.7511 9.64108L46.6506 9.64182C46.6183 9.74235 46.6235 10.1754 46.5248 10.3094C46.526 10.4088 46.4306 10.7432 46.466 10.9095L46.3989 10.9102C46.4331 11.0102 46.4672 11.0752 46.4679 11.1086C46.3344 11.1434 46.3718 11.4761 46.2719 11.4775C46.3074 11.6437 46.2769 11.9427 46.2781 12.0433C46.4117 12.075 46.6438 12.039 46.9423 11.9352L46.9435 11.9687C47.641 11.8947 48.0393 11.8239 48.2055 11.7557C48.2067 11.8885 48.4054 11.7525 48.5052 11.7518L48.5059 11.8181C48.8049 11.8156 49.369 11.7095 49.6694 11.7056L49.67 11.7727C50.1013 11.6683 50.5679 11.664 51.0668 11.6905C51.3983 11.521 51.6664 11.717 52.0659 11.7126C52.0659 11.6797 52.0318 11.6476 51.9988 11.6803C52.1652 11.6128 52.2973 11.6443 52.3985 11.7431C52.4983 11.7083 52.6982 11.7391 53 11.903C52.8356 12.0712 52.5704 12.2071 52.2379 12.2774C52.1072 12.4113 51.9085 12.4803 51.6081 12.4835C51.5746 12.517 51.4103 12.5858 51.0783 12.6889L50.9132 12.8578C50.8796 12.8585 50.8469 12.8585 50.8462 12.8255C50.7145 12.9268 50.2815 12.8975 50.1481 12.9323C50.1152 12.933 50.1152 12.9666 50.1159 13.0328C50.1159 12.9993 50.0172 13.0341 50.0172 13.0341C49.9843 13.0676 49.9508 13.0683 49.9508 13.0349C49.9172 13.0353 49.8844 13.0689 49.8851 13.1347C49.7844 13.136 49.7175 13.1037 49.6846 13.0714C49.6516 13.1043 49.4183 13.1397 49.386 13.2402C49.1541 13.2758 48.5539 13.1828 48.4559 13.3502C48.3561 13.3181 48.1568 13.4206 48.0564 13.3212C47.9563 13.3553 47.792 13.4906 47.6922 13.5254C47.694 13.6589 47.9911 13.5224 48.0917 13.5211C48.0917 13.5547 48.0582 13.5552 48.059 13.5882L48.1259 13.5868C48.2251 13.5862 48.1247 13.5211 48.1247 13.4876L48.1903 13.4534C48.2581 13.5199 48.2908 13.5186 48.2904 13.4521C48.3244 13.4856 48.325 13.5849 48.2921 13.6185C48.1595 13.6204 47.7611 13.7241 47.5942 13.693C47.4941 13.6943 47.4614 13.7278 47.4618 13.7613C47.1964 13.7645 46.7639 13.8353 46.5969 13.8374C46.5963 13.8037 46.6297 13.8037 46.6626 13.7695H46.6961C46.6949 13.6698 46.6613 13.6702 46.5628 13.7715C46.5292 13.7721 46.0639 13.743 46.0645 13.8436L46.1973 13.8424L46.0658 13.9752C46.067 14.0421 46.067 14.0757 46.0335 14.0757C46.1004 14.1085 46.1012 14.1755 46.0683 14.2091C46.0689 14.2426 46.1037 14.3754 46.1398 14.6403C46.1075 14.6739 46.0739 14.6743 46.0405 14.6743C46.1101 14.9407 46.0449 15.1081 45.8798 15.21C45.8804 15.2765 45.8475 15.3092 45.8148 15.3099C45.8489 15.4756 45.8501 15.5762 45.8185 15.6432L45.7186 15.6437C45.7192 15.6773 45.7532 15.7765 45.7546 15.8766L45.6876 15.8778C45.6882 15.9106 45.6908 16.1432 45.7242 16.1762C45.725 16.2098 45.725 16.2426 45.6915 16.2433C45.6919 16.2768 45.6295 16.6105 45.7292 16.6093C45.5997 16.9768 45.7768 17.8733 45.6142 18.2408C45.6472 18.2736 45.6807 18.2736 45.7143 18.273C45.6825 18.4072 45.6876 18.8724 45.5562 19.0073C45.6908 19.1728 45.6592 19.3062 45.4928 19.3744C45.4934 19.4081 45.5605 19.4403 45.5283 19.5409L45.3943 19.5428C45.3969 19.6744 45.3 20.0093 45.3348 20.1751L45.4017 20.1744L45.4023 20.2415L45.5693 20.2396C45.67 20.337 45.5377 20.4388 45.539 20.5386C45.4734 20.6063 45.3702 20.3401 45.3733 20.5742C45.4068 20.6069 45.4734 20.6063 45.5732 20.6057L45.5739 20.6714C45.4093 20.8404 45.377 20.9744 45.5119 21.0711C45.5123 21.1381 45.4796 21.1716 45.446 21.1723L45.4796 21.205L45.5137 21.2381C45.4145 21.3392 45.3487 21.4397 45.3505 21.5395L45.2165 21.541C45.2196 21.8399 45.2217 21.9735 45.1881 22.0075C45.2235 22.1396 45.2906 22.2062 45.3575 22.2385C45.3575 22.2055 45.4561 22.1044 45.422 22.005C45.522 22.0031 45.5562 22.0361 45.7553 22.034C45.7901 22.1341 45.6567 22.1353 45.6567 22.1689C45.6232 22.1359 45.5566 22.1032 45.5232 22.1036C45.4897 22.1036 45.4574 22.2041 45.4238 22.1714C45.4251 22.3047 45.4259 22.3717 45.3923 22.3717L45.4259 22.4033L45.4601 22.4698C45.4613 22.5697 45.429 22.6702 45.3632 22.7044C45.4644 22.803 45.3646 22.8706 45.3994 22.9706C45.3658 22.9712 45.2981 22.9049 45.2652 22.9384L45.2324 22.9724C45.1995 23.0059 45.1995 23.0059 45.1672 22.9732C45.0686 23.14 45.1369 23.3058 45.0711 23.3734L45.0773 23.9052C45.209 23.8704 45.1059 23.539 45.2051 23.5377L45.2026 23.2716C45.2362 23.2716 45.3025 23.3038 45.336 23.3038C45.302 23.2703 45.2685 23.2376 45.2355 23.238C45.2678 23.171 45.3008 23.1369 45.3671 23.1027C45.4012 23.1363 45.3696 23.3032 45.4031 23.3361L45.336 23.3366C45.3367 23.4037 45.3379 23.4367 45.3045 23.4367C45.3051 23.4702 45.4373 23.4354 45.4379 23.4689L45.3715 23.5029L45.3727 23.5695C45.2728 23.6042 45.2405 23.7049 45.2424 23.8697V23.9033L45.2097 23.9375C45.243 23.9367 45.2424 23.9033 45.2424 23.8697L45.341 23.7705C45.3745 23.7368 45.3741 23.7035 45.4075 23.7028C45.4764 23.9342 45.4114 24.1011 45.2457 24.2029C45.2445 24.1037 45.2109 24.0373 45.1444 23.9709C45.1115 24.005 45.0794 24.1057 45.0819 24.3383C45.0483 24.339 45.0483 24.339 45.0149 24.306H44.9813C44.9838 24.473 45.0186 24.6046 45.0522 24.6709C45.0528 24.7044 45.0528 24.738 45.0205 24.8049C44.9884 24.9056 44.9888 24.9719 45.0553 24.9714C45.0224 25.0048 45.0243 25.1717 45.0269 25.4373C44.994 25.4373 44.994 25.4373 44.9946 25.4709L44.9283 25.505C44.9288 25.572 44.9623 25.6049 44.9958 25.6043C45.0294 25.637 45.0294 25.637 44.9965 25.637L44.93 25.6712C44.93 25.7048 44.9635 25.7376 44.9971 25.7376C44.9978 25.7706 44.9648 25.8046 44.932 25.9052C44.966 25.9382 44.9656 25.9047 44.9983 25.8711C45.0319 25.8369 45.0648 25.8034 45.0984 25.8363C45.099 25.8699 45.1324 25.9026 45.1654 25.9026L45.1332 25.9357L45.099 25.9034C45.1344 26.0683 45.1369 26.3347 45.1386 26.5015C45.04 26.6027 45.0408 26.6355 45.14 26.6344V26.6013C45.1394 26.5686 45.1723 26.535 45.2387 26.5665C45.1394 26.535 45.369 26.2991 45.2678 26.2005C45.3335 26.1329 45.3671 26.0993 45.3664 26.0658C45.4334 26.0652 45.4676 26.1311 45.4681 26.2309L45.4365 26.3985C45.4038 26.432 45.3708 26.466 45.3045 26.4667C45.3051 26.5002 45.3385 26.5331 45.3708 26.4983L45.4379 26.4978C45.4386 26.5984 45.4727 26.6634 45.4734 26.697C45.4404 26.7312 45.3741 26.7316 45.274 26.7324C45.3766 26.9644 45.2134 27.2002 45.2475 27.3653L45.1817 27.3659C45.2177 27.5987 45.219 27.7321 45.1204 27.8332C45.1603 28.4649 45.1974 28.8305 45.1666 28.9968C45.2672 29.1629 45.2697 29.3622 45.2392 29.5954C45.2399 29.629 45.2728 29.6613 45.3393 29.6607C45.341 29.7941 45.3758 29.9269 45.243 29.9287C45.343 30.0274 45.3157 30.527 45.2811 30.3934L45.2482 30.3941C45.2811 30.427 45.25 30.561 45.3505 30.6598C45.3171 30.6598 45.2519 30.7274 45.2184 30.7274C45.185 30.6946 44.9845 30.6641 44.9515 30.6641C44.987 30.897 44.7239 31.2319 44.827 31.4646L44.7935 31.4981L44.7941 31.5645C44.8277 31.564 44.8277 31.564 44.8277 31.5311C44.8282 31.6304 44.3647 31.7683 44.3325 31.9023C44.2996 31.9359 44.0999 31.9048 44.0676 32.0389L44.034 32.0053L44.0005 32.0059C44.0695 32.2381 44.1043 32.3709 44.0714 32.4043C44.0707 32.3709 44.0361 32.2385 44.0024 32.2058C43.9367 32.2729 43.9031 32.3069 43.8716 32.3069C43.9374 32.3398 43.9709 32.3721 43.9722 32.4714C43.8733 32.5062 43.8072 32.5074 43.7728 32.4744C43.7078 32.6415 43.5757 32.6763 43.3738 32.5782C43.3397 32.479 43.3055 32.379 43.2038 32.248L43.2025 32.114C43.0698 32.0825 43.1329 31.7484 43.0324 31.7492C43.0642 31.5837 43.1299 31.4495 43.1615 31.3824C43.0617 31.3508 43.0919 31.0498 42.9585 31.0182C42.9908 30.919 42.9561 30.7856 42.8535 30.5535H42.8864C42.9198 30.5527 42.9198 30.5527 42.9198 30.5193C42.8195 30.4871 42.8491 30.2215 42.8162 30.1885L42.815 30.1216C42.8473 30.0216 42.8473 30.0216 42.8125 29.9218L42.746 29.9224L42.8125 29.8884L42.7099 29.6897C42.7069 29.3577 42.6714 29.1574 42.6366 29.0587C42.6992 28.7254 42.5299 28.4276 42.5253 28.0615C42.5253 28.028 42.6259 28.0607 42.6587 28.0267L42.6252 27.9937L42.6246 27.9269C42.6581 27.9604 42.7251 27.9596 42.7574 27.9254L42.7567 27.8591L42.5556 27.7611L42.5519 27.3621C42.4856 27.3957 42.4512 27.3634 42.4508 27.2635C42.4843 27.2963 42.5842 27.295 42.6834 27.2275C42.6493 27.161 42.6486 27.1274 42.6822 27.0939C42.6145 27.0283 42.5811 26.9953 42.5476 26.9961V27.0289C42.5146 27.0631 42.481 27.0631 42.4475 27.0301C42.4817 27.0966 42.4823 27.1629 42.4835 27.2292C42.45 27.23 42.416 27.1306 42.3812 26.8973C42.4127 26.8967 42.4458 26.8632 42.5463 26.8621C42.5455 26.7954 42.5113 26.7297 42.411 26.6976C42.4425 26.564 42.4754 26.4971 42.5088 26.4971C42.4083 26.4978 42.5398 26.3637 42.44 26.3314C42.4736 26.3307 42.5734 26.3302 42.6064 26.3295C42.6064 26.2959 42.5063 26.2636 42.5386 26.2303L42.5368 26.0304C42.6681 25.863 42.6265 25.0642 42.6581 24.8979C42.6575 24.8645 42.6575 24.8645 42.6239 24.831L42.5898 24.798C42.6536 24.5646 42.6519 24.3985 42.5842 24.2998C42.6184 24.3326 42.6184 24.3326 42.6511 24.2992C42.6171 24.2657 42.6171 24.2327 42.6507 24.2321C42.6499 24.1986 42.6163 24.1992 42.55 24.1998C42.6455 23.7662 42.6101 23.567 42.5096 23.5347L42.5063 23.2348C42.5393 23.2343 42.5393 23.2343 42.5393 23.2678C42.5398 23.3014 42.5411 23.3349 42.5746 23.3671L42.6068 23.3329H42.6405C42.6399 23.2666 42.6064 23.2336 42.5728 23.2343C42.5393 23.2343 42.5393 23.2343 42.5063 23.2013C42.5386 23.1679 42.538 23.1015 42.5368 22.9687L42.6031 22.9347C42.7029 22.9339 42.5676 22.7348 42.5651 22.5349C42.7302 22.3673 42.6234 21.7687 42.7214 21.6015C42.6878 21.6029 42.6878 21.6029 42.6878 21.5693C42.7207 21.5358 42.7189 21.3353 42.6847 21.3019C42.6847 21.2692 42.7845 21.2344 42.7839 21.2008L42.7845 21.2678C42.7853 21.3011 42.7853 21.3011 42.8187 21.3342H42.8523C42.9181 21.3 42.9173 21.2329 42.8168 21.1343L42.7833 21.1685L42.717 21.2025C42.6815 20.9699 42.6772 20.6366 42.6751 20.4033C42.641 20.3706 42.641 20.3706 42.6739 20.337L42.741 20.3362C42.7404 20.3028 42.7404 20.2705 42.7069 20.2705C42.6733 20.2378 42.6733 20.2378 42.7062 20.2048C42.7733 20.2034 42.7682 19.804 42.7017 19.8046C42.6681 19.7382 42.7012 19.7046 42.7669 19.7034C42.7334 19.6704 42.7632 19.3044 42.6285 19.2064C42.7277 19.1053 42.5919 18.9067 42.5904 18.7744L42.6909 18.7732C42.6898 18.7069 42.6898 18.6732 42.7226 18.6728L42.6561 18.6398L42.5891 18.641C42.6221 18.6069 42.6184 18.3071 42.7176 18.206L42.5842 18.2073C42.5829 18.1087 42.7163 18.1074 42.7157 18.0074C42.6486 18.0082 42.6486 17.9746 42.6809 17.874C42.7137 17.8406 42.846 17.7722 43.0432 17.6041L43.0418 17.47C43.0749 17.4377 43.0749 17.4377 43.1085 17.4694L43.1425 17.5028C43.1754 17.5023 43.1742 17.3694 43.2747 17.3687C43.2753 17.4353 43.2094 17.5351 43.0774 17.7039C43.078 17.7698 43.1122 17.8025 43.1785 17.7685C43.1785 17.8019 43.1456 17.836 43.1122 17.836C43.0799 17.8696 43.0472 17.9372 43.147 17.9361L43.2133 17.9353C43.1804 17.9689 43.1804 17.9689 43.147 17.9695C43.1147 18.0031 43.0812 18.0036 43.0476 18.0036C43.1487 18.1022 43.1818 18.1017 43.2145 18.0681C43.2493 18.1667 43.1507 18.268 42.9856 18.3703L43.1191 18.4349L43.2197 18.4671C43.1862 18.4679 43.1532 18.5347 43.1545 18.6347L43.1209 18.6353C43.1216 18.6688 43.123 18.8016 43.09 18.8351C43.157 18.8669 43.2583 18.966 43.2576 18.9325L43.2583 18.966C43.2595 19.066 43.1949 19.2336 43.2293 19.3334C43.1627 19.3669 43.1299 19.4005 43.164 19.5003C43.1311 19.5003 43.0988 19.6331 43.0001 19.6344C43.1002 19.7667 43.0364 20.0006 43.0712 20.1334L42.9718 20.1352C43.0059 20.1675 43.0389 20.2005 43.0716 20.2005L43.0737 20.3325C43.0401 20.3666 42.9086 20.4014 42.8763 20.5013C42.8763 20.5342 42.9105 20.5677 42.9768 20.5665C43.0103 20.5665 43.0103 20.5329 43.0091 20.4994L43.0121 20.7335C42.9805 20.8996 43.0153 21.0324 43.0818 21.0647C43.1147 21.0647 43.147 20.9984 43.1456 20.865C43.2456 20.8302 43.245 20.7638 43.176 20.5982C43.176 20.5647 43.2094 20.5647 43.2425 20.564C43.209 20.5311 43.2413 20.4306 43.3055 20.2643C43.3385 20.2307 43.4731 20.2945 43.3733 20.3288C43.4068 20.3623 43.4404 20.3616 43.4731 20.3281L43.4404 20.3952C43.4416 20.4951 43.575 20.4939 43.5744 20.3938C43.608 20.4269 43.575 20.4939 43.4756 20.5949C43.4764 20.6285 43.5435 20.6272 43.5439 20.7271C43.5104 20.6942 43.4441 20.7618 43.4114 20.7618L43.4782 20.8284L43.5124 20.8611C43.513 20.9612 43.3473 21.028 43.3821 21.1281C43.4157 21.1608 43.4478 21.0275 43.4814 21.0268C43.5149 21.0597 43.5149 21.0933 43.5156 21.1267L43.5497 21.1931L43.4826 21.1938C43.4833 21.2273 43.551 21.2924 43.551 21.3259C43.3842 21.3284 43.4524 21.4604 43.3531 21.5617L43.4536 21.5605C43.4536 21.594 43.4542 21.6276 43.4206 21.6611L43.389 21.7268C43.389 21.7604 43.4238 21.8931 43.458 21.9265C43.458 21.9596 43.3246 21.9943 43.3252 22.0278C43.2601 22.1612 43.2987 22.6271 43.1317 22.6285C43.0994 22.729 43.202 22.9612 43.1027 22.9624C43.1027 22.996 43.1354 22.9952 43.169 22.9952C43.2025 22.9946 43.2025 22.9946 43.2361 23.0275C43.2373 23.1263 43.238 23.1933 43.2715 23.226C43.2721 23.2595 43.2385 23.2595 43.2385 23.2931C43.2733 23.4265 43.1437 23.7275 43.245 23.8261C43.2127 23.9261 43.0805 23.9937 43.0484 24.0278L43.1159 24.2265C43.1818 24.1921 43.2158 24.2257 43.2158 24.2592L43.217 24.3257C43.25 24.3257 43.2145 24.0923 43.3473 24.0583C43.3157 24.1909 43.2841 24.3585 43.2867 24.5571C43.2537 24.5907 43.1564 24.8588 43.0577 24.8929C43.0584 24.9263 43.0261 25.0269 42.9946 25.1937C42.9946 25.2273 43.0617 25.2268 43.193 25.2248L43.2272 25.2577C43.2608 25.29 43.2613 25.3236 43.2285 25.3571C43.1949 25.324 43.1622 25.3576 43.0957 25.4253C43.0635 25.4589 43.0642 25.4924 43.0306 25.4924C43.1311 25.591 43.1325 25.7244 43.0349 25.8591L43.0691 25.9254C43.1342 25.9243 43.1672 25.8579 43.1659 25.7244C43.1995 25.7573 43.233 25.7567 43.3001 25.7561C43.3001 25.7895 43.3005 25.8231 43.267 25.8566L43.2348 25.9229C43.4822 27.185 43.3403 26.4548 43.3436 26.7204C43.4099 26.7532 43.4441 26.786 43.4782 26.8853C43.4114 26.8524 43.3791 26.8865 43.3796 26.9866L43.2798 26.9878C43.3138 27.0541 43.281 27.1212 43.2481 27.1546C43.2815 27.1876 43.2823 27.2213 43.25 27.321C43.2506 27.3868 43.2835 27.3868 43.3505 27.3533L43.3494 27.2532C43.3828 27.2528 43.5156 27.218 43.5485 27.218C43.5162 27.2515 43.4499 27.2855 43.3828 27.2863C43.4169 27.3191 43.4847 27.4179 43.4847 27.4513C43.3846 27.4527 43.3183 27.4867 43.2867 27.5867L43.3196 27.6195C43.3208 27.653 43.3208 27.653 43.3531 27.6189H43.3865C43.389 27.8521 43.324 27.9527 43.157 27.9875C43.1905 28.0205 43.2247 28.0539 43.2247 28.0875L43.2253 28.1531C43.2587 28.1525 43.2576 28.0197 43.3575 28.0191C43.3929 28.1848 43.3271 28.2846 43.1609 28.2867C43.1615 28.3201 43.1615 28.3536 43.1949 28.3865C43.1957 28.4199 43.1963 28.453 43.2293 28.453L43.2285 28.3859L43.2608 28.3524C43.2943 28.3517 43.3283 28.4182 43.3295 28.5187C43.5301 28.516 43.4942 28.2834 43.5592 28.2158C43.5935 28.2486 43.5965 28.5148 43.6313 28.6148C43.5655 28.7494 43.534 28.8816 43.5686 29.015C43.7008 28.9133 43.7666 28.8791 43.7666 28.8791C43.73 28.5806 43.795 28.3801 43.9595 28.2784C43.8584 28.179 43.8261 28.1463 43.7926 28.1463C43.7913 28.0476 43.7578 28.0147 43.7242 27.9817C43.7565 27.8813 43.6846 27.4488 43.7836 27.3489C43.7502 27.3495 43.7811 27.1154 43.6813 27.1161C43.7128 26.9827 43.6755 26.6179 43.7735 26.4497C43.7401 26.4167 43.7393 26.3832 43.7388 26.3169C43.7724 26.3169 43.7724 26.3169 43.8051 26.2835L43.8374 26.2491C43.8033 26.1166 43.8639 25.6505 43.7633 25.5512C43.8286 25.4499 43.8609 25.3166 43.8576 25.0845C43.8907 25.0839 43.8918 25.151 43.8918 25.1837L43.8924 25.2173H43.9255C44.091 25.0484 44.1225 24.8809 43.9879 24.7827C44.0208 24.7493 44.0202 24.6824 44.0195 24.5824C43.8855 24.5843 43.9222 24.884 43.8223 24.9181L43.9172 24.4181C43.8837 24.385 43.8837 24.385 43.8507 24.4185L43.7513 24.4533C43.7844 24.3529 43.8141 24.0861 43.8134 24.0525C43.7811 24.0525 43.7476 24.0866 43.7154 24.1871C43.6831 24.2878 43.6502 24.3212 43.5839 24.322C43.6788 23.8874 43.7433 23.6875 43.709 23.6541C43.7426 23.6212 43.7741 23.4544 43.771 23.1539L43.8362 23.1197C43.869 23.1197 43.869 23.1197 43.869 23.0875C43.8344 22.9542 43.9303 22.5861 43.7956 22.4881C43.8957 22.4541 43.8924 22.1884 43.8576 22.055C43.9562 21.9203 43.9872 21.6882 43.9494 21.3222C43.9164 21.3222 43.8837 21.3226 43.8837 21.3556C43.8812 21.1888 43.9139 21.1223 43.9474 21.1223C43.9469 21.0888 43.8799 21.0559 43.7805 21.0573C43.7476 21.0573 43.7482 21.0907 43.7154 21.1578C43.7154 21.1248 43.7148 21.0913 43.7476 21.0573C43.7799 21.0237 43.7799 20.9914 43.747 20.9579C43.9785 20.8889 43.8741 20.4907 44.0057 20.3558C44.005 20.3223 44.0365 20.1226 44.0024 20.0234C44.1022 20.0226 44.034 19.8898 44.067 19.8558C44.067 19.8222 44.0335 19.8229 43.9999 19.8229C43.9999 19.7899 43.9665 19.7899 43.9329 19.7906C44.096 19.4895 44.1271 19.2563 43.9595 19.1583C44.1592 19.1223 44.1573 18.9559 43.9537 18.6257C43.9872 18.6257 43.9867 18.5923 43.986 18.5589C44.0183 18.4584 44.0512 18.4248 44.0848 18.4577C44.0848 18.4242 44.0506 18.3913 44.017 18.3591C44.0506 18.3583 44.117 18.3243 44.1504 18.3243C44.182 18.1903 44.2149 18.1238 44.2149 18.1238C44.2136 18.0902 44.1809 18.0239 44.1465 17.9916C44.1788 17.9581 44.1113 17.7917 44.2106 17.7571L44.0771 17.6919C44.2093 17.6571 44.1068 17.4263 44.206 17.3258C44.1043 17.1931 44.4015 16.923 44.2996 16.7574C44.4312 16.7239 44.3952 16.3906 44.4937 16.2894C44.4925 16.1565 44.3262 16.1585 44.2586 16.0921C44.2922 16.0587 44.2909 15.9593 44.2897 15.8265C44.2561 15.8265 44.2231 15.8606 44.1903 15.9276L44.0916 15.9947C44.0923 16.0939 44.1264 16.1605 44.1606 16.1933C44.0608 16.2281 44.0272 16.2615 44.0278 16.2951C44.1283 16.3267 44.062 16.3943 44.0968 16.4943C44.0968 16.5277 43.9639 16.4955 43.9644 16.5955C43.73 16.498 43.635 16.8649 43.7356 16.9971C43.6705 17.0646 43.6375 17.098 43.604 17.0988L43.738 17.1968C43.6738 17.3309 43.6415 17.398 43.608 17.3985C43.608 17.365 43.5396 17.2322 43.5711 17.1324C43.4714 17.1336 43.4731 17.2664 43.3726 17.2677C43.3726 17.2341 43.4358 16.9002 43.4669 16.7668C43.5674 16.7991 43.6332 16.6992 43.6668 16.6992C43.6324 16.5992 43.73 16.498 43.7285 16.3982C43.6966 16.3989 43.6313 16.4664 43.5307 16.4337C43.5649 16.5329 43.5319 16.5998 43.4321 16.6013C43.3979 16.502 43.3639 16.4355 43.3639 16.4355C43.3303 16.4362 43.3651 16.5683 43.2645 16.4703C43.2653 16.5702 43.3001 16.6696 43.367 16.7023C43.3012 16.8022 43.2013 16.8364 43.0349 16.8047C43.0356 16.9047 43.2682 16.8692 43.269 16.9028L43.1375 17.0704L43.1382 17.1038L43.2044 17.1361C43.1052 17.1373 43.0393 17.238 43.0059 17.2386C43.0066 17.272 43.0401 17.3049 43.14 17.3037C43.1412 17.4035 43.0749 17.4377 42.909 17.439C42.9409 17.3062 42.9731 17.1721 42.9718 17.0715L42.9047 17.0723L42.8055 17.0741C42.8378 17.0406 43.0029 16.9387 43.0016 16.8382C42.9693 16.8053 42.9351 16.7726 42.8688 16.7731C42.8674 16.6746 42.9333 16.6068 42.8991 16.507C42.9326 16.507 42.9674 16.6398 42.9345 16.6739C43.0001 16.6733 42.9996 16.6062 42.9653 16.4727C42.9653 16.4399 43.0294 16.3387 42.8636 16.3413C42.863 16.2743 42.8593 15.9423 43.0248 15.9404L42.9591 15.9411C42.9264 15.9416 42.9264 15.9416 42.9256 15.9081L43.0149 15.0078C43.1481 15.0063 43.214 14.9388 43.212 14.7725C43.1785 14.7731 43.1134 14.8738 43.0128 14.8415C43.0128 14.8079 43.0121 14.7749 43.0451 14.6743C43.0762 14.5417 43.0418 14.4752 43.0084 14.4425C43.0749 14.4083 43.1071 14.3076 43.1046 14.075C43.0047 14.0757 42.4077 14.2824 42.0423 14.2861C42.0763 14.3862 42.144 14.4185 42.3085 14.3501C42.5423 14.381 42.6751 14.3797 42.741 14.2786L42.9731 14.2766V14.2432C43.0072 14.3424 42.9105 14.4773 42.7442 14.579C42.7447 14.6113 42.8112 14.6105 42.9446 14.6093C42.846 14.7099 42.445 14.6144 42.4123 14.7149C42.2793 14.6826 42.1794 14.6503 42.1465 14.6838V14.7174L42.1806 14.7504C42.0808 14.7851 41.7804 14.7211 41.7811 14.8216C41.5497 14.8908 41.3839 14.959 41.3512 14.9931C41.2505 14.9608 41.1836 14.928 41.1499 14.928C41.1165 14.9293 41.1172 14.9623 41.1184 14.9956C41.0849 14.9956 40.6859 15.0335 40.6859 15.0008C40.6525 15.0008 40.6525 15.0343 40.6529 15.0679C40.5197 15.0691 40.0884 15.1404 40.087 15.0399L40.0548 15.107C40.0213 15.1412 40.022 15.1746 39.9884 15.1746C39.8879 15.1423 39.556 15.2794 39.4547 15.1804C39.3574 15.2815 39.1241 15.2512 39.0247 15.3517C39.0603 15.5174 38.8977 15.8853 39.0001 16.1167C38.8996 16.0844 38.8654 16.0194 38.8314 15.9197L38.8318 15.9866C38.8661 16.0522 38.8661 16.0844 38.8331 16.1188C38.9348 16.2843 39.004 16.5165 39.0065 16.7498C38.9729 16.7504 38.9414 16.8161 38.8756 16.9507C38.842 16.9507 38.8408 16.7852 38.7407 16.8187C38.7085 16.8187 38.7085 16.8521 38.7092 16.8857C38.7098 16.9855 38.6777 17.019 38.6106 16.9869C38.6777 17.019 38.6454 17.1191 38.5164 17.4876C38.5487 17.4876 38.617 17.6186 38.7175 17.6515C38.6858 17.7849 38.6877 17.9183 38.7212 18.0176C38.6214 17.9854 38.5854 17.7192 38.5518 17.6861C38.5184 17.6869 38.4531 17.821 38.4196 17.8215L38.4531 17.8545C38.4867 17.8537 38.5201 17.8537 38.4867 17.8866L38.4203 17.8881C38.4551 18.0206 38.391 18.2205 38.3918 18.3206H38.3583C38.3254 18.354 38.3254 18.354 38.292 18.3546C38.3268 18.488 38.1977 18.8226 38.2317 18.9212C38.2325 18.9547 38.199 18.9553 38.1654 18.9553C38.2362 19.3542 38.1712 19.4883 38.2407 19.7199L38.0155 20.3881L37.9485 20.3558C37.817 20.4907 37.8549 20.9566 37.8228 21.0565C37.9585 21.2874 37.9277 21.5213 37.7638 21.7887C37.8327 21.9545 37.8012 22.1221 37.7031 22.289L37.7064 22.5881C37.7412 22.7543 37.7424 22.8549 37.7089 22.8549C37.6753 22.822 37.6084 22.7891 37.5755 22.7897C37.5761 22.8233 37.6463 23.1557 37.6134 23.2551L37.5135 23.2564C37.6165 23.5547 37.4249 24.3224 37.4617 24.5559C37.3654 24.8556 37.3037 25.2894 37.2436 25.8566C37.2156 26.3883 37.186 26.6887 37.1543 26.855C37.1216 26.889 37.2221 26.9208 37.2221 26.9543C37.2233 27.0877 37.0949 27.5214 37.1297 27.6537C37.0039 28.3542 36.9432 28.9208 36.9824 29.3868C36.883 29.5216 36.9552 30.0197 36.8579 30.1873C36.8952 30.6193 36.7736 31.6196 36.7788 32.152L36.7131 32.1526C36.7174 32.5175 36.6864 32.7521 36.6213 32.919L36.629 33.5844C36.5339 34.018 36.4473 35.2511 36.3195 35.7512C36.3539 35.8511 36.1907 36.1187 36.2919 36.2171C36.2603 36.3847 36.2273 36.4518 36.2608 36.4841C36.2285 36.5846 36.2311 36.8502 36.1331 36.9514C36.2356 37.1835 36.1097 37.7842 36.2115 38.0498C36.1792 38.1496 36.214 38.2817 36.2482 38.3818C36.2822 38.4145 36.2822 38.4481 36.2495 38.4816C36.2165 38.5158 36.2165 38.5486 36.2172 38.5816C36.3879 38.9793 36.159 39.3815 35.8617 39.518C35.7639 39.6844 35.466 39.8544 35.0012 39.9929C34.8678 39.962 33.9712 40.0713 33.9358 39.905C33.8359 39.9062 33.77 39.974 33.7025 39.9075L33.669 39.8746C33.4691 39.91 33.3027 39.8122 33.1669 39.58C33.0618 39.1487 33.0107 37.5186 33.0796 34.7218C33.0766 34.4227 33.1714 33.9548 33.1985 33.3559L33.2832 32.0564C33.3483 31.9231 33.347 31.7897 33.2787 31.6247C33.3415 31.3237 33.4032 30.8577 33.4627 30.1918C33.5223 29.5582 33.5836 29.0909 33.6474 28.7911C33.6804 28.7577 33.6469 28.7248 33.6133 28.7254L33.6126 28.6583C33.6462 28.6579 33.6456 28.6249 33.6789 28.6243C33.5773 28.492 33.8403 28.1235 33.705 27.9919L33.772 27.9912C33.6715 27.959 33.7367 27.7916 33.7032 27.7916C33.8359 27.7568 33.7993 27.4582 33.8327 27.4576C33.8656 27.4241 33.832 27.3912 33.7985 27.3912C33.7985 27.3912 33.7645 27.3591 33.7645 27.3255L33.8643 27.3247C33.8638 27.2242 33.894 27.0908 33.9592 26.9561C33.9592 26.9234 33.827 26.958 33.8264 26.8582C33.9586 26.8905 34.0231 26.6899 33.9219 26.5913C33.9553 26.5578 33.987 26.4238 34.0502 26.1569L34.0837 26.1563C34.1179 26.1899 34.1179 26.1899 34.1508 26.1886C34.1508 26.1555 34.1172 26.1228 34.0497 26.0575C34.1469 25.7901 34.2078 25.2571 34.238 25.0232C34.2716 25.0232 34.3043 24.9896 34.3373 24.9555C34.3039 24.9226 34.2695 24.8898 34.2695 24.8563C34.2691 24.7892 34.3018 24.7562 34.3689 24.755C34.3348 24.7228 34.5289 24.1878 34.3613 24.0891L34.3936 24.0227L34.4276 24.0886C34.4607 24.055 34.4941 24.0223 34.4929 23.923C34.4929 23.8895 34.4593 23.8895 34.3924 23.8899C34.3924 23.8572 34.5245 23.7888 34.5239 23.7554C34.551 23.2558 34.8394 22.1877 34.9337 21.6541L34.8666 21.6548C34.8666 21.6212 34.8995 21.6212 35 21.6199C35.0277 21.1861 35.3484 20.1181 35.344 19.6849C35.4097 19.5859 35.4735 19.3512 35.5369 18.9837C35.5704 18.9837 35.5698 18.9503 35.569 18.8844L35.5671 18.7846C35.7297 18.3161 35.889 17.7159 36.0131 16.949C36.0464 16.9482 36.0782 16.7819 36.1787 16.8142C36.1774 16.7143 36.1439 16.6816 36.1103 16.6816C36.1097 16.648 36.1755 16.6138 36.2097 16.6474C36.2425 16.6133 36.2089 16.581 36.1755 16.5815C36.1426 16.5815 36.1426 16.548 36.142 16.5151C36.1741 16.4809 36.2078 16.4809 36.2085 16.5474C36.3083 16.5132 36.3064 16.3464 36.2039 16.0819C36.3013 15.9139 36.3665 15.7134 36.3638 15.5129C36.2648 15.6142 35.9327 15.6842 35.8341 15.719C35.8669 15.685 35.8341 15.6862 35.8 15.6533C35.7664 15.6204 35.7329 15.6204 35.7329 15.587C35.4337 15.6908 34.7331 15.4978 34.4353 15.6343C34.3683 15.6349 34.3348 15.6022 34.3341 15.5356C34.3006 15.5356 34.3014 15.5692 34.3014 15.6027L33.3345 15.447C33.2333 15.3484 32.6293 14.9558 32.4934 14.6917C32.527 14.7238 32.6951 14.8547 32.7287 14.8547C32.5928 14.6238 32.5238 14.424 32.522 14.2242C32.6213 14.19 32.7894 14.3544 32.8228 14.3539C32.957 14.3862 33.2219 14.3166 33.2555 14.3159L33.3218 14.3153C33.2882 14.3159 33.2882 14.3159 33.2889 14.3493C33.3224 14.3489 33.3547 14.3153 33.454 14.2476L33.4546 14.3141L34.6833 14.034C34.6503 14.101 34.6515 14.1345 34.7174 14.1332C34.8172 14.1326 34.7161 14.0332 34.7161 14.0004C34.9159 13.9657 35.1814 13.9289 35.5471 13.8254C35.5806 13.8581 35.5806 13.8581 35.5476 13.8923L35.5148 13.9257C35.714 13.9238 35.8791 13.8221 36.0116 13.8202L36.0111 13.7202L36.178 13.7183L36.1774 13.652C36.3438 13.6835 36.6416 13.5799 36.7756 13.5787C36.8084 13.5451 36.8084 13.5451 36.8419 13.578C37.0089 13.6425 36.9747 13.5432 36.9412 13.5439L37.007 13.4761C37.0375 13.1772 37.3934 12.2742 37.4224 11.9067C37.456 11.9067 37.4553 11.8732 37.4888 11.8732C37.5533 11.64 37.6488 11.306 37.7797 11.0715L37.7785 10.9381C37.9088 10.6371 38.2305 9.70104 38.2615 9.53492L38.3938 9.40019L38.3602 9.36791C38.3268 9.33445 38.3268 9.33445 38.3595 9.30084C38.4588 9.19972 38.524 9.09918 38.5226 9.03211L38.6232 9.03093C38.6227 8.99806 38.6555 8.99747 38.6549 8.96519L38.5221 8.96712L38.6833 8.56484L38.7504 8.56366C38.7168 8.53138 38.7156 8.43159 38.7478 8.33091C38.7813 8.36378 38.8155 8.43026 38.8509 8.59638C38.9837 8.56173 38.8463 8.23038 38.8459 8.19751C38.9742 7.69604 39.5616 6.62498 39.688 5.99129C39.821 5.99011 39.8512 5.6897 39.9832 5.55511C39.9492 5.5215 39.9163 5.52209 39.8829 5.52283C40.1118 5.22109 40.2426 5.05304 40.2084 4.95369C40.3747 4.88544 40.4393 4.75056 40.4373 4.55142L40.5044 4.55098C40.5026 4.41817 40.701 4.2821 40.6656 4.11583C40.7656 4.14796 40.83 4.01456 40.7959 3.91536C40.8959 3.88131 40.9609 3.74717 40.9584 3.51383C40.9926 3.54684 41.0248 3.51323 41.0577 3.44631C41.0907 3.41196 41.1234 3.3785 41.1571 3.3785L41.1563 3.34504C41.1234 3.34504 41.0894 3.31217 41.1227 3.27871L41.1892 3.27797L41.188 3.1459C41.2203 3.11229 41.2866 3.07809 41.3537 3.11037V3.0775C41.3531 3.04404 41.3865 3.00983 41.4202 3.04329C41.3183 2.87717 41.5485 2.67537 41.5137 2.57543C41.6129 2.4749 41.6781 2.40783 41.6445 2.37511L41.6773 2.34165C41.7108 2.30804 41.7108 2.30804 41.7444 2.34091C41.8418 2.07277 42.1061 1.83677 42.2029 1.70351C42.2364 1.66946 42.2364 1.66946 42.2699 1.70292L42.2687 1.60239L42.8941 0.963813L42.8597 0.930796C42.8597 0.897187 42.8933 0.896742 42.9264 0.896742C43.0261 0.861948 43.0261 0.861947 43.0256 0.761859C42.9921 0.7626 42.9921 0.762601 42.9585 0.79621C42.9585 0.762601 43.157 0.627277 43.1222 0.52793C43.389 0.524228 43.5535 0.422362 43.6515 0.222631L43.5195 0.224558C43.5516 0.190356 43.8507 0.120768 43.883 0.0202363C44.1163 0.0511805 44.7473 -0.0555697 44.8821 0.0424451C45.1811 0.0727971 45.3487 0.17081 45.4506 0.336339C45.5839 0.301545 45.9502 0.396454 46.0505 0.395122C46.1182 0.461748 46.1511 0.494468 46.1845 0.494468C46.1859 0.627277 46.4192 0.691831 46.4527 0.7247C46.6518 0.655853 46.7544 0.887712 46.8219 0.95345L46.8227 0.987059L46.7556 0.987797Z" fill="white"/>
<path fill-rule="evenodd" clip-rule="evenodd" d="M10.3281 7.35189C7.78046 9.18752 5.65271 11.2007 3.82404 13.5076L3.17465 14.3256L3.97447 14.9985C6.25782 16.919 8.78341 18.4504 11.4807 19.5513L13.0629 20.197L12.9604 18.4909C12.7284 14.6223 12.4128 11.1218 12.0234 8.08715L11.7931 6.29579L10.3281 7.35189ZM13.4397 39.8731C13.4702 35.6656 13.4379 31.6187 13.3443 27.8278L13.2906 25.6507L11.5946 27.0166C9.00594 29.1014 6.66128 31.5238 4.39436 33.8665L4.32211 33.9405C3.68797 33.4746 3.01342 32.97 2.38728 32.4229C5.38902 29.4618 8.44065 26.5828 11.0617 24.2399L12.232 23.1928L10.8327 22.4796C7.38396 20.721 3.97447 18.5048 0.692008 15.8884L0.456299 13.2021C4.132 9.33913 7.99411 5.70518 11.9488 2.38867C13.173 2.59151 14.9771 3.14614 16.2676 3.70062C15.6415 5.1399 15.5765 6.85782 15.517 8.41347L15.4987 8.88134C15.1452 17.3735 15.6022 26.5671 16.9796 38.6091C15.8193 39.2048 14.5534 39.6543 13.4397 39.8731Z" fill="white"/>
</svg>
