<svg width="78" height="70" viewBox="0 0 78 70" fill="none" xmlns="http://www.w3.org/2000/svg">
<path d="M13.4113 64.5116L37.9728 50.3832C38.5775 50.0378 39.32 50.0321 39.9238 50.3659L64.3424 63.8958C64.9757 64.2469 65.3663 64.9087 65.3663 65.6338V68.0048C65.3663 69.3803 64.0028 70.3413 62.7076 69.8752L41.6912 62.2844C39.9187 61.6456 37.9728 61.6398 36.2002 62.2844L15.0737 69.881C13.7795 70.3471 12.4149 69.386 12.4149 68.0106V66.2323C12.4149 65.5245 12.7953 64.8626 13.4113 64.5116ZM37.829 0.297821L1.1185 21.4243C0.174612 21.9709 -0.239764 23.1163 0.140136 24.1406L11.5001 54.6821C11.9835 55.977 13.5143 56.5295 14.7117 55.8388L37.8524 42.5046C38.5367 42.1133 39.3771 42.1076 40.0625 42.4932L63.1573 55.5051C64.3312 56.1669 65.8273 55.6432 66.3281 54.3886L67.2368 52.1269C67.6519 51.0911 67.2368 49.9113 66.2761 49.3588L40.0625 34.3326C39.3771 33.9413 38.5429 33.9355 37.8524 34.3268L18.1823 45.4051C17.0023 46.0727 15.5061 45.5375 15.0054 44.2771L13.7907 41.1983C13.3767 40.1509 13.8081 38.9596 14.7922 38.4186L37.8636 25.7348C38.5429 25.3607 39.3659 25.3664 40.039 25.7462L68.4861 41.8486C69.6998 42.5392 71.2428 41.9521 71.6977 40.6286L72.5605 38.1194C72.9113 37.1008 72.486 35.9843 71.5528 35.4491L40.039 17.5454C39.3659 17.1598 38.5367 17.1541 37.8585 17.5339L12.7607 31.3631C11.5807 32.0134 10.0958 31.4781 9.60725 30.2236L8.47927 27.3691C8.07031 26.3275 8.49049 25.1419 9.46854 24.5953L37.8636 8.74605C38.5429 8.36625 39.3659 8.36625 40.0451 8.74605L73.8088 27.6166C75.0235 28.2956 76.5604 27.7087 77.0152 26.3907L77.7975 24.106C78.1432 23.0932 77.723 21.9768 76.796 21.4472L40.0625 0.297821C39.372 -0.0992737 38.5255 -0.0992737 37.8351 0.297821H37.829Z" fill="white"/>
</svg>
