<svg width="72" height="70" viewBox="0 0 72 70" fill="none" xmlns="http://www.w3.org/2000/svg">
<path d="M27.0283 66.2231C29.6976 68.3143 32.0332 69.5532 33.9232 69.9631C34.0293 69.9861 34.1364 70 34.2379 70C34.8029 70 35.2393 69.6223 35.3453 69.042C35.4242 68.3373 34.7431 67.7753 34.3912 67.4898C30.7859 64.5696 26.5839 60.7422 26.8896 58.1076C26.9685 57.4398 27.4636 56.8042 29.3221 56.9101C31.5279 57.0345 36.8835 58.6833 38.8018 59.1854L39.5021 59.365C39.8213 59.4479 40.0897 59.4848 40.322 59.4848C40.4517 59.4848 40.5723 59.4709 40.6829 59.4479H40.7111L40.8272 59.4065C41.2851 59.2499 41.5918 58.8952 41.6708 58.43C41.717 58.1537 41.6708 57.8636 41.5264 57.601C41.3505 57.2694 40.9422 56.9377 40.7438 56.8548C40.3637 56.6983 40.0897 56.5923 39.8168 56.4864C36.4437 55.1598 32.7132 53.2484 33.1395 50.6277C33.3808 49.1307 34.6923 48.3064 38.8672 48.5274C43.677 48.7807 50.1028 49.1307 54.3521 49.5269H54.3848C56.3764 49.7157 57.8131 49.8493 58.4063 49.8493C58.5078 49.8493 58.5913 49.8493 58.6522 49.8401H58.6894C59.3931 49.7618 60.5749 49.6374 60.7509 48.6794C60.8061 48.3754 60.7464 48.0806 60.5704 47.8319C60.3246 47.4819 59.8983 47.2608 59.2262 47.1411H59.2036L59.1619 47.1272C56.3911 46.7127 53.5277 46.4041 50.7569 46.1047C44.1349 45.3862 37.8805 44.7091 34.4285 42.7794C34.2616 42.6872 34.1037 42.5812 33.9604 42.4614C33.3763 41.9917 33.0571 41.3792 33.0008 40.6376C32.9455 39.8592 33.1812 38.9978 33.6864 38.1458C33.8725 37.8326 34.0947 37.524 34.3495 37.2246C34.9337 36.5384 35.749 35.8014 36.7775 35.0277C37.6808 34.3506 38.5797 33.7702 39.1728 33.3833C43.5101 30.5829 51.8959 25.0835 59.3514 19.7454L59.6525 19.5243C65.0363 15.66 69.378 12.9148 71.3798 10.3034C72.5842 8.73276 71.4767 7.9774 70.5779 8.2952C69.8043 8.56687 69.1796 8.83403 66.1076 10.8837L66.0839 10.8974C59.101 15.5632 42.7455 26.493 31.9677 28.8834C30.5874 29.192 29.3356 29.344 28.2519 29.344C25.0593 29.344 23.1962 28.0313 22.5568 25.3277C21.4776 20.7402 24.7807 15.227 27.4365 10.8008L27.8019 10.1882C28.5293 8.97217 29.4935 7.20818 30.1701 5.94613C30.3968 5.52244 32.3895 1.81006 32.4685 1.40018C32.5564 0.967222 32.4312 0.667843 32.3106 0.492819C32.1899 0.317794 31.9587 0.0921132 31.5324 0.0138147L31.4445 0H31.3746C31.0092 0 30.7171 0.225682 30.4758 0.469791C30.4013 0.525061 30.3416 0.589544 30.2908 0.663242C29.6277 1.40478 28.5902 2.93395 27.2922 4.8546C23.7714 10.0592 17.2193 19.7499 15.2265 21.0626C13.818 21.9884 11.9099 22.5457 10.1213 22.5457H10.0841C8.91125 22.5412 7.24784 22.2924 5.9735 21.1317C5.23258 20.4593 4.59767 19.5426 4.02817 18.3267C3.444 17.0832 2.92525 15.531 2.38281 13.4353L2.37377 13.3939C2.23957 12.8733 1.78961 12.5234 1.24829 12.5234C0.61338 12.5234 0.112671 12.9977 0.079967 13.6242L0.0619332 14.0019C-0.0677561 16.5857 -0.30909 21.3896 3.08313 28.0083C3.26808 28.3721 3.61992 28.9756 4.1071 29.3624C4.44091 27.9853 5.29347 26.8154 6.28926 26.1752C11.4001 22.9096 19.3089 27.5845 25.0356 35.6494C30.8231 43.7972 29.8645 52.12 25.6242 54.1328C22.9741 55.3901 18.9797 54.3216 15.6021 52.1246C15.6021 52.1246 15.5231 52.3273 15.9314 53.3636C16.1817 53.9992 16.9136 55.5007 18.5771 57.7576C20.5506 60.4428 23.6642 63.5932 27.0193 66.2186L27.0283 66.2231Z" fill="white"/>
</svg>
