<svg width="35" height="70" viewBox="0 0 35 70" fill="none" xmlns="http://www.w3.org/2000/svg">
<path d="M34.7024 26.0686C34.7128 25.7897 34.5877 25.5084 34.3156 25.2968L12.8142 8.40982V2.16346C12.8142 0.96846 11.8437 0 10.647 0C9.45025 0 8.47975 0.96846 8.47975 2.16346V5.00406L3.45935 1.06306C2.94022 0.654768 2.09687 0.654768 1.57565 1.06306L0.391436 1.99168C-0.1277 2.39997 -0.1277 3.06221 0.391436 3.4705L8.47766 9.81899V23.462L3.45622 19.5209C2.93812 19.1127 2.09479 19.1127 1.57357 19.5209L0.389352 20.4495C-0.129784 20.8578 -0.129784 21.5201 0.389352 21.9284L8.47453 28.2769V42.3157L0.391436 48.6666C-0.1277 49.075 -0.1277 49.7371 0.391436 50.1454L1.57565 51.0741C2.09479 51.4824 2.93813 51.4824 3.45935 51.0741L8.47975 47.133V60.7761L0.391436 67.122C-0.1277 67.5302 -0.1277 68.1925 0.391436 68.6008L1.57565 69.5294C2.09479 69.9378 2.93813 69.9378 3.45935 69.5294L8.47975 65.5884V67.8365C8.47975 69.0316 9.45025 70 10.647 70C11.8437 70 12.8142 69.0316 12.8142 67.8365V62.1826L34.3188 45.2957C34.5877 45.0841 34.7149 44.8028 34.7055 44.524C34.7149 44.2451 34.5908 43.9638 34.3188 43.7522L23.5493 35.295L34.3188 26.8379C34.5877 26.6263 34.7149 26.3449 34.7055 26.0661L34.7024 26.0686ZM12.8142 31.6826L17.4156 35.2975L12.8142 38.9124V31.6826ZM29.168 44.5265L12.8142 57.3703V43.7272L20.4835 37.7049L29.1712 44.5265H29.168ZM12.8142 26.8677V13.2248L29.168 26.0686L20.4814 32.8901L12.8121 26.8677H12.8142Z" fill="white"/>
</svg>
