<svg width="63" height="70" viewBox="0 0 63 70" fill="none" xmlns="http://www.w3.org/2000/svg">
<path d="M28.5588 2.3061C27.5932 1.74367 26.4371 1.74367 25.469 2.3061L1.54487 16.217C0.592341 16.769 0 17.8018 0 18.9082V51.1297C0 52.2361 0.592341 53.2689 1.54487 53.8235L25.4717 67.7344C25.9466 68.0104 26.479 68.1549 27.0165 68.1549C27.554 68.1549 28.0864 68.0104 28.5588 67.7344C29.5242 67.1746 30.1035 66.1654 30.1035 65.0432V4.99735C30.1035 3.87512 29.5269 2.86853 28.5613 2.3061H28.5588ZM27.2539 4.99735V65.0432C27.2539 65.1351 27.2149 65.2061 27.134 65.2508C27.0139 65.3218 26.9252 65.2665 26.8938 65.2508L2.96703 51.3398C2.89402 51.2978 2.84705 51.2163 2.84705 51.1322V18.9109C2.84705 18.8241 2.89402 18.7454 2.96703 18.7033L26.8938 4.78972C26.9356 4.76607 26.9722 4.75556 27.0087 4.75556C27.0686 4.75556 27.1208 4.78184 27.1313 4.78972C27.2539 4.86068 27.2539 4.96581 27.2539 4.99997V4.99735Z" fill="white"/>
<path d="M33.9638 29.2397C34.4387 29.5156 34.9713 29.6602 35.5056 29.6602C36.0408 29.6602 36.576 29.5156 37.0482 29.2397L57.1958 17.5233C58.1643 16.9609 58.7411 15.9543 58.7411 14.8295C58.7411 13.7046 58.1643 12.7007 57.1958 12.1382L37.0509 0.421822C36.0851 -0.140607 34.9287 -0.140607 33.9638 0.421822C32.998 0.984253 32.4211 1.99084 32.4211 3.11307V26.5459C32.4211 27.6707 32.998 28.6773 33.9665 29.2371L33.9638 29.2397ZM35.2654 26.5484V3.1157C35.2654 3.08153 35.2654 2.9764 35.386 2.90807C35.3992 2.90019 35.4506 2.87391 35.5109 2.87391C35.5499 2.87391 35.5844 2.88442 35.6261 2.90807L55.7737 14.6244C55.8029 14.6428 55.8942 14.6928 55.8942 14.8321C55.8942 14.9714 55.8056 15.0239 55.7737 15.0423L35.6287 26.7587C35.5968 26.7771 35.5082 26.827 35.386 26.7587C35.2654 26.6904 35.2654 26.5853 35.2654 26.5511V26.5484Z" fill="white"/>
<path d="M57.1975 52.4809L37.0499 40.7646C36.0841 40.2022 34.9277 40.2022 33.9628 40.7646C32.997 41.3244 32.4175 42.3336 32.4175 43.4558V66.886C32.4175 68.0108 32.9943 69.0174 33.9628 69.5798C34.4377 69.8558 34.9703 70.0004 35.5046 70.0004C36.0398 70.0004 36.5749 69.8558 37.0472 69.5798L57.1957 57.8635C58.1633 57.301 58.7401 56.2944 58.7401 55.1696C58.7401 54.0474 58.1633 53.0408 57.1957 52.4784L57.1975 52.4809ZM35.3849 67.0962C35.307 67.0516 35.2671 66.9806 35.2671 66.8886V43.4585C35.2671 43.3665 35.307 43.2955 35.3903 43.2482C35.4009 43.243 35.4496 43.214 35.5099 43.214C35.5489 43.214 35.5861 43.2246 35.6277 43.2482L55.7753 54.9646C55.8046 54.983 55.8958 55.0329 55.8958 55.1722C55.8958 55.3115 55.8072 55.3641 55.7753 55.3825L35.6304 67.0988C35.6012 67.1172 35.5099 67.1672 35.3876 67.0988L35.3849 67.0962Z" fill="white"/>
<path d="M60.9774 20.6454C60.0116 20.083 58.8588 20.083 57.8903 20.6454L37.7418 32.3618C36.7769 32.9242 36.1974 33.9282 36.1974 35.053C36.1974 36.1779 36.7742 37.1871 37.74 37.7495L57.8876 49.4633C58.3626 49.7393 58.8951 49.8838 59.4303 49.8838C59.9646 49.8838 60.4971 49.7393 60.9721 49.4633C61.9379 48.9009 62.5174 47.8943 62.5174 46.7694V23.3393C62.5174 22.2144 61.9405 21.2078 60.9747 20.6454H60.9774ZM59.6731 23.3393V46.7694C59.6731 46.8614 59.6332 46.9324 59.5499 46.9797C59.433 47.048 59.3417 46.9955 59.3125 46.9797L39.1666 35.2659C39.1356 35.2475 39.0443 35.195 39.0443 35.053C39.0443 34.9112 39.133 34.8612 39.164 34.8454L59.3125 23.129C59.3514 23.1054 59.3913 23.0949 59.4276 23.0949C59.487 23.0949 59.5366 23.1211 59.5473 23.129C59.6704 23.2 59.6704 23.3052 59.6704 23.3393H59.6731Z" fill="white"/>
</svg>
