<svg width="70" height="70" viewBox="0 0 70 70" fill="none" xmlns="http://www.w3.org/2000/svg">
<path d="M12.5135 23.0483C12.1319 22.6668 12.1319 22.048 12.5135 21.6664L14.0079 20.1704C14.3745 19.8038 15.024 19.8026 15.3914 20.1704L29.1941 33.9728C29.377 34.1561 29.4797 34.4043 29.4797 34.6639C29.4797 34.922 29.377 35.1718 29.1941 35.3551L27.6981 36.8507C27.5065 37.0411 27.2568 37.1367 27.007 37.1367C26.7572 37.1367 26.5058 37.0411 26.3158 36.8507L12.5135 23.0483ZM20.2028 42.9637C20.3932 43.1553 20.6429 43.2513 20.8939 43.2513C21.1437 43.2513 21.3935 43.1553 21.5851 42.9637L23.0811 41.4677C23.4627 41.0862 23.4627 40.4686 23.0811 40.0858L9.27873 26.2831C8.89558 25.9015 8.27681 25.9015 7.89484 26.2831L6.40041 27.7791C6.01726 28.161 6.01726 28.7798 6.40041 29.1614L20.2028 42.9637ZM3.16568 32.3961C2.78254 32.0145 2.16376 32.0145 1.78219 32.3961L0.28736 33.8937C-0.0957868 34.2753 -0.0957868 34.8929 0.28736 35.2744L14.0885 49.0768C14.2801 49.2684 14.5299 49.3639 14.7797 49.3639C15.0295 49.3639 15.2805 49.2684 15.4708 49.0768L16.9665 47.5808C17.3484 47.1992 17.3484 46.5816 16.9665 46.2L3.16568 32.3961ZM47.6647 53.0333C47.2831 52.6518 46.6655 52.6518 46.2839 53.0333C44.2053 55.1108 43.664 56.8302 43.2298 58.2109C42.8368 59.4572 42.5539 60.358 41.1799 61.7317C39.8062 63.1057 38.9042 63.3901 37.658 63.7815C36.2772 64.2158 34.559 64.7571 32.4804 66.8357C32.0984 67.2173 32.0984 67.8349 32.4804 68.2164L33.976 69.714C34.1676 69.904 34.4174 70 34.6687 70C34.9185 70 35.1683 69.904 35.3583 69.714C36.7324 68.34 37.6344 68.0555 38.8806 67.6641C40.2613 67.2287 41.9792 66.6874 44.0582 64.61C46.1368 62.5326 46.6769 60.8131 47.1112 59.432C47.5038 58.1846 47.7882 57.2838 49.1622 55.9117C49.344 55.7284 49.4466 55.4797 49.4466 55.2205C49.4466 54.9609 49.344 54.7127 49.1622 54.5294L47.6647 53.0333ZM37.9452 58.4969C40.0226 56.4195 40.5639 54.7001 40.9981 53.3178C41.3923 52.0715 41.6755 51.1711 43.048 49.7986C43.2309 49.6137 43.3336 49.3671 43.3336 49.1075C43.3336 48.8478 43.2309 48.5996 43.048 48.4163L41.552 46.9203C41.17 46.5371 40.5513 46.5371 40.1709 46.9203C38.0935 48.9965 37.5526 50.7144 37.1151 52.0995C36.7225 53.3469 36.4381 54.2477 35.0668 55.6186C33.6943 56.9927 32.7923 57.2755 31.5449 57.6685C30.1642 58.1028 28.4459 58.6452 26.3673 60.7226C25.9858 61.1042 25.9858 61.7218 26.3673 62.1034L27.8633 63.5994C28.0463 63.7827 28.2949 63.887 28.5541 63.887C28.8137 63.887 29.0623 63.7827 29.2453 63.5994C30.6193 62.2269 31.5198 61.9441 32.7675 61.5511C34.1483 61.1156 35.8677 60.5743 37.9452 58.4969ZM31.8321 52.3839C33.9095 50.3065 34.4508 48.587 34.8851 47.2063C35.2781 45.9585 35.5625 45.0581 36.935 43.684C37.3165 43.3024 37.3165 42.6836 36.935 42.3021L35.439 40.8061C35.2556 40.6228 35.0074 40.5201 34.7478 40.5201C34.4897 40.5201 34.2399 40.6228 34.0566 40.8061C31.9776 42.8862 31.4379 44.6029 31.0021 45.9864C30.6095 47.2326 30.3251 48.1331 28.9538 49.5056C27.5813 50.8769 26.6793 51.1613 25.4303 51.5566C24.0496 51.9913 22.3317 52.5322 20.2543 54.6084C19.8727 54.9916 19.8727 55.6088 20.2543 55.9907L21.7503 57.4867C21.9419 57.6779 22.1917 57.7739 22.4415 57.7739C22.6912 57.7739 22.941 57.6779 23.1322 57.4867C24.5063 56.1143 25.4067 55.8295 26.6557 55.4369C28.0368 55.0026 29.7547 54.4613 31.8321 52.3839ZM40.0698 19.4151C38.593 20.8907 38.628 22.5362 38.6485 23.5188C38.6666 24.3862 38.628 24.4527 38.4196 24.6623C38.2087 24.872 38.145 24.9106 37.2748 24.8929C36.2938 24.872 34.6451 24.8386 33.17 26.3153C32.9867 26.4982 32.884 26.7468 32.884 27.0061C32.884 27.2657 32.9867 27.5143 33.17 27.6972L34.666 29.1921C34.8575 29.3836 35.1073 29.4792 35.3571 29.4792C35.6069 29.4792 35.8579 29.3836 36.0479 29.1921C36.2576 28.9824 36.3201 28.945 37.1914 28.9615C38.1757 28.9781 39.82 29.017 41.2963 27.5407C42.7719 26.0655 42.7384 24.4196 42.7188 23.4354C42.6995 22.5684 42.7384 22.5015 42.9465 22.2934C43.1562 22.0826 43.2215 22.0409 44.0912 22.0617C45.0755 22.0854 46.7213 22.116 48.1965 20.6393C49.6728 19.1626 49.6394 17.5167 49.6201 16.5344C49.602 15.667 49.6394 15.6006 49.8506 15.3893C50.0336 15.2076 50.1378 14.9578 50.1378 14.6986C50.1378 14.4401 50.0336 14.1903 49.8506 14.0074L48.3546 12.5126C47.9731 12.131 47.3539 12.131 46.9723 12.5126C45.496 13.9877 45.5306 15.6336 45.5499 16.6174C45.568 17.4837 45.529 17.5517 45.3182 17.7626C45.1085 17.9722 45.042 18.008 44.1746 17.9915C43.1991 17.975 41.5461 17.9372 40.0698 19.4151ZM33.9567 13.3025C32.4804 14.7788 32.515 16.4247 32.5359 17.4058C32.5536 18.2732 32.515 18.3396 32.3053 18.5493C32.0957 18.759 32.0276 18.7936 31.1606 18.7782C30.1791 18.7602 28.5321 18.7255 27.0569 20.2007C26.6754 20.5823 26.6754 21.2014 27.0569 21.583L28.5529 23.079C28.7362 23.2619 28.986 23.3662 29.2441 23.3662C29.5033 23.3662 29.7519 23.2619 29.9352 23.079C30.1445 22.8693 30.2114 22.8276 31.08 22.8485C32.0555 22.8721 33.7069 22.9028 35.1837 21.4276C36.6588 19.9525 36.6254 18.3066 36.6045 17.3228C36.5864 16.4554 36.6254 16.3885 36.8335 16.1804C37.0443 15.9696 37.1096 15.9322 37.9786 15.9487C38.9597 15.968 40.6055 16.0057 42.0835 14.5263C43.5598 13.0499 43.5268 11.4052 43.5059 10.4214C43.489 9.554 43.5279 9.48752 43.7376 9.27667C43.9209 9.09336 44.0236 8.84474 44.0236 8.58551C44.0236 8.32745 43.9209 8.07766 43.7376 7.89435L42.2416 6.39834C41.86 6.01795 41.2408 6.01795 40.8593 6.39834C39.3829 7.87468 39.4176 9.52056 39.4368 10.5048C39.4549 11.3706 39.416 11.4371 39.2051 11.6483C38.9955 11.8592 38.929 11.8938 38.0616 11.8784C37.0848 11.8592 35.4335 11.8257 33.9567 13.3025ZM22.4399 16.966C22.6299 17.1575 22.8797 17.2531 23.131 17.2531C23.3808 17.2531 23.6306 17.1575 23.8206 16.9671C24.0315 16.7563 24.0968 16.7134 24.9669 16.7355C25.9425 16.7551 27.5955 16.7897 29.0706 15.3146C30.5458 13.8394 30.5123 12.1935 30.4915 11.2081C30.4722 10.3435 30.5123 10.2758 30.7204 10.0674C30.9317 9.8565 30.9954 9.81913 31.8655 9.83565C32.8439 9.85926 34.4937 9.88994 35.9704 8.41321C37.4467 6.93687 37.4137 5.29099 37.3929 4.30716C37.3748 3.44095 37.4137 3.37447 37.623 3.1648C37.8079 2.98188 37.9105 2.73209 37.9105 2.47246C37.9105 2.21441 37.8079 1.96461 37.6245 1.7813L36.1285 0.285295C35.747 -0.0950984 35.1282 -0.0950984 34.7462 0.285295C33.2699 1.76202 33.3045 3.40791 33.3238 4.39016C33.3419 5.25913 33.3029 5.32561 33.0921 5.53528C32.8812 5.74455 32.812 5.78074 31.9485 5.7654C30.9718 5.74731 29.3204 5.71151 27.8425 7.18942C26.3673 8.66576 26.402 10.3105 26.4212 11.2927C26.4409 12.1589 26.402 12.2254 26.1923 12.4363C25.9826 12.6444 25.9161 12.6849 25.0476 12.6668C24.0704 12.6459 22.419 12.6125 20.9439 14.0876C20.5623 14.4692 20.5623 15.0884 20.9439 15.47L22.4399 16.966Z" fill="white"/>
<path d="M44.9932 33.7696C44.4814 33.6 43.5389 33.41 43.1573 33.7916L41.6613 35.2876C41.2797 35.6692 41.1825 36.4201 41.6613 36.6699C43.4834 37.6164 46.4089 39.0372 49.9505 42.6815C53.3099 46.1384 54.4648 48.5974 55.464 50.4723C55.5915 50.7095 55.905 50.7582 56.1548 50.7582C56.4046 50.7582 56.656 50.6623 56.846 50.4723L58.342 48.9751C58.7235 48.5931 58.5308 47.841 58.342 47.3359C57.7771 45.819 56.1076 42.6815 53.149 39.5939C50.3832 36.7089 46.3963 34.2345 44.9932 33.7696Z" fill="white"/>
<path d="M50.8053 28.1392C50.2931 27.9696 49.351 27.7796 48.9694 28.1612L47.4734 29.6572C47.0915 30.0388 46.9947 30.7897 47.4734 31.0395C49.2955 31.986 52.2207 33.4069 55.7622 37.0511C59.1221 40.5081 60.2766 42.9671 61.2758 44.8419C61.4032 45.0791 61.7171 45.1279 61.9669 45.1279C62.2167 45.1279 62.4677 45.0323 62.6581 44.8419L64.1541 43.3459C64.5357 42.9643 64.3425 42.211 64.1541 41.7055C63.5892 40.189 61.9197 37.0511 58.9612 33.9647C56.1953 31.0785 52.2081 28.6042 50.8053 28.1392Z" fill="white"/>
<path d="M56.4204 22.6458C55.9082 22.4767 54.9661 22.2863 54.5845 22.6682L53.0885 24.1643C52.707 24.5458 52.6098 25.2964 53.0885 25.5462C54.9106 26.4926 57.8358 27.9139 61.3773 31.5581C64.7371 35.0147 65.8917 37.4737 66.8909 39.3485C67.0187 39.5861 67.3322 39.6345 67.582 39.6345C67.8318 39.6345 68.0828 39.5389 68.2732 39.3485L69.7692 37.8529C70.1508 37.4709 69.9576 36.7176 69.7692 36.2125C69.2043 34.6957 67.5348 31.5581 64.5763 28.4717C61.8104 25.5851 57.8232 23.1108 56.4204 22.6458Z" fill="white"/>
</svg>
