<svg width="20" height="12" viewBox="0 0 20 12" fill="none" xmlns="http://www.w3.org/2000/svg">
<path d="M19.8939 10.6C19.8697 10.5478 19.8471 10.5045 19.8262 10.4698C19.4792 9.84483 18.8161 9.07774 17.8372 8.1683L17.8166 8.14747L17.8062 8.13726L17.7957 8.12679H17.7852C17.341 7.70331 17.0597 7.41857 16.9419 7.27279C16.7263 6.99509 16.678 6.714 16.7959 6.42918C16.8791 6.214 17.1917 5.75955 17.733 5.06522C18.0178 4.69725 18.2433 4.40234 18.4098 4.18015C19.6109 2.58338 20.1316 1.56303 19.9719 1.11869L19.9098 1.01485C19.8681 0.952335 19.7606 0.895146 19.5872 0.842991C19.4134 0.790944 19.1914 0.782337 18.9206 0.817023L15.9216 0.837739C15.8731 0.820524 15.8037 0.822128 15.7133 0.842991C15.623 0.863853 15.5779 0.874321 15.5779 0.874321L15.5257 0.900398L15.4843 0.931728C15.4495 0.952444 15.4114 0.988881 15.3697 1.04096C15.3282 1.09286 15.2935 1.15377 15.2658 1.22318C14.9393 2.06318 14.5681 2.84416 14.1515 3.5661C13.8946 3.99658 13.6587 4.36966 13.4432 4.68555C13.2281 5.00132 13.0476 5.23398 12.9019 5.38312C12.756 5.5324 12.6244 5.65199 12.5061 5.74233C12.388 5.83271 12.2979 5.8709 12.2355 5.85693C12.173 5.84296 12.1141 5.8291 12.0583 5.81524C11.9612 5.75273 11.883 5.66771 11.8241 5.56012C11.765 5.45252 11.7252 5.3171 11.7043 5.15396C11.6836 4.99071 11.6714 4.85029 11.6679 4.73223C11.6646 4.61432 11.6661 4.44753 11.6732 4.23234C11.6804 4.01704 11.6836 3.87137 11.6836 3.795C11.6836 3.53116 11.6888 3.24481 11.6991 2.93589C11.7096 2.62697 11.7181 2.3822 11.7252 2.20188C11.7323 2.02138 11.7356 1.83041 11.7356 1.62908C11.7356 1.42775 11.7233 1.26986 11.6991 1.15527C11.6752 1.04082 11.6384 0.929722 11.59 0.822019C11.5413 0.714425 11.4701 0.631195 11.3766 0.57211C11.2829 0.513098 11.1664 0.466267 11.0277 0.431472C10.6598 0.348206 10.1912 0.303162 9.62183 0.296159C8.33067 0.2823 7.50103 0.365676 7.1331 0.546178C6.98732 0.622442 6.8554 0.726643 6.73745 0.858455C6.61245 1.01124 6.59502 1.09461 6.68525 1.10833C7.10184 1.17073 7.39676 1.32001 7.57033 1.55603L7.63288 1.68109C7.68153 1.77132 7.73012 1.93107 7.77873 2.16012C7.82728 2.38917 7.85861 2.64254 7.87239 2.9201C7.90704 3.42695 7.90704 3.86083 7.87239 4.22176C7.83764 4.58284 7.80481 4.86393 7.77348 5.06526C7.74215 5.26659 7.69532 5.42973 7.63288 5.55465C7.57033 5.6796 7.52872 5.75598 7.50785 5.78369C7.48703 5.81141 7.46967 5.82888 7.45588 5.83574C7.36565 5.87032 7.2718 5.88793 7.17468 5.88793C7.0774 5.88793 6.95945 5.83928 6.82064 5.74204C6.68186 5.64481 6.53783 5.51124 6.38855 5.34114C6.23927 5.17099 6.07091 4.93323 5.88341 4.62781C5.69605 4.32239 5.50165 3.96142 5.30032 3.54491L5.13375 3.24284C5.02962 3.04852 4.88738 2.76556 4.70688 2.39424C4.52627 2.02276 4.36663 1.66344 4.22785 1.31633C4.17237 1.17055 4.08904 1.05956 3.97798 0.983191L3.92586 0.951861C3.89121 0.924142 3.83559 0.894709 3.75929 0.863342C3.68288 0.832012 3.60315 0.809545 3.51977 0.795722L0.66657 0.816439C0.37501 0.816439 0.177183 0.88249 0.0730178 1.01441L0.0313298 1.07682C0.0105041 1.11157 0 1.16708 0 1.24349C0 1.31987 0.0208258 1.4136 0.0625138 1.52459C0.479029 2.50351 0.93198 3.4476 1.42137 4.357C1.91075 5.26641 2.33602 5.99895 2.69692 6.55399C3.05789 7.10943 3.42582 7.63365 3.80072 8.12639C4.17562 8.61932 4.42378 8.93521 4.5452 9.07398C4.66676 9.21302 4.76224 9.31696 4.83165 9.38637L5.09203 9.63624C5.25863 9.80289 5.50329 10.0025 5.82611 10.235C6.149 10.4676 6.50646 10.6967 6.89869 10.9225C7.29099 11.1479 7.74737 11.3319 8.26808 11.4742C8.78873 11.6166 9.29548 11.6737 9.7884 11.6462H10.9859C11.2288 11.6252 11.4128 11.5488 11.5379 11.417L11.5793 11.3648C11.6072 11.3234 11.6333 11.259 11.6573 11.1724C11.6817 11.0856 11.6938 10.99 11.6938 10.886C11.6867 10.5876 11.7094 10.3186 11.7613 10.0791C11.8132 9.83972 11.8724 9.65922 11.9386 9.53766C12.0047 9.4162 12.0793 9.31372 12.1624 9.23063C12.2456 9.14737 12.3049 9.09692 12.3397 9.07956C12.3743 9.06209 12.4019 9.05024 12.4227 9.04313C12.5893 8.98762 12.7854 9.04138 13.0112 9.20466C13.2369 9.3678 13.4485 9.56924 13.6465 9.80865C13.8444 10.0483 14.0821 10.3171 14.3597 10.6156C14.6375 10.9141 14.8804 11.1361 15.0886 11.2821L15.2968 11.407C15.4358 11.4904 15.6163 11.5668 15.8385 11.6362C16.0603 11.7055 16.2546 11.7229 16.4215 11.6882L19.0872 11.6466C19.3508 11.6466 19.556 11.603 19.7015 11.5164C19.8473 11.4296 19.9339 11.334 19.9619 11.23C19.9897 11.1259 19.9912 11.0078 19.9672 10.8758C19.9425 10.7441 19.9181 10.652 19.8939 10.6Z" fill="white"/>
</svg>
