<svg width="42" height="40" viewBox="0 0 42 40" fill="none" xmlns="http://www.w3.org/2000/svg">
<path d="M16.3539 37.8418C17.8792 39.0367 19.2138 39.7447 20.2939 39.9789C20.3545 39.9921 20.4157 40 20.4737 40C20.7965 40 21.0459 39.7842 21.1065 39.4526C21.1516 39.0499 20.7624 38.7288 20.5613 38.5656C18.5011 36.8969 16.1 34.7098 16.2746 33.2043C16.3197 32.8227 16.6027 32.4595 17.6647 32.52C18.9251 32.5911 21.9855 33.5333 23.0816 33.8202L23.4818 33.9229C23.6642 33.9702 23.8176 33.9913 23.9503 33.9913C24.0244 33.9913 24.0934 33.9834 24.1565 33.9702H24.1726L24.239 33.9466C24.5007 33.8571 24.6759 33.6544 24.721 33.3886C24.7475 33.2307 24.721 33.0649 24.6386 32.9149C24.538 32.7253 24.3047 32.5358 24.1913 32.4885C23.9742 32.399 23.8176 32.3384 23.6616 32.2779C21.7342 31.5199 19.6024 30.4277 19.846 28.9301C19.9839 28.0747 20.7334 27.6036 23.119 27.7299C25.8675 27.8747 29.5394 28.0747 31.9675 28.3011H31.9862C33.1243 28.409 33.9453 28.4853 34.2842 28.4853C34.3422 28.4853 34.3899 28.4853 34.4247 28.4801H34.446C34.8481 28.4353 35.5234 28.3642 35.624 27.8168C35.6555 27.6431 35.6214 27.4746 35.5209 27.3325C35.3804 27.1325 35.1368 27.0062 34.7527 26.9378H34.7398L34.716 26.9298C33.1326 26.6929 31.4965 26.5166 29.9131 26.3455C26.1291 25.935 22.5552 25.5481 20.5826 24.4453C20.4872 24.3927 20.397 24.3321 20.3151 24.2637C19.9813 23.9953 19.799 23.6452 19.7667 23.2215C19.7352 22.7767 19.8699 22.2845 20.1586 21.7976C20.2649 21.6186 20.3918 21.4423 20.5375 21.2712C20.8713 20.8791 21.3372 20.4579 21.9249 20.0158C22.4411 19.6289 22.9547 19.2973 23.2937 19.0762C25.7721 17.476 30.564 14.3334 34.8242 11.2831L34.9963 11.1567C38.0728 8.94855 40.5538 7.37991 41.6976 5.88763C42.3858 4.99015 41.753 4.55852 41.2394 4.74011C40.7974 4.89535 40.4403 5.04802 38.6849 6.21925L38.6714 6.22711C34.6812 8.89326 25.3352 15.1388 19.1765 16.5048C18.3877 16.6811 17.6724 16.768 17.0531 16.768C15.2288 16.768 14.1642 16.0179 13.7988 14.473C13.1821 11.8515 15.0696 8.70116 16.5872 6.17188L16.796 5.82183C17.2116 5.12696 17.7626 4.11896 18.1493 3.39779C18.2788 3.15568 19.4175 1.03432 19.4626 0.800104C19.5128 0.552698 19.4413 0.381624 19.3724 0.281611C19.3034 0.181597 19.1713 0.0526361 18.9277 0.0078941L18.8774 0H18.8375C18.6287 0 18.4618 0.128961 18.3239 0.268452C18.2814 0.300035 18.2472 0.336882 18.2182 0.378995C17.8393 0.802733 17.2464 1.67655 16.5047 2.77406C14.4928 5.74811 10.7488 11.2857 9.61006 12.0358C8.80518 12.5648 7.71483 12.8832 6.69278 12.8832H6.67152C6.00132 12.8807 5.0508 12.7385 4.32261 12.0753C3.89922 11.691 3.53642 11.1672 3.21099 10.4724C2.87718 9.76181 2.58075 8.87483 2.27078 7.67731L2.26562 7.65366C2.18893 7.35619 1.93181 7.15623 1.62249 7.15623C1.25968 7.15623 0.973563 7.42727 0.954875 7.78525L0.94457 8.00107C0.870462 9.47756 0.732557 12.2227 2.67097 16.0047C2.77665 16.2126 2.97771 16.5575 3.25609 16.7785C3.44684 15.9916 3.93402 15.3231 4.50304 14.9572C7.42355 13.0912 11.9429 15.7626 15.2152 20.3711C18.5224 25.027 17.9746 29.7829 15.5516 30.933C14.0372 31.6515 11.7547 31.0409 9.82466 29.7855C9.82466 29.7855 9.77955 29.9013 10.0128 30.4935C10.1559 30.8567 10.5741 31.7147 11.5246 33.0043C12.6524 34.5387 14.4316 36.339 16.3488 37.8392L16.3539 37.8418Z" fill="#577EC9"/>
</svg>
