<svg width="45" height="40" viewBox="0 0 45 40" fill="none" xmlns="http://www.w3.org/2000/svg">
<path d="M8.13921 36.8638L22.1743 28.7904C22.5199 28.5931 22.9442 28.5898 23.2892 28.7805L37.2427 36.5119C37.6046 36.7125 37.8278 37.0907 37.8278 37.505V38.8599C37.8278 39.6459 37.0486 40.195 36.3085 39.9287L24.2991 35.5911C23.2862 35.2261 22.1743 35.2228 21.1614 35.5911L9.08914 39.932C8.34959 40.1984 7.56983 39.6492 7.56983 38.8632V37.847C7.56983 37.4426 7.78721 37.0644 8.13921 36.8638ZM22.0921 0.170183L1.11473 12.2425C0.575364 12.5548 0.338578 13.2093 0.555663 13.7946L7.04708 31.2469C7.32332 31.9869 8.19807 32.3026 8.88225 31.9079L22.1055 24.2883C22.4966 24.0647 22.9768 24.0615 23.3684 24.2818L36.5655 31.7172C37.2363 32.0954 38.0912 31.7961 38.3773 31.0792L38.8966 29.7868C39.1338 29.1949 38.8966 28.5207 38.3476 28.205L23.3684 19.6186C22.9768 19.395 22.5001 19.3917 22.1055 19.6153L10.8655 25.9458C10.1912 26.3273 9.33624 26.0214 9.0501 25.3012L8.356 23.5419C8.1194 22.9433 8.36591 22.2626 8.9283 21.9535L22.1119 14.7056C22.5001 14.4918 22.9704 14.4951 23.355 14.7121L39.6105 23.9135C40.304 24.3081 41.1858 23.9727 41.4457 23.2163L41.9387 21.7825C42.1392 21.2004 41.8962 20.5625 41.3629 20.2566L23.355 10.026C22.9704 9.80562 22.4966 9.80236 22.109 10.0194L7.7674 17.9218C7.09312 18.2933 6.24459 17.9875 5.96544 17.2706L5.32088 15.6395C5.08719 15.0443 5.3273 14.3668 5.88618 14.0544L22.1119 4.99774C22.5001 4.78071 22.9704 4.78071 23.3585 4.99774L42.652 15.7809C43.3461 16.1689 44.2244 15.8335 44.4843 15.0804L44.9313 13.7749C45.1288 13.1961 44.8887 12.5582 44.359 12.2556L23.3684 0.170183C22.9739 -0.0567278 22.4902 -0.0567278 22.0956 0.170183H22.0921Z" fill="#749FAD"/>
</svg>
