<svg width="40" height="40" viewBox="0 0 40 40" fill="none" xmlns="http://www.w3.org/2000/svg">
<path d="M7.15738 13.1705C6.93934 12.9524 6.93934 12.5988 7.15738 12.3808L8.01134 11.5259C8.22084 11.3164 8.59196 11.3158 8.80191 11.5259L16.6892 19.413C16.7937 19.5178 16.8524 19.6596 16.8524 19.8079C16.8524 19.9554 16.7937 20.0981 16.6892 20.2029L15.8343 21.0575C15.7249 21.1663 15.5821 21.221 15.4394 21.221C15.2966 21.221 15.153 21.1663 15.0444 21.0575L7.15738 13.1705ZM11.5513 24.5507C11.6601 24.6602 11.8028 24.715 11.9462 24.715C12.089 24.715 12.2317 24.6602 12.3412 24.5507L13.196 23.6958C13.4141 23.4778 13.4141 23.1249 13.196 22.9062L5.30897 15.0189C5.09003 14.8008 4.73644 14.8008 4.51817 15.0189L3.66421 15.8737C3.44527 16.092 3.44527 16.4456 3.66421 16.6636L11.5513 24.5507ZM1.8158 18.5121C1.59686 18.294 1.24327 18.294 1.02523 18.5121L0.171042 19.3678C-0.0478994 19.5859 -0.0478994 19.9388 0.171042 20.1568L8.05742 28.0439C8.16689 28.1533 8.30963 28.208 8.45237 28.208C8.59511 28.208 8.73852 28.1533 8.84732 28.0439L9.70196 27.189C9.92022 26.971 9.92022 26.6181 9.70196 26.4L1.8158 18.5121ZM27.2438 30.3048C27.0257 30.0867 26.6728 30.0867 26.4548 30.3048C25.267 31.4919 24.9577 32.4744 24.7096 33.2634C24.485 33.9755 24.3234 34.4903 23.5382 35.2752C22.7532 36.0604 22.2378 36.2229 21.5257 36.4466C20.7367 36.6948 19.7548 37.0041 18.5671 38.1918C18.3488 38.4099 18.3488 38.7628 18.5671 38.9808L19.4217 39.8366C19.5312 39.9452 19.6739 40 19.8175 40C19.9603 40 20.103 39.9452 20.2116 39.8366C20.9968 39.0514 21.5122 38.8889 22.2243 38.6652C23.0133 38.4164 23.995 38.1071 25.183 36.92C26.3707 35.7329 26.6794 34.7504 26.9275 33.9611C27.1519 33.2483 27.3144 32.7336 28.0995 31.9495C28.2034 31.8448 28.2621 31.7027 28.2621 31.5546C28.2621 31.4062 28.2034 31.2644 28.0995 31.1596L27.2438 30.3048ZM21.6898 33.4268C22.8769 32.2397 23.1862 31.2572 23.4343 30.4673C23.6596 29.7552 23.8214 29.2406 24.6057 28.4564C24.7102 28.3507 24.7689 28.2098 24.7689 28.0614C24.7689 27.913 24.7102 27.7712 24.6057 27.6665L23.7508 26.8116C23.5326 26.5927 23.179 26.5927 22.9616 26.8116C21.7745 27.998 21.4654 28.9797 21.2155 29.7711C20.9911 30.4839 20.8286 30.9987 20.045 31.7821C19.2607 32.5672 18.7453 32.7289 18.0325 32.9534C17.2435 33.2016 16.2617 33.5116 15.0739 34.6987C14.8558 34.9167 14.8558 35.2696 15.0739 35.4877L15.9287 36.3425C16.0333 36.4473 16.1753 36.5068 16.3235 36.5068C16.4718 36.5068 16.6139 36.4473 16.7184 36.3425C17.5036 35.5582 18.0181 35.3966 18.7311 35.1721C19.5201 34.9232 20.5027 34.6139 21.6898 33.4268ZM18.1966 29.9336C19.3837 28.7466 19.693 27.764 19.9412 26.975C20.1657 26.262 20.3283 25.7475 21.1125 24.9623C21.3306 24.7442 21.3306 24.3907 21.1125 24.1726L20.2577 23.3178C20.1529 23.213 20.0111 23.1543 19.8627 23.1543C19.7153 23.1543 19.5725 23.213 19.4678 23.3178C18.2798 24.5064 17.9714 25.4874 17.7223 26.278C17.498 26.9901 17.3355 27.5046 16.5519 28.2889C15.7676 29.0725 15.2521 29.235 14.5384 29.4609C13.7494 29.7093 12.7678 30.0184 11.5807 31.2048C11.3627 31.4238 11.3627 31.7764 11.5807 31.9947L12.4356 32.8496C12.545 32.9588 12.6878 33.0137 12.8305 33.0137C12.9733 33.0137 13.116 32.9588 13.2252 32.8496C14.0104 32.0653 14.525 31.9025 15.2387 31.6782C16.0279 31.43 17.0095 31.1207 18.1966 29.9336ZM22.9038 11.0944C22.06 11.9375 22.08 12.8778 22.0917 13.4393C22.102 13.935 22.08 13.973 21.9609 14.0928C21.8404 14.2126 21.804 14.2346 21.3067 14.2245C20.7461 14.2126 19.8041 14.1935 18.9611 15.0373C18.8564 15.1418 18.7977 15.2839 18.7977 15.432C18.7977 15.5804 18.8564 15.7225 18.9611 15.827L19.816 16.6812C19.9254 16.7907 20.0682 16.8453 20.2109 16.8453C20.3537 16.8453 20.4971 16.7907 20.6056 16.6812C20.7254 16.5614 20.7612 16.54 21.2591 16.5495C21.8215 16.5589 22.7611 16.5812 23.6047 15.7375C24.4479 14.8946 24.4288 13.9541 24.4176 13.3917C24.4065 12.8962 24.4288 12.858 24.5477 12.7391C24.6675 12.6186 24.7048 12.5948 25.2018 12.6067C25.7642 12.6202 26.7047 12.6377 27.5477 11.7939C28.3913 10.95 28.3722 10.0095 28.3612 9.44825C28.3509 8.9526 28.3722 8.91461 28.4929 8.7939C28.5974 8.69005 28.657 8.54731 28.657 8.39917C28.657 8.25149 28.5974 8.10875 28.4929 8.00423L27.6381 7.15004C27.42 6.932 27.0662 6.932 26.8482 7.15004C26.0045 7.99299 26.0243 8.93349 26.0353 9.49568C26.0457 9.99066 26.0234 10.0295 25.9029 10.15C25.7831 10.2698 25.7451 10.2903 25.2495 10.2809C24.692 10.2714 23.7475 10.2498 22.9038 11.0944ZM19.4107 7.60141C18.5671 8.44503 18.5868 9.38554 18.5988 9.94615C18.6089 10.4418 18.5868 10.4798 18.467 10.5996C18.3472 10.7194 18.3083 10.7392 17.8129 10.7304C17.2521 10.7201 16.3109 10.7003 15.4679 11.5433C15.2499 11.7613 15.2499 12.1151 15.4679 12.3331L16.3228 13.188C16.4275 13.2925 16.5703 13.3521 16.7177 13.3521C16.8659 13.3521 17.0079 13.2925 17.1127 13.188C17.2323 13.0682 17.2705 13.0444 17.7668 13.0563C18.3243 13.0698 19.2679 13.0873 20.1118 12.2444C20.9547 11.4014 20.9356 10.4609 20.9237 9.89872C20.9134 9.40307 20.9356 9.36485 21.0545 9.24594C21.175 9.12546 21.2123 9.1041 21.7089 9.11354C22.2695 9.12456 23.21 9.14614 24.0545 8.30072C24.8981 7.4571 24.8793 6.51727 24.8674 5.95508C24.8577 5.45943 24.8799 5.42144 24.9998 5.30095C25.1045 5.1962 25.1632 5.05414 25.1632 4.906C25.1632 4.75855 25.1045 4.61581 24.9998 4.51106L24.1449 3.6562C23.9268 3.43883 23.573 3.43883 23.355 3.6562C22.5114 4.49982 22.5312 5.44032 22.5422 6.00273C22.5525 6.49749 22.5303 6.53548 22.4098 6.65619C22.29 6.77667 22.252 6.79645 21.7563 6.78769C21.1982 6.77667 20.2545 6.75757 19.4107 7.60141ZM12.8296 9.69484C12.9382 9.80431 13.0809 9.85893 13.2246 9.85893C13.3673 9.85893 13.5101 9.80431 13.6186 9.69551C13.7391 9.57503 13.7764 9.55053 14.2736 9.56312C14.8311 9.57436 15.7757 9.59414 16.6186 8.75119C17.4616 7.90824 17.4425 6.96774 17.4305 6.40465C17.4195 5.91057 17.4425 5.87191 17.5614 5.75277C17.6821 5.63229 17.7185 5.61093 18.2157 5.62037C18.7748 5.63386 19.7175 5.65139 20.5614 4.80755C21.405 3.96393 21.3861 3.02342 21.3742 2.46124C21.3638 1.96626 21.3861 1.92827 21.5057 1.80846C21.6113 1.70393 21.67 1.56119 21.67 1.41283C21.67 1.26538 21.6113 1.12264 21.5066 1.01789L20.6517 0.163026C20.4337 -0.0543419 20.0801 -0.0543419 19.8618 0.163026C19.0182 1.00687 19.038 1.94738 19.049 2.50867C19.0593 3.00522 19.0371 3.04321 18.9166 3.16302C18.7961 3.2826 18.7565 3.30328 18.2631 3.29452C17.705 3.28418 16.7614 3.26372 15.9168 4.10824C15.0739 4.95186 15.0937 5.89169 15.1047 6.45298C15.1159 6.94796 15.0937 6.98595 14.9739 7.10643C14.854 7.22534 14.8161 7.2485 14.3197 7.23816C13.7614 7.22624 12.8177 7.20714 11.9748 8.05008C11.7567 8.26812 11.7567 8.62194 11.9748 8.83998L12.8296 9.69484Z" fill="#62CF80"/>
<path d="M25.7168 19.297C25.4244 19.2001 24.8858 19.0916 24.6677 19.3096L23.8129 20.1645C23.5948 20.3825 23.5393 20.8116 23.8129 20.9544C24.8541 21.4952 26.5258 22.3071 28.5496 24.3895C30.4692 26.365 31.1292 27.7701 31.7001 28.8414C31.773 28.977 31.9521 29.0049 32.0949 29.0049C32.2376 29.0049 32.3812 28.95 32.4898 28.8414L33.3447 27.9859C33.5627 27.7676 33.4526 27.3378 33.3447 27.0492C33.0219 26.1824 32.0679 24.3895 30.3773 22.6252C28.7968 20.9766 26.5186 19.5627 25.7168 19.297Z" fill="#62CF80"/>
<path d="M29.0382 16.0795C28.7455 15.9826 28.2071 15.874 27.9891 16.0921L27.1342 16.9469C26.916 17.165 26.8607 17.5941 27.1342 17.7368C28.1754 18.2777 29.8469 19.0896 31.8707 21.172C33.7906 23.1474 34.4503 24.5526 35.0213 25.6239C35.0941 25.7594 35.2735 25.7873 35.4162 25.7873C35.559 25.7873 35.7024 25.7327 35.8112 25.6239L36.666 24.769C36.8841 24.551 36.7737 24.1205 36.666 23.8317C36.3433 22.9651 35.3893 21.172 33.6987 19.4084C32.1182 17.7591 29.8398 16.3452 29.0382 16.0795Z" fill="#62CF80"/>
<path d="M32.2471 12.9405C31.9544 12.8438 31.416 12.735 31.198 12.9533L30.3431 13.8081C30.1251 14.0262 30.0696 14.4551 30.3431 14.5978C31.3843 15.1387 33.0559 15.9508 35.0796 18.0332C36.9995 20.0084 37.6592 21.4135 38.2302 22.4849C38.3032 22.6206 38.4824 22.6483 38.6251 22.6483C38.7679 22.6483 38.9113 22.5937 39.0201 22.4849L39.875 21.6302C40.093 21.412 39.9826 20.9815 39.875 20.6929C39.5522 19.8261 38.5982 18.0332 36.9076 16.2695C35.3271 14.6201 33.0487 13.2062 32.2471 12.9405Z" fill="#62CF80"/>
</svg>
