<svg width="41" height="40" viewBox="0 0 41 40" fill="none" xmlns="http://www.w3.org/2000/svg">
<path d="M15.9713 23.8689C15.9771 22.6777 15.9261 22.0821 15.4837 21.9678C15.1918 21.8926 14.7285 22.031 13.9949 22.3438C11.6997 23.3906 10.9929 23.5982 8.49885 23.9832C7.45549 24.1396 6.47458 24.3712 5.47902 24.5307C4.87734 24.6269 4.85312 27.1476 5.34644 27.7433C6.75757 28.76 11.1344 27.4545 12.7373 26.9882C14.861 26.3836 15.9592 26.3926 15.9713 23.8719" fill="#B7C03C"/>
<path d="M31.3756 35.6903C30.5725 34.9925 27.9013 32.2732 26.1058 32.2642C24.3097 32.2672 21.7832 35.5008 20.8297 35.6903C20.3874 35.6753 18.33 34.048 17.8609 33.696C16.5128 32.7004 15.8666 31.7077 14.1967 32.947C13.2674 33.6388 9.56747 36.2228 9.4502 37.08C9.50118 37.6095 10.5452 38.5059 11.0385 38.8037C11.7874 39.2578 12.0194 39.1616 12.5784 38.5841C13.3216 37.811 14.6122 36.2017 15.9564 36.671C16.7901 37.0921 17.2592 37.4711 17.9361 38.1028C18.1585 38.3163 18.3784 38.5269 18.5977 38.7405C21.2115 41.2642 21.5996 39.5106 23.7476 37.6997C24.3218 37.2304 25.2301 36.4423 26.0395 36.5416C26.0606 36.5416 26.0816 36.5476 26.1026 36.5536C26.1237 36.5506 26.1479 36.5476 26.1689 36.5446C26.9784 36.4453 27.8834 37.2334 28.4583 37.7027C30.5725 39.3752 30.236 39.0172 32.7835 38.2893C33.3941 38.1148 31.7095 35.9821 31.3756 35.6934" fill="#B7C03C"/>
<path d="M34.2574 14.7152C30.0642 14.0413 25.5975 11.9538 21.8912 9.91135C21.3259 9.59846 20.9014 9.46615 20.5349 9.4541C20.1678 9.46315 19.7408 9.59846 19.1748 9.91135C15.466 11.9538 11.0025 14.0413 6.80926 14.7152C6.09605 14.8294 5.2235 14.7392 5.08519 15.4671C4.95899 16.135 4.89016 17.9367 5.5817 18.2556C7.58813 19.1761 13.8541 16.8479 15.9714 16.0477C16.4679 15.7951 17.6738 14.9889 18.1824 15.4461C18.844 16.3335 18.2755 23.0023 18.1977 24.5123C18.134 26.3021 17.8727 28.0768 19.2806 29.4455C19.7255 29.8787 20.0894 30.1734 20.5317 30.1434C20.9741 30.1764 21.338 29.8817 21.7861 29.4455C23.194 28.0738 22.9321 26.3021 22.869 24.5123C22.7937 23.0053 22.222 16.3365 22.8843 15.4491C23.3954 14.9919 24.5988 15.7981 25.0946 16.0507C27.2126 16.8509 33.4785 19.1791 35.4843 18.2586C36.1765 17.9398 36.107 16.138 35.9808 15.4702C35.8425 14.7423 34.97 14.8324 34.2574 14.7182" fill="#B7C03C"/>
<path d="M35.58 24.5307C34.5819 24.3712 33.601 24.1396 32.5602 23.9832C30.0668 23.5982 29.36 23.3936 27.0648 22.3438C26.3338 22.0279 25.8704 21.8926 25.5753 21.9678C25.1336 22.0821 25.082 22.6777 25.0884 23.8689C25.1005 26.3896 26.198 26.3836 28.3217 26.9852C29.9253 27.4545 34.3021 28.7569 35.7126 27.7402C36.2059 27.1476 36.1817 24.6239 35.58 24.5276" fill="#B7C03C"/>
<path d="M39.187 7.13504C36.8351 6.75 30.6412 5.17986 28.325 4.28946C25.9279 3.33895 24.6462 2.33727 22.6072 0.860303C21.801 0.276744 21.133 0.0240669 20.5313 0C19.9297 0.0210586 19.2623 0.273736 18.4561 0.857295C16.4165 2.33421 15.1348 3.33589 12.7376 4.28646C10.4214 5.17686 4.21287 7.61032 1.86354 7.99535C1.11152 8.11868 0.398625 8.13972 0.185044 8.91584C-0.0315328 9.70693 -0.0886427 11.3162 0.864856 11.6471C3.47589 12.4202 14.9697 7.58024 17.4541 6.39206C19.0214 5.64309 19.5147 4.7467 20.5313 4.78877C21.5479 4.74371 22.0413 5.64309 23.6117 6.39206C26.0962 7.58024 37.5777 11.5569 40.189 10.7838C41.1393 10.4529 41.0851 8.84362 40.869 8.05252C40.6549 7.27647 39.9391 7.25537 39.1902 7.13204" fill="#B7C03C"/>
</svg>
