<svg width="45" height="40" viewBox="0 0 45 40" fill="none" xmlns="http://www.w3.org/2000/svg">
<path d="M17.4101 17.7546C22.298 25.2227 27.0167 32.4237 31.9289 39.9282C27.3065 40.1103 22.9983 39.8918 18.7012 39.8675C14.393 39.8432 10.0723 39.7582 5.4375 39.6854C9.48079 32.278 13.3668 25.1742 17.4101 17.7668" fill="#4E586B"/>
<path d="M21.2473 11.3308C14.5004 15.8116 7.72986 20.3046 0.657054 25.0041C0.536394 21.9804 0.681306 19.2603 0.693727 16.5402C0.693727 13.8201 0.754059 11.1122 0.790138 8.3921C0.826218 5.63555 0.862297 2.87906 0.898968 0.243959C1.06754 0.0860952 1.10362 0.0496664 1.15212 0.0253806C1.20062 0.00109482 1.26095 -0.0110479 1.30886 0.0132379C1.82817 0.256102 2.37114 0.486823 2.87803 0.766121C8.94889 4.12978 15.0073 7.50566 21.0663 10.8936C21.1385 10.93 21.1509 11.0758 21.2592 11.3429" fill="#4E586B"/>
<path d="M44.7223 30.3227C37.9269 26.5826 31.458 23.0368 24.6992 19.3088C31.5668 14.7793 38.1203 10.4563 44.9512 5.95117C45.0843 10.2256 44.9033 14.1843 44.879 18.143C44.8548 22.0653 44.7826 25.9997 44.7223 30.3227Z" fill="#4E586B"/>
</svg>
