<svg width="36" height="40" viewBox="0 0 36 40" fill="none" xmlns="http://www.w3.org/2000/svg">
<path d="M16.5947 1.31794C16.0429 0.996557 15.3823 0.996557 14.8291 1.31794L1.15818 9.26704C0.613871 9.58244 0.275391 10.1726 0.275391 10.8049V29.2171C0.275391 29.8494 0.613871 30.4396 1.15818 30.7565L14.8306 38.7055C15.102 38.8632 15.4062 38.9458 15.7134 38.9458C16.0206 38.9458 16.3248 38.8632 16.5947 38.7055C17.1464 38.3857 17.4774 37.809 17.4774 37.1677V2.8558C17.4774 2.21453 17.1479 1.63933 16.5961 1.31794H16.5947ZM15.8491 2.8558V37.1677C15.8491 37.2203 15.8267 37.2608 15.7805 37.2863C15.7119 37.3269 15.6612 37.2953 15.6433 37.2863L1.97084 29.3372C1.92911 29.3132 1.90228 29.2666 1.90228 29.2186V10.8064C1.90228 10.7568 1.92911 10.7118 1.97084 10.6878L15.6433 2.73716C15.6671 2.72364 15.688 2.71764 15.7089 2.71764C15.7432 2.71764 15.773 2.73265 15.779 2.73716C15.8491 2.77771 15.8491 2.83778 15.8491 2.8573V2.8558Z" fill="#1AC6BC"/>
<path d="M19.6833 16.7084C19.9547 16.8661 20.259 16.9487 20.5643 16.9487C20.8701 16.9487 21.1759 16.8661 21.4458 16.7084L32.9587 10.0133C33.5121 9.69195 33.8418 9.11676 33.8418 8.47397C33.8418 7.83119 33.5121 7.25752 32.9587 6.9361L21.4473 0.241041C20.8954 -0.080347 20.2347 -0.080347 19.6833 0.241041C19.1314 0.56243 18.8018 1.13762 18.8018 1.7789V15.1691C18.8018 15.8118 19.1314 16.387 19.6848 16.7069L19.6833 16.7084ZM20.4271 15.1705V1.7804C20.4271 1.76088 20.4271 1.7008 20.4959 1.66176C20.5035 1.65725 20.5329 1.64223 20.5673 1.64223C20.5896 1.64223 20.6094 1.64824 20.6332 1.66176L32.1461 8.35681C32.1628 8.36734 32.2149 8.3959 32.2149 8.47549C32.2149 8.55509 32.1643 8.58511 32.1461 8.59559L20.6347 15.2907C20.6164 15.3012 20.5658 15.3297 20.4959 15.2907C20.4271 15.2516 20.4271 15.1916 20.4271 15.1721V15.1705Z" fill="#1AC6BC"/>
<path d="M32.9598 29.9888L21.4469 23.2938C20.895 22.9724 20.2342 22.9724 19.6828 23.2938C19.1309 23.6136 18.7998 24.1904 18.7998 24.8316V38.2203C18.7998 38.8631 19.1294 39.4383 19.6828 39.7596C19.9542 39.9173 20.2585 39.9999 20.5639 39.9999C20.8697 39.9999 21.1755 39.9173 21.4454 39.7596L32.9588 33.0646C33.5117 32.7432 33.8413 32.168 33.8413 31.5252C33.8413 30.8839 33.5117 30.3087 32.9588 29.9874L32.9598 29.9888ZM20.4955 38.3404C20.4509 38.3149 20.4282 38.2744 20.4282 38.2218V24.8331C20.4282 24.7806 20.4509 24.74 20.4985 24.713C20.5046 24.71 20.5325 24.6934 20.5669 24.6934C20.5892 24.6934 20.6104 24.6995 20.6342 24.713L32.1471 31.4081C32.1639 31.4186 32.216 31.4471 32.216 31.5267C32.216 31.6063 32.1654 31.6363 32.1471 31.6469L20.6358 38.3419C20.619 38.3524 20.5669 38.381 20.497 38.3419L20.4955 38.3404Z" fill="#1AC6BC"/>
<path d="M35.12 11.7974C34.5681 11.4761 33.9093 11.4761 33.3559 11.7974L21.8425 18.4925C21.2911 18.8139 20.96 19.3876 20.96 20.0303C20.96 20.6731 21.2896 21.2498 21.8415 21.5712L33.3544 28.2648C33.6258 28.4225 33.9301 28.5051 34.2359 28.5051C34.5412 28.5051 34.8455 28.4225 35.1169 28.2648C35.6688 27.9434 36 27.3682 36 26.7254V13.3368C36 12.694 35.6703 12.1188 35.1184 11.7974H35.12ZM34.3746 13.3368V26.7254C34.3746 26.778 34.3519 26.8185 34.3043 26.8456C34.2374 26.8846 34.1853 26.8546 34.1686 26.8456L22.6567 20.152C22.6389 20.1415 22.5868 20.1114 22.5868 20.0303C22.5868 19.9493 22.6374 19.9207 22.6552 19.9117L34.1686 13.2166C34.1908 13.2031 34.2136 13.1971 34.2344 13.1971C34.2683 13.1971 34.2967 13.2121 34.3027 13.2166C34.3731 13.2572 34.3731 13.3173 34.3731 13.3368H34.3746Z" fill="#1AC6BC"/>
</svg>
