<svg width="20" height="40" viewBox="0 0 20 40" fill="none" xmlns="http://www.w3.org/2000/svg">
<path d="M19.9979 14.8963C20.0039 14.737 19.9324 14.5762 19.7769 14.4553L7.49038 4.80561V1.23626C7.49038 0.553406 6.9358 0 6.25196 0C5.56811 0 5.01354 0.553406 5.01354 1.23626V2.85946L2.14474 0.607464C1.84809 0.374153 1.36618 0.374153 1.06834 0.607464L0.391646 1.1381C0.0949972 1.37141 0.0949972 1.74983 0.391646 1.98314L5.01235 5.61085V13.4068L2.14295 11.1548C1.8469 10.9215 1.36499 10.9215 1.06715 11.1548L0.390456 11.6854C0.0938064 11.9188 0.0938064 12.2972 0.390456 12.5305L5.01056 16.1582V24.1804L0.391646 27.8095C0.0949972 28.0428 0.0949972 28.4212 0.391646 28.6545L1.06834 29.1852C1.36499 29.4185 1.8469 29.4185 2.14474 29.1852L5.01354 26.9331V34.7292L0.391646 38.3554C0.0949972 38.5887 0.0949972 38.9671 0.391646 39.2005L1.06834 39.7311C1.36499 39.9644 1.8469 39.9644 2.14474 39.7311L5.01354 37.4791V38.7637C5.01354 39.4466 5.56811 40 6.25196 40C6.9358 40 7.49038 39.4466 7.49038 38.7637V35.5329L19.7787 25.8833C19.9324 25.7623 20.005 25.6016 19.9997 25.4423C20.005 25.2829 19.9342 25.1222 19.7787 25.0012L13.6247 20.1686L19.7787 15.3359C19.9324 15.215 20.005 15.0542 19.9997 14.8949L19.9979 14.8963ZM7.49038 18.1044L10.1197 20.17L7.49038 22.2357V18.1044ZM16.8354 25.4437L7.49038 32.783V24.987L11.8728 21.5457L16.8372 25.4437H16.8354ZM7.49038 15.353V7.557L16.8354 14.8963L11.8716 18.7943L7.48919 15.353H7.49038Z" fill="#A276C2"/>
</svg>
