<svg width="34" height="40" viewBox="0 0 34 40" fill="none" xmlns="http://www.w3.org/2000/svg">
<path d="M16.723 12.2379C16.6184 13.5297 16.1809 20.1361 15.2204 22.3887C14.9582 23.0062 14.7463 23.2927 14.0751 23.0629C11.9747 22.313 9.70178 20.1104 7.90709 18.7578C7.09332 18.1429 7.46421 18.9307 7.72233 19.3186C9.05378 21.309 10.3824 22.7602 10.858 25.1466C11.1297 26.5101 10.4898 27.1884 9.73307 27.5181C7.9234 28.3329 7.85818 28.2627 4.74973 29.4829C3.82183 29.8477 0.663096 31.0828 0.866843 31.4301C1.07064 31.7773 3.89246 30.9922 7.19114 30.8936C9.68415 30.8193 10.5156 30.7963 8.46957 33.9231C7.86907 34.8406 9.02117 34.2461 10.6175 33.4515C11.4612 33.0313 13.673 32.0557 15.0411 32.7002C16.7203 33.4921 16.9825 38.0797 17.4893 39.6985C17.6917 40.3525 17.8656 39.7917 17.9811 39.431C18.4471 37.9824 19.6454 32.7489 22.2661 32.7245C23.3013 32.7151 23.588 32.861 25.3351 33.6502C30.2453 35.8676 24.827 32.4678 24.645 30.8949C24.5608 30.1679 25.4982 30.4558 27.6665 30.6733C30.9501 31.003 33.787 31.5571 33.9906 31.2098C34.1956 30.8625 31.0356 29.6261 30.108 29.2626C26.9994 28.0424 26.9342 28.1126 25.1246 27.2979C24.2224 26.8776 23.8489 26.3722 24.3121 25.1615C24.9588 23.4724 26.1584 21.636 27.2983 19.7118C28.2129 18.1686 27.3065 18.8335 26.5225 19.4213C24.9112 20.632 23.2728 22.1954 21.4591 23.0548C20.758 23.3602 20.3749 23.3575 20.0719 22.6075C19.5462 21.3063 19.2948 18.8442 19.1155 17.4443C18.4348 11.9366 18.2949 6.43954 17.7746 0.934441C17.5096 -1.88297 17.3914 2.533 17.3697 2.91001C17.3493 3.26269 17.3262 3.61402 17.299 3.96805C17.0858 6.72197 16.9499 9.48263 16.723 12.2406" fill="#FC8E5D"/>
</svg>
